%TF.GenerationSoftware,KiCad,Pcbnew,7.0.5*%
%TF.CreationDate,2024-01-01T18:42:22-08:00*%
%TF.ProjectId,plate,706c6174-652e-46b6-9963-61645f706362,rev?*%
%TF.SameCoordinates,Original*%
%TF.FileFunction,Legend,Top*%
%TF.FilePolarity,Positive*%
%FSLAX46Y46*%
G04 Gerber Fmt 4.6, Leading zero omitted, Abs format (unit mm)*
G04 Created by KiCad (PCBNEW 7.0.5) date 2024-01-01 18:42:22*
%MOMM*%
%LPD*%
G01*
G04 APERTURE LIST*
%ADD10C,0.100000*%
G04 APERTURE END LIST*
D10*
%TO.C,REF\u002A\u002A*%
X115916666Y-126057419D02*
X115583333Y-125581228D01*
X115345238Y-126057419D02*
X115345238Y-125057419D01*
X115345238Y-125057419D02*
X115726190Y-125057419D01*
X115726190Y-125057419D02*
X115821428Y-125105038D01*
X115821428Y-125105038D02*
X115869047Y-125152657D01*
X115869047Y-125152657D02*
X115916666Y-125247895D01*
X115916666Y-125247895D02*
X115916666Y-125390752D01*
X115916666Y-125390752D02*
X115869047Y-125485990D01*
X115869047Y-125485990D02*
X115821428Y-125533609D01*
X115821428Y-125533609D02*
X115726190Y-125581228D01*
X115726190Y-125581228D02*
X115345238Y-125581228D01*
X116345238Y-125533609D02*
X116678571Y-125533609D01*
X116821428Y-126057419D02*
X116345238Y-126057419D01*
X116345238Y-126057419D02*
X116345238Y-125057419D01*
X116345238Y-125057419D02*
X116821428Y-125057419D01*
X117583333Y-125533609D02*
X117250000Y-125533609D01*
X117250000Y-126057419D02*
X117250000Y-125057419D01*
X117250000Y-125057419D02*
X117726190Y-125057419D01*
X118250000Y-125057419D02*
X118250000Y-125295514D01*
X118011905Y-125200276D02*
X118250000Y-125295514D01*
X118250000Y-125295514D02*
X118488095Y-125200276D01*
X118107143Y-125485990D02*
X118250000Y-125295514D01*
X118250000Y-125295514D02*
X118392857Y-125485990D01*
X119011905Y-125057419D02*
X119011905Y-125295514D01*
X118773810Y-125200276D02*
X119011905Y-125295514D01*
X119011905Y-125295514D02*
X119250000Y-125200276D01*
X118869048Y-125485990D02*
X119011905Y-125295514D01*
X119011905Y-125295514D02*
X119154762Y-125485990D01*
X137766666Y-106557419D02*
X137433333Y-106081228D01*
X137195238Y-106557419D02*
X137195238Y-105557419D01*
X137195238Y-105557419D02*
X137576190Y-105557419D01*
X137576190Y-105557419D02*
X137671428Y-105605038D01*
X137671428Y-105605038D02*
X137719047Y-105652657D01*
X137719047Y-105652657D02*
X137766666Y-105747895D01*
X137766666Y-105747895D02*
X137766666Y-105890752D01*
X137766666Y-105890752D02*
X137719047Y-105985990D01*
X137719047Y-105985990D02*
X137671428Y-106033609D01*
X137671428Y-106033609D02*
X137576190Y-106081228D01*
X137576190Y-106081228D02*
X137195238Y-106081228D01*
X138195238Y-106033609D02*
X138528571Y-106033609D01*
X138671428Y-106557419D02*
X138195238Y-106557419D01*
X138195238Y-106557419D02*
X138195238Y-105557419D01*
X138195238Y-105557419D02*
X138671428Y-105557419D01*
X139433333Y-106033609D02*
X139100000Y-106033609D01*
X139100000Y-106557419D02*
X139100000Y-105557419D01*
X139100000Y-105557419D02*
X139576190Y-105557419D01*
X140100000Y-105557419D02*
X140100000Y-105795514D01*
X139861905Y-105700276D02*
X140100000Y-105795514D01*
X140100000Y-105795514D02*
X140338095Y-105700276D01*
X139957143Y-105985990D02*
X140100000Y-105795514D01*
X140100000Y-105795514D02*
X140242857Y-105985990D01*
X140861905Y-105557419D02*
X140861905Y-105795514D01*
X140623810Y-105700276D02*
X140861905Y-105795514D01*
X140861905Y-105795514D02*
X141100000Y-105700276D01*
X140719048Y-105985990D02*
X140861905Y-105795514D01*
X140861905Y-105795514D02*
X141004762Y-105985990D01*
X157266666Y-67557419D02*
X156933333Y-67081228D01*
X156695238Y-67557419D02*
X156695238Y-66557419D01*
X156695238Y-66557419D02*
X157076190Y-66557419D01*
X157076190Y-66557419D02*
X157171428Y-66605038D01*
X157171428Y-66605038D02*
X157219047Y-66652657D01*
X157219047Y-66652657D02*
X157266666Y-66747895D01*
X157266666Y-66747895D02*
X157266666Y-66890752D01*
X157266666Y-66890752D02*
X157219047Y-66985990D01*
X157219047Y-66985990D02*
X157171428Y-67033609D01*
X157171428Y-67033609D02*
X157076190Y-67081228D01*
X157076190Y-67081228D02*
X156695238Y-67081228D01*
X157695238Y-67033609D02*
X158028571Y-67033609D01*
X158171428Y-67557419D02*
X157695238Y-67557419D01*
X157695238Y-67557419D02*
X157695238Y-66557419D01*
X157695238Y-66557419D02*
X158171428Y-66557419D01*
X158933333Y-67033609D02*
X158600000Y-67033609D01*
X158600000Y-67557419D02*
X158600000Y-66557419D01*
X158600000Y-66557419D02*
X159076190Y-66557419D01*
X159600000Y-66557419D02*
X159600000Y-66795514D01*
X159361905Y-66700276D02*
X159600000Y-66795514D01*
X159600000Y-66795514D02*
X159838095Y-66700276D01*
X159457143Y-66985990D02*
X159600000Y-66795514D01*
X159600000Y-66795514D02*
X159742857Y-66985990D01*
X160361905Y-66557419D02*
X160361905Y-66795514D01*
X160123810Y-66700276D02*
X160361905Y-66795514D01*
X160361905Y-66795514D02*
X160600000Y-66700276D01*
X160219048Y-66985990D02*
X160361905Y-66795514D01*
X160361905Y-66795514D02*
X160504762Y-66985990D01*
X157266666Y-87057419D02*
X156933333Y-86581228D01*
X156695238Y-87057419D02*
X156695238Y-86057419D01*
X156695238Y-86057419D02*
X157076190Y-86057419D01*
X157076190Y-86057419D02*
X157171428Y-86105038D01*
X157171428Y-86105038D02*
X157219047Y-86152657D01*
X157219047Y-86152657D02*
X157266666Y-86247895D01*
X157266666Y-86247895D02*
X157266666Y-86390752D01*
X157266666Y-86390752D02*
X157219047Y-86485990D01*
X157219047Y-86485990D02*
X157171428Y-86533609D01*
X157171428Y-86533609D02*
X157076190Y-86581228D01*
X157076190Y-86581228D02*
X156695238Y-86581228D01*
X157695238Y-86533609D02*
X158028571Y-86533609D01*
X158171428Y-87057419D02*
X157695238Y-87057419D01*
X157695238Y-87057419D02*
X157695238Y-86057419D01*
X157695238Y-86057419D02*
X158171428Y-86057419D01*
X158933333Y-86533609D02*
X158600000Y-86533609D01*
X158600000Y-87057419D02*
X158600000Y-86057419D01*
X158600000Y-86057419D02*
X159076190Y-86057419D01*
X159600000Y-86057419D02*
X159600000Y-86295514D01*
X159361905Y-86200276D02*
X159600000Y-86295514D01*
X159600000Y-86295514D02*
X159838095Y-86200276D01*
X159457143Y-86485990D02*
X159600000Y-86295514D01*
X159600000Y-86295514D02*
X159742857Y-86485990D01*
X160361905Y-86057419D02*
X160361905Y-86295514D01*
X160123810Y-86200276D02*
X160361905Y-86295514D01*
X160361905Y-86295514D02*
X160600000Y-86200276D01*
X160219048Y-86485990D02*
X160361905Y-86295514D01*
X160361905Y-86295514D02*
X160504762Y-86485990D01*
X176766666Y-106557419D02*
X176433333Y-106081228D01*
X176195238Y-106557419D02*
X176195238Y-105557419D01*
X176195238Y-105557419D02*
X176576190Y-105557419D01*
X176576190Y-105557419D02*
X176671428Y-105605038D01*
X176671428Y-105605038D02*
X176719047Y-105652657D01*
X176719047Y-105652657D02*
X176766666Y-105747895D01*
X176766666Y-105747895D02*
X176766666Y-105890752D01*
X176766666Y-105890752D02*
X176719047Y-105985990D01*
X176719047Y-105985990D02*
X176671428Y-106033609D01*
X176671428Y-106033609D02*
X176576190Y-106081228D01*
X176576190Y-106081228D02*
X176195238Y-106081228D01*
X177195238Y-106033609D02*
X177528571Y-106033609D01*
X177671428Y-106557419D02*
X177195238Y-106557419D01*
X177195238Y-106557419D02*
X177195238Y-105557419D01*
X177195238Y-105557419D02*
X177671428Y-105557419D01*
X178433333Y-106033609D02*
X178100000Y-106033609D01*
X178100000Y-106557419D02*
X178100000Y-105557419D01*
X178100000Y-105557419D02*
X178576190Y-105557419D01*
X179100000Y-105557419D02*
X179100000Y-105795514D01*
X178861905Y-105700276D02*
X179100000Y-105795514D01*
X179100000Y-105795514D02*
X179338095Y-105700276D01*
X178957143Y-105985990D02*
X179100000Y-105795514D01*
X179100000Y-105795514D02*
X179242857Y-105985990D01*
X179861905Y-105557419D02*
X179861905Y-105795514D01*
X179623810Y-105700276D02*
X179861905Y-105795514D01*
X179861905Y-105795514D02*
X180100000Y-105700276D01*
X179719048Y-105985990D02*
X179861905Y-105795514D01*
X179861905Y-105795514D02*
X180004762Y-105985990D01*
X176766666Y-67557419D02*
X176433333Y-67081228D01*
X176195238Y-67557419D02*
X176195238Y-66557419D01*
X176195238Y-66557419D02*
X176576190Y-66557419D01*
X176576190Y-66557419D02*
X176671428Y-66605038D01*
X176671428Y-66605038D02*
X176719047Y-66652657D01*
X176719047Y-66652657D02*
X176766666Y-66747895D01*
X176766666Y-66747895D02*
X176766666Y-66890752D01*
X176766666Y-66890752D02*
X176719047Y-66985990D01*
X176719047Y-66985990D02*
X176671428Y-67033609D01*
X176671428Y-67033609D02*
X176576190Y-67081228D01*
X176576190Y-67081228D02*
X176195238Y-67081228D01*
X177195238Y-67033609D02*
X177528571Y-67033609D01*
X177671428Y-67557419D02*
X177195238Y-67557419D01*
X177195238Y-67557419D02*
X177195238Y-66557419D01*
X177195238Y-66557419D02*
X177671428Y-66557419D01*
X178433333Y-67033609D02*
X178100000Y-67033609D01*
X178100000Y-67557419D02*
X178100000Y-66557419D01*
X178100000Y-66557419D02*
X178576190Y-66557419D01*
X179100000Y-66557419D02*
X179100000Y-66795514D01*
X178861905Y-66700276D02*
X179100000Y-66795514D01*
X179100000Y-66795514D02*
X179338095Y-66700276D01*
X178957143Y-66985990D02*
X179100000Y-66795514D01*
X179100000Y-66795514D02*
X179242857Y-66985990D01*
X179861905Y-66557419D02*
X179861905Y-66795514D01*
X179623810Y-66700276D02*
X179861905Y-66795514D01*
X179861905Y-66795514D02*
X180100000Y-66700276D01*
X179719048Y-66985990D02*
X179861905Y-66795514D01*
X179861905Y-66795514D02*
X180004762Y-66985990D01*
X176766666Y-87057419D02*
X176433333Y-86581228D01*
X176195238Y-87057419D02*
X176195238Y-86057419D01*
X176195238Y-86057419D02*
X176576190Y-86057419D01*
X176576190Y-86057419D02*
X176671428Y-86105038D01*
X176671428Y-86105038D02*
X176719047Y-86152657D01*
X176719047Y-86152657D02*
X176766666Y-86247895D01*
X176766666Y-86247895D02*
X176766666Y-86390752D01*
X176766666Y-86390752D02*
X176719047Y-86485990D01*
X176719047Y-86485990D02*
X176671428Y-86533609D01*
X176671428Y-86533609D02*
X176576190Y-86581228D01*
X176576190Y-86581228D02*
X176195238Y-86581228D01*
X177195238Y-86533609D02*
X177528571Y-86533609D01*
X177671428Y-87057419D02*
X177195238Y-87057419D01*
X177195238Y-87057419D02*
X177195238Y-86057419D01*
X177195238Y-86057419D02*
X177671428Y-86057419D01*
X178433333Y-86533609D02*
X178100000Y-86533609D01*
X178100000Y-87057419D02*
X178100000Y-86057419D01*
X178100000Y-86057419D02*
X178576190Y-86057419D01*
X179100000Y-86057419D02*
X179100000Y-86295514D01*
X178861905Y-86200276D02*
X179100000Y-86295514D01*
X179100000Y-86295514D02*
X179338095Y-86200276D01*
X178957143Y-86485990D02*
X179100000Y-86295514D01*
X179100000Y-86295514D02*
X179242857Y-86485990D01*
X179861905Y-86057419D02*
X179861905Y-86295514D01*
X179623810Y-86200276D02*
X179861905Y-86295514D01*
X179861905Y-86295514D02*
X180100000Y-86200276D01*
X179719048Y-86485990D02*
X179861905Y-86295514D01*
X179861905Y-86295514D02*
X180004762Y-86485990D01*
X137766666Y-126057419D02*
X137433333Y-125581228D01*
X137195238Y-126057419D02*
X137195238Y-125057419D01*
X137195238Y-125057419D02*
X137576190Y-125057419D01*
X137576190Y-125057419D02*
X137671428Y-125105038D01*
X137671428Y-125105038D02*
X137719047Y-125152657D01*
X137719047Y-125152657D02*
X137766666Y-125247895D01*
X137766666Y-125247895D02*
X137766666Y-125390752D01*
X137766666Y-125390752D02*
X137719047Y-125485990D01*
X137719047Y-125485990D02*
X137671428Y-125533609D01*
X137671428Y-125533609D02*
X137576190Y-125581228D01*
X137576190Y-125581228D02*
X137195238Y-125581228D01*
X138195238Y-125533609D02*
X138528571Y-125533609D01*
X138671428Y-126057419D02*
X138195238Y-126057419D01*
X138195238Y-126057419D02*
X138195238Y-125057419D01*
X138195238Y-125057419D02*
X138671428Y-125057419D01*
X139433333Y-125533609D02*
X139100000Y-125533609D01*
X139100000Y-126057419D02*
X139100000Y-125057419D01*
X139100000Y-125057419D02*
X139576190Y-125057419D01*
X140100000Y-125057419D02*
X140100000Y-125295514D01*
X139861905Y-125200276D02*
X140100000Y-125295514D01*
X140100000Y-125295514D02*
X140338095Y-125200276D01*
X139957143Y-125485990D02*
X140100000Y-125295514D01*
X140100000Y-125295514D02*
X140242857Y-125485990D01*
X140861905Y-125057419D02*
X140861905Y-125295514D01*
X140623810Y-125200276D02*
X140861905Y-125295514D01*
X140861905Y-125295514D02*
X141100000Y-125200276D01*
X140719048Y-125485990D02*
X140861905Y-125295514D01*
X140861905Y-125295514D02*
X141004762Y-125485990D01*
X176766666Y-126057419D02*
X176433333Y-125581228D01*
X176195238Y-126057419D02*
X176195238Y-125057419D01*
X176195238Y-125057419D02*
X176576190Y-125057419D01*
X176576190Y-125057419D02*
X176671428Y-125105038D01*
X176671428Y-125105038D02*
X176719047Y-125152657D01*
X176719047Y-125152657D02*
X176766666Y-125247895D01*
X176766666Y-125247895D02*
X176766666Y-125390752D01*
X176766666Y-125390752D02*
X176719047Y-125485990D01*
X176719047Y-125485990D02*
X176671428Y-125533609D01*
X176671428Y-125533609D02*
X176576190Y-125581228D01*
X176576190Y-125581228D02*
X176195238Y-125581228D01*
X177195238Y-125533609D02*
X177528571Y-125533609D01*
X177671428Y-126057419D02*
X177195238Y-126057419D01*
X177195238Y-126057419D02*
X177195238Y-125057419D01*
X177195238Y-125057419D02*
X177671428Y-125057419D01*
X178433333Y-125533609D02*
X178100000Y-125533609D01*
X178100000Y-126057419D02*
X178100000Y-125057419D01*
X178100000Y-125057419D02*
X178576190Y-125057419D01*
X179100000Y-125057419D02*
X179100000Y-125295514D01*
X178861905Y-125200276D02*
X179100000Y-125295514D01*
X179100000Y-125295514D02*
X179338095Y-125200276D01*
X178957143Y-125485990D02*
X179100000Y-125295514D01*
X179100000Y-125295514D02*
X179242857Y-125485990D01*
X179861905Y-125057419D02*
X179861905Y-125295514D01*
X179623810Y-125200276D02*
X179861905Y-125295514D01*
X179861905Y-125295514D02*
X180100000Y-125200276D01*
X179719048Y-125485990D02*
X179861905Y-125295514D01*
X179861905Y-125295514D02*
X180004762Y-125485990D01*
X157266666Y-106557419D02*
X156933333Y-106081228D01*
X156695238Y-106557419D02*
X156695238Y-105557419D01*
X156695238Y-105557419D02*
X157076190Y-105557419D01*
X157076190Y-105557419D02*
X157171428Y-105605038D01*
X157171428Y-105605038D02*
X157219047Y-105652657D01*
X157219047Y-105652657D02*
X157266666Y-105747895D01*
X157266666Y-105747895D02*
X157266666Y-105890752D01*
X157266666Y-105890752D02*
X157219047Y-105985990D01*
X157219047Y-105985990D02*
X157171428Y-106033609D01*
X157171428Y-106033609D02*
X157076190Y-106081228D01*
X157076190Y-106081228D02*
X156695238Y-106081228D01*
X157695238Y-106033609D02*
X158028571Y-106033609D01*
X158171428Y-106557419D02*
X157695238Y-106557419D01*
X157695238Y-106557419D02*
X157695238Y-105557419D01*
X157695238Y-105557419D02*
X158171428Y-105557419D01*
X158933333Y-106033609D02*
X158600000Y-106033609D01*
X158600000Y-106557419D02*
X158600000Y-105557419D01*
X158600000Y-105557419D02*
X159076190Y-105557419D01*
X159600000Y-105557419D02*
X159600000Y-105795514D01*
X159361905Y-105700276D02*
X159600000Y-105795514D01*
X159600000Y-105795514D02*
X159838095Y-105700276D01*
X159457143Y-105985990D02*
X159600000Y-105795514D01*
X159600000Y-105795514D02*
X159742857Y-105985990D01*
X160361905Y-105557419D02*
X160361905Y-105795514D01*
X160123810Y-105700276D02*
X160361905Y-105795514D01*
X160361905Y-105795514D02*
X160600000Y-105700276D01*
X160219048Y-105985990D02*
X160361905Y-105795514D01*
X160361905Y-105795514D02*
X160504762Y-105985990D01*
X157266666Y-126057419D02*
X156933333Y-125581228D01*
X156695238Y-126057419D02*
X156695238Y-125057419D01*
X156695238Y-125057419D02*
X157076190Y-125057419D01*
X157076190Y-125057419D02*
X157171428Y-125105038D01*
X157171428Y-125105038D02*
X157219047Y-125152657D01*
X157219047Y-125152657D02*
X157266666Y-125247895D01*
X157266666Y-125247895D02*
X157266666Y-125390752D01*
X157266666Y-125390752D02*
X157219047Y-125485990D01*
X157219047Y-125485990D02*
X157171428Y-125533609D01*
X157171428Y-125533609D02*
X157076190Y-125581228D01*
X157076190Y-125581228D02*
X156695238Y-125581228D01*
X157695238Y-125533609D02*
X158028571Y-125533609D01*
X158171428Y-126057419D02*
X157695238Y-126057419D01*
X157695238Y-126057419D02*
X157695238Y-125057419D01*
X157695238Y-125057419D02*
X158171428Y-125057419D01*
X158933333Y-125533609D02*
X158600000Y-125533609D01*
X158600000Y-126057419D02*
X158600000Y-125057419D01*
X158600000Y-125057419D02*
X159076190Y-125057419D01*
X159600000Y-125057419D02*
X159600000Y-125295514D01*
X159361905Y-125200276D02*
X159600000Y-125295514D01*
X159600000Y-125295514D02*
X159838095Y-125200276D01*
X159457143Y-125485990D02*
X159600000Y-125295514D01*
X159600000Y-125295514D02*
X159742857Y-125485990D01*
X160361905Y-125057419D02*
X160361905Y-125295514D01*
X160123810Y-125200276D02*
X160361905Y-125295514D01*
X160361905Y-125295514D02*
X160600000Y-125200276D01*
X160219048Y-125485990D02*
X160361905Y-125295514D01*
X160361905Y-125295514D02*
X160504762Y-125485990D01*
X137766666Y-87057419D02*
X137433333Y-86581228D01*
X137195238Y-87057419D02*
X137195238Y-86057419D01*
X137195238Y-86057419D02*
X137576190Y-86057419D01*
X137576190Y-86057419D02*
X137671428Y-86105038D01*
X137671428Y-86105038D02*
X137719047Y-86152657D01*
X137719047Y-86152657D02*
X137766666Y-86247895D01*
X137766666Y-86247895D02*
X137766666Y-86390752D01*
X137766666Y-86390752D02*
X137719047Y-86485990D01*
X137719047Y-86485990D02*
X137671428Y-86533609D01*
X137671428Y-86533609D02*
X137576190Y-86581228D01*
X137576190Y-86581228D02*
X137195238Y-86581228D01*
X138195238Y-86533609D02*
X138528571Y-86533609D01*
X138671428Y-87057419D02*
X138195238Y-87057419D01*
X138195238Y-87057419D02*
X138195238Y-86057419D01*
X138195238Y-86057419D02*
X138671428Y-86057419D01*
X139433333Y-86533609D02*
X139100000Y-86533609D01*
X139100000Y-87057419D02*
X139100000Y-86057419D01*
X139100000Y-86057419D02*
X139576190Y-86057419D01*
X140100000Y-86057419D02*
X140100000Y-86295514D01*
X139861905Y-86200276D02*
X140100000Y-86295514D01*
X140100000Y-86295514D02*
X140338095Y-86200276D01*
X139957143Y-86485990D02*
X140100000Y-86295514D01*
X140100000Y-86295514D02*
X140242857Y-86485990D01*
X140861905Y-86057419D02*
X140861905Y-86295514D01*
X140623810Y-86200276D02*
X140861905Y-86295514D01*
X140861905Y-86295514D02*
X141100000Y-86200276D01*
X140719048Y-86485990D02*
X140861905Y-86295514D01*
X140861905Y-86295514D02*
X141004762Y-86485990D01*
X137766666Y-67557419D02*
X137433333Y-67081228D01*
X137195238Y-67557419D02*
X137195238Y-66557419D01*
X137195238Y-66557419D02*
X137576190Y-66557419D01*
X137576190Y-66557419D02*
X137671428Y-66605038D01*
X137671428Y-66605038D02*
X137719047Y-66652657D01*
X137719047Y-66652657D02*
X137766666Y-66747895D01*
X137766666Y-66747895D02*
X137766666Y-66890752D01*
X137766666Y-66890752D02*
X137719047Y-66985990D01*
X137719047Y-66985990D02*
X137671428Y-67033609D01*
X137671428Y-67033609D02*
X137576190Y-67081228D01*
X137576190Y-67081228D02*
X137195238Y-67081228D01*
X138195238Y-67033609D02*
X138528571Y-67033609D01*
X138671428Y-67557419D02*
X138195238Y-67557419D01*
X138195238Y-67557419D02*
X138195238Y-66557419D01*
X138195238Y-66557419D02*
X138671428Y-66557419D01*
X139433333Y-67033609D02*
X139100000Y-67033609D01*
X139100000Y-67557419D02*
X139100000Y-66557419D01*
X139100000Y-66557419D02*
X139576190Y-66557419D01*
X140100000Y-66557419D02*
X140100000Y-66795514D01*
X139861905Y-66700276D02*
X140100000Y-66795514D01*
X140100000Y-66795514D02*
X140338095Y-66700276D01*
X139957143Y-66985990D02*
X140100000Y-66795514D01*
X140100000Y-66795514D02*
X140242857Y-66985990D01*
X140861905Y-66557419D02*
X140861905Y-66795514D01*
X140623810Y-66700276D02*
X140861905Y-66795514D01*
X140861905Y-66795514D02*
X141100000Y-66700276D01*
X140719048Y-66985990D02*
X140861905Y-66795514D01*
X140861905Y-66795514D02*
X141004762Y-66985990D01*
%TD*%
M02*
