%TF.GenerationSoftware,KiCad,Pcbnew,7.0.5*%
%TF.CreationDate,2024-01-01T18:42:22-08:00*%
%TF.ProjectId,plate,706c6174-652e-46b6-9963-61645f706362,rev?*%
%TF.SameCoordinates,Original*%
%TF.FileFunction,Profile,NP*%
%FSLAX46Y46*%
G04 Gerber Fmt 4.6, Leading zero omitted, Abs format (unit mm)*
G04 Created by KiCad (PCBNEW 7.0.5) date 2024-01-01 18:42:22*
%MOMM*%
%LPD*%
G01*
G04 APERTURE LIST*
%TA.AperFunction,Profile*%
%ADD10C,0.100000*%
%TD*%
%TA.AperFunction,Profile*%
%ADD11C,0.050000*%
%TD*%
G04 APERTURE END LIST*
D10*
X128900000Y-57800001D02*
G75*
G03*
X129199999Y-58100000I300000J1D01*
G01*
X188700000Y-135700000D02*
X188700000Y-131700000D01*
X188700000Y-58800000D02*
X188700000Y-62800000D01*
X183700000Y-57800000D02*
X183700000Y-51800000D01*
X183700000Y-136700000D02*
X183700000Y-142700000D01*
X194700000Y-62800000D02*
X188700000Y-62800000D01*
X187700000Y-57800000D02*
X183700000Y-57800000D01*
X188700000Y-131700000D02*
X194700000Y-131700000D01*
X194700000Y-62800000D02*
X194700000Y-131700000D01*
X128900000Y-51800000D02*
X128900000Y-57800001D01*
X187700000Y-136700000D02*
X183700000Y-136700000D01*
X187700000Y-136700000D02*
G75*
G03*
X188700000Y-135700000I0J1000000D01*
G01*
X105900000Y-115000000D02*
X129200000Y-114999999D01*
X106600000Y-136700000D02*
X106600000Y-142700000D01*
X105600000Y-115300000D02*
X105600000Y-135700000D01*
X129200000Y-114999999D02*
G75*
G03*
X129499999Y-114700000I0J299999D01*
G01*
X188700000Y-58800000D02*
G75*
G03*
X187700000Y-57800000I-1000000J0D01*
G01*
X183700000Y-142700000D02*
X106600000Y-142700000D01*
X183700000Y-51800000D02*
X128900000Y-51800000D01*
X129500000Y-58399999D02*
G75*
G03*
X129200001Y-58100000I-300000J-1D01*
G01*
X129500000Y-58399999D02*
X129500000Y-114700000D01*
X105900000Y-115000000D02*
G75*
G03*
X105600000Y-115300000I0J-300000D01*
G01*
X105600000Y-135700000D02*
G75*
G03*
X106600000Y-136700000I1000000J0D01*
G01*
D11*
%TO.C,REF\u002A\u002A*%
X110250000Y-132800000D02*
X110250000Y-119400000D01*
X123950000Y-119100000D02*
X110550000Y-119100000D01*
X123950000Y-133100000D02*
X110550000Y-133100000D01*
X124250000Y-132800000D02*
X124250000Y-119400000D01*
X110550000Y-119100000D02*
G75*
G03*
X110250000Y-119400000I0J-300000D01*
G01*
X110250000Y-132800000D02*
G75*
G03*
X110550000Y-133100000I300000J0D01*
G01*
X124250000Y-119400000D02*
G75*
G03*
X123950000Y-119100000I-300000J0D01*
G01*
X123950000Y-133100000D02*
G75*
G03*
X124250000Y-132800000I0J300000D01*
G01*
X132100000Y-113300000D02*
X132100000Y-99900000D01*
X145800000Y-99600000D02*
X132400000Y-99600000D01*
X145800000Y-113600000D02*
X132400000Y-113600000D01*
X146100000Y-113300000D02*
X146100000Y-99900000D01*
X132400000Y-99600000D02*
G75*
G03*
X132100000Y-99900000I0J-300000D01*
G01*
X132100000Y-113300000D02*
G75*
G03*
X132400000Y-113600000I300000J0D01*
G01*
X146100000Y-99900000D02*
G75*
G03*
X145800000Y-99600000I-300000J0D01*
G01*
X145800000Y-113600000D02*
G75*
G03*
X146100000Y-113300000I0J300000D01*
G01*
X151600000Y-74300000D02*
X151600000Y-60900000D01*
X165300000Y-60600000D02*
X151900000Y-60600000D01*
X165300000Y-74600000D02*
X151900000Y-74600000D01*
X165600000Y-74300000D02*
X165600000Y-60900000D01*
X151900000Y-60600000D02*
G75*
G03*
X151600000Y-60900000I0J-300000D01*
G01*
X151600000Y-74300000D02*
G75*
G03*
X151900000Y-74600000I300000J0D01*
G01*
X165600000Y-60900000D02*
G75*
G03*
X165300000Y-60600000I-300000J0D01*
G01*
X165300000Y-74600000D02*
G75*
G03*
X165600000Y-74300000I0J300000D01*
G01*
X151600000Y-93800000D02*
X151600000Y-80400000D01*
X165300000Y-80100000D02*
X151900000Y-80100000D01*
X165300000Y-94100000D02*
X151900000Y-94100000D01*
X165600000Y-93800000D02*
X165600000Y-80400000D01*
X151900000Y-80100000D02*
G75*
G03*
X151600000Y-80400000I0J-300000D01*
G01*
X151600000Y-93800000D02*
G75*
G03*
X151900000Y-94100000I300000J0D01*
G01*
X165600000Y-80400000D02*
G75*
G03*
X165300000Y-80100000I-300000J0D01*
G01*
X165300000Y-94100000D02*
G75*
G03*
X165600000Y-93800000I0J300000D01*
G01*
X171100000Y-113300000D02*
X171100000Y-99900000D01*
X184800000Y-99600000D02*
X171400000Y-99600000D01*
X184800000Y-113600000D02*
X171400000Y-113600000D01*
X185100000Y-113300000D02*
X185100000Y-99900000D01*
X171400000Y-99600000D02*
G75*
G03*
X171100000Y-99900000I0J-300000D01*
G01*
X171100000Y-113300000D02*
G75*
G03*
X171400000Y-113600000I300000J0D01*
G01*
X185100000Y-99900000D02*
G75*
G03*
X184800000Y-99600000I-300000J0D01*
G01*
X184800000Y-113600000D02*
G75*
G03*
X185100000Y-113300000I0J300000D01*
G01*
X171100000Y-74300000D02*
X171100000Y-60900000D01*
X184800000Y-60600000D02*
X171400000Y-60600000D01*
X184800000Y-74600000D02*
X171400000Y-74600000D01*
X185100000Y-74300000D02*
X185100000Y-60900000D01*
X171400000Y-60600000D02*
G75*
G03*
X171100000Y-60900000I0J-300000D01*
G01*
X171100000Y-74300000D02*
G75*
G03*
X171400000Y-74600000I300000J0D01*
G01*
X185100000Y-60900000D02*
G75*
G03*
X184800000Y-60600000I-300000J0D01*
G01*
X184800000Y-74600000D02*
G75*
G03*
X185100000Y-74300000I0J300000D01*
G01*
X171100000Y-93800000D02*
X171100000Y-80400000D01*
X184800000Y-80100000D02*
X171400000Y-80100000D01*
X184800000Y-94100000D02*
X171400000Y-94100000D01*
X185100000Y-93800000D02*
X185100000Y-80400000D01*
X171400000Y-80100000D02*
G75*
G03*
X171100000Y-80400000I0J-300000D01*
G01*
X171100000Y-93800000D02*
G75*
G03*
X171400000Y-94100000I300000J0D01*
G01*
X185100000Y-80400000D02*
G75*
G03*
X184800000Y-80100000I-300000J0D01*
G01*
X184800000Y-94100000D02*
G75*
G03*
X185100000Y-93800000I0J300000D01*
G01*
X132100000Y-132800000D02*
X132100000Y-119400000D01*
X145800000Y-119100000D02*
X132400000Y-119100000D01*
X145800000Y-133100000D02*
X132400000Y-133100000D01*
X146100000Y-132800000D02*
X146100000Y-119400000D01*
X132400000Y-119100000D02*
G75*
G03*
X132100000Y-119400000I0J-300000D01*
G01*
X132100000Y-132800000D02*
G75*
G03*
X132400000Y-133100000I300000J0D01*
G01*
X146100000Y-119400000D02*
G75*
G03*
X145800000Y-119100000I-300000J0D01*
G01*
X145800000Y-133100000D02*
G75*
G03*
X146100000Y-132800000I0J300000D01*
G01*
X171100000Y-132800000D02*
X171100000Y-119400000D01*
X184800000Y-119100000D02*
X171400000Y-119100000D01*
X184800000Y-133100000D02*
X171400000Y-133100000D01*
X185100000Y-132800000D02*
X185100000Y-119400000D01*
X171400000Y-119100000D02*
G75*
G03*
X171100000Y-119400000I0J-300000D01*
G01*
X171100000Y-132800000D02*
G75*
G03*
X171400000Y-133100000I300000J0D01*
G01*
X185100000Y-119400000D02*
G75*
G03*
X184800000Y-119100000I-300000J0D01*
G01*
X184800000Y-133100000D02*
G75*
G03*
X185100000Y-132800000I0J300000D01*
G01*
X151600000Y-113300000D02*
X151600000Y-99900000D01*
X165300000Y-99600000D02*
X151900000Y-99600000D01*
X165300000Y-113600000D02*
X151900000Y-113600000D01*
X165600000Y-113300000D02*
X165600000Y-99900000D01*
X151900000Y-99600000D02*
G75*
G03*
X151600000Y-99900000I0J-300000D01*
G01*
X151600000Y-113300000D02*
G75*
G03*
X151900000Y-113600000I300000J0D01*
G01*
X165600000Y-99900000D02*
G75*
G03*
X165300000Y-99600000I-300000J0D01*
G01*
X165300000Y-113600000D02*
G75*
G03*
X165600000Y-113300000I0J300000D01*
G01*
X151600000Y-132800000D02*
X151600000Y-119400000D01*
X165300000Y-119100000D02*
X151900000Y-119100000D01*
X165300000Y-133100000D02*
X151900000Y-133100000D01*
X165600000Y-132800000D02*
X165600000Y-119400000D01*
X151900000Y-119100000D02*
G75*
G03*
X151600000Y-119400000I0J-300000D01*
G01*
X151600000Y-132800000D02*
G75*
G03*
X151900000Y-133100000I300000J0D01*
G01*
X165600000Y-119400000D02*
G75*
G03*
X165300000Y-119100000I-300000J0D01*
G01*
X165300000Y-133100000D02*
G75*
G03*
X165600000Y-132800000I0J300000D01*
G01*
X132100000Y-93800000D02*
X132100000Y-80400000D01*
X145800000Y-80100000D02*
X132400000Y-80100000D01*
X145800000Y-94100000D02*
X132400000Y-94100000D01*
X146100000Y-93800000D02*
X146100000Y-80400000D01*
X132400000Y-80100000D02*
G75*
G03*
X132100000Y-80400000I0J-300000D01*
G01*
X132100000Y-93800000D02*
G75*
G03*
X132400000Y-94100000I300000J0D01*
G01*
X146100000Y-80400000D02*
G75*
G03*
X145800000Y-80100000I-300000J0D01*
G01*
X145800000Y-94100000D02*
G75*
G03*
X146100000Y-93800000I0J300000D01*
G01*
X132100000Y-74300000D02*
X132100000Y-60900000D01*
X145800000Y-60600000D02*
X132400000Y-60600000D01*
X145800000Y-74600000D02*
X132400000Y-74600000D01*
X146100000Y-74300000D02*
X146100000Y-60900000D01*
X132400000Y-60600000D02*
G75*
G03*
X132100000Y-60900000I0J-300000D01*
G01*
X132100000Y-74300000D02*
G75*
G03*
X132400000Y-74600000I300000J0D01*
G01*
X146100000Y-60900000D02*
G75*
G03*
X145800000Y-60600000I-300000J0D01*
G01*
X145800000Y-74600000D02*
G75*
G03*
X146100000Y-74300000I0J300000D01*
G01*
%TD*%
M02*
