M48
; DRILL file {KiCad 7.0.5} date Mon Sep 25 19:53:59 2023
; FORMAT={-:-/ absolute / metric / decimal}
; #@! TF.CreationDate,2023-09-25T19:53:59-07:00
; #@! TF.GenerationSoftware,Kicad,Pcbnew,7.0.5
; #@! TF.FileFunction,Plated,1,2,PTH
FMAT,2
METRIC
; #@! TA.AperFunction,Plated,PTH,ViaDrill
T1C0.400
; #@! TA.AperFunction,Plated,PTH,ComponentDrill
T2C1.000
; #@! TA.AperFunction,Plated,PTH,ComponentDrill
T3C1.500
; #@! TA.AperFunction,Plated,PTH,ComponentDrill
T4C2.200
%
G90
G05
T1
X136.6Y-102.5
X137.3Y-90.7
X142.512Y-75.177
X145.2Y-81.9
X149.1Y-83.8
X153.19Y-90.4
X153.8Y-55.9
X155.1Y-64.8
X155.524Y-82.093
X156.9Y-84.9
X157.55Y-82.026
X163.401Y-64.686
X164.6Y-50.5
X164.7Y-63.5
X165.1Y-84.8
X166.101Y-63.301
X166.4Y-49.1
X167.2Y-47.1
X169.825Y-52.675
X171.5Y-52.051
X174.5Y-50.549
X174.599Y-84.899
X175.296Y-48.795
X176.059Y-64.498
X176.3Y-84.5
X176.4Y-66.7
X176.573Y-65.356
X184.5Y-86.3
X185.0Y-45.9
X185.801Y-50.599
X186.1Y-52.1
X186.6Y-88.2
X187.017Y-85.45
X189.4Y-51.25
X189.818Y-83.861
X193.7Y-81.9
X194.652Y-87.057
X195.857Y-66.682
X196.0Y-47.3
X196.4Y-84.8
X196.485Y-63.389
X196.849Y-86.302
X197.46Y-62.301
X200.2Y-50.8
X202.84Y-61.764
X203.578Y-64.3
T2
X130.544Y-33.813
X130.544Y-36.353
X130.544Y-38.893
X130.544Y-41.433
X130.544Y-43.973
X130.544Y-46.513
X130.544Y-49.053
X130.544Y-51.593
X130.544Y-54.133
X130.544Y-56.673
X130.544Y-59.213
X130.544Y-61.753
X130.544Y-64.293
X130.544Y-66.833
X130.544Y-69.373
X130.544Y-71.913
X130.544Y-74.453
X130.544Y-76.993
X130.544Y-79.533
X130.544Y-82.073
X131.65Y-97.0
X131.65Y-99.5
X131.65Y-102.0
X135.48Y-86.6
X137.9Y-75.9
X137.9Y-83.7
X138.02Y-86.6
X140.5Y-75.9
X140.5Y-83.7
X140.56Y-86.6
X142.3Y-108.0
X143.1Y-86.6
X146.15Y-97.0
X146.15Y-102.0
X148.108Y-33.813
X148.108Y-36.353
X148.108Y-38.893
X148.108Y-41.433
X148.108Y-43.973
X148.108Y-46.513
X148.108Y-49.053
X148.108Y-51.593
X148.108Y-54.133
X148.108Y-56.673
X148.108Y-59.213
X148.108Y-61.753
X148.108Y-64.293
X148.108Y-66.833
X148.108Y-69.373
X148.108Y-71.913
X148.108Y-74.453
X148.108Y-76.993
X148.108Y-79.533
X148.108Y-82.073
X149.3Y-94.3
X149.3Y-102.1
X150.1Y-108.0
X169.4Y-35.9
X169.4Y-43.7
X169.4Y-55.4
X169.4Y-63.2
X169.4Y-74.9
X169.4Y-82.7
X169.4Y-94.4
X169.4Y-102.2
X188.8Y-35.9
X188.8Y-43.7
X188.8Y-74.9
X188.8Y-82.7
X188.9Y-55.4
X188.9Y-63.2
X188.9Y-94.4
X188.9Y-102.2
X208.4Y-35.9
X208.4Y-43.7
X208.4Y-55.4
X208.4Y-63.2
X208.4Y-74.9
X208.4Y-82.7
X208.4Y-94.4
X208.4Y-102.2
T4
X129.7Y-107.9
X154.9Y-50.8
X158.0Y-90.0
X175.0Y-70.4
X206.0Y-51.0
X208.6Y-108.1
T3
G00X138.5Y-93.9
M15
G01X139.8Y-93.9
M16
G05
G00X138.5Y-105.1
M15
G01X139.8Y-105.1
M16
G05
T0
M30
