%TF.GenerationSoftware,KiCad,Pcbnew,7.0.1-0*%
%TF.CreationDate,2023-12-29T19:29:52+00:00*%
%TF.ProjectId,3x4-macropad,3378342d-6d61-4637-926f-7061642e6b69,rev?*%
%TF.SameCoordinates,Original*%
%TF.FileFunction,Drillmap*%
%TF.FilePolarity,Positive*%
%FSLAX45Y45*%
G04 Gerber Fmt 4.5, Leading zero omitted, Abs format (unit mm)*
G04 Created by KiCad (PCBNEW 7.0.1-0) date 2023-12-29 19:29:52*
%MOMM*%
%LPD*%
G01*
G04 APERTURE LIST*
%ADD10C,0.100000*%
%ADD11C,0.200000*%
%ADD12C,0.040000*%
%ADD13C,0.150000*%
%ADD14C,0.220000*%
G04 APERTURE END LIST*
D10*
X13200000Y-3170000D02*
G75*
G03*
X13150000Y-3120000I-50000J0D01*
G01*
X20960000Y-11010000D02*
G75*
G03*
X21060000Y-10910000I0J100000D01*
G01*
X12750000Y-10910000D02*
G75*
G03*
X12850000Y-11010000I100000J0D01*
G01*
X13200000Y-5050000D02*
G75*
G03*
X13250000Y-5100000I50000J0D01*
G01*
X21060000Y-10910000D02*
X21060000Y-3220000D01*
X14610000Y-5100000D02*
G75*
G03*
X14660000Y-5050000I0J50000D01*
G01*
X20960000Y-11010000D02*
X12850000Y-11010000D01*
X12750000Y-3220000D02*
X12750000Y-10910000D01*
X12850000Y-3120000D02*
X13150000Y-3120000D01*
X14660000Y-4680000D02*
X14660000Y-5050000D01*
X13200000Y-3170000D02*
X13200000Y-4680000D01*
X20960000Y-3120000D02*
X14710000Y-3120000D01*
X12850000Y-3120000D02*
G75*
G03*
X12750000Y-3220000I0J-100000D01*
G01*
X13200000Y-4680000D02*
X13200000Y-5050000D01*
X14710000Y-3120000D02*
G75*
G03*
X14660000Y-3170000I0J-50000D01*
G01*
X21060000Y-3220000D02*
G75*
G03*
X20960000Y-3120000I-100000J0D01*
G01*
X14660000Y-4680000D02*
X14660000Y-3170000D01*
X13250000Y-5100000D02*
X14610000Y-5100000D01*
D11*
D12*
X13298510Y-8855080D02*
X13338510Y-8895080D01*
X13338510Y-8855080D02*
X13298510Y-8895080D01*
X13311810Y-7192900D02*
X13351810Y-7232900D01*
X13351810Y-7192900D02*
X13311810Y-7232900D01*
X13904910Y-7909020D02*
X13944910Y-7949020D01*
X13944910Y-7909020D02*
X13904910Y-7949020D01*
X13990280Y-8492500D02*
X14030280Y-8532500D01*
X14030280Y-8492500D02*
X13990280Y-8532500D01*
X14409130Y-7542950D02*
X14449130Y-7582950D01*
X14449130Y-7542950D02*
X14409130Y-7582950D01*
X14935000Y-5441478D02*
X14975000Y-5481478D01*
X14975000Y-5441478D02*
X14935000Y-5481478D01*
X15093130Y-6761770D02*
X15133130Y-6801770D01*
X15133130Y-6761770D02*
X15093130Y-6801770D01*
X15282935Y-6493415D02*
X15322935Y-6533415D01*
X15322935Y-6493415D02*
X15282935Y-6533415D01*
X15333290Y-8993780D02*
X15373290Y-9033780D01*
X15373290Y-8993780D02*
X15333290Y-9033780D01*
X15620000Y-6510000D02*
X15660000Y-6550000D01*
X15660000Y-6510000D02*
X15620000Y-6550000D01*
X16310150Y-5012450D02*
X16350150Y-5052450D01*
X16350150Y-5012450D02*
X16310150Y-5052450D01*
X16343230Y-6823620D02*
X16383230Y-6863620D01*
X16383230Y-6823620D02*
X16343230Y-6863620D01*
X16380000Y-8342300D02*
X16420000Y-8382300D01*
X16420000Y-8342300D02*
X16380000Y-8382300D01*
X16426153Y-10582700D02*
X16466153Y-10622700D01*
X16466153Y-10582700D02*
X16426153Y-10622700D01*
X16539870Y-6434820D02*
X16579870Y-6474820D01*
X16579870Y-6434820D02*
X16539870Y-6474820D01*
X16548680Y-6324350D02*
X16588680Y-6364350D01*
X16588680Y-6324350D02*
X16548680Y-6364350D01*
X16579100Y-6564130D02*
X16619100Y-6604130D01*
X16619100Y-6564130D02*
X16579100Y-6604130D01*
X16622090Y-4885110D02*
X16662090Y-4925110D01*
X16662090Y-4885110D02*
X16622090Y-4925110D01*
X16776550Y-7929760D02*
X16816550Y-7969760D01*
X16816550Y-7929760D02*
X16776550Y-7969760D01*
X16780910Y-5325950D02*
X16820910Y-5365950D01*
X16820910Y-5325950D02*
X16780910Y-5365950D01*
X17176030Y-8885090D02*
X17216030Y-8925090D01*
X17216030Y-8885090D02*
X17176030Y-8925090D01*
X17249090Y-6468300D02*
X17289090Y-6508300D01*
X17289090Y-6468300D02*
X17249090Y-6508300D01*
X17250140Y-4113790D02*
X17290140Y-4153790D01*
X17290140Y-4113790D02*
X17250140Y-4153790D01*
X17250140Y-6077540D02*
X17290140Y-6117540D01*
X17290140Y-6077540D02*
X17250140Y-6117540D01*
X17250140Y-8041290D02*
X17290140Y-8081290D01*
X17290140Y-8041290D02*
X17250140Y-8081290D01*
X17280000Y-10080000D02*
X17320000Y-10120000D01*
X17320000Y-10080000D02*
X17280000Y-10120000D01*
X17281190Y-7520710D02*
X17321190Y-7560710D01*
X17321190Y-7520710D02*
X17281190Y-7560710D01*
X17281190Y-9484460D02*
X17321190Y-9524460D01*
X17321190Y-9484460D02*
X17281190Y-9524460D01*
X17520000Y-4580000D02*
X17560000Y-4620000D01*
X17560000Y-4580000D02*
X17520000Y-4620000D01*
X17520000Y-4790000D02*
X17560000Y-4830000D01*
X17560000Y-4790000D02*
X17520000Y-4830000D01*
X17536160Y-5168680D02*
X17576160Y-5208680D01*
X17576160Y-5168680D02*
X17536160Y-5208680D01*
X18032700Y-5713960D02*
X18072700Y-5753960D01*
X18072700Y-5713960D02*
X18032700Y-5753960D01*
X18123500Y-10695560D02*
X18163500Y-10735560D01*
X18163500Y-10695560D02*
X18123500Y-10735560D01*
X18334190Y-4811740D02*
X18374190Y-4851740D01*
X18374190Y-4811740D02*
X18334190Y-4851740D01*
X18471720Y-10844280D02*
X18511720Y-10884280D01*
X18511720Y-10844280D02*
X18471720Y-10884280D01*
X18483510Y-8636500D02*
X18523510Y-8676500D01*
X18523510Y-8636500D02*
X18483510Y-8676500D01*
X18534170Y-6699480D02*
X18574170Y-6739480D01*
X18574170Y-6699480D02*
X18534170Y-6739480D01*
X18605160Y-5135830D02*
X18645160Y-5175830D01*
X18645160Y-5135830D02*
X18605160Y-5175830D01*
X18605589Y-4527300D02*
X18645589Y-4567300D01*
X18645589Y-4527300D02*
X18605589Y-4567300D01*
X18620000Y-9120000D02*
X18660000Y-9160000D01*
X18660000Y-9120000D02*
X18620000Y-9160000D01*
X19132680Y-8816900D02*
X19172680Y-8856900D01*
X19172680Y-8816900D02*
X19132680Y-8856900D01*
X19133300Y-9091240D02*
X19173300Y-9131240D01*
X19173300Y-9091240D02*
X19133300Y-9131240D01*
X19190000Y-6960000D02*
X19230000Y-7000000D01*
X19230000Y-6960000D02*
X19190000Y-7000000D01*
X19205960Y-5556960D02*
X19245960Y-5596960D01*
X19245960Y-5556960D02*
X19205960Y-5596960D01*
X19250000Y-4520000D02*
X19290000Y-4560000D01*
X19290000Y-4520000D02*
X19250000Y-4560000D01*
X19278630Y-8015610D02*
X19318630Y-8055610D01*
X19318630Y-8015610D02*
X19278630Y-8055610D01*
X19282360Y-9484460D02*
X19322360Y-9524460D01*
X19322360Y-9484460D02*
X19282360Y-9524460D01*
X19346543Y-6381701D02*
X19386543Y-6421701D01*
X19386543Y-6381701D02*
X19346543Y-6421701D01*
X19367700Y-6283965D02*
X19407700Y-6323965D01*
X19407700Y-6283965D02*
X19367700Y-6323965D01*
X19430000Y-8570000D02*
X19470000Y-8610000D01*
X19470000Y-8570000D02*
X19430000Y-8610000D01*
X19470000Y-5410000D02*
X19510000Y-5450000D01*
X19510000Y-5410000D02*
X19470000Y-5450000D01*
X19529859Y-4529756D02*
X19569859Y-4569756D01*
X19569859Y-4529756D02*
X19529859Y-4569756D01*
X19575611Y-6557500D02*
X19615611Y-6597500D01*
X19615611Y-6557500D02*
X19575611Y-6597500D01*
X19580000Y-8350000D02*
X19620000Y-8390000D01*
X19620000Y-8350000D02*
X19580000Y-8390000D01*
X19597904Y-4645969D02*
X19637904Y-4685969D01*
X19637904Y-4645969D02*
X19597904Y-4685969D01*
X19717296Y-10405000D02*
X19757296Y-10445000D01*
X19757296Y-10405000D02*
X19717296Y-10445000D01*
X19750250Y-6388250D02*
X19790250Y-6428250D01*
X19790250Y-6388250D02*
X19750250Y-6428250D01*
X19966360Y-5532040D02*
X20006360Y-5572040D01*
X20006360Y-5532040D02*
X19966360Y-5572040D01*
X20042530Y-10273070D02*
X20082530Y-10313070D01*
X20082530Y-10273070D02*
X20042530Y-10313070D01*
X20240630Y-5025000D02*
X20280630Y-5065000D01*
X20280630Y-5025000D02*
X20240630Y-5065000D01*
D10*
X13104400Y-3381300D02*
G75*
G03*
X13104400Y-3381300I-50000J0D01*
G01*
X13104400Y-3635300D02*
G75*
G03*
X13104400Y-3635300I-50000J0D01*
G01*
X13104400Y-3889300D02*
G75*
G03*
X13104400Y-3889300I-50000J0D01*
G01*
X13104400Y-4143300D02*
G75*
G03*
X13104400Y-4143300I-50000J0D01*
G01*
X13104400Y-4397300D02*
G75*
G03*
X13104400Y-4397300I-50000J0D01*
G01*
X13104400Y-4651300D02*
G75*
G03*
X13104400Y-4651300I-50000J0D01*
G01*
X13104400Y-4905300D02*
G75*
G03*
X13104400Y-4905300I-50000J0D01*
G01*
X13104400Y-5159300D02*
G75*
G03*
X13104400Y-5159300I-50000J0D01*
G01*
X13104400Y-5413300D02*
G75*
G03*
X13104400Y-5413300I-50000J0D01*
G01*
X13104400Y-5667300D02*
G75*
G03*
X13104400Y-5667300I-50000J0D01*
G01*
X13104400Y-5921300D02*
G75*
G03*
X13104400Y-5921300I-50000J0D01*
G01*
X13104400Y-6175300D02*
G75*
G03*
X13104400Y-6175300I-50000J0D01*
G01*
X13104400Y-6429300D02*
G75*
G03*
X13104400Y-6429300I-50000J0D01*
G01*
X13104400Y-6683300D02*
G75*
G03*
X13104400Y-6683300I-50000J0D01*
G01*
X13104400Y-6937300D02*
G75*
G03*
X13104400Y-6937300I-50000J0D01*
G01*
X13104400Y-7191300D02*
G75*
G03*
X13104400Y-7191300I-50000J0D01*
G01*
X13104400Y-7445300D02*
G75*
G03*
X13104400Y-7445300I-50000J0D01*
G01*
X13104400Y-7699300D02*
G75*
G03*
X13104400Y-7699300I-50000J0D01*
G01*
X13104400Y-7953300D02*
G75*
G03*
X13104400Y-7953300I-50000J0D01*
G01*
X13104400Y-8207300D02*
G75*
G03*
X13104400Y-8207300I-50000J0D01*
G01*
X13215000Y-9700000D02*
G75*
G03*
X13215000Y-9700000I-50000J0D01*
G01*
X13215000Y-9950000D02*
G75*
G03*
X13215000Y-9950000I-50000J0D01*
G01*
X13215000Y-10200000D02*
G75*
G03*
X13215000Y-10200000I-50000J0D01*
G01*
X13598000Y-8660000D02*
G75*
G03*
X13598000Y-8660000I-50000J0D01*
G01*
X13840000Y-7590000D02*
G75*
G03*
X13840000Y-7590000I-50000J0D01*
G01*
X13840000Y-8370000D02*
G75*
G03*
X13840000Y-8370000I-50000J0D01*
G01*
X13852000Y-8660000D02*
G75*
G03*
X13852000Y-8660000I-50000J0D01*
G01*
X14100000Y-7590000D02*
G75*
G03*
X14100000Y-7590000I-50000J0D01*
G01*
X14100000Y-8370000D02*
G75*
G03*
X14100000Y-8370000I-50000J0D01*
G01*
X14106000Y-8660000D02*
G75*
G03*
X14106000Y-8660000I-50000J0D01*
G01*
X14280000Y-10800000D02*
G75*
G03*
X14280000Y-10800000I-50000J0D01*
G01*
X14360000Y-8660000D02*
G75*
G03*
X14360000Y-8660000I-50000J0D01*
G01*
X14665000Y-9700000D02*
G75*
G03*
X14665000Y-9700000I-50000J0D01*
G01*
X14665000Y-10200000D02*
G75*
G03*
X14665000Y-10200000I-50000J0D01*
G01*
X14860800Y-3381300D02*
G75*
G03*
X14860800Y-3381300I-50000J0D01*
G01*
X14860800Y-3635300D02*
G75*
G03*
X14860800Y-3635300I-50000J0D01*
G01*
X14860800Y-3889300D02*
G75*
G03*
X14860800Y-3889300I-50000J0D01*
G01*
X14860800Y-4143300D02*
G75*
G03*
X14860800Y-4143300I-50000J0D01*
G01*
X14860800Y-4397300D02*
G75*
G03*
X14860800Y-4397300I-50000J0D01*
G01*
X14860800Y-4651300D02*
G75*
G03*
X14860800Y-4651300I-50000J0D01*
G01*
X14860800Y-4905300D02*
G75*
G03*
X14860800Y-4905300I-50000J0D01*
G01*
X14860800Y-5159300D02*
G75*
G03*
X14860800Y-5159300I-50000J0D01*
G01*
X14860800Y-5413300D02*
G75*
G03*
X14860800Y-5413300I-50000J0D01*
G01*
X14860800Y-5667300D02*
G75*
G03*
X14860800Y-5667300I-50000J0D01*
G01*
X14860800Y-5921300D02*
G75*
G03*
X14860800Y-5921300I-50000J0D01*
G01*
X14860800Y-6175300D02*
G75*
G03*
X14860800Y-6175300I-50000J0D01*
G01*
X14860800Y-6429300D02*
G75*
G03*
X14860800Y-6429300I-50000J0D01*
G01*
X14860800Y-6683300D02*
G75*
G03*
X14860800Y-6683300I-50000J0D01*
G01*
X14860800Y-6937300D02*
G75*
G03*
X14860800Y-6937300I-50000J0D01*
G01*
X14860800Y-7191300D02*
G75*
G03*
X14860800Y-7191300I-50000J0D01*
G01*
X14860800Y-7445300D02*
G75*
G03*
X14860800Y-7445300I-50000J0D01*
G01*
X14860800Y-7699300D02*
G75*
G03*
X14860800Y-7699300I-50000J0D01*
G01*
X14860800Y-7953300D02*
G75*
G03*
X14860800Y-7953300I-50000J0D01*
G01*
X14860800Y-8207300D02*
G75*
G03*
X14860800Y-8207300I-50000J0D01*
G01*
X14980000Y-9430000D02*
G75*
G03*
X14980000Y-9430000I-50000J0D01*
G01*
X14980000Y-10210000D02*
G75*
G03*
X14980000Y-10210000I-50000J0D01*
G01*
X15060000Y-10800000D02*
G75*
G03*
X15060000Y-10800000I-50000J0D01*
G01*
X16990000Y-3590000D02*
G75*
G03*
X16990000Y-3590000I-50000J0D01*
G01*
X16990000Y-4370000D02*
G75*
G03*
X16990000Y-4370000I-50000J0D01*
G01*
X16990000Y-5540000D02*
G75*
G03*
X16990000Y-5540000I-50000J0D01*
G01*
X16990000Y-6320000D02*
G75*
G03*
X16990000Y-6320000I-50000J0D01*
G01*
X16990000Y-7490000D02*
G75*
G03*
X16990000Y-7490000I-50000J0D01*
G01*
X16990000Y-8270000D02*
G75*
G03*
X16990000Y-8270000I-50000J0D01*
G01*
X16990000Y-9440000D02*
G75*
G03*
X16990000Y-9440000I-50000J0D01*
G01*
X16990000Y-10220000D02*
G75*
G03*
X16990000Y-10220000I-50000J0D01*
G01*
X18930000Y-3590000D02*
G75*
G03*
X18930000Y-3590000I-50000J0D01*
G01*
X18930000Y-4370000D02*
G75*
G03*
X18930000Y-4370000I-50000J0D01*
G01*
X18930000Y-7490000D02*
G75*
G03*
X18930000Y-7490000I-50000J0D01*
G01*
X18930000Y-8270000D02*
G75*
G03*
X18930000Y-8270000I-50000J0D01*
G01*
X18940000Y-5540000D02*
G75*
G03*
X18940000Y-5540000I-50000J0D01*
G01*
X18940000Y-6320000D02*
G75*
G03*
X18940000Y-6320000I-50000J0D01*
G01*
X18940000Y-9440000D02*
G75*
G03*
X18940000Y-9440000I-50000J0D01*
G01*
X18940000Y-10220000D02*
G75*
G03*
X18940000Y-10220000I-50000J0D01*
G01*
X20890000Y-3590000D02*
G75*
G03*
X20890000Y-3590000I-50000J0D01*
G01*
X20890000Y-4370000D02*
G75*
G03*
X20890000Y-4370000I-50000J0D01*
G01*
X20890000Y-5540000D02*
G75*
G03*
X20890000Y-5540000I-50000J0D01*
G01*
X20890000Y-6320000D02*
G75*
G03*
X20890000Y-6320000I-50000J0D01*
G01*
X20890000Y-7490000D02*
G75*
G03*
X20890000Y-7490000I-50000J0D01*
G01*
X20890000Y-8270000D02*
G75*
G03*
X20890000Y-8270000I-50000J0D01*
G01*
X20890000Y-9440000D02*
G75*
G03*
X20890000Y-9440000I-50000J0D01*
G01*
X20890000Y-10220000D02*
G75*
G03*
X20890000Y-10220000I-50000J0D01*
G01*
D13*
X13915000Y-9315000D02*
X13915000Y-9465000D01*
X13840000Y-9390000D02*
X13990000Y-9390000D01*
D11*
X13850000Y-9465000D02*
X13980000Y-9465000D01*
X13980000Y-9465000D02*
G75*
G03*
X13980000Y-9315000I0J75000D01*
G01*
X13980000Y-9315000D02*
X13850000Y-9315000D01*
X13850000Y-9315000D02*
G75*
G03*
X13850000Y-9465000I0J-75000D01*
G01*
D13*
X13915000Y-10435000D02*
X13915000Y-10585000D01*
X13840000Y-10510000D02*
X13990000Y-10510000D01*
D11*
X13850000Y-10585000D02*
X13980000Y-10585000D01*
X13980000Y-10585000D02*
G75*
G03*
X13980000Y-10435000I0J75000D01*
G01*
X13980000Y-10435000D02*
X13850000Y-10435000D01*
X13850000Y-10435000D02*
G75*
G03*
X13850000Y-10585000I0J-75000D01*
G01*
D14*
X13047782Y-10867783D02*
X13047782Y-10712218D01*
X12892217Y-10712218D01*
X12892217Y-10867783D01*
X13047782Y-10867783D01*
X15567782Y-5157783D02*
X15567782Y-5002218D01*
X15412217Y-5002218D01*
X15412217Y-5157783D01*
X15567782Y-5157783D01*
X15877782Y-9077783D02*
X15877782Y-8922218D01*
X15722217Y-8922218D01*
X15722217Y-9077783D01*
X15877782Y-9077783D01*
X17577783Y-7117782D02*
X17577783Y-6962217D01*
X17422218Y-6962217D01*
X17422218Y-7117782D01*
X17577783Y-7117782D01*
X20677783Y-5177783D02*
X20677783Y-5022218D01*
X20522218Y-5022218D01*
X20522218Y-5177783D01*
X20677783Y-5177783D01*
X20937783Y-10887783D02*
X20937783Y-10732218D01*
X20782218Y-10732218D01*
X20782218Y-10887783D01*
X20937783Y-10887783D01*
D11*
X12992619Y-11327524D02*
X12992619Y-11127524D01*
X12992619Y-11127524D02*
X13040238Y-11127524D01*
X13040238Y-11127524D02*
X13068809Y-11137048D01*
X13068809Y-11137048D02*
X13087857Y-11156095D01*
X13087857Y-11156095D02*
X13097381Y-11175143D01*
X13097381Y-11175143D02*
X13106905Y-11213238D01*
X13106905Y-11213238D02*
X13106905Y-11241809D01*
X13106905Y-11241809D02*
X13097381Y-11279905D01*
X13097381Y-11279905D02*
X13087857Y-11298952D01*
X13087857Y-11298952D02*
X13068809Y-11318000D01*
X13068809Y-11318000D02*
X13040238Y-11327524D01*
X13040238Y-11327524D02*
X12992619Y-11327524D01*
X13192619Y-11327524D02*
X13192619Y-11194190D01*
X13192619Y-11232286D02*
X13202143Y-11213238D01*
X13202143Y-11213238D02*
X13211667Y-11203714D01*
X13211667Y-11203714D02*
X13230714Y-11194190D01*
X13230714Y-11194190D02*
X13249762Y-11194190D01*
X13316428Y-11327524D02*
X13316428Y-11194190D01*
X13316428Y-11127524D02*
X13306905Y-11137048D01*
X13306905Y-11137048D02*
X13316428Y-11146571D01*
X13316428Y-11146571D02*
X13325952Y-11137048D01*
X13325952Y-11137048D02*
X13316428Y-11127524D01*
X13316428Y-11127524D02*
X13316428Y-11146571D01*
X13440238Y-11327524D02*
X13421190Y-11318000D01*
X13421190Y-11318000D02*
X13411667Y-11298952D01*
X13411667Y-11298952D02*
X13411667Y-11127524D01*
X13545000Y-11327524D02*
X13525952Y-11318000D01*
X13525952Y-11318000D02*
X13516428Y-11298952D01*
X13516428Y-11298952D02*
X13516428Y-11127524D01*
X13773571Y-11327524D02*
X13773571Y-11127524D01*
X13773571Y-11127524D02*
X13840238Y-11270381D01*
X13840238Y-11270381D02*
X13906905Y-11127524D01*
X13906905Y-11127524D02*
X13906905Y-11327524D01*
X14087857Y-11327524D02*
X14087857Y-11222762D01*
X14087857Y-11222762D02*
X14078333Y-11203714D01*
X14078333Y-11203714D02*
X14059286Y-11194190D01*
X14059286Y-11194190D02*
X14021190Y-11194190D01*
X14021190Y-11194190D02*
X14002143Y-11203714D01*
X14087857Y-11318000D02*
X14068809Y-11327524D01*
X14068809Y-11327524D02*
X14021190Y-11327524D01*
X14021190Y-11327524D02*
X14002143Y-11318000D01*
X14002143Y-11318000D02*
X13992619Y-11298952D01*
X13992619Y-11298952D02*
X13992619Y-11279905D01*
X13992619Y-11279905D02*
X14002143Y-11260857D01*
X14002143Y-11260857D02*
X14021190Y-11251333D01*
X14021190Y-11251333D02*
X14068809Y-11251333D01*
X14068809Y-11251333D02*
X14087857Y-11241809D01*
X14183095Y-11194190D02*
X14183095Y-11394190D01*
X14183095Y-11203714D02*
X14202143Y-11194190D01*
X14202143Y-11194190D02*
X14240238Y-11194190D01*
X14240238Y-11194190D02*
X14259286Y-11203714D01*
X14259286Y-11203714D02*
X14268809Y-11213238D01*
X14268809Y-11213238D02*
X14278333Y-11232286D01*
X14278333Y-11232286D02*
X14278333Y-11289428D01*
X14278333Y-11289428D02*
X14268809Y-11308476D01*
X14268809Y-11308476D02*
X14259286Y-11318000D01*
X14259286Y-11318000D02*
X14240238Y-11327524D01*
X14240238Y-11327524D02*
X14202143Y-11327524D01*
X14202143Y-11327524D02*
X14183095Y-11318000D01*
X14364048Y-11308476D02*
X14373571Y-11318000D01*
X14373571Y-11318000D02*
X14364048Y-11327524D01*
X14364048Y-11327524D02*
X14354524Y-11318000D01*
X14354524Y-11318000D02*
X14364048Y-11308476D01*
X14364048Y-11308476D02*
X14364048Y-11327524D01*
X14364048Y-11203714D02*
X14373571Y-11213238D01*
X14373571Y-11213238D02*
X14364048Y-11222762D01*
X14364048Y-11222762D02*
X14354524Y-11213238D01*
X14354524Y-11213238D02*
X14364048Y-11203714D01*
X14364048Y-11203714D02*
X14364048Y-11222762D01*
D12*
X12705000Y-11635000D02*
X12745000Y-11675000D01*
X12745000Y-11635000D02*
X12705000Y-11675000D01*
D11*
X13030714Y-11547524D02*
X13049762Y-11547524D01*
X13049762Y-11547524D02*
X13068809Y-11557048D01*
X13068809Y-11557048D02*
X13078333Y-11566571D01*
X13078333Y-11566571D02*
X13087857Y-11585619D01*
X13087857Y-11585619D02*
X13097381Y-11623714D01*
X13097381Y-11623714D02*
X13097381Y-11671333D01*
X13097381Y-11671333D02*
X13087857Y-11709428D01*
X13087857Y-11709428D02*
X13078333Y-11728476D01*
X13078333Y-11728476D02*
X13068809Y-11738000D01*
X13068809Y-11738000D02*
X13049762Y-11747524D01*
X13049762Y-11747524D02*
X13030714Y-11747524D01*
X13030714Y-11747524D02*
X13011667Y-11738000D01*
X13011667Y-11738000D02*
X13002143Y-11728476D01*
X13002143Y-11728476D02*
X12992619Y-11709428D01*
X12992619Y-11709428D02*
X12983095Y-11671333D01*
X12983095Y-11671333D02*
X12983095Y-11623714D01*
X12983095Y-11623714D02*
X12992619Y-11585619D01*
X12992619Y-11585619D02*
X13002143Y-11566571D01*
X13002143Y-11566571D02*
X13011667Y-11557048D01*
X13011667Y-11557048D02*
X13030714Y-11547524D01*
X13183095Y-11728476D02*
X13192619Y-11738000D01*
X13192619Y-11738000D02*
X13183095Y-11747524D01*
X13183095Y-11747524D02*
X13173571Y-11738000D01*
X13173571Y-11738000D02*
X13183095Y-11728476D01*
X13183095Y-11728476D02*
X13183095Y-11747524D01*
X13364048Y-11614190D02*
X13364048Y-11747524D01*
X13316428Y-11538000D02*
X13268809Y-11680857D01*
X13268809Y-11680857D02*
X13392619Y-11680857D01*
X13506905Y-11547524D02*
X13525952Y-11547524D01*
X13525952Y-11547524D02*
X13545000Y-11557048D01*
X13545000Y-11557048D02*
X13554524Y-11566571D01*
X13554524Y-11566571D02*
X13564048Y-11585619D01*
X13564048Y-11585619D02*
X13573571Y-11623714D01*
X13573571Y-11623714D02*
X13573571Y-11671333D01*
X13573571Y-11671333D02*
X13564048Y-11709428D01*
X13564048Y-11709428D02*
X13554524Y-11728476D01*
X13554524Y-11728476D02*
X13545000Y-11738000D01*
X13545000Y-11738000D02*
X13525952Y-11747524D01*
X13525952Y-11747524D02*
X13506905Y-11747524D01*
X13506905Y-11747524D02*
X13487857Y-11738000D01*
X13487857Y-11738000D02*
X13478333Y-11728476D01*
X13478333Y-11728476D02*
X13468809Y-11709428D01*
X13468809Y-11709428D02*
X13459286Y-11671333D01*
X13459286Y-11671333D02*
X13459286Y-11623714D01*
X13459286Y-11623714D02*
X13468809Y-11585619D01*
X13468809Y-11585619D02*
X13478333Y-11566571D01*
X13478333Y-11566571D02*
X13487857Y-11557048D01*
X13487857Y-11557048D02*
X13506905Y-11547524D01*
X13697381Y-11547524D02*
X13716429Y-11547524D01*
X13716429Y-11547524D02*
X13735476Y-11557048D01*
X13735476Y-11557048D02*
X13745000Y-11566571D01*
X13745000Y-11566571D02*
X13754524Y-11585619D01*
X13754524Y-11585619D02*
X13764048Y-11623714D01*
X13764048Y-11623714D02*
X13764048Y-11671333D01*
X13764048Y-11671333D02*
X13754524Y-11709428D01*
X13754524Y-11709428D02*
X13745000Y-11728476D01*
X13745000Y-11728476D02*
X13735476Y-11738000D01*
X13735476Y-11738000D02*
X13716429Y-11747524D01*
X13716429Y-11747524D02*
X13697381Y-11747524D01*
X13697381Y-11747524D02*
X13678333Y-11738000D01*
X13678333Y-11738000D02*
X13668809Y-11728476D01*
X13668809Y-11728476D02*
X13659286Y-11709428D01*
X13659286Y-11709428D02*
X13649762Y-11671333D01*
X13649762Y-11671333D02*
X13649762Y-11623714D01*
X13649762Y-11623714D02*
X13659286Y-11585619D01*
X13659286Y-11585619D02*
X13668809Y-11566571D01*
X13668809Y-11566571D02*
X13678333Y-11557048D01*
X13678333Y-11557048D02*
X13697381Y-11547524D01*
X13849762Y-11747524D02*
X13849762Y-11614190D01*
X13849762Y-11633238D02*
X13859286Y-11623714D01*
X13859286Y-11623714D02*
X13878333Y-11614190D01*
X13878333Y-11614190D02*
X13906905Y-11614190D01*
X13906905Y-11614190D02*
X13925952Y-11623714D01*
X13925952Y-11623714D02*
X13935476Y-11642762D01*
X13935476Y-11642762D02*
X13935476Y-11747524D01*
X13935476Y-11642762D02*
X13945000Y-11623714D01*
X13945000Y-11623714D02*
X13964048Y-11614190D01*
X13964048Y-11614190D02*
X13992619Y-11614190D01*
X13992619Y-11614190D02*
X14011667Y-11623714D01*
X14011667Y-11623714D02*
X14021190Y-11642762D01*
X14021190Y-11642762D02*
X14021190Y-11747524D01*
X14116429Y-11747524D02*
X14116429Y-11614190D01*
X14116429Y-11633238D02*
X14125952Y-11623714D01*
X14125952Y-11623714D02*
X14145000Y-11614190D01*
X14145000Y-11614190D02*
X14173571Y-11614190D01*
X14173571Y-11614190D02*
X14192619Y-11623714D01*
X14192619Y-11623714D02*
X14202143Y-11642762D01*
X14202143Y-11642762D02*
X14202143Y-11747524D01*
X14202143Y-11642762D02*
X14211667Y-11623714D01*
X14211667Y-11623714D02*
X14230714Y-11614190D01*
X14230714Y-11614190D02*
X14259286Y-11614190D01*
X14259286Y-11614190D02*
X14278333Y-11623714D01*
X14278333Y-11623714D02*
X14287857Y-11642762D01*
X14287857Y-11642762D02*
X14287857Y-11747524D01*
X14678333Y-11538000D02*
X14506905Y-11795143D01*
X14935476Y-11547524D02*
X14954524Y-11547524D01*
X14954524Y-11547524D02*
X14973572Y-11557048D01*
X14973572Y-11557048D02*
X14983095Y-11566571D01*
X14983095Y-11566571D02*
X14992619Y-11585619D01*
X14992619Y-11585619D02*
X15002143Y-11623714D01*
X15002143Y-11623714D02*
X15002143Y-11671333D01*
X15002143Y-11671333D02*
X14992619Y-11709428D01*
X14992619Y-11709428D02*
X14983095Y-11728476D01*
X14983095Y-11728476D02*
X14973572Y-11738000D01*
X14973572Y-11738000D02*
X14954524Y-11747524D01*
X14954524Y-11747524D02*
X14935476Y-11747524D01*
X14935476Y-11747524D02*
X14916429Y-11738000D01*
X14916429Y-11738000D02*
X14906905Y-11728476D01*
X14906905Y-11728476D02*
X14897381Y-11709428D01*
X14897381Y-11709428D02*
X14887857Y-11671333D01*
X14887857Y-11671333D02*
X14887857Y-11623714D01*
X14887857Y-11623714D02*
X14897381Y-11585619D01*
X14897381Y-11585619D02*
X14906905Y-11566571D01*
X14906905Y-11566571D02*
X14916429Y-11557048D01*
X14916429Y-11557048D02*
X14935476Y-11547524D01*
X15087857Y-11728476D02*
X15097381Y-11738000D01*
X15097381Y-11738000D02*
X15087857Y-11747524D01*
X15087857Y-11747524D02*
X15078333Y-11738000D01*
X15078333Y-11738000D02*
X15087857Y-11728476D01*
X15087857Y-11728476D02*
X15087857Y-11747524D01*
X15221191Y-11547524D02*
X15240238Y-11547524D01*
X15240238Y-11547524D02*
X15259286Y-11557048D01*
X15259286Y-11557048D02*
X15268810Y-11566571D01*
X15268810Y-11566571D02*
X15278333Y-11585619D01*
X15278333Y-11585619D02*
X15287857Y-11623714D01*
X15287857Y-11623714D02*
X15287857Y-11671333D01*
X15287857Y-11671333D02*
X15278333Y-11709428D01*
X15278333Y-11709428D02*
X15268810Y-11728476D01*
X15268810Y-11728476D02*
X15259286Y-11738000D01*
X15259286Y-11738000D02*
X15240238Y-11747524D01*
X15240238Y-11747524D02*
X15221191Y-11747524D01*
X15221191Y-11747524D02*
X15202143Y-11738000D01*
X15202143Y-11738000D02*
X15192619Y-11728476D01*
X15192619Y-11728476D02*
X15183095Y-11709428D01*
X15183095Y-11709428D02*
X15173572Y-11671333D01*
X15173572Y-11671333D02*
X15173572Y-11623714D01*
X15173572Y-11623714D02*
X15183095Y-11585619D01*
X15183095Y-11585619D02*
X15192619Y-11566571D01*
X15192619Y-11566571D02*
X15202143Y-11557048D01*
X15202143Y-11557048D02*
X15221191Y-11547524D01*
X15478333Y-11747524D02*
X15364048Y-11747524D01*
X15421191Y-11747524D02*
X15421191Y-11547524D01*
X15421191Y-11547524D02*
X15402143Y-11576095D01*
X15402143Y-11576095D02*
X15383095Y-11595143D01*
X15383095Y-11595143D02*
X15364048Y-11604667D01*
X15659286Y-11547524D02*
X15564048Y-11547524D01*
X15564048Y-11547524D02*
X15554524Y-11642762D01*
X15554524Y-11642762D02*
X15564048Y-11633238D01*
X15564048Y-11633238D02*
X15583095Y-11623714D01*
X15583095Y-11623714D02*
X15630714Y-11623714D01*
X15630714Y-11623714D02*
X15649762Y-11633238D01*
X15649762Y-11633238D02*
X15659286Y-11642762D01*
X15659286Y-11642762D02*
X15668810Y-11661809D01*
X15668810Y-11661809D02*
X15668810Y-11709428D01*
X15668810Y-11709428D02*
X15659286Y-11728476D01*
X15659286Y-11728476D02*
X15649762Y-11738000D01*
X15649762Y-11738000D02*
X15630714Y-11747524D01*
X15630714Y-11747524D02*
X15583095Y-11747524D01*
X15583095Y-11747524D02*
X15564048Y-11738000D01*
X15564048Y-11738000D02*
X15554524Y-11728476D01*
X15735476Y-11547524D02*
X15868810Y-11547524D01*
X15868810Y-11547524D02*
X15783095Y-11747524D01*
X15935476Y-11547524D02*
X15935476Y-11585619D01*
X16011667Y-11547524D02*
X16011667Y-11585619D01*
X16306905Y-11823714D02*
X16297381Y-11814190D01*
X16297381Y-11814190D02*
X16278334Y-11785619D01*
X16278334Y-11785619D02*
X16268810Y-11766571D01*
X16268810Y-11766571D02*
X16259286Y-11738000D01*
X16259286Y-11738000D02*
X16249762Y-11690381D01*
X16249762Y-11690381D02*
X16249762Y-11652286D01*
X16249762Y-11652286D02*
X16259286Y-11604667D01*
X16259286Y-11604667D02*
X16268810Y-11576095D01*
X16268810Y-11576095D02*
X16278334Y-11557048D01*
X16278334Y-11557048D02*
X16297381Y-11528476D01*
X16297381Y-11528476D02*
X16306905Y-11518952D01*
X16468810Y-11547524D02*
X16430714Y-11547524D01*
X16430714Y-11547524D02*
X16411667Y-11557048D01*
X16411667Y-11557048D02*
X16402143Y-11566571D01*
X16402143Y-11566571D02*
X16383095Y-11595143D01*
X16383095Y-11595143D02*
X16373572Y-11633238D01*
X16373572Y-11633238D02*
X16373572Y-11709428D01*
X16373572Y-11709428D02*
X16383095Y-11728476D01*
X16383095Y-11728476D02*
X16392619Y-11738000D01*
X16392619Y-11738000D02*
X16411667Y-11747524D01*
X16411667Y-11747524D02*
X16449762Y-11747524D01*
X16449762Y-11747524D02*
X16468810Y-11738000D01*
X16468810Y-11738000D02*
X16478334Y-11728476D01*
X16478334Y-11728476D02*
X16487857Y-11709428D01*
X16487857Y-11709428D02*
X16487857Y-11661809D01*
X16487857Y-11661809D02*
X16478334Y-11642762D01*
X16478334Y-11642762D02*
X16468810Y-11633238D01*
X16468810Y-11633238D02*
X16449762Y-11623714D01*
X16449762Y-11623714D02*
X16411667Y-11623714D01*
X16411667Y-11623714D02*
X16392619Y-11633238D01*
X16392619Y-11633238D02*
X16383095Y-11642762D01*
X16383095Y-11642762D02*
X16373572Y-11661809D01*
X16611667Y-11547524D02*
X16630715Y-11547524D01*
X16630715Y-11547524D02*
X16649762Y-11557048D01*
X16649762Y-11557048D02*
X16659286Y-11566571D01*
X16659286Y-11566571D02*
X16668810Y-11585619D01*
X16668810Y-11585619D02*
X16678334Y-11623714D01*
X16678334Y-11623714D02*
X16678334Y-11671333D01*
X16678334Y-11671333D02*
X16668810Y-11709428D01*
X16668810Y-11709428D02*
X16659286Y-11728476D01*
X16659286Y-11728476D02*
X16649762Y-11738000D01*
X16649762Y-11738000D02*
X16630715Y-11747524D01*
X16630715Y-11747524D02*
X16611667Y-11747524D01*
X16611667Y-11747524D02*
X16592619Y-11738000D01*
X16592619Y-11738000D02*
X16583095Y-11728476D01*
X16583095Y-11728476D02*
X16573572Y-11709428D01*
X16573572Y-11709428D02*
X16564048Y-11671333D01*
X16564048Y-11671333D02*
X16564048Y-11623714D01*
X16564048Y-11623714D02*
X16573572Y-11585619D01*
X16573572Y-11585619D02*
X16583095Y-11566571D01*
X16583095Y-11566571D02*
X16592619Y-11557048D01*
X16592619Y-11557048D02*
X16611667Y-11547524D01*
X16916429Y-11747524D02*
X16916429Y-11547524D01*
X17002143Y-11747524D02*
X17002143Y-11642762D01*
X17002143Y-11642762D02*
X16992619Y-11623714D01*
X16992619Y-11623714D02*
X16973572Y-11614190D01*
X16973572Y-11614190D02*
X16945000Y-11614190D01*
X16945000Y-11614190D02*
X16925953Y-11623714D01*
X16925953Y-11623714D02*
X16916429Y-11633238D01*
X17125953Y-11747524D02*
X17106905Y-11738000D01*
X17106905Y-11738000D02*
X17097381Y-11728476D01*
X17097381Y-11728476D02*
X17087858Y-11709428D01*
X17087858Y-11709428D02*
X17087858Y-11652286D01*
X17087858Y-11652286D02*
X17097381Y-11633238D01*
X17097381Y-11633238D02*
X17106905Y-11623714D01*
X17106905Y-11623714D02*
X17125953Y-11614190D01*
X17125953Y-11614190D02*
X17154524Y-11614190D01*
X17154524Y-11614190D02*
X17173572Y-11623714D01*
X17173572Y-11623714D02*
X17183096Y-11633238D01*
X17183096Y-11633238D02*
X17192619Y-11652286D01*
X17192619Y-11652286D02*
X17192619Y-11709428D01*
X17192619Y-11709428D02*
X17183096Y-11728476D01*
X17183096Y-11728476D02*
X17173572Y-11738000D01*
X17173572Y-11738000D02*
X17154524Y-11747524D01*
X17154524Y-11747524D02*
X17125953Y-11747524D01*
X17306905Y-11747524D02*
X17287858Y-11738000D01*
X17287858Y-11738000D02*
X17278334Y-11718952D01*
X17278334Y-11718952D02*
X17278334Y-11547524D01*
X17459286Y-11738000D02*
X17440239Y-11747524D01*
X17440239Y-11747524D02*
X17402143Y-11747524D01*
X17402143Y-11747524D02*
X17383096Y-11738000D01*
X17383096Y-11738000D02*
X17373572Y-11718952D01*
X17373572Y-11718952D02*
X17373572Y-11642762D01*
X17373572Y-11642762D02*
X17383096Y-11623714D01*
X17383096Y-11623714D02*
X17402143Y-11614190D01*
X17402143Y-11614190D02*
X17440239Y-11614190D01*
X17440239Y-11614190D02*
X17459286Y-11623714D01*
X17459286Y-11623714D02*
X17468810Y-11642762D01*
X17468810Y-11642762D02*
X17468810Y-11661809D01*
X17468810Y-11661809D02*
X17373572Y-11680857D01*
X17545000Y-11738000D02*
X17564048Y-11747524D01*
X17564048Y-11747524D02*
X17602143Y-11747524D01*
X17602143Y-11747524D02*
X17621191Y-11738000D01*
X17621191Y-11738000D02*
X17630715Y-11718952D01*
X17630715Y-11718952D02*
X17630715Y-11709428D01*
X17630715Y-11709428D02*
X17621191Y-11690381D01*
X17621191Y-11690381D02*
X17602143Y-11680857D01*
X17602143Y-11680857D02*
X17573572Y-11680857D01*
X17573572Y-11680857D02*
X17554524Y-11671333D01*
X17554524Y-11671333D02*
X17545000Y-11652286D01*
X17545000Y-11652286D02*
X17545000Y-11642762D01*
X17545000Y-11642762D02*
X17554524Y-11623714D01*
X17554524Y-11623714D02*
X17573572Y-11614190D01*
X17573572Y-11614190D02*
X17602143Y-11614190D01*
X17602143Y-11614190D02*
X17621191Y-11623714D01*
X17697381Y-11823714D02*
X17706905Y-11814190D01*
X17706905Y-11814190D02*
X17725953Y-11785619D01*
X17725953Y-11785619D02*
X17735477Y-11766571D01*
X17735477Y-11766571D02*
X17745000Y-11738000D01*
X17745000Y-11738000D02*
X17754524Y-11690381D01*
X17754524Y-11690381D02*
X17754524Y-11652286D01*
X17754524Y-11652286D02*
X17745000Y-11604667D01*
X17745000Y-11604667D02*
X17735477Y-11576095D01*
X17735477Y-11576095D02*
X17725953Y-11557048D01*
X17725953Y-11557048D02*
X17706905Y-11528476D01*
X17706905Y-11528476D02*
X17697381Y-11518952D01*
D10*
X12745000Y-11919000D02*
G75*
G03*
X12745000Y-11919000I-50000J0D01*
G01*
D11*
X13097381Y-12011524D02*
X12983095Y-12011524D01*
X13040238Y-12011524D02*
X13040238Y-11811524D01*
X13040238Y-11811524D02*
X13021190Y-11840095D01*
X13021190Y-11840095D02*
X13002143Y-11859143D01*
X13002143Y-11859143D02*
X12983095Y-11868667D01*
X13183095Y-11992476D02*
X13192619Y-12002000D01*
X13192619Y-12002000D02*
X13183095Y-12011524D01*
X13183095Y-12011524D02*
X13173571Y-12002000D01*
X13173571Y-12002000D02*
X13183095Y-11992476D01*
X13183095Y-11992476D02*
X13183095Y-12011524D01*
X13316428Y-11811524D02*
X13335476Y-11811524D01*
X13335476Y-11811524D02*
X13354524Y-11821048D01*
X13354524Y-11821048D02*
X13364048Y-11830571D01*
X13364048Y-11830571D02*
X13373571Y-11849619D01*
X13373571Y-11849619D02*
X13383095Y-11887714D01*
X13383095Y-11887714D02*
X13383095Y-11935333D01*
X13383095Y-11935333D02*
X13373571Y-11973428D01*
X13373571Y-11973428D02*
X13364048Y-11992476D01*
X13364048Y-11992476D02*
X13354524Y-12002000D01*
X13354524Y-12002000D02*
X13335476Y-12011524D01*
X13335476Y-12011524D02*
X13316428Y-12011524D01*
X13316428Y-12011524D02*
X13297381Y-12002000D01*
X13297381Y-12002000D02*
X13287857Y-11992476D01*
X13287857Y-11992476D02*
X13278333Y-11973428D01*
X13278333Y-11973428D02*
X13268809Y-11935333D01*
X13268809Y-11935333D02*
X13268809Y-11887714D01*
X13268809Y-11887714D02*
X13278333Y-11849619D01*
X13278333Y-11849619D02*
X13287857Y-11830571D01*
X13287857Y-11830571D02*
X13297381Y-11821048D01*
X13297381Y-11821048D02*
X13316428Y-11811524D01*
X13506905Y-11811524D02*
X13525952Y-11811524D01*
X13525952Y-11811524D02*
X13545000Y-11821048D01*
X13545000Y-11821048D02*
X13554524Y-11830571D01*
X13554524Y-11830571D02*
X13564048Y-11849619D01*
X13564048Y-11849619D02*
X13573571Y-11887714D01*
X13573571Y-11887714D02*
X13573571Y-11935333D01*
X13573571Y-11935333D02*
X13564048Y-11973428D01*
X13564048Y-11973428D02*
X13554524Y-11992476D01*
X13554524Y-11992476D02*
X13545000Y-12002000D01*
X13545000Y-12002000D02*
X13525952Y-12011524D01*
X13525952Y-12011524D02*
X13506905Y-12011524D01*
X13506905Y-12011524D02*
X13487857Y-12002000D01*
X13487857Y-12002000D02*
X13478333Y-11992476D01*
X13478333Y-11992476D02*
X13468809Y-11973428D01*
X13468809Y-11973428D02*
X13459286Y-11935333D01*
X13459286Y-11935333D02*
X13459286Y-11887714D01*
X13459286Y-11887714D02*
X13468809Y-11849619D01*
X13468809Y-11849619D02*
X13478333Y-11830571D01*
X13478333Y-11830571D02*
X13487857Y-11821048D01*
X13487857Y-11821048D02*
X13506905Y-11811524D01*
X13697381Y-11811524D02*
X13716429Y-11811524D01*
X13716429Y-11811524D02*
X13735476Y-11821048D01*
X13735476Y-11821048D02*
X13745000Y-11830571D01*
X13745000Y-11830571D02*
X13754524Y-11849619D01*
X13754524Y-11849619D02*
X13764048Y-11887714D01*
X13764048Y-11887714D02*
X13764048Y-11935333D01*
X13764048Y-11935333D02*
X13754524Y-11973428D01*
X13754524Y-11973428D02*
X13745000Y-11992476D01*
X13745000Y-11992476D02*
X13735476Y-12002000D01*
X13735476Y-12002000D02*
X13716429Y-12011524D01*
X13716429Y-12011524D02*
X13697381Y-12011524D01*
X13697381Y-12011524D02*
X13678333Y-12002000D01*
X13678333Y-12002000D02*
X13668809Y-11992476D01*
X13668809Y-11992476D02*
X13659286Y-11973428D01*
X13659286Y-11973428D02*
X13649762Y-11935333D01*
X13649762Y-11935333D02*
X13649762Y-11887714D01*
X13649762Y-11887714D02*
X13659286Y-11849619D01*
X13659286Y-11849619D02*
X13668809Y-11830571D01*
X13668809Y-11830571D02*
X13678333Y-11821048D01*
X13678333Y-11821048D02*
X13697381Y-11811524D01*
X13849762Y-12011524D02*
X13849762Y-11878190D01*
X13849762Y-11897238D02*
X13859286Y-11887714D01*
X13859286Y-11887714D02*
X13878333Y-11878190D01*
X13878333Y-11878190D02*
X13906905Y-11878190D01*
X13906905Y-11878190D02*
X13925952Y-11887714D01*
X13925952Y-11887714D02*
X13935476Y-11906762D01*
X13935476Y-11906762D02*
X13935476Y-12011524D01*
X13935476Y-11906762D02*
X13945000Y-11887714D01*
X13945000Y-11887714D02*
X13964048Y-11878190D01*
X13964048Y-11878190D02*
X13992619Y-11878190D01*
X13992619Y-11878190D02*
X14011667Y-11887714D01*
X14011667Y-11887714D02*
X14021190Y-11906762D01*
X14021190Y-11906762D02*
X14021190Y-12011524D01*
X14116429Y-12011524D02*
X14116429Y-11878190D01*
X14116429Y-11897238D02*
X14125952Y-11887714D01*
X14125952Y-11887714D02*
X14145000Y-11878190D01*
X14145000Y-11878190D02*
X14173571Y-11878190D01*
X14173571Y-11878190D02*
X14192619Y-11887714D01*
X14192619Y-11887714D02*
X14202143Y-11906762D01*
X14202143Y-11906762D02*
X14202143Y-12011524D01*
X14202143Y-11906762D02*
X14211667Y-11887714D01*
X14211667Y-11887714D02*
X14230714Y-11878190D01*
X14230714Y-11878190D02*
X14259286Y-11878190D01*
X14259286Y-11878190D02*
X14278333Y-11887714D01*
X14278333Y-11887714D02*
X14287857Y-11906762D01*
X14287857Y-11906762D02*
X14287857Y-12011524D01*
X14678333Y-11802000D02*
X14506905Y-12059143D01*
X14935476Y-11811524D02*
X14954524Y-11811524D01*
X14954524Y-11811524D02*
X14973572Y-11821048D01*
X14973572Y-11821048D02*
X14983095Y-11830571D01*
X14983095Y-11830571D02*
X14992619Y-11849619D01*
X14992619Y-11849619D02*
X15002143Y-11887714D01*
X15002143Y-11887714D02*
X15002143Y-11935333D01*
X15002143Y-11935333D02*
X14992619Y-11973428D01*
X14992619Y-11973428D02*
X14983095Y-11992476D01*
X14983095Y-11992476D02*
X14973572Y-12002000D01*
X14973572Y-12002000D02*
X14954524Y-12011524D01*
X14954524Y-12011524D02*
X14935476Y-12011524D01*
X14935476Y-12011524D02*
X14916429Y-12002000D01*
X14916429Y-12002000D02*
X14906905Y-11992476D01*
X14906905Y-11992476D02*
X14897381Y-11973428D01*
X14897381Y-11973428D02*
X14887857Y-11935333D01*
X14887857Y-11935333D02*
X14887857Y-11887714D01*
X14887857Y-11887714D02*
X14897381Y-11849619D01*
X14897381Y-11849619D02*
X14906905Y-11830571D01*
X14906905Y-11830571D02*
X14916429Y-11821048D01*
X14916429Y-11821048D02*
X14935476Y-11811524D01*
X15087857Y-11992476D02*
X15097381Y-12002000D01*
X15097381Y-12002000D02*
X15087857Y-12011524D01*
X15087857Y-12011524D02*
X15078333Y-12002000D01*
X15078333Y-12002000D02*
X15087857Y-11992476D01*
X15087857Y-11992476D02*
X15087857Y-12011524D01*
X15221191Y-11811524D02*
X15240238Y-11811524D01*
X15240238Y-11811524D02*
X15259286Y-11821048D01*
X15259286Y-11821048D02*
X15268810Y-11830571D01*
X15268810Y-11830571D02*
X15278333Y-11849619D01*
X15278333Y-11849619D02*
X15287857Y-11887714D01*
X15287857Y-11887714D02*
X15287857Y-11935333D01*
X15287857Y-11935333D02*
X15278333Y-11973428D01*
X15278333Y-11973428D02*
X15268810Y-11992476D01*
X15268810Y-11992476D02*
X15259286Y-12002000D01*
X15259286Y-12002000D02*
X15240238Y-12011524D01*
X15240238Y-12011524D02*
X15221191Y-12011524D01*
X15221191Y-12011524D02*
X15202143Y-12002000D01*
X15202143Y-12002000D02*
X15192619Y-11992476D01*
X15192619Y-11992476D02*
X15183095Y-11973428D01*
X15183095Y-11973428D02*
X15173572Y-11935333D01*
X15173572Y-11935333D02*
X15173572Y-11887714D01*
X15173572Y-11887714D02*
X15183095Y-11849619D01*
X15183095Y-11849619D02*
X15192619Y-11830571D01*
X15192619Y-11830571D02*
X15202143Y-11821048D01*
X15202143Y-11821048D02*
X15221191Y-11811524D01*
X15354524Y-11811524D02*
X15478333Y-11811524D01*
X15478333Y-11811524D02*
X15411667Y-11887714D01*
X15411667Y-11887714D02*
X15440238Y-11887714D01*
X15440238Y-11887714D02*
X15459286Y-11897238D01*
X15459286Y-11897238D02*
X15468810Y-11906762D01*
X15468810Y-11906762D02*
X15478333Y-11925809D01*
X15478333Y-11925809D02*
X15478333Y-11973428D01*
X15478333Y-11973428D02*
X15468810Y-11992476D01*
X15468810Y-11992476D02*
X15459286Y-12002000D01*
X15459286Y-12002000D02*
X15440238Y-12011524D01*
X15440238Y-12011524D02*
X15383095Y-12011524D01*
X15383095Y-12011524D02*
X15364048Y-12002000D01*
X15364048Y-12002000D02*
X15354524Y-11992476D01*
X15573572Y-12011524D02*
X15611667Y-12011524D01*
X15611667Y-12011524D02*
X15630714Y-12002000D01*
X15630714Y-12002000D02*
X15640238Y-11992476D01*
X15640238Y-11992476D02*
X15659286Y-11963905D01*
X15659286Y-11963905D02*
X15668810Y-11925809D01*
X15668810Y-11925809D02*
X15668810Y-11849619D01*
X15668810Y-11849619D02*
X15659286Y-11830571D01*
X15659286Y-11830571D02*
X15649762Y-11821048D01*
X15649762Y-11821048D02*
X15630714Y-11811524D01*
X15630714Y-11811524D02*
X15592619Y-11811524D01*
X15592619Y-11811524D02*
X15573572Y-11821048D01*
X15573572Y-11821048D02*
X15564048Y-11830571D01*
X15564048Y-11830571D02*
X15554524Y-11849619D01*
X15554524Y-11849619D02*
X15554524Y-11897238D01*
X15554524Y-11897238D02*
X15564048Y-11916286D01*
X15564048Y-11916286D02*
X15573572Y-11925809D01*
X15573572Y-11925809D02*
X15592619Y-11935333D01*
X15592619Y-11935333D02*
X15630714Y-11935333D01*
X15630714Y-11935333D02*
X15649762Y-11925809D01*
X15649762Y-11925809D02*
X15659286Y-11916286D01*
X15659286Y-11916286D02*
X15668810Y-11897238D01*
X15840238Y-11878190D02*
X15840238Y-12011524D01*
X15792619Y-11802000D02*
X15745000Y-11944857D01*
X15745000Y-11944857D02*
X15868810Y-11944857D01*
X15935476Y-11811524D02*
X15935476Y-11849619D01*
X16011667Y-11811524D02*
X16011667Y-11849619D01*
X16306905Y-12087714D02*
X16297381Y-12078190D01*
X16297381Y-12078190D02*
X16278334Y-12049619D01*
X16278334Y-12049619D02*
X16268810Y-12030571D01*
X16268810Y-12030571D02*
X16259286Y-12002000D01*
X16259286Y-12002000D02*
X16249762Y-11954381D01*
X16249762Y-11954381D02*
X16249762Y-11916286D01*
X16249762Y-11916286D02*
X16259286Y-11868667D01*
X16259286Y-11868667D02*
X16268810Y-11840095D01*
X16268810Y-11840095D02*
X16278334Y-11821048D01*
X16278334Y-11821048D02*
X16297381Y-11792476D01*
X16297381Y-11792476D02*
X16306905Y-11782952D01*
X16411667Y-11897238D02*
X16392619Y-11887714D01*
X16392619Y-11887714D02*
X16383095Y-11878190D01*
X16383095Y-11878190D02*
X16373572Y-11859143D01*
X16373572Y-11859143D02*
X16373572Y-11849619D01*
X16373572Y-11849619D02*
X16383095Y-11830571D01*
X16383095Y-11830571D02*
X16392619Y-11821048D01*
X16392619Y-11821048D02*
X16411667Y-11811524D01*
X16411667Y-11811524D02*
X16449762Y-11811524D01*
X16449762Y-11811524D02*
X16468810Y-11821048D01*
X16468810Y-11821048D02*
X16478334Y-11830571D01*
X16478334Y-11830571D02*
X16487857Y-11849619D01*
X16487857Y-11849619D02*
X16487857Y-11859143D01*
X16487857Y-11859143D02*
X16478334Y-11878190D01*
X16478334Y-11878190D02*
X16468810Y-11887714D01*
X16468810Y-11887714D02*
X16449762Y-11897238D01*
X16449762Y-11897238D02*
X16411667Y-11897238D01*
X16411667Y-11897238D02*
X16392619Y-11906762D01*
X16392619Y-11906762D02*
X16383095Y-11916286D01*
X16383095Y-11916286D02*
X16373572Y-11935333D01*
X16373572Y-11935333D02*
X16373572Y-11973428D01*
X16373572Y-11973428D02*
X16383095Y-11992476D01*
X16383095Y-11992476D02*
X16392619Y-12002000D01*
X16392619Y-12002000D02*
X16411667Y-12011524D01*
X16411667Y-12011524D02*
X16449762Y-12011524D01*
X16449762Y-12011524D02*
X16468810Y-12002000D01*
X16468810Y-12002000D02*
X16478334Y-11992476D01*
X16478334Y-11992476D02*
X16487857Y-11973428D01*
X16487857Y-11973428D02*
X16487857Y-11935333D01*
X16487857Y-11935333D02*
X16478334Y-11916286D01*
X16478334Y-11916286D02*
X16468810Y-11906762D01*
X16468810Y-11906762D02*
X16449762Y-11897238D01*
X16678334Y-12011524D02*
X16564048Y-12011524D01*
X16621191Y-12011524D02*
X16621191Y-11811524D01*
X16621191Y-11811524D02*
X16602143Y-11840095D01*
X16602143Y-11840095D02*
X16583095Y-11859143D01*
X16583095Y-11859143D02*
X16564048Y-11868667D01*
X16916429Y-12011524D02*
X16916429Y-11811524D01*
X17002143Y-12011524D02*
X17002143Y-11906762D01*
X17002143Y-11906762D02*
X16992619Y-11887714D01*
X16992619Y-11887714D02*
X16973572Y-11878190D01*
X16973572Y-11878190D02*
X16945000Y-11878190D01*
X16945000Y-11878190D02*
X16925953Y-11887714D01*
X16925953Y-11887714D02*
X16916429Y-11897238D01*
X17125953Y-12011524D02*
X17106905Y-12002000D01*
X17106905Y-12002000D02*
X17097381Y-11992476D01*
X17097381Y-11992476D02*
X17087858Y-11973428D01*
X17087858Y-11973428D02*
X17087858Y-11916286D01*
X17087858Y-11916286D02*
X17097381Y-11897238D01*
X17097381Y-11897238D02*
X17106905Y-11887714D01*
X17106905Y-11887714D02*
X17125953Y-11878190D01*
X17125953Y-11878190D02*
X17154524Y-11878190D01*
X17154524Y-11878190D02*
X17173572Y-11887714D01*
X17173572Y-11887714D02*
X17183096Y-11897238D01*
X17183096Y-11897238D02*
X17192619Y-11916286D01*
X17192619Y-11916286D02*
X17192619Y-11973428D01*
X17192619Y-11973428D02*
X17183096Y-11992476D01*
X17183096Y-11992476D02*
X17173572Y-12002000D01*
X17173572Y-12002000D02*
X17154524Y-12011524D01*
X17154524Y-12011524D02*
X17125953Y-12011524D01*
X17306905Y-12011524D02*
X17287858Y-12002000D01*
X17287858Y-12002000D02*
X17278334Y-11982952D01*
X17278334Y-11982952D02*
X17278334Y-11811524D01*
X17459286Y-12002000D02*
X17440239Y-12011524D01*
X17440239Y-12011524D02*
X17402143Y-12011524D01*
X17402143Y-12011524D02*
X17383096Y-12002000D01*
X17383096Y-12002000D02*
X17373572Y-11982952D01*
X17373572Y-11982952D02*
X17373572Y-11906762D01*
X17373572Y-11906762D02*
X17383096Y-11887714D01*
X17383096Y-11887714D02*
X17402143Y-11878190D01*
X17402143Y-11878190D02*
X17440239Y-11878190D01*
X17440239Y-11878190D02*
X17459286Y-11887714D01*
X17459286Y-11887714D02*
X17468810Y-11906762D01*
X17468810Y-11906762D02*
X17468810Y-11925809D01*
X17468810Y-11925809D02*
X17373572Y-11944857D01*
X17545000Y-12002000D02*
X17564048Y-12011524D01*
X17564048Y-12011524D02*
X17602143Y-12011524D01*
X17602143Y-12011524D02*
X17621191Y-12002000D01*
X17621191Y-12002000D02*
X17630715Y-11982952D01*
X17630715Y-11982952D02*
X17630715Y-11973428D01*
X17630715Y-11973428D02*
X17621191Y-11954381D01*
X17621191Y-11954381D02*
X17602143Y-11944857D01*
X17602143Y-11944857D02*
X17573572Y-11944857D01*
X17573572Y-11944857D02*
X17554524Y-11935333D01*
X17554524Y-11935333D02*
X17545000Y-11916286D01*
X17545000Y-11916286D02*
X17545000Y-11906762D01*
X17545000Y-11906762D02*
X17554524Y-11887714D01*
X17554524Y-11887714D02*
X17573572Y-11878190D01*
X17573572Y-11878190D02*
X17602143Y-11878190D01*
X17602143Y-11878190D02*
X17621191Y-11887714D01*
X17697381Y-12087714D02*
X17706905Y-12078190D01*
X17706905Y-12078190D02*
X17725953Y-12049619D01*
X17725953Y-12049619D02*
X17735477Y-12030571D01*
X17735477Y-12030571D02*
X17745000Y-12002000D01*
X17745000Y-12002000D02*
X17754524Y-11954381D01*
X17754524Y-11954381D02*
X17754524Y-11916286D01*
X17754524Y-11916286D02*
X17745000Y-11868667D01*
X17745000Y-11868667D02*
X17735477Y-11840095D01*
X17735477Y-11840095D02*
X17725953Y-11821048D01*
X17725953Y-11821048D02*
X17706905Y-11792476D01*
X17706905Y-11792476D02*
X17697381Y-11782952D01*
D13*
X12670000Y-12108000D02*
X12670000Y-12258000D01*
X12595000Y-12183000D02*
X12745000Y-12183000D01*
D11*
X13097381Y-12275524D02*
X12983095Y-12275524D01*
X13040238Y-12275524D02*
X13040238Y-12075524D01*
X13040238Y-12075524D02*
X13021190Y-12104095D01*
X13021190Y-12104095D02*
X13002143Y-12123143D01*
X13002143Y-12123143D02*
X12983095Y-12132667D01*
X13183095Y-12256476D02*
X13192619Y-12266000D01*
X13192619Y-12266000D02*
X13183095Y-12275524D01*
X13183095Y-12275524D02*
X13173571Y-12266000D01*
X13173571Y-12266000D02*
X13183095Y-12256476D01*
X13183095Y-12256476D02*
X13183095Y-12275524D01*
X13373571Y-12075524D02*
X13278333Y-12075524D01*
X13278333Y-12075524D02*
X13268809Y-12170762D01*
X13268809Y-12170762D02*
X13278333Y-12161238D01*
X13278333Y-12161238D02*
X13297381Y-12151714D01*
X13297381Y-12151714D02*
X13345000Y-12151714D01*
X13345000Y-12151714D02*
X13364048Y-12161238D01*
X13364048Y-12161238D02*
X13373571Y-12170762D01*
X13373571Y-12170762D02*
X13383095Y-12189809D01*
X13383095Y-12189809D02*
X13383095Y-12237428D01*
X13383095Y-12237428D02*
X13373571Y-12256476D01*
X13373571Y-12256476D02*
X13364048Y-12266000D01*
X13364048Y-12266000D02*
X13345000Y-12275524D01*
X13345000Y-12275524D02*
X13297381Y-12275524D01*
X13297381Y-12275524D02*
X13278333Y-12266000D01*
X13278333Y-12266000D02*
X13268809Y-12256476D01*
X13506905Y-12075524D02*
X13525952Y-12075524D01*
X13525952Y-12075524D02*
X13545000Y-12085048D01*
X13545000Y-12085048D02*
X13554524Y-12094571D01*
X13554524Y-12094571D02*
X13564048Y-12113619D01*
X13564048Y-12113619D02*
X13573571Y-12151714D01*
X13573571Y-12151714D02*
X13573571Y-12199333D01*
X13573571Y-12199333D02*
X13564048Y-12237428D01*
X13564048Y-12237428D02*
X13554524Y-12256476D01*
X13554524Y-12256476D02*
X13545000Y-12266000D01*
X13545000Y-12266000D02*
X13525952Y-12275524D01*
X13525952Y-12275524D02*
X13506905Y-12275524D01*
X13506905Y-12275524D02*
X13487857Y-12266000D01*
X13487857Y-12266000D02*
X13478333Y-12256476D01*
X13478333Y-12256476D02*
X13468809Y-12237428D01*
X13468809Y-12237428D02*
X13459286Y-12199333D01*
X13459286Y-12199333D02*
X13459286Y-12151714D01*
X13459286Y-12151714D02*
X13468809Y-12113619D01*
X13468809Y-12113619D02*
X13478333Y-12094571D01*
X13478333Y-12094571D02*
X13487857Y-12085048D01*
X13487857Y-12085048D02*
X13506905Y-12075524D01*
X13697381Y-12075524D02*
X13716429Y-12075524D01*
X13716429Y-12075524D02*
X13735476Y-12085048D01*
X13735476Y-12085048D02*
X13745000Y-12094571D01*
X13745000Y-12094571D02*
X13754524Y-12113619D01*
X13754524Y-12113619D02*
X13764048Y-12151714D01*
X13764048Y-12151714D02*
X13764048Y-12199333D01*
X13764048Y-12199333D02*
X13754524Y-12237428D01*
X13754524Y-12237428D02*
X13745000Y-12256476D01*
X13745000Y-12256476D02*
X13735476Y-12266000D01*
X13735476Y-12266000D02*
X13716429Y-12275524D01*
X13716429Y-12275524D02*
X13697381Y-12275524D01*
X13697381Y-12275524D02*
X13678333Y-12266000D01*
X13678333Y-12266000D02*
X13668809Y-12256476D01*
X13668809Y-12256476D02*
X13659286Y-12237428D01*
X13659286Y-12237428D02*
X13649762Y-12199333D01*
X13649762Y-12199333D02*
X13649762Y-12151714D01*
X13649762Y-12151714D02*
X13659286Y-12113619D01*
X13659286Y-12113619D02*
X13668809Y-12094571D01*
X13668809Y-12094571D02*
X13678333Y-12085048D01*
X13678333Y-12085048D02*
X13697381Y-12075524D01*
X13849762Y-12275524D02*
X13849762Y-12142190D01*
X13849762Y-12161238D02*
X13859286Y-12151714D01*
X13859286Y-12151714D02*
X13878333Y-12142190D01*
X13878333Y-12142190D02*
X13906905Y-12142190D01*
X13906905Y-12142190D02*
X13925952Y-12151714D01*
X13925952Y-12151714D02*
X13935476Y-12170762D01*
X13935476Y-12170762D02*
X13935476Y-12275524D01*
X13935476Y-12170762D02*
X13945000Y-12151714D01*
X13945000Y-12151714D02*
X13964048Y-12142190D01*
X13964048Y-12142190D02*
X13992619Y-12142190D01*
X13992619Y-12142190D02*
X14011667Y-12151714D01*
X14011667Y-12151714D02*
X14021190Y-12170762D01*
X14021190Y-12170762D02*
X14021190Y-12275524D01*
X14116429Y-12275524D02*
X14116429Y-12142190D01*
X14116429Y-12161238D02*
X14125952Y-12151714D01*
X14125952Y-12151714D02*
X14145000Y-12142190D01*
X14145000Y-12142190D02*
X14173571Y-12142190D01*
X14173571Y-12142190D02*
X14192619Y-12151714D01*
X14192619Y-12151714D02*
X14202143Y-12170762D01*
X14202143Y-12170762D02*
X14202143Y-12275524D01*
X14202143Y-12170762D02*
X14211667Y-12151714D01*
X14211667Y-12151714D02*
X14230714Y-12142190D01*
X14230714Y-12142190D02*
X14259286Y-12142190D01*
X14259286Y-12142190D02*
X14278333Y-12151714D01*
X14278333Y-12151714D02*
X14287857Y-12170762D01*
X14287857Y-12170762D02*
X14287857Y-12275524D01*
X14678333Y-12066000D02*
X14506905Y-12323143D01*
X14935476Y-12075524D02*
X14954524Y-12075524D01*
X14954524Y-12075524D02*
X14973572Y-12085048D01*
X14973572Y-12085048D02*
X14983095Y-12094571D01*
X14983095Y-12094571D02*
X14992619Y-12113619D01*
X14992619Y-12113619D02*
X15002143Y-12151714D01*
X15002143Y-12151714D02*
X15002143Y-12199333D01*
X15002143Y-12199333D02*
X14992619Y-12237428D01*
X14992619Y-12237428D02*
X14983095Y-12256476D01*
X14983095Y-12256476D02*
X14973572Y-12266000D01*
X14973572Y-12266000D02*
X14954524Y-12275524D01*
X14954524Y-12275524D02*
X14935476Y-12275524D01*
X14935476Y-12275524D02*
X14916429Y-12266000D01*
X14916429Y-12266000D02*
X14906905Y-12256476D01*
X14906905Y-12256476D02*
X14897381Y-12237428D01*
X14897381Y-12237428D02*
X14887857Y-12199333D01*
X14887857Y-12199333D02*
X14887857Y-12151714D01*
X14887857Y-12151714D02*
X14897381Y-12113619D01*
X14897381Y-12113619D02*
X14906905Y-12094571D01*
X14906905Y-12094571D02*
X14916429Y-12085048D01*
X14916429Y-12085048D02*
X14935476Y-12075524D01*
X15087857Y-12256476D02*
X15097381Y-12266000D01*
X15097381Y-12266000D02*
X15087857Y-12275524D01*
X15087857Y-12275524D02*
X15078333Y-12266000D01*
X15078333Y-12266000D02*
X15087857Y-12256476D01*
X15087857Y-12256476D02*
X15087857Y-12275524D01*
X15221191Y-12075524D02*
X15240238Y-12075524D01*
X15240238Y-12075524D02*
X15259286Y-12085048D01*
X15259286Y-12085048D02*
X15268810Y-12094571D01*
X15268810Y-12094571D02*
X15278333Y-12113619D01*
X15278333Y-12113619D02*
X15287857Y-12151714D01*
X15287857Y-12151714D02*
X15287857Y-12199333D01*
X15287857Y-12199333D02*
X15278333Y-12237428D01*
X15278333Y-12237428D02*
X15268810Y-12256476D01*
X15268810Y-12256476D02*
X15259286Y-12266000D01*
X15259286Y-12266000D02*
X15240238Y-12275524D01*
X15240238Y-12275524D02*
X15221191Y-12275524D01*
X15221191Y-12275524D02*
X15202143Y-12266000D01*
X15202143Y-12266000D02*
X15192619Y-12256476D01*
X15192619Y-12256476D02*
X15183095Y-12237428D01*
X15183095Y-12237428D02*
X15173572Y-12199333D01*
X15173572Y-12199333D02*
X15173572Y-12151714D01*
X15173572Y-12151714D02*
X15183095Y-12113619D01*
X15183095Y-12113619D02*
X15192619Y-12094571D01*
X15192619Y-12094571D02*
X15202143Y-12085048D01*
X15202143Y-12085048D02*
X15221191Y-12075524D01*
X15468810Y-12075524D02*
X15373572Y-12075524D01*
X15373572Y-12075524D02*
X15364048Y-12170762D01*
X15364048Y-12170762D02*
X15373572Y-12161238D01*
X15373572Y-12161238D02*
X15392619Y-12151714D01*
X15392619Y-12151714D02*
X15440238Y-12151714D01*
X15440238Y-12151714D02*
X15459286Y-12161238D01*
X15459286Y-12161238D02*
X15468810Y-12170762D01*
X15468810Y-12170762D02*
X15478333Y-12189809D01*
X15478333Y-12189809D02*
X15478333Y-12237428D01*
X15478333Y-12237428D02*
X15468810Y-12256476D01*
X15468810Y-12256476D02*
X15459286Y-12266000D01*
X15459286Y-12266000D02*
X15440238Y-12275524D01*
X15440238Y-12275524D02*
X15392619Y-12275524D01*
X15392619Y-12275524D02*
X15373572Y-12266000D01*
X15373572Y-12266000D02*
X15364048Y-12256476D01*
X15573572Y-12275524D02*
X15611667Y-12275524D01*
X15611667Y-12275524D02*
X15630714Y-12266000D01*
X15630714Y-12266000D02*
X15640238Y-12256476D01*
X15640238Y-12256476D02*
X15659286Y-12227905D01*
X15659286Y-12227905D02*
X15668810Y-12189809D01*
X15668810Y-12189809D02*
X15668810Y-12113619D01*
X15668810Y-12113619D02*
X15659286Y-12094571D01*
X15659286Y-12094571D02*
X15649762Y-12085048D01*
X15649762Y-12085048D02*
X15630714Y-12075524D01*
X15630714Y-12075524D02*
X15592619Y-12075524D01*
X15592619Y-12075524D02*
X15573572Y-12085048D01*
X15573572Y-12085048D02*
X15564048Y-12094571D01*
X15564048Y-12094571D02*
X15554524Y-12113619D01*
X15554524Y-12113619D02*
X15554524Y-12161238D01*
X15554524Y-12161238D02*
X15564048Y-12180286D01*
X15564048Y-12180286D02*
X15573572Y-12189809D01*
X15573572Y-12189809D02*
X15592619Y-12199333D01*
X15592619Y-12199333D02*
X15630714Y-12199333D01*
X15630714Y-12199333D02*
X15649762Y-12189809D01*
X15649762Y-12189809D02*
X15659286Y-12180286D01*
X15659286Y-12180286D02*
X15668810Y-12161238D01*
X15859286Y-12275524D02*
X15745000Y-12275524D01*
X15802143Y-12275524D02*
X15802143Y-12075524D01*
X15802143Y-12075524D02*
X15783095Y-12104095D01*
X15783095Y-12104095D02*
X15764048Y-12123143D01*
X15764048Y-12123143D02*
X15745000Y-12132667D01*
X15935476Y-12075524D02*
X15935476Y-12113619D01*
X16011667Y-12075524D02*
X16011667Y-12113619D01*
X16306905Y-12351714D02*
X16297381Y-12342190D01*
X16297381Y-12342190D02*
X16278334Y-12313619D01*
X16278334Y-12313619D02*
X16268810Y-12294571D01*
X16268810Y-12294571D02*
X16259286Y-12266000D01*
X16259286Y-12266000D02*
X16249762Y-12218381D01*
X16249762Y-12218381D02*
X16249762Y-12180286D01*
X16249762Y-12180286D02*
X16259286Y-12132667D01*
X16259286Y-12132667D02*
X16268810Y-12104095D01*
X16268810Y-12104095D02*
X16278334Y-12085048D01*
X16278334Y-12085048D02*
X16297381Y-12056476D01*
X16297381Y-12056476D02*
X16306905Y-12046952D01*
X16421191Y-12075524D02*
X16440238Y-12075524D01*
X16440238Y-12075524D02*
X16459286Y-12085048D01*
X16459286Y-12085048D02*
X16468810Y-12094571D01*
X16468810Y-12094571D02*
X16478334Y-12113619D01*
X16478334Y-12113619D02*
X16487857Y-12151714D01*
X16487857Y-12151714D02*
X16487857Y-12199333D01*
X16487857Y-12199333D02*
X16478334Y-12237428D01*
X16478334Y-12237428D02*
X16468810Y-12256476D01*
X16468810Y-12256476D02*
X16459286Y-12266000D01*
X16459286Y-12266000D02*
X16440238Y-12275524D01*
X16440238Y-12275524D02*
X16421191Y-12275524D01*
X16421191Y-12275524D02*
X16402143Y-12266000D01*
X16402143Y-12266000D02*
X16392619Y-12256476D01*
X16392619Y-12256476D02*
X16383095Y-12237428D01*
X16383095Y-12237428D02*
X16373572Y-12199333D01*
X16373572Y-12199333D02*
X16373572Y-12151714D01*
X16373572Y-12151714D02*
X16383095Y-12113619D01*
X16383095Y-12113619D02*
X16392619Y-12094571D01*
X16392619Y-12094571D02*
X16402143Y-12085048D01*
X16402143Y-12085048D02*
X16421191Y-12075524D01*
X16725953Y-12275524D02*
X16725953Y-12075524D01*
X16811667Y-12275524D02*
X16811667Y-12170762D01*
X16811667Y-12170762D02*
X16802143Y-12151714D01*
X16802143Y-12151714D02*
X16783096Y-12142190D01*
X16783096Y-12142190D02*
X16754524Y-12142190D01*
X16754524Y-12142190D02*
X16735476Y-12151714D01*
X16735476Y-12151714D02*
X16725953Y-12161238D01*
X16935477Y-12275524D02*
X16916429Y-12266000D01*
X16916429Y-12266000D02*
X16906905Y-12256476D01*
X16906905Y-12256476D02*
X16897381Y-12237428D01*
X16897381Y-12237428D02*
X16897381Y-12180286D01*
X16897381Y-12180286D02*
X16906905Y-12161238D01*
X16906905Y-12161238D02*
X16916429Y-12151714D01*
X16916429Y-12151714D02*
X16935477Y-12142190D01*
X16935477Y-12142190D02*
X16964048Y-12142190D01*
X16964048Y-12142190D02*
X16983096Y-12151714D01*
X16983096Y-12151714D02*
X16992619Y-12161238D01*
X16992619Y-12161238D02*
X17002143Y-12180286D01*
X17002143Y-12180286D02*
X17002143Y-12237428D01*
X17002143Y-12237428D02*
X16992619Y-12256476D01*
X16992619Y-12256476D02*
X16983096Y-12266000D01*
X16983096Y-12266000D02*
X16964048Y-12275524D01*
X16964048Y-12275524D02*
X16935477Y-12275524D01*
X17116429Y-12275524D02*
X17097381Y-12266000D01*
X17097381Y-12266000D02*
X17087858Y-12246952D01*
X17087858Y-12246952D02*
X17087858Y-12075524D01*
X17268810Y-12266000D02*
X17249762Y-12275524D01*
X17249762Y-12275524D02*
X17211667Y-12275524D01*
X17211667Y-12275524D02*
X17192619Y-12266000D01*
X17192619Y-12266000D02*
X17183096Y-12246952D01*
X17183096Y-12246952D02*
X17183096Y-12170762D01*
X17183096Y-12170762D02*
X17192619Y-12151714D01*
X17192619Y-12151714D02*
X17211667Y-12142190D01*
X17211667Y-12142190D02*
X17249762Y-12142190D01*
X17249762Y-12142190D02*
X17268810Y-12151714D01*
X17268810Y-12151714D02*
X17278334Y-12170762D01*
X17278334Y-12170762D02*
X17278334Y-12189809D01*
X17278334Y-12189809D02*
X17183096Y-12208857D01*
X17354524Y-12266000D02*
X17373572Y-12275524D01*
X17373572Y-12275524D02*
X17411667Y-12275524D01*
X17411667Y-12275524D02*
X17430715Y-12266000D01*
X17430715Y-12266000D02*
X17440239Y-12246952D01*
X17440239Y-12246952D02*
X17440239Y-12237428D01*
X17440239Y-12237428D02*
X17430715Y-12218381D01*
X17430715Y-12218381D02*
X17411667Y-12208857D01*
X17411667Y-12208857D02*
X17383096Y-12208857D01*
X17383096Y-12208857D02*
X17364048Y-12199333D01*
X17364048Y-12199333D02*
X17354524Y-12180286D01*
X17354524Y-12180286D02*
X17354524Y-12170762D01*
X17354524Y-12170762D02*
X17364048Y-12151714D01*
X17364048Y-12151714D02*
X17383096Y-12142190D01*
X17383096Y-12142190D02*
X17411667Y-12142190D01*
X17411667Y-12142190D02*
X17430715Y-12151714D01*
X17678334Y-12199333D02*
X17830715Y-12199333D01*
X17754524Y-12275524D02*
X17754524Y-12123143D01*
X18068810Y-12094571D02*
X18078334Y-12085048D01*
X18078334Y-12085048D02*
X18097381Y-12075524D01*
X18097381Y-12075524D02*
X18145001Y-12075524D01*
X18145001Y-12075524D02*
X18164048Y-12085048D01*
X18164048Y-12085048D02*
X18173572Y-12094571D01*
X18173572Y-12094571D02*
X18183096Y-12113619D01*
X18183096Y-12113619D02*
X18183096Y-12132667D01*
X18183096Y-12132667D02*
X18173572Y-12161238D01*
X18173572Y-12161238D02*
X18059286Y-12275524D01*
X18059286Y-12275524D02*
X18183096Y-12275524D01*
X18411667Y-12266000D02*
X18430715Y-12275524D01*
X18430715Y-12275524D02*
X18468810Y-12275524D01*
X18468810Y-12275524D02*
X18487858Y-12266000D01*
X18487858Y-12266000D02*
X18497382Y-12246952D01*
X18497382Y-12246952D02*
X18497382Y-12237428D01*
X18497382Y-12237428D02*
X18487858Y-12218381D01*
X18487858Y-12218381D02*
X18468810Y-12208857D01*
X18468810Y-12208857D02*
X18440239Y-12208857D01*
X18440239Y-12208857D02*
X18421191Y-12199333D01*
X18421191Y-12199333D02*
X18411667Y-12180286D01*
X18411667Y-12180286D02*
X18411667Y-12170762D01*
X18411667Y-12170762D02*
X18421191Y-12151714D01*
X18421191Y-12151714D02*
X18440239Y-12142190D01*
X18440239Y-12142190D02*
X18468810Y-12142190D01*
X18468810Y-12142190D02*
X18487858Y-12151714D01*
X18611667Y-12275524D02*
X18592620Y-12266000D01*
X18592620Y-12266000D02*
X18583096Y-12246952D01*
X18583096Y-12246952D02*
X18583096Y-12075524D01*
X18716429Y-12275524D02*
X18697382Y-12266000D01*
X18697382Y-12266000D02*
X18687858Y-12256476D01*
X18687858Y-12256476D02*
X18678334Y-12237428D01*
X18678334Y-12237428D02*
X18678334Y-12180286D01*
X18678334Y-12180286D02*
X18687858Y-12161238D01*
X18687858Y-12161238D02*
X18697382Y-12151714D01*
X18697382Y-12151714D02*
X18716429Y-12142190D01*
X18716429Y-12142190D02*
X18745001Y-12142190D01*
X18745001Y-12142190D02*
X18764048Y-12151714D01*
X18764048Y-12151714D02*
X18773572Y-12161238D01*
X18773572Y-12161238D02*
X18783096Y-12180286D01*
X18783096Y-12180286D02*
X18783096Y-12237428D01*
X18783096Y-12237428D02*
X18773572Y-12256476D01*
X18773572Y-12256476D02*
X18764048Y-12266000D01*
X18764048Y-12266000D02*
X18745001Y-12275524D01*
X18745001Y-12275524D02*
X18716429Y-12275524D01*
X18840239Y-12142190D02*
X18916429Y-12142190D01*
X18868810Y-12075524D02*
X18868810Y-12246952D01*
X18868810Y-12246952D02*
X18878334Y-12266000D01*
X18878334Y-12266000D02*
X18897382Y-12275524D01*
X18897382Y-12275524D02*
X18916429Y-12275524D01*
X18973572Y-12266000D02*
X18992620Y-12275524D01*
X18992620Y-12275524D02*
X19030715Y-12275524D01*
X19030715Y-12275524D02*
X19049763Y-12266000D01*
X19049763Y-12266000D02*
X19059286Y-12246952D01*
X19059286Y-12246952D02*
X19059286Y-12237428D01*
X19059286Y-12237428D02*
X19049763Y-12218381D01*
X19049763Y-12218381D02*
X19030715Y-12208857D01*
X19030715Y-12208857D02*
X19002143Y-12208857D01*
X19002143Y-12208857D02*
X18983096Y-12199333D01*
X18983096Y-12199333D02*
X18973572Y-12180286D01*
X18973572Y-12180286D02*
X18973572Y-12170762D01*
X18973572Y-12170762D02*
X18983096Y-12151714D01*
X18983096Y-12151714D02*
X19002143Y-12142190D01*
X19002143Y-12142190D02*
X19030715Y-12142190D01*
X19030715Y-12142190D02*
X19049763Y-12151714D01*
X19125953Y-12351714D02*
X19135477Y-12342190D01*
X19135477Y-12342190D02*
X19154524Y-12313619D01*
X19154524Y-12313619D02*
X19164048Y-12294571D01*
X19164048Y-12294571D02*
X19173572Y-12266000D01*
X19173572Y-12266000D02*
X19183096Y-12218381D01*
X19183096Y-12218381D02*
X19183096Y-12180286D01*
X19183096Y-12180286D02*
X19173572Y-12132667D01*
X19173572Y-12132667D02*
X19164048Y-12104095D01*
X19164048Y-12104095D02*
X19154524Y-12085048D01*
X19154524Y-12085048D02*
X19135477Y-12056476D01*
X19135477Y-12056476D02*
X19125953Y-12046952D01*
X12715711Y-12523711D02*
X12715711Y-12382289D01*
X12574289Y-12382289D01*
X12574289Y-12523711D01*
X12715711Y-12523711D01*
X12983095Y-12364571D02*
X12992619Y-12355048D01*
X12992619Y-12355048D02*
X13011667Y-12345524D01*
X13011667Y-12345524D02*
X13059286Y-12345524D01*
X13059286Y-12345524D02*
X13078333Y-12355048D01*
X13078333Y-12355048D02*
X13087857Y-12364571D01*
X13087857Y-12364571D02*
X13097381Y-12383619D01*
X13097381Y-12383619D02*
X13097381Y-12402667D01*
X13097381Y-12402667D02*
X13087857Y-12431238D01*
X13087857Y-12431238D02*
X12973571Y-12545524D01*
X12973571Y-12545524D02*
X13097381Y-12545524D01*
X13183095Y-12526476D02*
X13192619Y-12536000D01*
X13192619Y-12536000D02*
X13183095Y-12545524D01*
X13183095Y-12545524D02*
X13173571Y-12536000D01*
X13173571Y-12536000D02*
X13183095Y-12526476D01*
X13183095Y-12526476D02*
X13183095Y-12545524D01*
X13268809Y-12364571D02*
X13278333Y-12355048D01*
X13278333Y-12355048D02*
X13297381Y-12345524D01*
X13297381Y-12345524D02*
X13345000Y-12345524D01*
X13345000Y-12345524D02*
X13364048Y-12355048D01*
X13364048Y-12355048D02*
X13373571Y-12364571D01*
X13373571Y-12364571D02*
X13383095Y-12383619D01*
X13383095Y-12383619D02*
X13383095Y-12402667D01*
X13383095Y-12402667D02*
X13373571Y-12431238D01*
X13373571Y-12431238D02*
X13259286Y-12545524D01*
X13259286Y-12545524D02*
X13383095Y-12545524D01*
X13506905Y-12345524D02*
X13525952Y-12345524D01*
X13525952Y-12345524D02*
X13545000Y-12355048D01*
X13545000Y-12355048D02*
X13554524Y-12364571D01*
X13554524Y-12364571D02*
X13564048Y-12383619D01*
X13564048Y-12383619D02*
X13573571Y-12421714D01*
X13573571Y-12421714D02*
X13573571Y-12469333D01*
X13573571Y-12469333D02*
X13564048Y-12507428D01*
X13564048Y-12507428D02*
X13554524Y-12526476D01*
X13554524Y-12526476D02*
X13545000Y-12536000D01*
X13545000Y-12536000D02*
X13525952Y-12545524D01*
X13525952Y-12545524D02*
X13506905Y-12545524D01*
X13506905Y-12545524D02*
X13487857Y-12536000D01*
X13487857Y-12536000D02*
X13478333Y-12526476D01*
X13478333Y-12526476D02*
X13468809Y-12507428D01*
X13468809Y-12507428D02*
X13459286Y-12469333D01*
X13459286Y-12469333D02*
X13459286Y-12421714D01*
X13459286Y-12421714D02*
X13468809Y-12383619D01*
X13468809Y-12383619D02*
X13478333Y-12364571D01*
X13478333Y-12364571D02*
X13487857Y-12355048D01*
X13487857Y-12355048D02*
X13506905Y-12345524D01*
X13697381Y-12345524D02*
X13716429Y-12345524D01*
X13716429Y-12345524D02*
X13735476Y-12355048D01*
X13735476Y-12355048D02*
X13745000Y-12364571D01*
X13745000Y-12364571D02*
X13754524Y-12383619D01*
X13754524Y-12383619D02*
X13764048Y-12421714D01*
X13764048Y-12421714D02*
X13764048Y-12469333D01*
X13764048Y-12469333D02*
X13754524Y-12507428D01*
X13754524Y-12507428D02*
X13745000Y-12526476D01*
X13745000Y-12526476D02*
X13735476Y-12536000D01*
X13735476Y-12536000D02*
X13716429Y-12545524D01*
X13716429Y-12545524D02*
X13697381Y-12545524D01*
X13697381Y-12545524D02*
X13678333Y-12536000D01*
X13678333Y-12536000D02*
X13668809Y-12526476D01*
X13668809Y-12526476D02*
X13659286Y-12507428D01*
X13659286Y-12507428D02*
X13649762Y-12469333D01*
X13649762Y-12469333D02*
X13649762Y-12421714D01*
X13649762Y-12421714D02*
X13659286Y-12383619D01*
X13659286Y-12383619D02*
X13668809Y-12364571D01*
X13668809Y-12364571D02*
X13678333Y-12355048D01*
X13678333Y-12355048D02*
X13697381Y-12345524D01*
X13849762Y-12545524D02*
X13849762Y-12412190D01*
X13849762Y-12431238D02*
X13859286Y-12421714D01*
X13859286Y-12421714D02*
X13878333Y-12412190D01*
X13878333Y-12412190D02*
X13906905Y-12412190D01*
X13906905Y-12412190D02*
X13925952Y-12421714D01*
X13925952Y-12421714D02*
X13935476Y-12440762D01*
X13935476Y-12440762D02*
X13935476Y-12545524D01*
X13935476Y-12440762D02*
X13945000Y-12421714D01*
X13945000Y-12421714D02*
X13964048Y-12412190D01*
X13964048Y-12412190D02*
X13992619Y-12412190D01*
X13992619Y-12412190D02*
X14011667Y-12421714D01*
X14011667Y-12421714D02*
X14021190Y-12440762D01*
X14021190Y-12440762D02*
X14021190Y-12545524D01*
X14116429Y-12545524D02*
X14116429Y-12412190D01*
X14116429Y-12431238D02*
X14125952Y-12421714D01*
X14125952Y-12421714D02*
X14145000Y-12412190D01*
X14145000Y-12412190D02*
X14173571Y-12412190D01*
X14173571Y-12412190D02*
X14192619Y-12421714D01*
X14192619Y-12421714D02*
X14202143Y-12440762D01*
X14202143Y-12440762D02*
X14202143Y-12545524D01*
X14202143Y-12440762D02*
X14211667Y-12421714D01*
X14211667Y-12421714D02*
X14230714Y-12412190D01*
X14230714Y-12412190D02*
X14259286Y-12412190D01*
X14259286Y-12412190D02*
X14278333Y-12421714D01*
X14278333Y-12421714D02*
X14287857Y-12440762D01*
X14287857Y-12440762D02*
X14287857Y-12545524D01*
X14678333Y-12336000D02*
X14506905Y-12593143D01*
X14935476Y-12345524D02*
X14954524Y-12345524D01*
X14954524Y-12345524D02*
X14973572Y-12355048D01*
X14973572Y-12355048D02*
X14983095Y-12364571D01*
X14983095Y-12364571D02*
X14992619Y-12383619D01*
X14992619Y-12383619D02*
X15002143Y-12421714D01*
X15002143Y-12421714D02*
X15002143Y-12469333D01*
X15002143Y-12469333D02*
X14992619Y-12507428D01*
X14992619Y-12507428D02*
X14983095Y-12526476D01*
X14983095Y-12526476D02*
X14973572Y-12536000D01*
X14973572Y-12536000D02*
X14954524Y-12545524D01*
X14954524Y-12545524D02*
X14935476Y-12545524D01*
X14935476Y-12545524D02*
X14916429Y-12536000D01*
X14916429Y-12536000D02*
X14906905Y-12526476D01*
X14906905Y-12526476D02*
X14897381Y-12507428D01*
X14897381Y-12507428D02*
X14887857Y-12469333D01*
X14887857Y-12469333D02*
X14887857Y-12421714D01*
X14887857Y-12421714D02*
X14897381Y-12383619D01*
X14897381Y-12383619D02*
X14906905Y-12364571D01*
X14906905Y-12364571D02*
X14916429Y-12355048D01*
X14916429Y-12355048D02*
X14935476Y-12345524D01*
X15087857Y-12526476D02*
X15097381Y-12536000D01*
X15097381Y-12536000D02*
X15087857Y-12545524D01*
X15087857Y-12545524D02*
X15078333Y-12536000D01*
X15078333Y-12536000D02*
X15087857Y-12526476D01*
X15087857Y-12526476D02*
X15087857Y-12545524D01*
X15221191Y-12345524D02*
X15240238Y-12345524D01*
X15240238Y-12345524D02*
X15259286Y-12355048D01*
X15259286Y-12355048D02*
X15268810Y-12364571D01*
X15268810Y-12364571D02*
X15278333Y-12383619D01*
X15278333Y-12383619D02*
X15287857Y-12421714D01*
X15287857Y-12421714D02*
X15287857Y-12469333D01*
X15287857Y-12469333D02*
X15278333Y-12507428D01*
X15278333Y-12507428D02*
X15268810Y-12526476D01*
X15268810Y-12526476D02*
X15259286Y-12536000D01*
X15259286Y-12536000D02*
X15240238Y-12545524D01*
X15240238Y-12545524D02*
X15221191Y-12545524D01*
X15221191Y-12545524D02*
X15202143Y-12536000D01*
X15202143Y-12536000D02*
X15192619Y-12526476D01*
X15192619Y-12526476D02*
X15183095Y-12507428D01*
X15183095Y-12507428D02*
X15173572Y-12469333D01*
X15173572Y-12469333D02*
X15173572Y-12421714D01*
X15173572Y-12421714D02*
X15183095Y-12383619D01*
X15183095Y-12383619D02*
X15192619Y-12364571D01*
X15192619Y-12364571D02*
X15202143Y-12355048D01*
X15202143Y-12355048D02*
X15221191Y-12345524D01*
X15402143Y-12431238D02*
X15383095Y-12421714D01*
X15383095Y-12421714D02*
X15373572Y-12412190D01*
X15373572Y-12412190D02*
X15364048Y-12393143D01*
X15364048Y-12393143D02*
X15364048Y-12383619D01*
X15364048Y-12383619D02*
X15373572Y-12364571D01*
X15373572Y-12364571D02*
X15383095Y-12355048D01*
X15383095Y-12355048D02*
X15402143Y-12345524D01*
X15402143Y-12345524D02*
X15440238Y-12345524D01*
X15440238Y-12345524D02*
X15459286Y-12355048D01*
X15459286Y-12355048D02*
X15468810Y-12364571D01*
X15468810Y-12364571D02*
X15478333Y-12383619D01*
X15478333Y-12383619D02*
X15478333Y-12393143D01*
X15478333Y-12393143D02*
X15468810Y-12412190D01*
X15468810Y-12412190D02*
X15459286Y-12421714D01*
X15459286Y-12421714D02*
X15440238Y-12431238D01*
X15440238Y-12431238D02*
X15402143Y-12431238D01*
X15402143Y-12431238D02*
X15383095Y-12440762D01*
X15383095Y-12440762D02*
X15373572Y-12450286D01*
X15373572Y-12450286D02*
X15364048Y-12469333D01*
X15364048Y-12469333D02*
X15364048Y-12507428D01*
X15364048Y-12507428D02*
X15373572Y-12526476D01*
X15373572Y-12526476D02*
X15383095Y-12536000D01*
X15383095Y-12536000D02*
X15402143Y-12545524D01*
X15402143Y-12545524D02*
X15440238Y-12545524D01*
X15440238Y-12545524D02*
X15459286Y-12536000D01*
X15459286Y-12536000D02*
X15468810Y-12526476D01*
X15468810Y-12526476D02*
X15478333Y-12507428D01*
X15478333Y-12507428D02*
X15478333Y-12469333D01*
X15478333Y-12469333D02*
X15468810Y-12450286D01*
X15468810Y-12450286D02*
X15459286Y-12440762D01*
X15459286Y-12440762D02*
X15440238Y-12431238D01*
X15649762Y-12345524D02*
X15611667Y-12345524D01*
X15611667Y-12345524D02*
X15592619Y-12355048D01*
X15592619Y-12355048D02*
X15583095Y-12364571D01*
X15583095Y-12364571D02*
X15564048Y-12393143D01*
X15564048Y-12393143D02*
X15554524Y-12431238D01*
X15554524Y-12431238D02*
X15554524Y-12507428D01*
X15554524Y-12507428D02*
X15564048Y-12526476D01*
X15564048Y-12526476D02*
X15573572Y-12536000D01*
X15573572Y-12536000D02*
X15592619Y-12545524D01*
X15592619Y-12545524D02*
X15630714Y-12545524D01*
X15630714Y-12545524D02*
X15649762Y-12536000D01*
X15649762Y-12536000D02*
X15659286Y-12526476D01*
X15659286Y-12526476D02*
X15668810Y-12507428D01*
X15668810Y-12507428D02*
X15668810Y-12459809D01*
X15668810Y-12459809D02*
X15659286Y-12440762D01*
X15659286Y-12440762D02*
X15649762Y-12431238D01*
X15649762Y-12431238D02*
X15630714Y-12421714D01*
X15630714Y-12421714D02*
X15592619Y-12421714D01*
X15592619Y-12421714D02*
X15573572Y-12431238D01*
X15573572Y-12431238D02*
X15564048Y-12440762D01*
X15564048Y-12440762D02*
X15554524Y-12459809D01*
X15840238Y-12345524D02*
X15802143Y-12345524D01*
X15802143Y-12345524D02*
X15783095Y-12355048D01*
X15783095Y-12355048D02*
X15773572Y-12364571D01*
X15773572Y-12364571D02*
X15754524Y-12393143D01*
X15754524Y-12393143D02*
X15745000Y-12431238D01*
X15745000Y-12431238D02*
X15745000Y-12507428D01*
X15745000Y-12507428D02*
X15754524Y-12526476D01*
X15754524Y-12526476D02*
X15764048Y-12536000D01*
X15764048Y-12536000D02*
X15783095Y-12545524D01*
X15783095Y-12545524D02*
X15821191Y-12545524D01*
X15821191Y-12545524D02*
X15840238Y-12536000D01*
X15840238Y-12536000D02*
X15849762Y-12526476D01*
X15849762Y-12526476D02*
X15859286Y-12507428D01*
X15859286Y-12507428D02*
X15859286Y-12459809D01*
X15859286Y-12459809D02*
X15849762Y-12440762D01*
X15849762Y-12440762D02*
X15840238Y-12431238D01*
X15840238Y-12431238D02*
X15821191Y-12421714D01*
X15821191Y-12421714D02*
X15783095Y-12421714D01*
X15783095Y-12421714D02*
X15764048Y-12431238D01*
X15764048Y-12431238D02*
X15754524Y-12440762D01*
X15754524Y-12440762D02*
X15745000Y-12459809D01*
X15935476Y-12345524D02*
X15935476Y-12383619D01*
X16011667Y-12345524D02*
X16011667Y-12383619D01*
X16306905Y-12621714D02*
X16297381Y-12612190D01*
X16297381Y-12612190D02*
X16278334Y-12583619D01*
X16278334Y-12583619D02*
X16268810Y-12564571D01*
X16268810Y-12564571D02*
X16259286Y-12536000D01*
X16259286Y-12536000D02*
X16249762Y-12488381D01*
X16249762Y-12488381D02*
X16249762Y-12450286D01*
X16249762Y-12450286D02*
X16259286Y-12402667D01*
X16259286Y-12402667D02*
X16268810Y-12374095D01*
X16268810Y-12374095D02*
X16278334Y-12355048D01*
X16278334Y-12355048D02*
X16297381Y-12326476D01*
X16297381Y-12326476D02*
X16306905Y-12316952D01*
X16468810Y-12345524D02*
X16430714Y-12345524D01*
X16430714Y-12345524D02*
X16411667Y-12355048D01*
X16411667Y-12355048D02*
X16402143Y-12364571D01*
X16402143Y-12364571D02*
X16383095Y-12393143D01*
X16383095Y-12393143D02*
X16373572Y-12431238D01*
X16373572Y-12431238D02*
X16373572Y-12507428D01*
X16373572Y-12507428D02*
X16383095Y-12526476D01*
X16383095Y-12526476D02*
X16392619Y-12536000D01*
X16392619Y-12536000D02*
X16411667Y-12545524D01*
X16411667Y-12545524D02*
X16449762Y-12545524D01*
X16449762Y-12545524D02*
X16468810Y-12536000D01*
X16468810Y-12536000D02*
X16478334Y-12526476D01*
X16478334Y-12526476D02*
X16487857Y-12507428D01*
X16487857Y-12507428D02*
X16487857Y-12459809D01*
X16487857Y-12459809D02*
X16478334Y-12440762D01*
X16478334Y-12440762D02*
X16468810Y-12431238D01*
X16468810Y-12431238D02*
X16449762Y-12421714D01*
X16449762Y-12421714D02*
X16411667Y-12421714D01*
X16411667Y-12421714D02*
X16392619Y-12431238D01*
X16392619Y-12431238D02*
X16383095Y-12440762D01*
X16383095Y-12440762D02*
X16373572Y-12459809D01*
X16725953Y-12545524D02*
X16725953Y-12345524D01*
X16811667Y-12545524D02*
X16811667Y-12440762D01*
X16811667Y-12440762D02*
X16802143Y-12421714D01*
X16802143Y-12421714D02*
X16783096Y-12412190D01*
X16783096Y-12412190D02*
X16754524Y-12412190D01*
X16754524Y-12412190D02*
X16735476Y-12421714D01*
X16735476Y-12421714D02*
X16725953Y-12431238D01*
X16935477Y-12545524D02*
X16916429Y-12536000D01*
X16916429Y-12536000D02*
X16906905Y-12526476D01*
X16906905Y-12526476D02*
X16897381Y-12507428D01*
X16897381Y-12507428D02*
X16897381Y-12450286D01*
X16897381Y-12450286D02*
X16906905Y-12431238D01*
X16906905Y-12431238D02*
X16916429Y-12421714D01*
X16916429Y-12421714D02*
X16935477Y-12412190D01*
X16935477Y-12412190D02*
X16964048Y-12412190D01*
X16964048Y-12412190D02*
X16983096Y-12421714D01*
X16983096Y-12421714D02*
X16992619Y-12431238D01*
X16992619Y-12431238D02*
X17002143Y-12450286D01*
X17002143Y-12450286D02*
X17002143Y-12507428D01*
X17002143Y-12507428D02*
X16992619Y-12526476D01*
X16992619Y-12526476D02*
X16983096Y-12536000D01*
X16983096Y-12536000D02*
X16964048Y-12545524D01*
X16964048Y-12545524D02*
X16935477Y-12545524D01*
X17116429Y-12545524D02*
X17097381Y-12536000D01*
X17097381Y-12536000D02*
X17087858Y-12516952D01*
X17087858Y-12516952D02*
X17087858Y-12345524D01*
X17268810Y-12536000D02*
X17249762Y-12545524D01*
X17249762Y-12545524D02*
X17211667Y-12545524D01*
X17211667Y-12545524D02*
X17192619Y-12536000D01*
X17192619Y-12536000D02*
X17183096Y-12516952D01*
X17183096Y-12516952D02*
X17183096Y-12440762D01*
X17183096Y-12440762D02*
X17192619Y-12421714D01*
X17192619Y-12421714D02*
X17211667Y-12412190D01*
X17211667Y-12412190D02*
X17249762Y-12412190D01*
X17249762Y-12412190D02*
X17268810Y-12421714D01*
X17268810Y-12421714D02*
X17278334Y-12440762D01*
X17278334Y-12440762D02*
X17278334Y-12459809D01*
X17278334Y-12459809D02*
X17183096Y-12478857D01*
X17354524Y-12536000D02*
X17373572Y-12545524D01*
X17373572Y-12545524D02*
X17411667Y-12545524D01*
X17411667Y-12545524D02*
X17430715Y-12536000D01*
X17430715Y-12536000D02*
X17440239Y-12516952D01*
X17440239Y-12516952D02*
X17440239Y-12507428D01*
X17440239Y-12507428D02*
X17430715Y-12488381D01*
X17430715Y-12488381D02*
X17411667Y-12478857D01*
X17411667Y-12478857D02*
X17383096Y-12478857D01*
X17383096Y-12478857D02*
X17364048Y-12469333D01*
X17364048Y-12469333D02*
X17354524Y-12450286D01*
X17354524Y-12450286D02*
X17354524Y-12440762D01*
X17354524Y-12440762D02*
X17364048Y-12421714D01*
X17364048Y-12421714D02*
X17383096Y-12412190D01*
X17383096Y-12412190D02*
X17411667Y-12412190D01*
X17411667Y-12412190D02*
X17430715Y-12421714D01*
X17506905Y-12621714D02*
X17516429Y-12612190D01*
X17516429Y-12612190D02*
X17535477Y-12583619D01*
X17535477Y-12583619D02*
X17545000Y-12564571D01*
X17545000Y-12564571D02*
X17554524Y-12536000D01*
X17554524Y-12536000D02*
X17564048Y-12488381D01*
X17564048Y-12488381D02*
X17564048Y-12450286D01*
X17564048Y-12450286D02*
X17554524Y-12402667D01*
X17554524Y-12402667D02*
X17545000Y-12374095D01*
X17545000Y-12374095D02*
X17535477Y-12355048D01*
X17535477Y-12355048D02*
X17516429Y-12326476D01*
X17516429Y-12326476D02*
X17506905Y-12316952D01*
M02*
