%TF.GenerationSoftware,KiCad,Pcbnew,7.0.5*%
%TF.CreationDate,2023-09-25T19:53:57-07:00*%
%TF.ProjectId,3x4-macropad,3378342d-6d61-4637-926f-7061642e6b69,rev?*%
%TF.SameCoordinates,Original*%
%TF.FileFunction,Soldermask,Top*%
%TF.FilePolarity,Negative*%
%FSLAX46Y46*%
G04 Gerber Fmt 4.6, Leading zero omitted, Abs format (unit mm)*
G04 Created by KiCad (PCBNEW 7.0.5) date 2023-09-25 19:53:57*
%MOMM*%
%LPD*%
G01*
G04 APERTURE LIST*
%ADD10C,3.800000*%
%ADD11C,2.600000*%
%ADD12C,1.701800*%
%ADD13C,3.000000*%
%ADD14C,3.987800*%
%ADD15R,2.000000X2.000000*%
%ADD16C,2.000000*%
%ADD17R,3.200000X2.000000*%
%ADD18C,1.700000*%
%ADD19O,1.700000X1.700000*%
%ADD20R,1.700000X1.700000*%
%ADD21R,1.600000X1.600000*%
%ADD22C,1.600000*%
%ADD23R,1.200000X1.500000*%
%ADD24C,0.800000*%
G04 APERTURE END LIST*
D10*
%TO.C,H1*%
X154900000Y-50800000D03*
D11*
X154900000Y-50800000D03*
%TD*%
D12*
%TO.C,SW12*%
X194920000Y-99500000D03*
D13*
X196190000Y-96960000D03*
D14*
X200000000Y-99500000D03*
D13*
X202540000Y-94420000D03*
D12*
X205080000Y-99500000D03*
%TD*%
%TO.C,SW9*%
X194920000Y-41000000D03*
D13*
X196190000Y-38460000D03*
D14*
X200000000Y-41000000D03*
D13*
X202540000Y-35920000D03*
D12*
X205080000Y-41000000D03*
%TD*%
D11*
%TO.C,H3*%
X175000000Y-70400000D03*
D10*
X175000000Y-70400000D03*
%TD*%
D12*
%TO.C,SW8*%
X175420000Y-99500000D03*
D13*
X176690000Y-96960000D03*
D14*
X180500000Y-99500000D03*
D13*
X183040000Y-94420000D03*
D12*
X185580000Y-99500000D03*
%TD*%
D15*
%TO.C,ENC1*%
X131650000Y-97000000D03*
D16*
X131650000Y-102000000D03*
X131650000Y-99500000D03*
D17*
X139150000Y-93900000D03*
X139150000Y-105100000D03*
D16*
X146150000Y-102000000D03*
X146150000Y-97000000D03*
%TD*%
D12*
%TO.C,SW1*%
X155920000Y-41000000D03*
D13*
X157190000Y-38460000D03*
D14*
X161000000Y-41000000D03*
D13*
X163540000Y-35920000D03*
D12*
X166080000Y-41000000D03*
%TD*%
D11*
%TO.C,H5*%
X129700000Y-107900000D03*
D10*
X129700000Y-107900000D03*
%TD*%
D12*
%TO.C,SW4*%
X155920000Y-99500000D03*
D13*
X157190000Y-96960000D03*
D14*
X161000000Y-99500000D03*
D13*
X163540000Y-94420000D03*
D12*
X166080000Y-99500000D03*
%TD*%
%TO.C,SW11*%
X194920000Y-80000000D03*
D13*
X196190000Y-77460000D03*
D14*
X200000000Y-80000000D03*
D13*
X202540000Y-74920000D03*
D12*
X205080000Y-80000000D03*
%TD*%
%TO.C,SW5*%
X175420000Y-41000000D03*
D13*
X176690000Y-38460000D03*
D14*
X180500000Y-41000000D03*
D13*
X183040000Y-35920000D03*
D12*
X185580000Y-41000000D03*
%TD*%
D11*
%TO.C,H2*%
X206000000Y-51000000D03*
D10*
X206000000Y-51000000D03*
%TD*%
D12*
%TO.C,SW6*%
X175420000Y-60500000D03*
D13*
X176690000Y-57960000D03*
D14*
X180500000Y-60500000D03*
D13*
X183040000Y-55420000D03*
D12*
X185580000Y-60500000D03*
%TD*%
%TO.C,SW10*%
X194920000Y-60500000D03*
D13*
X196190000Y-57960000D03*
D14*
X200000000Y-60500000D03*
D13*
X202540000Y-55420000D03*
D12*
X205080000Y-60500000D03*
%TD*%
%TO.C,SW3*%
X155920000Y-80000000D03*
D13*
X157190000Y-77460000D03*
D14*
X161000000Y-80000000D03*
D13*
X163540000Y-74920000D03*
D12*
X166080000Y-80000000D03*
%TD*%
%TO.C,SW7*%
X175420000Y-80000000D03*
D13*
X176690000Y-77460000D03*
D14*
X180500000Y-80000000D03*
D13*
X183040000Y-74920000D03*
D12*
X185580000Y-80000000D03*
%TD*%
%TO.C,SW2*%
X155920000Y-60500000D03*
D13*
X157190000Y-57960000D03*
D14*
X161000000Y-60500000D03*
D13*
X163540000Y-55420000D03*
D12*
X166080000Y-60500000D03*
%TD*%
D11*
%TO.C,H6*%
X208600000Y-108100000D03*
D10*
X208600000Y-108100000D03*
%TD*%
D18*
%TO.C,OLED1*%
X143100000Y-86600000D03*
D19*
X140560000Y-86600000D03*
X138020000Y-86600000D03*
X135480000Y-86600000D03*
%TD*%
D11*
%TO.C,H4*%
X158000000Y-90000000D03*
D10*
X158000000Y-90000000D03*
%TD*%
D18*
%TO.C,U1*%
X148108000Y-33813000D03*
D19*
X148108000Y-36353000D03*
D20*
X148108000Y-38893000D03*
D19*
X148108000Y-41433000D03*
X148108000Y-43973000D03*
X148108000Y-46513000D03*
X148108000Y-49053000D03*
D20*
X148108000Y-51593000D03*
D19*
X148108000Y-54133000D03*
X148108000Y-56673000D03*
X148108000Y-59213000D03*
X148108000Y-61753000D03*
D20*
X148108000Y-64293000D03*
D19*
X148108000Y-66833000D03*
X148108000Y-69373000D03*
X148108000Y-71913000D03*
X148108000Y-74453000D03*
D20*
X148108000Y-76993000D03*
D19*
X148108000Y-79533000D03*
X148108000Y-82073000D03*
D20*
X130544000Y-82073000D03*
D19*
X130544000Y-79533000D03*
D20*
X130544000Y-76993000D03*
D19*
X130544000Y-74453000D03*
X130544000Y-71913000D03*
X130544000Y-69373000D03*
X130544000Y-66833000D03*
D20*
X130544000Y-64293000D03*
D19*
X130544000Y-61753000D03*
X130544000Y-59213000D03*
X130544000Y-56673000D03*
X130544000Y-54133000D03*
D20*
X130544000Y-51593000D03*
D19*
X130544000Y-49053000D03*
X130544000Y-46513000D03*
X130544000Y-43973000D03*
X130544000Y-41433000D03*
D20*
X130544000Y-38893000D03*
D19*
X130544000Y-36353000D03*
D18*
X130544000Y-33813000D03*
%TD*%
D21*
%TO.C,D14*%
X149300000Y-94300000D03*
D22*
X149300000Y-102100000D03*
%TD*%
D21*
%TO.C,D11*%
X208400000Y-74900000D03*
D22*
X208400000Y-82700000D03*
%TD*%
D21*
%TO.C,D5*%
X188800000Y-35900000D03*
D22*
X188800000Y-43700000D03*
%TD*%
D23*
%TO.C,R2*%
X140500000Y-78450000D03*
D22*
X140500000Y-75900000D03*
X140500000Y-83700000D03*
D23*
X140500000Y-81150000D03*
%TD*%
D21*
%TO.C,D7*%
X188800000Y-74900000D03*
D22*
X188800000Y-82700000D03*
%TD*%
D21*
%TO.C,D6*%
X188900000Y-55400000D03*
D22*
X188900000Y-63200000D03*
%TD*%
D21*
%TO.C,D9*%
X208400000Y-35900000D03*
D22*
X208400000Y-43700000D03*
%TD*%
D21*
%TO.C,D1*%
X169400000Y-35900000D03*
D22*
X169400000Y-43700000D03*
%TD*%
D21*
%TO.C,D4*%
X169400000Y-94400000D03*
D22*
X169400000Y-102200000D03*
%TD*%
D21*
%TO.C,D10*%
X208400000Y-55400000D03*
D22*
X208400000Y-63200000D03*
%TD*%
D21*
%TO.C,D13*%
X142300000Y-108000000D03*
D22*
X150100000Y-108000000D03*
%TD*%
D21*
%TO.C,D8*%
X188900000Y-94400000D03*
D22*
X188900000Y-102200000D03*
%TD*%
D21*
%TO.C,D12*%
X208400000Y-94400000D03*
D22*
X208400000Y-102200000D03*
%TD*%
D21*
%TO.C,D2*%
X169400000Y-55400000D03*
D22*
X169400000Y-63200000D03*
%TD*%
D23*
%TO.C,R1*%
X137900000Y-81150000D03*
D22*
X137900000Y-83700000D03*
X137900000Y-75900000D03*
D23*
X137900000Y-78450000D03*
%TD*%
D21*
%TO.C,D3*%
X169400000Y-74900000D03*
D22*
X169400000Y-82700000D03*
%TD*%
D24*
X157550000Y-82025700D03*
X202840000Y-61764300D03*
X156900000Y-84900000D03*
X164700000Y-63500000D03*
X189818000Y-83861100D03*
X196485000Y-63389300D03*
X176300000Y-84500000D03*
X196400000Y-84800000D03*
X176573000Y-65355700D03*
X149100000Y-83800000D03*
X136600000Y-102500000D03*
X137300000Y-90700000D03*
X153800000Y-55900000D03*
X171500000Y-52051000D03*
X189400000Y-51250500D03*
X200200000Y-50800000D03*
X197460000Y-62301200D03*
X186100000Y-52100000D03*
X169825000Y-52674600D03*
X194652000Y-87056700D03*
X184500000Y-86300000D03*
X155100000Y-64800000D03*
X145200000Y-81900000D03*
X142512000Y-75177500D03*
X196849000Y-86302400D03*
X187017000Y-85450500D03*
X174599000Y-84899300D03*
X165100000Y-84800000D03*
X155524000Y-82093400D03*
X163401000Y-64686500D03*
X166101000Y-63300600D03*
X176059000Y-64498500D03*
X203578000Y-64300000D03*
X176400000Y-66700000D03*
X185000000Y-45900000D03*
X196000000Y-47300000D03*
X175296000Y-48794700D03*
X167200000Y-47100000D03*
X164600000Y-50500000D03*
X166400000Y-49100000D03*
X185801000Y-50599300D03*
X174500000Y-50549500D03*
X193700000Y-81900000D03*
X195857000Y-66681900D03*
X186600000Y-88200000D03*
X153190000Y-90400000D03*
M02*
