%TF.GenerationSoftware,KiCad,Pcbnew,7.0.5*%
%TF.CreationDate,2023-09-25T19:53:57-07:00*%
%TF.ProjectId,3x4-macropad,3378342d-6d61-4637-926f-7061642e6b69,rev?*%
%TF.SameCoordinates,Original*%
%TF.FileFunction,Soldermask,Bot*%
%TF.FilePolarity,Negative*%
%FSLAX46Y46*%
G04 Gerber Fmt 4.6, Leading zero omitted, Abs format (unit mm)*
G04 Created by KiCad (PCBNEW 7.0.5) date 2023-09-25 19:53:57*
%MOMM*%
%LPD*%
G01*
G04 APERTURE LIST*
G04 Aperture macros list*
%AMRoundRect*
0 Rectangle with rounded corners*
0 $1 Rounding radius*
0 $2 $3 $4 $5 $6 $7 $8 $9 X,Y pos of 4 corners*
0 Add a 4 corners polygon primitive as box body*
4,1,4,$2,$3,$4,$5,$6,$7,$8,$9,$2,$3,0*
0 Add four circle primitives for the rounded corners*
1,1,$1+$1,$2,$3*
1,1,$1+$1,$4,$5*
1,1,$1+$1,$6,$7*
1,1,$1+$1,$8,$9*
0 Add four rect primitives between the rounded corners*
20,1,$1+$1,$2,$3,$4,$5,0*
20,1,$1+$1,$4,$5,$6,$7,0*
20,1,$1+$1,$6,$7,$8,$9,0*
20,1,$1+$1,$8,$9,$2,$3,0*%
%AMOutline5P*
0 Free polygon, 5 corners , with rotation*
0 The origin of the aperture is its center*
0 number of corners: always 5*
0 $1 to $10 corner X, Y*
0 $11 Rotation angle, in degrees counterclockwise*
0 create outline with 5 corners*
4,1,5,$1,$2,$3,$4,$5,$6,$7,$8,$9,$10,$1,$2,$11*%
%AMOutline6P*
0 Free polygon, 6 corners , with rotation*
0 The origin of the aperture is its center*
0 number of corners: always 6*
0 $1 to $12 corner X, Y*
0 $13 Rotation angle, in degrees counterclockwise*
0 create outline with 6 corners*
4,1,6,$1,$2,$3,$4,$5,$6,$7,$8,$9,$10,$11,$12,$1,$2,$13*%
%AMOutline7P*
0 Free polygon, 7 corners , with rotation*
0 The origin of the aperture is its center*
0 number of corners: always 7*
0 $1 to $14 corner X, Y*
0 $15 Rotation angle, in degrees counterclockwise*
0 create outline with 7 corners*
4,1,7,$1,$2,$3,$4,$5,$6,$7,$8,$9,$10,$11,$12,$13,$14,$1,$2,$15*%
%AMOutline8P*
0 Free polygon, 8 corners , with rotation*
0 The origin of the aperture is its center*
0 number of corners: always 8*
0 $1 to $16 corner X, Y*
0 $17 Rotation angle, in degrees counterclockwise*
0 create outline with 8 corners*
4,1,8,$1,$2,$3,$4,$5,$6,$7,$8,$9,$10,$11,$12,$13,$14,$15,$16,$1,$2,$17*%
%AMFreePoly0*
4,1,19,0.500000,-0.750000,0.000000,-0.750000,0.000000,-0.744911,-0.071157,-0.744911,-0.207708,-0.704816,-0.327430,-0.627875,-0.420627,-0.520320,-0.479746,-0.390866,-0.500000,-0.250000,-0.500000,0.250000,-0.479746,0.390866,-0.420627,0.520320,-0.327430,0.627875,-0.207708,0.704816,-0.071157,0.744911,0.000000,0.744911,0.000000,0.750000,0.500000,0.750000,0.500000,-0.750000,0.500000,-0.750000,
$1*%
%AMFreePoly1*
4,1,19,0.000000,0.744911,0.071157,0.744911,0.207708,0.704816,0.327430,0.627875,0.420627,0.520320,0.479746,0.390866,0.500000,0.250000,0.500000,-0.250000,0.479746,-0.390866,0.420627,-0.520320,0.327430,-0.627875,0.207708,-0.704816,0.071157,-0.744911,0.000000,-0.744911,0.000000,-0.750000,-0.500000,-0.750000,-0.500000,0.750000,0.000000,0.750000,0.000000,0.744911,0.000000,0.744911,
$1*%
G04 Aperture macros list end*
%ADD10C,3.800000*%
%ADD11C,2.600000*%
%ADD12C,1.701800*%
%ADD13C,3.000000*%
%ADD14C,3.987800*%
%ADD15RoundRect,0.200000X-1.075000X-1.050000X1.075000X-1.050000X1.075000X1.050000X-1.075000X1.050000X0*%
%ADD16R,2.000000X2.000000*%
%ADD17C,2.000000*%
%ADD18R,3.200000X2.000000*%
%ADD19C,1.700000*%
%ADD20O,1.700000X1.700000*%
%ADD21R,1.501140X0.899160*%
%ADD22R,1.700000X1.700000*%
%ADD23R,1.700000X0.820000*%
%ADD24Outline5P,-0.850000X0.410000X0.850000X0.410000X0.850000X-0.246000X0.686000X-0.410000X-0.850000X-0.410000X180.000000*%
%ADD25R,1.200000X1.600000*%
%ADD26R,1.600000X1.600000*%
%ADD27C,1.600000*%
%ADD28R,1.200000X1.500000*%
%ADD29FreePoly0,0.000000*%
%ADD30FreePoly1,0.000000*%
%ADD31R,1.600000X1.200000*%
%ADD32C,0.800000*%
G04 APERTURE END LIST*
D10*
%TO.C,H1*%
X154900000Y-50800000D03*
D11*
X154900000Y-50800000D03*
%TD*%
D12*
%TO.C,SW12*%
X194920000Y-99500000D03*
D13*
X196190000Y-96960000D03*
D14*
X200000000Y-99500000D03*
D13*
X202540000Y-94420000D03*
D12*
X205080000Y-99500000D03*
D15*
X192915000Y-96960000D03*
X205842000Y-94420000D03*
%TD*%
D12*
%TO.C,SW9*%
X194920000Y-41000000D03*
D13*
X196190000Y-38460000D03*
D14*
X200000000Y-41000000D03*
D13*
X202540000Y-35920000D03*
D12*
X205080000Y-41000000D03*
D15*
X192915000Y-38460000D03*
X205842000Y-35920000D03*
%TD*%
D11*
%TO.C,H3*%
X175000000Y-70400000D03*
D10*
X175000000Y-70400000D03*
%TD*%
D12*
%TO.C,SW8*%
X175420000Y-99500000D03*
D13*
X176690000Y-96960000D03*
D14*
X180500000Y-99500000D03*
D13*
X183040000Y-94420000D03*
D12*
X185580000Y-99500000D03*
D15*
X173415000Y-96960000D03*
X186342000Y-94420000D03*
%TD*%
D16*
%TO.C,ENC1*%
X131650000Y-97000000D03*
D17*
X131650000Y-102000000D03*
X131650000Y-99500000D03*
D18*
X139150000Y-93900000D03*
X139150000Y-105100000D03*
D17*
X146150000Y-102000000D03*
X146150000Y-97000000D03*
%TD*%
D12*
%TO.C,SW1*%
X155920000Y-41000000D03*
D13*
X157190000Y-38460000D03*
D14*
X161000000Y-41000000D03*
D13*
X163540000Y-35920000D03*
D12*
X166080000Y-41000000D03*
D15*
X153915000Y-38460000D03*
X166842000Y-35920000D03*
%TD*%
D11*
%TO.C,H5*%
X129700000Y-107900000D03*
D10*
X129700000Y-107900000D03*
%TD*%
D12*
%TO.C,SW4*%
X155920000Y-99500000D03*
D13*
X157190000Y-96960000D03*
D14*
X161000000Y-99500000D03*
D13*
X163540000Y-94420000D03*
D12*
X166080000Y-99500000D03*
D15*
X153915000Y-96960000D03*
X166842000Y-94420000D03*
%TD*%
D12*
%TO.C,SW11*%
X194920000Y-80000000D03*
D13*
X196190000Y-77460000D03*
D14*
X200000000Y-80000000D03*
D13*
X202540000Y-74920000D03*
D12*
X205080000Y-80000000D03*
D15*
X192915000Y-77460000D03*
X205842000Y-74920000D03*
%TD*%
D12*
%TO.C,SW5*%
X175420000Y-41000000D03*
D13*
X176690000Y-38460000D03*
D14*
X180500000Y-41000000D03*
D13*
X183040000Y-35920000D03*
D12*
X185580000Y-41000000D03*
D15*
X173415000Y-38460000D03*
X186342000Y-35920000D03*
%TD*%
D11*
%TO.C,H2*%
X206000000Y-51000000D03*
D10*
X206000000Y-51000000D03*
%TD*%
D12*
%TO.C,SW6*%
X175420000Y-60500000D03*
D13*
X176690000Y-57960000D03*
D14*
X180500000Y-60500000D03*
D13*
X183040000Y-55420000D03*
D12*
X185580000Y-60500000D03*
D15*
X173415000Y-57960000D03*
X186342000Y-55420000D03*
%TD*%
D12*
%TO.C,SW10*%
X194920000Y-60500000D03*
D13*
X196190000Y-57960000D03*
D14*
X200000000Y-60500000D03*
D13*
X202540000Y-55420000D03*
D12*
X205080000Y-60500000D03*
D15*
X192915000Y-57960000D03*
X205842000Y-55420000D03*
%TD*%
D12*
%TO.C,SW3*%
X155920000Y-80000000D03*
D13*
X157190000Y-77460000D03*
D14*
X161000000Y-80000000D03*
D13*
X163540000Y-74920000D03*
D12*
X166080000Y-80000000D03*
D15*
X153915000Y-77460000D03*
X166842000Y-74920000D03*
%TD*%
D12*
%TO.C,SW7*%
X175420000Y-80000000D03*
D13*
X176690000Y-77460000D03*
D14*
X180500000Y-80000000D03*
D13*
X183040000Y-74920000D03*
D12*
X185580000Y-80000000D03*
D15*
X173415000Y-77460000D03*
X186342000Y-74920000D03*
%TD*%
D12*
%TO.C,SW2*%
X155920000Y-60500000D03*
D13*
X157190000Y-57960000D03*
D14*
X161000000Y-60500000D03*
D13*
X163540000Y-55420000D03*
D12*
X166080000Y-60500000D03*
D15*
X153915000Y-57960000D03*
X166842000Y-55420000D03*
%TD*%
D11*
%TO.C,H6*%
X208600000Y-108100000D03*
D10*
X208600000Y-108100000D03*
%TD*%
D19*
%TO.C,OLED1*%
X143100000Y-86600000D03*
D20*
X140560000Y-86600000D03*
X138020000Y-86600000D03*
X135480000Y-86600000D03*
%TD*%
D11*
%TO.C,H4*%
X158000000Y-90000000D03*
D10*
X158000000Y-90000000D03*
%TD*%
D21*
%TO.C,LED13*%
X168200640Y-52300200D03*
X168200640Y-49099800D03*
X173199360Y-49099800D03*
X173199360Y-52300200D03*
%TD*%
%TO.C,LED15*%
X192949360Y-88149800D03*
X192949360Y-91350200D03*
X187950640Y-91350200D03*
X187950640Y-88149800D03*
%TD*%
D19*
%TO.C,U1*%
X148108000Y-33813000D03*
D20*
X148108000Y-36353000D03*
D22*
X148108000Y-38893000D03*
D20*
X148108000Y-41433000D03*
X148108000Y-43973000D03*
X148108000Y-46513000D03*
X148108000Y-49053000D03*
D22*
X148108000Y-51593000D03*
D20*
X148108000Y-54133000D03*
X148108000Y-56673000D03*
X148108000Y-59213000D03*
X148108000Y-61753000D03*
D22*
X148108000Y-64293000D03*
D20*
X148108000Y-66833000D03*
X148108000Y-69373000D03*
X148108000Y-71913000D03*
X148108000Y-74453000D03*
D22*
X148108000Y-76993000D03*
D20*
X148108000Y-79533000D03*
X148108000Y-82073000D03*
D22*
X130544000Y-82073000D03*
D20*
X130544000Y-79533000D03*
D22*
X130544000Y-76993000D03*
D20*
X130544000Y-74453000D03*
X130544000Y-71913000D03*
X130544000Y-69373000D03*
X130544000Y-66833000D03*
D22*
X130544000Y-64293000D03*
D20*
X130544000Y-61753000D03*
X130544000Y-59213000D03*
X130544000Y-56673000D03*
X130544000Y-54133000D03*
D22*
X130544000Y-51593000D03*
D20*
X130544000Y-49053000D03*
X130544000Y-46513000D03*
X130544000Y-43973000D03*
X130544000Y-41433000D03*
D22*
X130544000Y-38893000D03*
D20*
X130544000Y-36353000D03*
D19*
X130544000Y-33813000D03*
%TD*%
D21*
%TO.C,LED14*%
X187700640Y-52300200D03*
X187700640Y-49099800D03*
X192699360Y-49099800D03*
X192699360Y-52300200D03*
%TD*%
D23*
%TO.C,LED11*%
X183300000Y-47250000D03*
X183300000Y-45750000D03*
D24*
X177700000Y-45750000D03*
D23*
X177700000Y-47250000D03*
%TD*%
D21*
%TO.C,LED16*%
X151799360Y-87099800D03*
X151799360Y-90300200D03*
X146800640Y-90300200D03*
X146800640Y-87099800D03*
%TD*%
D23*
%TO.C,LED3*%
X203300000Y-105750000D03*
X203300000Y-104250000D03*
D24*
X197700000Y-104250000D03*
D23*
X197700000Y-105750000D03*
%TD*%
D25*
%TO.C,D14*%
X149300000Y-96800000D03*
D26*
X149300000Y-94300000D03*
D27*
X149300000Y-102100000D03*
D25*
X149300000Y-99600000D03*
%TD*%
D23*
%TO.C,LED8*%
X183300000Y-66750000D03*
X183300000Y-65250000D03*
D24*
X177700000Y-65250000D03*
D23*
X177700000Y-66750000D03*
%TD*%
%TO.C,LED10*%
X203300000Y-47250000D03*
X203300000Y-45750000D03*
D24*
X197700000Y-45750000D03*
D23*
X197700000Y-47250000D03*
%TD*%
D25*
%TO.C,D11*%
X208400000Y-77400000D03*
D26*
X208400000Y-74900000D03*
D27*
X208400000Y-82700000D03*
D25*
X208400000Y-80200000D03*
%TD*%
%TO.C,D5*%
X188800000Y-38400000D03*
D26*
X188800000Y-35900000D03*
D27*
X188800000Y-43700000D03*
D25*
X188800000Y-41200000D03*
%TD*%
D23*
%TO.C,LED9*%
X203300000Y-66750000D03*
X203300000Y-65250000D03*
D24*
X197700000Y-65250000D03*
D23*
X197700000Y-66750000D03*
%TD*%
%TO.C,LED12*%
X163800000Y-47250000D03*
X163800000Y-45750000D03*
D24*
X158200000Y-45750000D03*
D23*
X158200000Y-47250000D03*
%TD*%
%TO.C,LED4*%
X203300000Y-86250000D03*
X203300000Y-84750000D03*
D24*
X197700000Y-84750000D03*
D23*
X197700000Y-86250000D03*
%TD*%
%TO.C,LED6*%
X163800000Y-86250000D03*
X163800000Y-84750000D03*
D24*
X158200000Y-84750000D03*
D23*
X158200000Y-86250000D03*
%TD*%
D28*
%TO.C,R2*%
X140500000Y-78450000D03*
D27*
X140500000Y-75900000D03*
X140500000Y-83700000D03*
D28*
X140500000Y-81150000D03*
%TD*%
D23*
%TO.C,LED2*%
X183300000Y-105750000D03*
X183300000Y-104250000D03*
D24*
X177700000Y-104250000D03*
D23*
X177700000Y-105750000D03*
%TD*%
D25*
%TO.C,D7*%
X188800000Y-77400000D03*
D26*
X188800000Y-74900000D03*
D27*
X188800000Y-82700000D03*
D25*
X188800000Y-80200000D03*
%TD*%
%TO.C,D6*%
X188900000Y-57900000D03*
D26*
X188900000Y-55400000D03*
D27*
X188900000Y-63200000D03*
D25*
X188900000Y-60700000D03*
%TD*%
%TO.C,D9*%
X208400000Y-38400000D03*
D26*
X208400000Y-35900000D03*
D27*
X208400000Y-43700000D03*
D25*
X208400000Y-41200000D03*
%TD*%
D23*
%TO.C,LED1*%
X163800000Y-105750000D03*
X163800000Y-104250000D03*
D24*
X158200000Y-104250000D03*
D23*
X158200000Y-105750000D03*
%TD*%
D25*
%TO.C,D1*%
X169400000Y-38400000D03*
D26*
X169400000Y-35900000D03*
D27*
X169400000Y-43700000D03*
D25*
X169400000Y-41200000D03*
%TD*%
%TO.C,D4*%
X169400000Y-96900000D03*
D26*
X169400000Y-94400000D03*
D27*
X169400000Y-102200000D03*
D25*
X169400000Y-99700000D03*
%TD*%
D23*
%TO.C,LED5*%
X183300000Y-86250000D03*
X183300000Y-84750000D03*
D24*
X177700000Y-84750000D03*
D23*
X177700000Y-86250000D03*
%TD*%
D25*
%TO.C,D10*%
X208400000Y-57900000D03*
D26*
X208400000Y-55400000D03*
D27*
X208400000Y-63200000D03*
D25*
X208400000Y-60700000D03*
%TD*%
D29*
%TO.C,JP1*%
X155050000Y-63200000D03*
D30*
X156350000Y-63200000D03*
%TD*%
D31*
%TO.C,D13*%
X144800000Y-108000000D03*
D26*
X142300000Y-108000000D03*
D27*
X150100000Y-108000000D03*
D31*
X147600000Y-108000000D03*
%TD*%
D25*
%TO.C,D8*%
X188900000Y-96900000D03*
D26*
X188900000Y-94400000D03*
D27*
X188900000Y-102200000D03*
D25*
X188900000Y-99700000D03*
%TD*%
%TO.C,D12*%
X208400000Y-96900000D03*
D26*
X208400000Y-94400000D03*
D27*
X208400000Y-102200000D03*
D25*
X208400000Y-99700000D03*
%TD*%
%TO.C,D2*%
X169400000Y-57900000D03*
D26*
X169400000Y-55400000D03*
D27*
X169400000Y-63200000D03*
D25*
X169400000Y-60700000D03*
%TD*%
D28*
%TO.C,R1*%
X137900000Y-81150000D03*
D27*
X137900000Y-83700000D03*
X137900000Y-75900000D03*
D28*
X137900000Y-78450000D03*
%TD*%
D25*
%TO.C,D3*%
X169400000Y-77400000D03*
D26*
X169400000Y-74900000D03*
D27*
X169400000Y-82700000D03*
D25*
X169400000Y-80200000D03*
%TD*%
D23*
%TO.C,LED7*%
X163800000Y-66750000D03*
X163800000Y-65250000D03*
D24*
X158200000Y-65250000D03*
D23*
X158200000Y-66750000D03*
%TD*%
D32*
X157550000Y-82025700D03*
X202840000Y-61764300D03*
X156900000Y-84900000D03*
X164700000Y-63500000D03*
X189818000Y-83861100D03*
X196485000Y-63389300D03*
X176300000Y-84500000D03*
X196400000Y-84800000D03*
X176573000Y-65355700D03*
X149100000Y-83800000D03*
X136600000Y-102500000D03*
X137300000Y-90700000D03*
X153800000Y-55900000D03*
X171500000Y-52051000D03*
X189400000Y-51250500D03*
X200200000Y-50800000D03*
X197460000Y-62301200D03*
X186100000Y-52100000D03*
X169825000Y-52674600D03*
X194652000Y-87056700D03*
X184500000Y-86300000D03*
X155100000Y-64800000D03*
X145200000Y-81900000D03*
X142512000Y-75177500D03*
X196849000Y-86302400D03*
X187017000Y-85450500D03*
X174599000Y-84899300D03*
X165100000Y-84800000D03*
X155524000Y-82093400D03*
X163401000Y-64686500D03*
X166101000Y-63300600D03*
X176059000Y-64498500D03*
X203578000Y-64300000D03*
X176400000Y-66700000D03*
X185000000Y-45900000D03*
X196000000Y-47300000D03*
X175296000Y-48794700D03*
X167200000Y-47100000D03*
X164600000Y-50500000D03*
X166400000Y-49100000D03*
X185801000Y-50599300D03*
X174500000Y-50549500D03*
X193700000Y-81900000D03*
X195857000Y-66681900D03*
X186600000Y-88200000D03*
X153190000Y-90400000D03*
M02*
