%TF.GenerationSoftware,KiCad,Pcbnew,7.0.1-0*%
%TF.CreationDate,2023-12-29T19:29:52+00:00*%
%TF.ProjectId,3x4-macropad,3378342d-6d61-4637-926f-7061642e6b69,rev?*%
%TF.SameCoordinates,Original*%
%TF.FileFunction,Drillmap*%
%TF.FilePolarity,Positive*%
%FSLAX45Y45*%
G04 Gerber Fmt 4.5, Leading zero omitted, Abs format (unit mm)*
G04 Created by KiCad (PCBNEW 7.0.1-0) date 2023-12-29 19:29:52*
%MOMM*%
%LPD*%
G01*
G04 APERTURE LIST*
%ADD10C,0.100000*%
%ADD11C,0.200000*%
%ADD12C,0.170180*%
%ADD13C,0.300000*%
%ADD14C,0.398780*%
G04 APERTURE END LIST*
D10*
X13200000Y-3170000D02*
G75*
G03*
X13150000Y-3120000I-50000J0D01*
G01*
X20960000Y-11010000D02*
G75*
G03*
X21060000Y-10910000I0J100000D01*
G01*
X12750000Y-10910000D02*
G75*
G03*
X12850000Y-11010000I100000J0D01*
G01*
X13200000Y-5050000D02*
G75*
G03*
X13250000Y-5100000I50000J0D01*
G01*
X21060000Y-10910000D02*
X21060000Y-3220000D01*
X14610000Y-5100000D02*
G75*
G03*
X14660000Y-5050000I0J50000D01*
G01*
X20960000Y-11010000D02*
X12850000Y-11010000D01*
X12750000Y-3220000D02*
X12750000Y-10910000D01*
X12850000Y-3120000D02*
X13150000Y-3120000D01*
X14660000Y-4680000D02*
X14660000Y-5050000D01*
X13200000Y-3170000D02*
X13200000Y-4680000D01*
X20960000Y-3120000D02*
X14710000Y-3120000D01*
X12850000Y-3120000D02*
G75*
G03*
X12750000Y-3220000I0J-100000D01*
G01*
X13200000Y-4680000D02*
X13200000Y-5050000D01*
X14710000Y-3120000D02*
G75*
G03*
X14660000Y-3170000I0J-50000D01*
G01*
X21060000Y-3220000D02*
G75*
G03*
X20960000Y-3120000I-100000J0D01*
G01*
X14660000Y-4680000D02*
X14660000Y-3170000D01*
X13250000Y-5100000D02*
X14610000Y-5100000D01*
D11*
D12*
X15506910Y-4014910D02*
X15677090Y-4185090D01*
X15677090Y-4014910D02*
X15506910Y-4185090D01*
X15506910Y-5964910D02*
X15677090Y-6135090D01*
X15677090Y-5964910D02*
X15506910Y-6135090D01*
X15506910Y-7914910D02*
X15677090Y-8085090D01*
X15677090Y-7914910D02*
X15506910Y-8085090D01*
X15506910Y-9864910D02*
X15677090Y-10035090D01*
X15677090Y-9864910D02*
X15506910Y-10035090D01*
X16522910Y-4014910D02*
X16693090Y-4185090D01*
X16693090Y-4014910D02*
X16522910Y-4185090D01*
X16522910Y-5964910D02*
X16693090Y-6135090D01*
X16693090Y-5964910D02*
X16522910Y-6135090D01*
X16522910Y-7914910D02*
X16693090Y-8085090D01*
X16693090Y-7914910D02*
X16522910Y-8085090D01*
X16522910Y-9864910D02*
X16693090Y-10035090D01*
X16693090Y-9864910D02*
X16522910Y-10035090D01*
X17456910Y-4014910D02*
X17627090Y-4185090D01*
X17627090Y-4014910D02*
X17456910Y-4185090D01*
X17456910Y-5964910D02*
X17627090Y-6135090D01*
X17627090Y-5964910D02*
X17456910Y-6135090D01*
X17456910Y-7914910D02*
X17627090Y-8085090D01*
X17627090Y-7914910D02*
X17456910Y-8085090D01*
X17456910Y-9864910D02*
X17627090Y-10035090D01*
X17627090Y-9864910D02*
X17456910Y-10035090D01*
X18472910Y-4014910D02*
X18643090Y-4185090D01*
X18643090Y-4014910D02*
X18472910Y-4185090D01*
X18472910Y-5964910D02*
X18643090Y-6135090D01*
X18643090Y-5964910D02*
X18472910Y-6135090D01*
X18472910Y-7914910D02*
X18643090Y-8085090D01*
X18643090Y-7914910D02*
X18472910Y-8085090D01*
X18472910Y-9864910D02*
X18643090Y-10035090D01*
X18643090Y-9864910D02*
X18472910Y-10035090D01*
X19406910Y-4014910D02*
X19577090Y-4185090D01*
X19577090Y-4014910D02*
X19406910Y-4185090D01*
X19406910Y-5964910D02*
X19577090Y-6135090D01*
X19577090Y-5964910D02*
X19406910Y-6135090D01*
X19406910Y-7914910D02*
X19577090Y-8085090D01*
X19577090Y-7914910D02*
X19406910Y-8085090D01*
X19406910Y-9864910D02*
X19577090Y-10035090D01*
X19577090Y-9864910D02*
X19406910Y-10035090D01*
X20422910Y-4014910D02*
X20593090Y-4185090D01*
X20593090Y-4014910D02*
X20422910Y-4185090D01*
X20422910Y-5964910D02*
X20593090Y-6135090D01*
X20593090Y-5964910D02*
X20422910Y-6135090D01*
X20422910Y-7914910D02*
X20593090Y-8085090D01*
X20593090Y-7914910D02*
X20422910Y-8085090D01*
X20422910Y-9864910D02*
X20593090Y-10035090D01*
X20593090Y-9864910D02*
X20422910Y-10035090D01*
D13*
X15869000Y-3846000D02*
G75*
G03*
X15869000Y-3846000I-150000J0D01*
G01*
X15869000Y-5796000D02*
G75*
G03*
X15869000Y-5796000I-150000J0D01*
G01*
X15869000Y-7746000D02*
G75*
G03*
X15869000Y-7746000I-150000J0D01*
G01*
X15869000Y-9696000D02*
G75*
G03*
X15869000Y-9696000I-150000J0D01*
G01*
X16504000Y-3592000D02*
G75*
G03*
X16504000Y-3592000I-150000J0D01*
G01*
X16504000Y-5542000D02*
G75*
G03*
X16504000Y-5542000I-150000J0D01*
G01*
X16504000Y-7492000D02*
G75*
G03*
X16504000Y-7492000I-150000J0D01*
G01*
X16504000Y-9442000D02*
G75*
G03*
X16504000Y-9442000I-150000J0D01*
G01*
X17819000Y-3846000D02*
G75*
G03*
X17819000Y-3846000I-150000J0D01*
G01*
X17819000Y-5796000D02*
G75*
G03*
X17819000Y-5796000I-150000J0D01*
G01*
X17819000Y-7746000D02*
G75*
G03*
X17819000Y-7746000I-150000J0D01*
G01*
X17819000Y-9696000D02*
G75*
G03*
X17819000Y-9696000I-150000J0D01*
G01*
X18454000Y-3592000D02*
G75*
G03*
X18454000Y-3592000I-150000J0D01*
G01*
X18454000Y-5542000D02*
G75*
G03*
X18454000Y-5542000I-150000J0D01*
G01*
X18454000Y-7492000D02*
G75*
G03*
X18454000Y-7492000I-150000J0D01*
G01*
X18454000Y-9442000D02*
G75*
G03*
X18454000Y-9442000I-150000J0D01*
G01*
X19769000Y-3846000D02*
G75*
G03*
X19769000Y-3846000I-150000J0D01*
G01*
X19769000Y-5796000D02*
G75*
G03*
X19769000Y-5796000I-150000J0D01*
G01*
X19769000Y-7746000D02*
G75*
G03*
X19769000Y-7746000I-150000J0D01*
G01*
X19769000Y-9696000D02*
G75*
G03*
X19769000Y-9696000I-150000J0D01*
G01*
X20404000Y-3592000D02*
G75*
G03*
X20404000Y-3592000I-150000J0D01*
G01*
X20404000Y-5542000D02*
G75*
G03*
X20404000Y-5542000I-150000J0D01*
G01*
X20404000Y-7492000D02*
G75*
G03*
X20404000Y-7492000I-150000J0D01*
G01*
X20404000Y-9442000D02*
G75*
G03*
X20404000Y-9442000I-150000J0D01*
G01*
D14*
X16100000Y-3900610D02*
X16100000Y-4299390D01*
X15900610Y-4100000D02*
X16299390Y-4100000D01*
X16100000Y-5850610D02*
X16100000Y-6249390D01*
X15900610Y-6050000D02*
X16299390Y-6050000D01*
X16100000Y-7800610D02*
X16100000Y-8199390D01*
X15900610Y-8000000D02*
X16299390Y-8000000D01*
X16100000Y-9750610D02*
X16100000Y-10149390D01*
X15900610Y-9950000D02*
X16299390Y-9950000D01*
X18050000Y-3900610D02*
X18050000Y-4299390D01*
X17850610Y-4100000D02*
X18249390Y-4100000D01*
X18050000Y-5850610D02*
X18050000Y-6249390D01*
X17850610Y-6050000D02*
X18249390Y-6050000D01*
X18050000Y-7800610D02*
X18050000Y-8199390D01*
X17850610Y-8000000D02*
X18249390Y-8000000D01*
X18050000Y-9750610D02*
X18050000Y-10149390D01*
X17850610Y-9950000D02*
X18249390Y-9950000D01*
X20000000Y-3900610D02*
X20000000Y-4299390D01*
X19800610Y-4100000D02*
X20199390Y-4100000D01*
X20000000Y-5850610D02*
X20000000Y-6249390D01*
X19800610Y-6050000D02*
X20199390Y-6050000D01*
X20000000Y-7800610D02*
X20000000Y-8199390D01*
X19800610Y-8000000D02*
X20199390Y-8000000D01*
X20000000Y-9750610D02*
X20000000Y-10149390D01*
X19800610Y-9950000D02*
X20199390Y-9950000D01*
D11*
X12992619Y-11327524D02*
X12992619Y-11127524D01*
X12992619Y-11127524D02*
X13040238Y-11127524D01*
X13040238Y-11127524D02*
X13068809Y-11137048D01*
X13068809Y-11137048D02*
X13087857Y-11156095D01*
X13087857Y-11156095D02*
X13097381Y-11175143D01*
X13097381Y-11175143D02*
X13106905Y-11213238D01*
X13106905Y-11213238D02*
X13106905Y-11241809D01*
X13106905Y-11241809D02*
X13097381Y-11279905D01*
X13097381Y-11279905D02*
X13087857Y-11298952D01*
X13087857Y-11298952D02*
X13068809Y-11318000D01*
X13068809Y-11318000D02*
X13040238Y-11327524D01*
X13040238Y-11327524D02*
X12992619Y-11327524D01*
X13192619Y-11327524D02*
X13192619Y-11194190D01*
X13192619Y-11232286D02*
X13202143Y-11213238D01*
X13202143Y-11213238D02*
X13211667Y-11203714D01*
X13211667Y-11203714D02*
X13230714Y-11194190D01*
X13230714Y-11194190D02*
X13249762Y-11194190D01*
X13316428Y-11327524D02*
X13316428Y-11194190D01*
X13316428Y-11127524D02*
X13306905Y-11137048D01*
X13306905Y-11137048D02*
X13316428Y-11146571D01*
X13316428Y-11146571D02*
X13325952Y-11137048D01*
X13325952Y-11137048D02*
X13316428Y-11127524D01*
X13316428Y-11127524D02*
X13316428Y-11146571D01*
X13440238Y-11327524D02*
X13421190Y-11318000D01*
X13421190Y-11318000D02*
X13411667Y-11298952D01*
X13411667Y-11298952D02*
X13411667Y-11127524D01*
X13545000Y-11327524D02*
X13525952Y-11318000D01*
X13525952Y-11318000D02*
X13516428Y-11298952D01*
X13516428Y-11298952D02*
X13516428Y-11127524D01*
X13773571Y-11327524D02*
X13773571Y-11127524D01*
X13773571Y-11127524D02*
X13840238Y-11270381D01*
X13840238Y-11270381D02*
X13906905Y-11127524D01*
X13906905Y-11127524D02*
X13906905Y-11327524D01*
X14087857Y-11327524D02*
X14087857Y-11222762D01*
X14087857Y-11222762D02*
X14078333Y-11203714D01*
X14078333Y-11203714D02*
X14059286Y-11194190D01*
X14059286Y-11194190D02*
X14021190Y-11194190D01*
X14021190Y-11194190D02*
X14002143Y-11203714D01*
X14087857Y-11318000D02*
X14068809Y-11327524D01*
X14068809Y-11327524D02*
X14021190Y-11327524D01*
X14021190Y-11327524D02*
X14002143Y-11318000D01*
X14002143Y-11318000D02*
X13992619Y-11298952D01*
X13992619Y-11298952D02*
X13992619Y-11279905D01*
X13992619Y-11279905D02*
X14002143Y-11260857D01*
X14002143Y-11260857D02*
X14021190Y-11251333D01*
X14021190Y-11251333D02*
X14068809Y-11251333D01*
X14068809Y-11251333D02*
X14087857Y-11241809D01*
X14183095Y-11194190D02*
X14183095Y-11394190D01*
X14183095Y-11203714D02*
X14202143Y-11194190D01*
X14202143Y-11194190D02*
X14240238Y-11194190D01*
X14240238Y-11194190D02*
X14259286Y-11203714D01*
X14259286Y-11203714D02*
X14268809Y-11213238D01*
X14268809Y-11213238D02*
X14278333Y-11232286D01*
X14278333Y-11232286D02*
X14278333Y-11289428D01*
X14278333Y-11289428D02*
X14268809Y-11308476D01*
X14268809Y-11308476D02*
X14259286Y-11318000D01*
X14259286Y-11318000D02*
X14240238Y-11327524D01*
X14240238Y-11327524D02*
X14202143Y-11327524D01*
X14202143Y-11327524D02*
X14183095Y-11318000D01*
X14364048Y-11308476D02*
X14373571Y-11318000D01*
X14373571Y-11318000D02*
X14364048Y-11327524D01*
X14364048Y-11327524D02*
X14354524Y-11318000D01*
X14354524Y-11318000D02*
X14364048Y-11308476D01*
X14364048Y-11308476D02*
X14364048Y-11327524D01*
X14364048Y-11203714D02*
X14373571Y-11213238D01*
X14373571Y-11213238D02*
X14364048Y-11222762D01*
X14364048Y-11222762D02*
X14354524Y-11213238D01*
X14354524Y-11213238D02*
X14364048Y-11203714D01*
X14364048Y-11203714D02*
X14364048Y-11222762D01*
D12*
X12574820Y-11569910D02*
X12745000Y-11740090D01*
X12745000Y-11569910D02*
X12574820Y-11740090D01*
D11*
X13097381Y-11747524D02*
X12983095Y-11747524D01*
X13040238Y-11747524D02*
X13040238Y-11547524D01*
X13040238Y-11547524D02*
X13021190Y-11576095D01*
X13021190Y-11576095D02*
X13002143Y-11595143D01*
X13002143Y-11595143D02*
X12983095Y-11604667D01*
X13183095Y-11728476D02*
X13192619Y-11738000D01*
X13192619Y-11738000D02*
X13183095Y-11747524D01*
X13183095Y-11747524D02*
X13173571Y-11738000D01*
X13173571Y-11738000D02*
X13183095Y-11728476D01*
X13183095Y-11728476D02*
X13183095Y-11747524D01*
X13259286Y-11547524D02*
X13392619Y-11547524D01*
X13392619Y-11547524D02*
X13306905Y-11747524D01*
X13506905Y-11547524D02*
X13525952Y-11547524D01*
X13525952Y-11547524D02*
X13545000Y-11557048D01*
X13545000Y-11557048D02*
X13554524Y-11566571D01*
X13554524Y-11566571D02*
X13564048Y-11585619D01*
X13564048Y-11585619D02*
X13573571Y-11623714D01*
X13573571Y-11623714D02*
X13573571Y-11671333D01*
X13573571Y-11671333D02*
X13564048Y-11709428D01*
X13564048Y-11709428D02*
X13554524Y-11728476D01*
X13554524Y-11728476D02*
X13545000Y-11738000D01*
X13545000Y-11738000D02*
X13525952Y-11747524D01*
X13525952Y-11747524D02*
X13506905Y-11747524D01*
X13506905Y-11747524D02*
X13487857Y-11738000D01*
X13487857Y-11738000D02*
X13478333Y-11728476D01*
X13478333Y-11728476D02*
X13468809Y-11709428D01*
X13468809Y-11709428D02*
X13459286Y-11671333D01*
X13459286Y-11671333D02*
X13459286Y-11623714D01*
X13459286Y-11623714D02*
X13468809Y-11585619D01*
X13468809Y-11585619D02*
X13478333Y-11566571D01*
X13478333Y-11566571D02*
X13487857Y-11557048D01*
X13487857Y-11557048D02*
X13506905Y-11547524D01*
X13649762Y-11566571D02*
X13659286Y-11557048D01*
X13659286Y-11557048D02*
X13678333Y-11547524D01*
X13678333Y-11547524D02*
X13725952Y-11547524D01*
X13725952Y-11547524D02*
X13745000Y-11557048D01*
X13745000Y-11557048D02*
X13754524Y-11566571D01*
X13754524Y-11566571D02*
X13764048Y-11585619D01*
X13764048Y-11585619D02*
X13764048Y-11604667D01*
X13764048Y-11604667D02*
X13754524Y-11633238D01*
X13754524Y-11633238D02*
X13640238Y-11747524D01*
X13640238Y-11747524D02*
X13764048Y-11747524D01*
X13849762Y-11747524D02*
X13849762Y-11614190D01*
X13849762Y-11633238D02*
X13859286Y-11623714D01*
X13859286Y-11623714D02*
X13878333Y-11614190D01*
X13878333Y-11614190D02*
X13906905Y-11614190D01*
X13906905Y-11614190D02*
X13925952Y-11623714D01*
X13925952Y-11623714D02*
X13935476Y-11642762D01*
X13935476Y-11642762D02*
X13935476Y-11747524D01*
X13935476Y-11642762D02*
X13945000Y-11623714D01*
X13945000Y-11623714D02*
X13964048Y-11614190D01*
X13964048Y-11614190D02*
X13992619Y-11614190D01*
X13992619Y-11614190D02*
X14011667Y-11623714D01*
X14011667Y-11623714D02*
X14021190Y-11642762D01*
X14021190Y-11642762D02*
X14021190Y-11747524D01*
X14116429Y-11747524D02*
X14116429Y-11614190D01*
X14116429Y-11633238D02*
X14125952Y-11623714D01*
X14125952Y-11623714D02*
X14145000Y-11614190D01*
X14145000Y-11614190D02*
X14173571Y-11614190D01*
X14173571Y-11614190D02*
X14192619Y-11623714D01*
X14192619Y-11623714D02*
X14202143Y-11642762D01*
X14202143Y-11642762D02*
X14202143Y-11747524D01*
X14202143Y-11642762D02*
X14211667Y-11623714D01*
X14211667Y-11623714D02*
X14230714Y-11614190D01*
X14230714Y-11614190D02*
X14259286Y-11614190D01*
X14259286Y-11614190D02*
X14278333Y-11623714D01*
X14278333Y-11623714D02*
X14287857Y-11642762D01*
X14287857Y-11642762D02*
X14287857Y-11747524D01*
X14678333Y-11538000D02*
X14506905Y-11795143D01*
X14935476Y-11547524D02*
X14954524Y-11547524D01*
X14954524Y-11547524D02*
X14973572Y-11557048D01*
X14973572Y-11557048D02*
X14983095Y-11566571D01*
X14983095Y-11566571D02*
X14992619Y-11585619D01*
X14992619Y-11585619D02*
X15002143Y-11623714D01*
X15002143Y-11623714D02*
X15002143Y-11671333D01*
X15002143Y-11671333D02*
X14992619Y-11709428D01*
X14992619Y-11709428D02*
X14983095Y-11728476D01*
X14983095Y-11728476D02*
X14973572Y-11738000D01*
X14973572Y-11738000D02*
X14954524Y-11747524D01*
X14954524Y-11747524D02*
X14935476Y-11747524D01*
X14935476Y-11747524D02*
X14916429Y-11738000D01*
X14916429Y-11738000D02*
X14906905Y-11728476D01*
X14906905Y-11728476D02*
X14897381Y-11709428D01*
X14897381Y-11709428D02*
X14887857Y-11671333D01*
X14887857Y-11671333D02*
X14887857Y-11623714D01*
X14887857Y-11623714D02*
X14897381Y-11585619D01*
X14897381Y-11585619D02*
X14906905Y-11566571D01*
X14906905Y-11566571D02*
X14916429Y-11557048D01*
X14916429Y-11557048D02*
X14935476Y-11547524D01*
X15087857Y-11728476D02*
X15097381Y-11738000D01*
X15097381Y-11738000D02*
X15087857Y-11747524D01*
X15087857Y-11747524D02*
X15078333Y-11738000D01*
X15078333Y-11738000D02*
X15087857Y-11728476D01*
X15087857Y-11728476D02*
X15087857Y-11747524D01*
X15221191Y-11547524D02*
X15240238Y-11547524D01*
X15240238Y-11547524D02*
X15259286Y-11557048D01*
X15259286Y-11557048D02*
X15268810Y-11566571D01*
X15268810Y-11566571D02*
X15278333Y-11585619D01*
X15278333Y-11585619D02*
X15287857Y-11623714D01*
X15287857Y-11623714D02*
X15287857Y-11671333D01*
X15287857Y-11671333D02*
X15278333Y-11709428D01*
X15278333Y-11709428D02*
X15268810Y-11728476D01*
X15268810Y-11728476D02*
X15259286Y-11738000D01*
X15259286Y-11738000D02*
X15240238Y-11747524D01*
X15240238Y-11747524D02*
X15221191Y-11747524D01*
X15221191Y-11747524D02*
X15202143Y-11738000D01*
X15202143Y-11738000D02*
X15192619Y-11728476D01*
X15192619Y-11728476D02*
X15183095Y-11709428D01*
X15183095Y-11709428D02*
X15173572Y-11671333D01*
X15173572Y-11671333D02*
X15173572Y-11623714D01*
X15173572Y-11623714D02*
X15183095Y-11585619D01*
X15183095Y-11585619D02*
X15192619Y-11566571D01*
X15192619Y-11566571D02*
X15202143Y-11557048D01*
X15202143Y-11557048D02*
X15221191Y-11547524D01*
X15459286Y-11547524D02*
X15421191Y-11547524D01*
X15421191Y-11547524D02*
X15402143Y-11557048D01*
X15402143Y-11557048D02*
X15392619Y-11566571D01*
X15392619Y-11566571D02*
X15373572Y-11595143D01*
X15373572Y-11595143D02*
X15364048Y-11633238D01*
X15364048Y-11633238D02*
X15364048Y-11709428D01*
X15364048Y-11709428D02*
X15373572Y-11728476D01*
X15373572Y-11728476D02*
X15383095Y-11738000D01*
X15383095Y-11738000D02*
X15402143Y-11747524D01*
X15402143Y-11747524D02*
X15440238Y-11747524D01*
X15440238Y-11747524D02*
X15459286Y-11738000D01*
X15459286Y-11738000D02*
X15468810Y-11728476D01*
X15468810Y-11728476D02*
X15478333Y-11709428D01*
X15478333Y-11709428D02*
X15478333Y-11661809D01*
X15478333Y-11661809D02*
X15468810Y-11642762D01*
X15468810Y-11642762D02*
X15459286Y-11633238D01*
X15459286Y-11633238D02*
X15440238Y-11623714D01*
X15440238Y-11623714D02*
X15402143Y-11623714D01*
X15402143Y-11623714D02*
X15383095Y-11633238D01*
X15383095Y-11633238D02*
X15373572Y-11642762D01*
X15373572Y-11642762D02*
X15364048Y-11661809D01*
X15545000Y-11547524D02*
X15678333Y-11547524D01*
X15678333Y-11547524D02*
X15592619Y-11747524D01*
X15792619Y-11547524D02*
X15811667Y-11547524D01*
X15811667Y-11547524D02*
X15830714Y-11557048D01*
X15830714Y-11557048D02*
X15840238Y-11566571D01*
X15840238Y-11566571D02*
X15849762Y-11585619D01*
X15849762Y-11585619D02*
X15859286Y-11623714D01*
X15859286Y-11623714D02*
X15859286Y-11671333D01*
X15859286Y-11671333D02*
X15849762Y-11709428D01*
X15849762Y-11709428D02*
X15840238Y-11728476D01*
X15840238Y-11728476D02*
X15830714Y-11738000D01*
X15830714Y-11738000D02*
X15811667Y-11747524D01*
X15811667Y-11747524D02*
X15792619Y-11747524D01*
X15792619Y-11747524D02*
X15773572Y-11738000D01*
X15773572Y-11738000D02*
X15764048Y-11728476D01*
X15764048Y-11728476D02*
X15754524Y-11709428D01*
X15754524Y-11709428D02*
X15745000Y-11671333D01*
X15745000Y-11671333D02*
X15745000Y-11623714D01*
X15745000Y-11623714D02*
X15754524Y-11585619D01*
X15754524Y-11585619D02*
X15764048Y-11566571D01*
X15764048Y-11566571D02*
X15773572Y-11557048D01*
X15773572Y-11557048D02*
X15792619Y-11547524D01*
X15935476Y-11547524D02*
X15935476Y-11585619D01*
X16011667Y-11547524D02*
X16011667Y-11585619D01*
X16306905Y-11823714D02*
X16297381Y-11814190D01*
X16297381Y-11814190D02*
X16278334Y-11785619D01*
X16278334Y-11785619D02*
X16268810Y-11766571D01*
X16268810Y-11766571D02*
X16259286Y-11738000D01*
X16259286Y-11738000D02*
X16249762Y-11690381D01*
X16249762Y-11690381D02*
X16249762Y-11652286D01*
X16249762Y-11652286D02*
X16259286Y-11604667D01*
X16259286Y-11604667D02*
X16268810Y-11576095D01*
X16268810Y-11576095D02*
X16278334Y-11557048D01*
X16278334Y-11557048D02*
X16297381Y-11528476D01*
X16297381Y-11528476D02*
X16306905Y-11518952D01*
X16373572Y-11566571D02*
X16383095Y-11557048D01*
X16383095Y-11557048D02*
X16402143Y-11547524D01*
X16402143Y-11547524D02*
X16449762Y-11547524D01*
X16449762Y-11547524D02*
X16468810Y-11557048D01*
X16468810Y-11557048D02*
X16478334Y-11566571D01*
X16478334Y-11566571D02*
X16487857Y-11585619D01*
X16487857Y-11585619D02*
X16487857Y-11604667D01*
X16487857Y-11604667D02*
X16478334Y-11633238D01*
X16478334Y-11633238D02*
X16364048Y-11747524D01*
X16364048Y-11747524D02*
X16487857Y-11747524D01*
X16659286Y-11614190D02*
X16659286Y-11747524D01*
X16611667Y-11538000D02*
X16564048Y-11680857D01*
X16564048Y-11680857D02*
X16687857Y-11680857D01*
X16916429Y-11747524D02*
X16916429Y-11547524D01*
X17002143Y-11747524D02*
X17002143Y-11642762D01*
X17002143Y-11642762D02*
X16992619Y-11623714D01*
X16992619Y-11623714D02*
X16973572Y-11614190D01*
X16973572Y-11614190D02*
X16945000Y-11614190D01*
X16945000Y-11614190D02*
X16925953Y-11623714D01*
X16925953Y-11623714D02*
X16916429Y-11633238D01*
X17125953Y-11747524D02*
X17106905Y-11738000D01*
X17106905Y-11738000D02*
X17097381Y-11728476D01*
X17097381Y-11728476D02*
X17087858Y-11709428D01*
X17087858Y-11709428D02*
X17087858Y-11652286D01*
X17087858Y-11652286D02*
X17097381Y-11633238D01*
X17097381Y-11633238D02*
X17106905Y-11623714D01*
X17106905Y-11623714D02*
X17125953Y-11614190D01*
X17125953Y-11614190D02*
X17154524Y-11614190D01*
X17154524Y-11614190D02*
X17173572Y-11623714D01*
X17173572Y-11623714D02*
X17183096Y-11633238D01*
X17183096Y-11633238D02*
X17192619Y-11652286D01*
X17192619Y-11652286D02*
X17192619Y-11709428D01*
X17192619Y-11709428D02*
X17183096Y-11728476D01*
X17183096Y-11728476D02*
X17173572Y-11738000D01*
X17173572Y-11738000D02*
X17154524Y-11747524D01*
X17154524Y-11747524D02*
X17125953Y-11747524D01*
X17306905Y-11747524D02*
X17287858Y-11738000D01*
X17287858Y-11738000D02*
X17278334Y-11718952D01*
X17278334Y-11718952D02*
X17278334Y-11547524D01*
X17459286Y-11738000D02*
X17440239Y-11747524D01*
X17440239Y-11747524D02*
X17402143Y-11747524D01*
X17402143Y-11747524D02*
X17383096Y-11738000D01*
X17383096Y-11738000D02*
X17373572Y-11718952D01*
X17373572Y-11718952D02*
X17373572Y-11642762D01*
X17373572Y-11642762D02*
X17383096Y-11623714D01*
X17383096Y-11623714D02*
X17402143Y-11614190D01*
X17402143Y-11614190D02*
X17440239Y-11614190D01*
X17440239Y-11614190D02*
X17459286Y-11623714D01*
X17459286Y-11623714D02*
X17468810Y-11642762D01*
X17468810Y-11642762D02*
X17468810Y-11661809D01*
X17468810Y-11661809D02*
X17373572Y-11680857D01*
X17545000Y-11738000D02*
X17564048Y-11747524D01*
X17564048Y-11747524D02*
X17602143Y-11747524D01*
X17602143Y-11747524D02*
X17621191Y-11738000D01*
X17621191Y-11738000D02*
X17630715Y-11718952D01*
X17630715Y-11718952D02*
X17630715Y-11709428D01*
X17630715Y-11709428D02*
X17621191Y-11690381D01*
X17621191Y-11690381D02*
X17602143Y-11680857D01*
X17602143Y-11680857D02*
X17573572Y-11680857D01*
X17573572Y-11680857D02*
X17554524Y-11671333D01*
X17554524Y-11671333D02*
X17545000Y-11652286D01*
X17545000Y-11652286D02*
X17545000Y-11642762D01*
X17545000Y-11642762D02*
X17554524Y-11623714D01*
X17554524Y-11623714D02*
X17573572Y-11614190D01*
X17573572Y-11614190D02*
X17602143Y-11614190D01*
X17602143Y-11614190D02*
X17621191Y-11623714D01*
X17697381Y-11823714D02*
X17706905Y-11814190D01*
X17706905Y-11814190D02*
X17725953Y-11785619D01*
X17725953Y-11785619D02*
X17735477Y-11766571D01*
X17735477Y-11766571D02*
X17745000Y-11738000D01*
X17745000Y-11738000D02*
X17754524Y-11690381D01*
X17754524Y-11690381D02*
X17754524Y-11652286D01*
X17754524Y-11652286D02*
X17745000Y-11604667D01*
X17745000Y-11604667D02*
X17735477Y-11576095D01*
X17735477Y-11576095D02*
X17725953Y-11557048D01*
X17725953Y-11557048D02*
X17706905Y-11528476D01*
X17706905Y-11528476D02*
X17697381Y-11518952D01*
X18059286Y-11823714D02*
X18049762Y-11814190D01*
X18049762Y-11814190D02*
X18030715Y-11785619D01*
X18030715Y-11785619D02*
X18021191Y-11766571D01*
X18021191Y-11766571D02*
X18011667Y-11738000D01*
X18011667Y-11738000D02*
X18002143Y-11690381D01*
X18002143Y-11690381D02*
X18002143Y-11652286D01*
X18002143Y-11652286D02*
X18011667Y-11604667D01*
X18011667Y-11604667D02*
X18021191Y-11576095D01*
X18021191Y-11576095D02*
X18030715Y-11557048D01*
X18030715Y-11557048D02*
X18049762Y-11528476D01*
X18049762Y-11528476D02*
X18059286Y-11518952D01*
X18135477Y-11614190D02*
X18135477Y-11747524D01*
X18135477Y-11633238D02*
X18145000Y-11623714D01*
X18145000Y-11623714D02*
X18164048Y-11614190D01*
X18164048Y-11614190D02*
X18192620Y-11614190D01*
X18192620Y-11614190D02*
X18211667Y-11623714D01*
X18211667Y-11623714D02*
X18221191Y-11642762D01*
X18221191Y-11642762D02*
X18221191Y-11747524D01*
X18345000Y-11747524D02*
X18325953Y-11738000D01*
X18325953Y-11738000D02*
X18316429Y-11728476D01*
X18316429Y-11728476D02*
X18306905Y-11709428D01*
X18306905Y-11709428D02*
X18306905Y-11652286D01*
X18306905Y-11652286D02*
X18316429Y-11633238D01*
X18316429Y-11633238D02*
X18325953Y-11623714D01*
X18325953Y-11623714D02*
X18345000Y-11614190D01*
X18345000Y-11614190D02*
X18373572Y-11614190D01*
X18373572Y-11614190D02*
X18392620Y-11623714D01*
X18392620Y-11623714D02*
X18402143Y-11633238D01*
X18402143Y-11633238D02*
X18411667Y-11652286D01*
X18411667Y-11652286D02*
X18411667Y-11709428D01*
X18411667Y-11709428D02*
X18402143Y-11728476D01*
X18402143Y-11728476D02*
X18392620Y-11738000D01*
X18392620Y-11738000D02*
X18373572Y-11747524D01*
X18373572Y-11747524D02*
X18345000Y-11747524D01*
X18468810Y-11614190D02*
X18545000Y-11614190D01*
X18497381Y-11547524D02*
X18497381Y-11718952D01*
X18497381Y-11718952D02*
X18506905Y-11738000D01*
X18506905Y-11738000D02*
X18525953Y-11747524D01*
X18525953Y-11747524D02*
X18545000Y-11747524D01*
X18764048Y-11614190D02*
X18764048Y-11814190D01*
X18764048Y-11623714D02*
X18783096Y-11614190D01*
X18783096Y-11614190D02*
X18821191Y-11614190D01*
X18821191Y-11614190D02*
X18840239Y-11623714D01*
X18840239Y-11623714D02*
X18849762Y-11633238D01*
X18849762Y-11633238D02*
X18859286Y-11652286D01*
X18859286Y-11652286D02*
X18859286Y-11709428D01*
X18859286Y-11709428D02*
X18849762Y-11728476D01*
X18849762Y-11728476D02*
X18840239Y-11738000D01*
X18840239Y-11738000D02*
X18821191Y-11747524D01*
X18821191Y-11747524D02*
X18783096Y-11747524D01*
X18783096Y-11747524D02*
X18764048Y-11738000D01*
X18973572Y-11747524D02*
X18954524Y-11738000D01*
X18954524Y-11738000D02*
X18945001Y-11718952D01*
X18945001Y-11718952D02*
X18945001Y-11547524D01*
X19135477Y-11747524D02*
X19135477Y-11642762D01*
X19135477Y-11642762D02*
X19125953Y-11623714D01*
X19125953Y-11623714D02*
X19106905Y-11614190D01*
X19106905Y-11614190D02*
X19068810Y-11614190D01*
X19068810Y-11614190D02*
X19049762Y-11623714D01*
X19135477Y-11738000D02*
X19116429Y-11747524D01*
X19116429Y-11747524D02*
X19068810Y-11747524D01*
X19068810Y-11747524D02*
X19049762Y-11738000D01*
X19049762Y-11738000D02*
X19040239Y-11718952D01*
X19040239Y-11718952D02*
X19040239Y-11699905D01*
X19040239Y-11699905D02*
X19049762Y-11680857D01*
X19049762Y-11680857D02*
X19068810Y-11671333D01*
X19068810Y-11671333D02*
X19116429Y-11671333D01*
X19116429Y-11671333D02*
X19135477Y-11661809D01*
X19202143Y-11614190D02*
X19278334Y-11614190D01*
X19230715Y-11547524D02*
X19230715Y-11718952D01*
X19230715Y-11718952D02*
X19240239Y-11738000D01*
X19240239Y-11738000D02*
X19259286Y-11747524D01*
X19259286Y-11747524D02*
X19278334Y-11747524D01*
X19421191Y-11738000D02*
X19402143Y-11747524D01*
X19402143Y-11747524D02*
X19364048Y-11747524D01*
X19364048Y-11747524D02*
X19345001Y-11738000D01*
X19345001Y-11738000D02*
X19335477Y-11718952D01*
X19335477Y-11718952D02*
X19335477Y-11642762D01*
X19335477Y-11642762D02*
X19345001Y-11623714D01*
X19345001Y-11623714D02*
X19364048Y-11614190D01*
X19364048Y-11614190D02*
X19402143Y-11614190D01*
X19402143Y-11614190D02*
X19421191Y-11623714D01*
X19421191Y-11623714D02*
X19430715Y-11642762D01*
X19430715Y-11642762D02*
X19430715Y-11661809D01*
X19430715Y-11661809D02*
X19335477Y-11680857D01*
X19602143Y-11747524D02*
X19602143Y-11547524D01*
X19602143Y-11738000D02*
X19583096Y-11747524D01*
X19583096Y-11747524D02*
X19545001Y-11747524D01*
X19545001Y-11747524D02*
X19525953Y-11738000D01*
X19525953Y-11738000D02*
X19516429Y-11728476D01*
X19516429Y-11728476D02*
X19506905Y-11709428D01*
X19506905Y-11709428D02*
X19506905Y-11652286D01*
X19506905Y-11652286D02*
X19516429Y-11633238D01*
X19516429Y-11633238D02*
X19525953Y-11623714D01*
X19525953Y-11623714D02*
X19545001Y-11614190D01*
X19545001Y-11614190D02*
X19583096Y-11614190D01*
X19583096Y-11614190D02*
X19602143Y-11623714D01*
X19678334Y-11823714D02*
X19687858Y-11814190D01*
X19687858Y-11814190D02*
X19706905Y-11785619D01*
X19706905Y-11785619D02*
X19716429Y-11766571D01*
X19716429Y-11766571D02*
X19725953Y-11738000D01*
X19725953Y-11738000D02*
X19735477Y-11690381D01*
X19735477Y-11690381D02*
X19735477Y-11652286D01*
X19735477Y-11652286D02*
X19725953Y-11604667D01*
X19725953Y-11604667D02*
X19716429Y-11576095D01*
X19716429Y-11576095D02*
X19706905Y-11557048D01*
X19706905Y-11557048D02*
X19687858Y-11528476D01*
X19687858Y-11528476D02*
X19678334Y-11518952D01*
X12745000Y-11945180D02*
G75*
G03*
X12745000Y-11945180I-100000J0D01*
G01*
X12973571Y-11837704D02*
X13097381Y-11837704D01*
X13097381Y-11837704D02*
X13030714Y-11913894D01*
X13030714Y-11913894D02*
X13059286Y-11913894D01*
X13059286Y-11913894D02*
X13078333Y-11923418D01*
X13078333Y-11923418D02*
X13087857Y-11932942D01*
X13087857Y-11932942D02*
X13097381Y-11951989D01*
X13097381Y-11951989D02*
X13097381Y-11999608D01*
X13097381Y-11999608D02*
X13087857Y-12018656D01*
X13087857Y-12018656D02*
X13078333Y-12028180D01*
X13078333Y-12028180D02*
X13059286Y-12037704D01*
X13059286Y-12037704D02*
X13002143Y-12037704D01*
X13002143Y-12037704D02*
X12983095Y-12028180D01*
X12983095Y-12028180D02*
X12973571Y-12018656D01*
X13183095Y-12018656D02*
X13192619Y-12028180D01*
X13192619Y-12028180D02*
X13183095Y-12037704D01*
X13183095Y-12037704D02*
X13173571Y-12028180D01*
X13173571Y-12028180D02*
X13183095Y-12018656D01*
X13183095Y-12018656D02*
X13183095Y-12037704D01*
X13316428Y-11837704D02*
X13335476Y-11837704D01*
X13335476Y-11837704D02*
X13354524Y-11847228D01*
X13354524Y-11847228D02*
X13364048Y-11856751D01*
X13364048Y-11856751D02*
X13373571Y-11875799D01*
X13373571Y-11875799D02*
X13383095Y-11913894D01*
X13383095Y-11913894D02*
X13383095Y-11961513D01*
X13383095Y-11961513D02*
X13373571Y-11999608D01*
X13373571Y-11999608D02*
X13364048Y-12018656D01*
X13364048Y-12018656D02*
X13354524Y-12028180D01*
X13354524Y-12028180D02*
X13335476Y-12037704D01*
X13335476Y-12037704D02*
X13316428Y-12037704D01*
X13316428Y-12037704D02*
X13297381Y-12028180D01*
X13297381Y-12028180D02*
X13287857Y-12018656D01*
X13287857Y-12018656D02*
X13278333Y-11999608D01*
X13278333Y-11999608D02*
X13268809Y-11961513D01*
X13268809Y-11961513D02*
X13268809Y-11913894D01*
X13268809Y-11913894D02*
X13278333Y-11875799D01*
X13278333Y-11875799D02*
X13287857Y-11856751D01*
X13287857Y-11856751D02*
X13297381Y-11847228D01*
X13297381Y-11847228D02*
X13316428Y-11837704D01*
X13506905Y-11837704D02*
X13525952Y-11837704D01*
X13525952Y-11837704D02*
X13545000Y-11847228D01*
X13545000Y-11847228D02*
X13554524Y-11856751D01*
X13554524Y-11856751D02*
X13564048Y-11875799D01*
X13564048Y-11875799D02*
X13573571Y-11913894D01*
X13573571Y-11913894D02*
X13573571Y-11961513D01*
X13573571Y-11961513D02*
X13564048Y-11999608D01*
X13564048Y-11999608D02*
X13554524Y-12018656D01*
X13554524Y-12018656D02*
X13545000Y-12028180D01*
X13545000Y-12028180D02*
X13525952Y-12037704D01*
X13525952Y-12037704D02*
X13506905Y-12037704D01*
X13506905Y-12037704D02*
X13487857Y-12028180D01*
X13487857Y-12028180D02*
X13478333Y-12018656D01*
X13478333Y-12018656D02*
X13468809Y-11999608D01*
X13468809Y-11999608D02*
X13459286Y-11961513D01*
X13459286Y-11961513D02*
X13459286Y-11913894D01*
X13459286Y-11913894D02*
X13468809Y-11875799D01*
X13468809Y-11875799D02*
X13478333Y-11856751D01*
X13478333Y-11856751D02*
X13487857Y-11847228D01*
X13487857Y-11847228D02*
X13506905Y-11837704D01*
X13697381Y-11837704D02*
X13716429Y-11837704D01*
X13716429Y-11837704D02*
X13735476Y-11847228D01*
X13735476Y-11847228D02*
X13745000Y-11856751D01*
X13745000Y-11856751D02*
X13754524Y-11875799D01*
X13754524Y-11875799D02*
X13764048Y-11913894D01*
X13764048Y-11913894D02*
X13764048Y-11961513D01*
X13764048Y-11961513D02*
X13754524Y-11999608D01*
X13754524Y-11999608D02*
X13745000Y-12018656D01*
X13745000Y-12018656D02*
X13735476Y-12028180D01*
X13735476Y-12028180D02*
X13716429Y-12037704D01*
X13716429Y-12037704D02*
X13697381Y-12037704D01*
X13697381Y-12037704D02*
X13678333Y-12028180D01*
X13678333Y-12028180D02*
X13668809Y-12018656D01*
X13668809Y-12018656D02*
X13659286Y-11999608D01*
X13659286Y-11999608D02*
X13649762Y-11961513D01*
X13649762Y-11961513D02*
X13649762Y-11913894D01*
X13649762Y-11913894D02*
X13659286Y-11875799D01*
X13659286Y-11875799D02*
X13668809Y-11856751D01*
X13668809Y-11856751D02*
X13678333Y-11847228D01*
X13678333Y-11847228D02*
X13697381Y-11837704D01*
X13849762Y-12037704D02*
X13849762Y-11904370D01*
X13849762Y-11923418D02*
X13859286Y-11913894D01*
X13859286Y-11913894D02*
X13878333Y-11904370D01*
X13878333Y-11904370D02*
X13906905Y-11904370D01*
X13906905Y-11904370D02*
X13925952Y-11913894D01*
X13925952Y-11913894D02*
X13935476Y-11932942D01*
X13935476Y-11932942D02*
X13935476Y-12037704D01*
X13935476Y-11932942D02*
X13945000Y-11913894D01*
X13945000Y-11913894D02*
X13964048Y-11904370D01*
X13964048Y-11904370D02*
X13992619Y-11904370D01*
X13992619Y-11904370D02*
X14011667Y-11913894D01*
X14011667Y-11913894D02*
X14021190Y-11932942D01*
X14021190Y-11932942D02*
X14021190Y-12037704D01*
X14116429Y-12037704D02*
X14116429Y-11904370D01*
X14116429Y-11923418D02*
X14125952Y-11913894D01*
X14125952Y-11913894D02*
X14145000Y-11904370D01*
X14145000Y-11904370D02*
X14173571Y-11904370D01*
X14173571Y-11904370D02*
X14192619Y-11913894D01*
X14192619Y-11913894D02*
X14202143Y-11932942D01*
X14202143Y-11932942D02*
X14202143Y-12037704D01*
X14202143Y-11932942D02*
X14211667Y-11913894D01*
X14211667Y-11913894D02*
X14230714Y-11904370D01*
X14230714Y-11904370D02*
X14259286Y-11904370D01*
X14259286Y-11904370D02*
X14278333Y-11913894D01*
X14278333Y-11913894D02*
X14287857Y-11932942D01*
X14287857Y-11932942D02*
X14287857Y-12037704D01*
X14678333Y-11828180D02*
X14506905Y-12085323D01*
X14935476Y-11837704D02*
X14954524Y-11837704D01*
X14954524Y-11837704D02*
X14973572Y-11847228D01*
X14973572Y-11847228D02*
X14983095Y-11856751D01*
X14983095Y-11856751D02*
X14992619Y-11875799D01*
X14992619Y-11875799D02*
X15002143Y-11913894D01*
X15002143Y-11913894D02*
X15002143Y-11961513D01*
X15002143Y-11961513D02*
X14992619Y-11999608D01*
X14992619Y-11999608D02*
X14983095Y-12018656D01*
X14983095Y-12018656D02*
X14973572Y-12028180D01*
X14973572Y-12028180D02*
X14954524Y-12037704D01*
X14954524Y-12037704D02*
X14935476Y-12037704D01*
X14935476Y-12037704D02*
X14916429Y-12028180D01*
X14916429Y-12028180D02*
X14906905Y-12018656D01*
X14906905Y-12018656D02*
X14897381Y-11999608D01*
X14897381Y-11999608D02*
X14887857Y-11961513D01*
X14887857Y-11961513D02*
X14887857Y-11913894D01*
X14887857Y-11913894D02*
X14897381Y-11875799D01*
X14897381Y-11875799D02*
X14906905Y-11856751D01*
X14906905Y-11856751D02*
X14916429Y-11847228D01*
X14916429Y-11847228D02*
X14935476Y-11837704D01*
X15087857Y-12018656D02*
X15097381Y-12028180D01*
X15097381Y-12028180D02*
X15087857Y-12037704D01*
X15087857Y-12037704D02*
X15078333Y-12028180D01*
X15078333Y-12028180D02*
X15087857Y-12018656D01*
X15087857Y-12018656D02*
X15087857Y-12037704D01*
X15287857Y-12037704D02*
X15173572Y-12037704D01*
X15230714Y-12037704D02*
X15230714Y-11837704D01*
X15230714Y-11837704D02*
X15211667Y-11866275D01*
X15211667Y-11866275D02*
X15192619Y-11885323D01*
X15192619Y-11885323D02*
X15173572Y-11894847D01*
X15478333Y-12037704D02*
X15364048Y-12037704D01*
X15421191Y-12037704D02*
X15421191Y-11837704D01*
X15421191Y-11837704D02*
X15402143Y-11866275D01*
X15402143Y-11866275D02*
X15383095Y-11885323D01*
X15383095Y-11885323D02*
X15364048Y-11894847D01*
X15592619Y-11923418D02*
X15573572Y-11913894D01*
X15573572Y-11913894D02*
X15564048Y-11904370D01*
X15564048Y-11904370D02*
X15554524Y-11885323D01*
X15554524Y-11885323D02*
X15554524Y-11875799D01*
X15554524Y-11875799D02*
X15564048Y-11856751D01*
X15564048Y-11856751D02*
X15573572Y-11847228D01*
X15573572Y-11847228D02*
X15592619Y-11837704D01*
X15592619Y-11837704D02*
X15630714Y-11837704D01*
X15630714Y-11837704D02*
X15649762Y-11847228D01*
X15649762Y-11847228D02*
X15659286Y-11856751D01*
X15659286Y-11856751D02*
X15668810Y-11875799D01*
X15668810Y-11875799D02*
X15668810Y-11885323D01*
X15668810Y-11885323D02*
X15659286Y-11904370D01*
X15659286Y-11904370D02*
X15649762Y-11913894D01*
X15649762Y-11913894D02*
X15630714Y-11923418D01*
X15630714Y-11923418D02*
X15592619Y-11923418D01*
X15592619Y-11923418D02*
X15573572Y-11932942D01*
X15573572Y-11932942D02*
X15564048Y-11942466D01*
X15564048Y-11942466D02*
X15554524Y-11961513D01*
X15554524Y-11961513D02*
X15554524Y-11999608D01*
X15554524Y-11999608D02*
X15564048Y-12018656D01*
X15564048Y-12018656D02*
X15573572Y-12028180D01*
X15573572Y-12028180D02*
X15592619Y-12037704D01*
X15592619Y-12037704D02*
X15630714Y-12037704D01*
X15630714Y-12037704D02*
X15649762Y-12028180D01*
X15649762Y-12028180D02*
X15659286Y-12018656D01*
X15659286Y-12018656D02*
X15668810Y-11999608D01*
X15668810Y-11999608D02*
X15668810Y-11961513D01*
X15668810Y-11961513D02*
X15659286Y-11942466D01*
X15659286Y-11942466D02*
X15649762Y-11932942D01*
X15649762Y-11932942D02*
X15630714Y-11923418D01*
X15859286Y-12037704D02*
X15745000Y-12037704D01*
X15802143Y-12037704D02*
X15802143Y-11837704D01*
X15802143Y-11837704D02*
X15783095Y-11866275D01*
X15783095Y-11866275D02*
X15764048Y-11885323D01*
X15764048Y-11885323D02*
X15745000Y-11894847D01*
X15935476Y-11837704D02*
X15935476Y-11875799D01*
X16011667Y-11837704D02*
X16011667Y-11875799D01*
X16306905Y-12113894D02*
X16297381Y-12104370D01*
X16297381Y-12104370D02*
X16278334Y-12075799D01*
X16278334Y-12075799D02*
X16268810Y-12056751D01*
X16268810Y-12056751D02*
X16259286Y-12028180D01*
X16259286Y-12028180D02*
X16249762Y-11980561D01*
X16249762Y-11980561D02*
X16249762Y-11942466D01*
X16249762Y-11942466D02*
X16259286Y-11894847D01*
X16259286Y-11894847D02*
X16268810Y-11866275D01*
X16268810Y-11866275D02*
X16278334Y-11847228D01*
X16278334Y-11847228D02*
X16297381Y-11818656D01*
X16297381Y-11818656D02*
X16306905Y-11809132D01*
X16373572Y-11856751D02*
X16383095Y-11847228D01*
X16383095Y-11847228D02*
X16402143Y-11837704D01*
X16402143Y-11837704D02*
X16449762Y-11837704D01*
X16449762Y-11837704D02*
X16468810Y-11847228D01*
X16468810Y-11847228D02*
X16478334Y-11856751D01*
X16478334Y-11856751D02*
X16487857Y-11875799D01*
X16487857Y-11875799D02*
X16487857Y-11894847D01*
X16487857Y-11894847D02*
X16478334Y-11923418D01*
X16478334Y-11923418D02*
X16364048Y-12037704D01*
X16364048Y-12037704D02*
X16487857Y-12037704D01*
X16659286Y-11904370D02*
X16659286Y-12037704D01*
X16611667Y-11828180D02*
X16564048Y-11971037D01*
X16564048Y-11971037D02*
X16687857Y-11971037D01*
X16916429Y-12037704D02*
X16916429Y-11837704D01*
X17002143Y-12037704D02*
X17002143Y-11932942D01*
X17002143Y-11932942D02*
X16992619Y-11913894D01*
X16992619Y-11913894D02*
X16973572Y-11904370D01*
X16973572Y-11904370D02*
X16945000Y-11904370D01*
X16945000Y-11904370D02*
X16925953Y-11913894D01*
X16925953Y-11913894D02*
X16916429Y-11923418D01*
X17125953Y-12037704D02*
X17106905Y-12028180D01*
X17106905Y-12028180D02*
X17097381Y-12018656D01*
X17097381Y-12018656D02*
X17087858Y-11999608D01*
X17087858Y-11999608D02*
X17087858Y-11942466D01*
X17087858Y-11942466D02*
X17097381Y-11923418D01*
X17097381Y-11923418D02*
X17106905Y-11913894D01*
X17106905Y-11913894D02*
X17125953Y-11904370D01*
X17125953Y-11904370D02*
X17154524Y-11904370D01*
X17154524Y-11904370D02*
X17173572Y-11913894D01*
X17173572Y-11913894D02*
X17183096Y-11923418D01*
X17183096Y-11923418D02*
X17192619Y-11942466D01*
X17192619Y-11942466D02*
X17192619Y-11999608D01*
X17192619Y-11999608D02*
X17183096Y-12018656D01*
X17183096Y-12018656D02*
X17173572Y-12028180D01*
X17173572Y-12028180D02*
X17154524Y-12037704D01*
X17154524Y-12037704D02*
X17125953Y-12037704D01*
X17306905Y-12037704D02*
X17287858Y-12028180D01*
X17287858Y-12028180D02*
X17278334Y-12009132D01*
X17278334Y-12009132D02*
X17278334Y-11837704D01*
X17459286Y-12028180D02*
X17440239Y-12037704D01*
X17440239Y-12037704D02*
X17402143Y-12037704D01*
X17402143Y-12037704D02*
X17383096Y-12028180D01*
X17383096Y-12028180D02*
X17373572Y-12009132D01*
X17373572Y-12009132D02*
X17373572Y-11932942D01*
X17373572Y-11932942D02*
X17383096Y-11913894D01*
X17383096Y-11913894D02*
X17402143Y-11904370D01*
X17402143Y-11904370D02*
X17440239Y-11904370D01*
X17440239Y-11904370D02*
X17459286Y-11913894D01*
X17459286Y-11913894D02*
X17468810Y-11932942D01*
X17468810Y-11932942D02*
X17468810Y-11951989D01*
X17468810Y-11951989D02*
X17373572Y-11971037D01*
X17545000Y-12028180D02*
X17564048Y-12037704D01*
X17564048Y-12037704D02*
X17602143Y-12037704D01*
X17602143Y-12037704D02*
X17621191Y-12028180D01*
X17621191Y-12028180D02*
X17630715Y-12009132D01*
X17630715Y-12009132D02*
X17630715Y-11999608D01*
X17630715Y-11999608D02*
X17621191Y-11980561D01*
X17621191Y-11980561D02*
X17602143Y-11971037D01*
X17602143Y-11971037D02*
X17573572Y-11971037D01*
X17573572Y-11971037D02*
X17554524Y-11961513D01*
X17554524Y-11961513D02*
X17545000Y-11942466D01*
X17545000Y-11942466D02*
X17545000Y-11932942D01*
X17545000Y-11932942D02*
X17554524Y-11913894D01*
X17554524Y-11913894D02*
X17573572Y-11904370D01*
X17573572Y-11904370D02*
X17602143Y-11904370D01*
X17602143Y-11904370D02*
X17621191Y-11913894D01*
X17697381Y-12113894D02*
X17706905Y-12104370D01*
X17706905Y-12104370D02*
X17725953Y-12075799D01*
X17725953Y-12075799D02*
X17735477Y-12056751D01*
X17735477Y-12056751D02*
X17745000Y-12028180D01*
X17745000Y-12028180D02*
X17754524Y-11980561D01*
X17754524Y-11980561D02*
X17754524Y-11942466D01*
X17754524Y-11942466D02*
X17745000Y-11894847D01*
X17745000Y-11894847D02*
X17735477Y-11866275D01*
X17735477Y-11866275D02*
X17725953Y-11847228D01*
X17725953Y-11847228D02*
X17706905Y-11818656D01*
X17706905Y-11818656D02*
X17697381Y-11809132D01*
X18059286Y-12113894D02*
X18049762Y-12104370D01*
X18049762Y-12104370D02*
X18030715Y-12075799D01*
X18030715Y-12075799D02*
X18021191Y-12056751D01*
X18021191Y-12056751D02*
X18011667Y-12028180D01*
X18011667Y-12028180D02*
X18002143Y-11980561D01*
X18002143Y-11980561D02*
X18002143Y-11942466D01*
X18002143Y-11942466D02*
X18011667Y-11894847D01*
X18011667Y-11894847D02*
X18021191Y-11866275D01*
X18021191Y-11866275D02*
X18030715Y-11847228D01*
X18030715Y-11847228D02*
X18049762Y-11818656D01*
X18049762Y-11818656D02*
X18059286Y-11809132D01*
X18135477Y-11904370D02*
X18135477Y-12037704D01*
X18135477Y-11923418D02*
X18145000Y-11913894D01*
X18145000Y-11913894D02*
X18164048Y-11904370D01*
X18164048Y-11904370D02*
X18192620Y-11904370D01*
X18192620Y-11904370D02*
X18211667Y-11913894D01*
X18211667Y-11913894D02*
X18221191Y-11932942D01*
X18221191Y-11932942D02*
X18221191Y-12037704D01*
X18345000Y-12037704D02*
X18325953Y-12028180D01*
X18325953Y-12028180D02*
X18316429Y-12018656D01*
X18316429Y-12018656D02*
X18306905Y-11999608D01*
X18306905Y-11999608D02*
X18306905Y-11942466D01*
X18306905Y-11942466D02*
X18316429Y-11923418D01*
X18316429Y-11923418D02*
X18325953Y-11913894D01*
X18325953Y-11913894D02*
X18345000Y-11904370D01*
X18345000Y-11904370D02*
X18373572Y-11904370D01*
X18373572Y-11904370D02*
X18392620Y-11913894D01*
X18392620Y-11913894D02*
X18402143Y-11923418D01*
X18402143Y-11923418D02*
X18411667Y-11942466D01*
X18411667Y-11942466D02*
X18411667Y-11999608D01*
X18411667Y-11999608D02*
X18402143Y-12018656D01*
X18402143Y-12018656D02*
X18392620Y-12028180D01*
X18392620Y-12028180D02*
X18373572Y-12037704D01*
X18373572Y-12037704D02*
X18345000Y-12037704D01*
X18468810Y-11904370D02*
X18545000Y-11904370D01*
X18497381Y-11837704D02*
X18497381Y-12009132D01*
X18497381Y-12009132D02*
X18506905Y-12028180D01*
X18506905Y-12028180D02*
X18525953Y-12037704D01*
X18525953Y-12037704D02*
X18545000Y-12037704D01*
X18764048Y-11904370D02*
X18764048Y-12104370D01*
X18764048Y-11913894D02*
X18783096Y-11904370D01*
X18783096Y-11904370D02*
X18821191Y-11904370D01*
X18821191Y-11904370D02*
X18840239Y-11913894D01*
X18840239Y-11913894D02*
X18849762Y-11923418D01*
X18849762Y-11923418D02*
X18859286Y-11942466D01*
X18859286Y-11942466D02*
X18859286Y-11999608D01*
X18859286Y-11999608D02*
X18849762Y-12018656D01*
X18849762Y-12018656D02*
X18840239Y-12028180D01*
X18840239Y-12028180D02*
X18821191Y-12037704D01*
X18821191Y-12037704D02*
X18783096Y-12037704D01*
X18783096Y-12037704D02*
X18764048Y-12028180D01*
X18973572Y-12037704D02*
X18954524Y-12028180D01*
X18954524Y-12028180D02*
X18945001Y-12009132D01*
X18945001Y-12009132D02*
X18945001Y-11837704D01*
X19135477Y-12037704D02*
X19135477Y-11932942D01*
X19135477Y-11932942D02*
X19125953Y-11913894D01*
X19125953Y-11913894D02*
X19106905Y-11904370D01*
X19106905Y-11904370D02*
X19068810Y-11904370D01*
X19068810Y-11904370D02*
X19049762Y-11913894D01*
X19135477Y-12028180D02*
X19116429Y-12037704D01*
X19116429Y-12037704D02*
X19068810Y-12037704D01*
X19068810Y-12037704D02*
X19049762Y-12028180D01*
X19049762Y-12028180D02*
X19040239Y-12009132D01*
X19040239Y-12009132D02*
X19040239Y-11990085D01*
X19040239Y-11990085D02*
X19049762Y-11971037D01*
X19049762Y-11971037D02*
X19068810Y-11961513D01*
X19068810Y-11961513D02*
X19116429Y-11961513D01*
X19116429Y-11961513D02*
X19135477Y-11951989D01*
X19202143Y-11904370D02*
X19278334Y-11904370D01*
X19230715Y-11837704D02*
X19230715Y-12009132D01*
X19230715Y-12009132D02*
X19240239Y-12028180D01*
X19240239Y-12028180D02*
X19259286Y-12037704D01*
X19259286Y-12037704D02*
X19278334Y-12037704D01*
X19421191Y-12028180D02*
X19402143Y-12037704D01*
X19402143Y-12037704D02*
X19364048Y-12037704D01*
X19364048Y-12037704D02*
X19345001Y-12028180D01*
X19345001Y-12028180D02*
X19335477Y-12009132D01*
X19335477Y-12009132D02*
X19335477Y-11932942D01*
X19335477Y-11932942D02*
X19345001Y-11913894D01*
X19345001Y-11913894D02*
X19364048Y-11904370D01*
X19364048Y-11904370D02*
X19402143Y-11904370D01*
X19402143Y-11904370D02*
X19421191Y-11913894D01*
X19421191Y-11913894D02*
X19430715Y-11932942D01*
X19430715Y-11932942D02*
X19430715Y-11951989D01*
X19430715Y-11951989D02*
X19335477Y-11971037D01*
X19602143Y-12037704D02*
X19602143Y-11837704D01*
X19602143Y-12028180D02*
X19583096Y-12037704D01*
X19583096Y-12037704D02*
X19545001Y-12037704D01*
X19545001Y-12037704D02*
X19525953Y-12028180D01*
X19525953Y-12028180D02*
X19516429Y-12018656D01*
X19516429Y-12018656D02*
X19506905Y-11999608D01*
X19506905Y-11999608D02*
X19506905Y-11942466D01*
X19506905Y-11942466D02*
X19516429Y-11923418D01*
X19516429Y-11923418D02*
X19525953Y-11913894D01*
X19525953Y-11913894D02*
X19545001Y-11904370D01*
X19545001Y-11904370D02*
X19583096Y-11904370D01*
X19583096Y-11904370D02*
X19602143Y-11913894D01*
X19678334Y-12113894D02*
X19687858Y-12104370D01*
X19687858Y-12104370D02*
X19706905Y-12075799D01*
X19706905Y-12075799D02*
X19716429Y-12056751D01*
X19716429Y-12056751D02*
X19725953Y-12028180D01*
X19725953Y-12028180D02*
X19735477Y-11980561D01*
X19735477Y-11980561D02*
X19735477Y-11942466D01*
X19735477Y-11942466D02*
X19725953Y-11894847D01*
X19725953Y-11894847D02*
X19716429Y-11866275D01*
X19716429Y-11866275D02*
X19706905Y-11847228D01*
X19706905Y-11847228D02*
X19687858Y-11818656D01*
X19687858Y-11818656D02*
X19678334Y-11809132D01*
X12645000Y-12165180D02*
X12645000Y-12365180D01*
X12545000Y-12265180D02*
X12745000Y-12265180D01*
X12973571Y-12157704D02*
X13097381Y-12157704D01*
X13097381Y-12157704D02*
X13030714Y-12233894D01*
X13030714Y-12233894D02*
X13059286Y-12233894D01*
X13059286Y-12233894D02*
X13078333Y-12243418D01*
X13078333Y-12243418D02*
X13087857Y-12252942D01*
X13087857Y-12252942D02*
X13097381Y-12271989D01*
X13097381Y-12271989D02*
X13097381Y-12319608D01*
X13097381Y-12319608D02*
X13087857Y-12338656D01*
X13087857Y-12338656D02*
X13078333Y-12348180D01*
X13078333Y-12348180D02*
X13059286Y-12357704D01*
X13059286Y-12357704D02*
X13002143Y-12357704D01*
X13002143Y-12357704D02*
X12983095Y-12348180D01*
X12983095Y-12348180D02*
X12973571Y-12338656D01*
X13183095Y-12338656D02*
X13192619Y-12348180D01*
X13192619Y-12348180D02*
X13183095Y-12357704D01*
X13183095Y-12357704D02*
X13173571Y-12348180D01*
X13173571Y-12348180D02*
X13183095Y-12338656D01*
X13183095Y-12338656D02*
X13183095Y-12357704D01*
X13287857Y-12357704D02*
X13325952Y-12357704D01*
X13325952Y-12357704D02*
X13345000Y-12348180D01*
X13345000Y-12348180D02*
X13354524Y-12338656D01*
X13354524Y-12338656D02*
X13373571Y-12310085D01*
X13373571Y-12310085D02*
X13383095Y-12271989D01*
X13383095Y-12271989D02*
X13383095Y-12195799D01*
X13383095Y-12195799D02*
X13373571Y-12176751D01*
X13373571Y-12176751D02*
X13364048Y-12167228D01*
X13364048Y-12167228D02*
X13345000Y-12157704D01*
X13345000Y-12157704D02*
X13306905Y-12157704D01*
X13306905Y-12157704D02*
X13287857Y-12167228D01*
X13287857Y-12167228D02*
X13278333Y-12176751D01*
X13278333Y-12176751D02*
X13268809Y-12195799D01*
X13268809Y-12195799D02*
X13268809Y-12243418D01*
X13268809Y-12243418D02*
X13278333Y-12262466D01*
X13278333Y-12262466D02*
X13287857Y-12271989D01*
X13287857Y-12271989D02*
X13306905Y-12281513D01*
X13306905Y-12281513D02*
X13345000Y-12281513D01*
X13345000Y-12281513D02*
X13364048Y-12271989D01*
X13364048Y-12271989D02*
X13373571Y-12262466D01*
X13373571Y-12262466D02*
X13383095Y-12243418D01*
X13497381Y-12243418D02*
X13478333Y-12233894D01*
X13478333Y-12233894D02*
X13468809Y-12224370D01*
X13468809Y-12224370D02*
X13459286Y-12205323D01*
X13459286Y-12205323D02*
X13459286Y-12195799D01*
X13459286Y-12195799D02*
X13468809Y-12176751D01*
X13468809Y-12176751D02*
X13478333Y-12167228D01*
X13478333Y-12167228D02*
X13497381Y-12157704D01*
X13497381Y-12157704D02*
X13535476Y-12157704D01*
X13535476Y-12157704D02*
X13554524Y-12167228D01*
X13554524Y-12167228D02*
X13564048Y-12176751D01*
X13564048Y-12176751D02*
X13573571Y-12195799D01*
X13573571Y-12195799D02*
X13573571Y-12205323D01*
X13573571Y-12205323D02*
X13564048Y-12224370D01*
X13564048Y-12224370D02*
X13554524Y-12233894D01*
X13554524Y-12233894D02*
X13535476Y-12243418D01*
X13535476Y-12243418D02*
X13497381Y-12243418D01*
X13497381Y-12243418D02*
X13478333Y-12252942D01*
X13478333Y-12252942D02*
X13468809Y-12262466D01*
X13468809Y-12262466D02*
X13459286Y-12281513D01*
X13459286Y-12281513D02*
X13459286Y-12319608D01*
X13459286Y-12319608D02*
X13468809Y-12338656D01*
X13468809Y-12338656D02*
X13478333Y-12348180D01*
X13478333Y-12348180D02*
X13497381Y-12357704D01*
X13497381Y-12357704D02*
X13535476Y-12357704D01*
X13535476Y-12357704D02*
X13554524Y-12348180D01*
X13554524Y-12348180D02*
X13564048Y-12338656D01*
X13564048Y-12338656D02*
X13573571Y-12319608D01*
X13573571Y-12319608D02*
X13573571Y-12281513D01*
X13573571Y-12281513D02*
X13564048Y-12262466D01*
X13564048Y-12262466D02*
X13554524Y-12252942D01*
X13554524Y-12252942D02*
X13535476Y-12243418D01*
X13687857Y-12243418D02*
X13668809Y-12233894D01*
X13668809Y-12233894D02*
X13659286Y-12224370D01*
X13659286Y-12224370D02*
X13649762Y-12205323D01*
X13649762Y-12205323D02*
X13649762Y-12195799D01*
X13649762Y-12195799D02*
X13659286Y-12176751D01*
X13659286Y-12176751D02*
X13668809Y-12167228D01*
X13668809Y-12167228D02*
X13687857Y-12157704D01*
X13687857Y-12157704D02*
X13725952Y-12157704D01*
X13725952Y-12157704D02*
X13745000Y-12167228D01*
X13745000Y-12167228D02*
X13754524Y-12176751D01*
X13754524Y-12176751D02*
X13764048Y-12195799D01*
X13764048Y-12195799D02*
X13764048Y-12205323D01*
X13764048Y-12205323D02*
X13754524Y-12224370D01*
X13754524Y-12224370D02*
X13745000Y-12233894D01*
X13745000Y-12233894D02*
X13725952Y-12243418D01*
X13725952Y-12243418D02*
X13687857Y-12243418D01*
X13687857Y-12243418D02*
X13668809Y-12252942D01*
X13668809Y-12252942D02*
X13659286Y-12262466D01*
X13659286Y-12262466D02*
X13649762Y-12281513D01*
X13649762Y-12281513D02*
X13649762Y-12319608D01*
X13649762Y-12319608D02*
X13659286Y-12338656D01*
X13659286Y-12338656D02*
X13668809Y-12348180D01*
X13668809Y-12348180D02*
X13687857Y-12357704D01*
X13687857Y-12357704D02*
X13725952Y-12357704D01*
X13725952Y-12357704D02*
X13745000Y-12348180D01*
X13745000Y-12348180D02*
X13754524Y-12338656D01*
X13754524Y-12338656D02*
X13764048Y-12319608D01*
X13764048Y-12319608D02*
X13764048Y-12281513D01*
X13764048Y-12281513D02*
X13754524Y-12262466D01*
X13754524Y-12262466D02*
X13745000Y-12252942D01*
X13745000Y-12252942D02*
X13725952Y-12243418D01*
X13849762Y-12357704D02*
X13849762Y-12224370D01*
X13849762Y-12243418D02*
X13859286Y-12233894D01*
X13859286Y-12233894D02*
X13878333Y-12224370D01*
X13878333Y-12224370D02*
X13906905Y-12224370D01*
X13906905Y-12224370D02*
X13925952Y-12233894D01*
X13925952Y-12233894D02*
X13935476Y-12252942D01*
X13935476Y-12252942D02*
X13935476Y-12357704D01*
X13935476Y-12252942D02*
X13945000Y-12233894D01*
X13945000Y-12233894D02*
X13964048Y-12224370D01*
X13964048Y-12224370D02*
X13992619Y-12224370D01*
X13992619Y-12224370D02*
X14011667Y-12233894D01*
X14011667Y-12233894D02*
X14021190Y-12252942D01*
X14021190Y-12252942D02*
X14021190Y-12357704D01*
X14116429Y-12357704D02*
X14116429Y-12224370D01*
X14116429Y-12243418D02*
X14125952Y-12233894D01*
X14125952Y-12233894D02*
X14145000Y-12224370D01*
X14145000Y-12224370D02*
X14173571Y-12224370D01*
X14173571Y-12224370D02*
X14192619Y-12233894D01*
X14192619Y-12233894D02*
X14202143Y-12252942D01*
X14202143Y-12252942D02*
X14202143Y-12357704D01*
X14202143Y-12252942D02*
X14211667Y-12233894D01*
X14211667Y-12233894D02*
X14230714Y-12224370D01*
X14230714Y-12224370D02*
X14259286Y-12224370D01*
X14259286Y-12224370D02*
X14278333Y-12233894D01*
X14278333Y-12233894D02*
X14287857Y-12252942D01*
X14287857Y-12252942D02*
X14287857Y-12357704D01*
X14678333Y-12148180D02*
X14506905Y-12405323D01*
X14935476Y-12157704D02*
X14954524Y-12157704D01*
X14954524Y-12157704D02*
X14973572Y-12167228D01*
X14973572Y-12167228D02*
X14983095Y-12176751D01*
X14983095Y-12176751D02*
X14992619Y-12195799D01*
X14992619Y-12195799D02*
X15002143Y-12233894D01*
X15002143Y-12233894D02*
X15002143Y-12281513D01*
X15002143Y-12281513D02*
X14992619Y-12319608D01*
X14992619Y-12319608D02*
X14983095Y-12338656D01*
X14983095Y-12338656D02*
X14973572Y-12348180D01*
X14973572Y-12348180D02*
X14954524Y-12357704D01*
X14954524Y-12357704D02*
X14935476Y-12357704D01*
X14935476Y-12357704D02*
X14916429Y-12348180D01*
X14916429Y-12348180D02*
X14906905Y-12338656D01*
X14906905Y-12338656D02*
X14897381Y-12319608D01*
X14897381Y-12319608D02*
X14887857Y-12281513D01*
X14887857Y-12281513D02*
X14887857Y-12233894D01*
X14887857Y-12233894D02*
X14897381Y-12195799D01*
X14897381Y-12195799D02*
X14906905Y-12176751D01*
X14906905Y-12176751D02*
X14916429Y-12167228D01*
X14916429Y-12167228D02*
X14935476Y-12157704D01*
X15087857Y-12338656D02*
X15097381Y-12348180D01*
X15097381Y-12348180D02*
X15087857Y-12357704D01*
X15087857Y-12357704D02*
X15078333Y-12348180D01*
X15078333Y-12348180D02*
X15087857Y-12338656D01*
X15087857Y-12338656D02*
X15087857Y-12357704D01*
X15287857Y-12357704D02*
X15173572Y-12357704D01*
X15230714Y-12357704D02*
X15230714Y-12157704D01*
X15230714Y-12157704D02*
X15211667Y-12186275D01*
X15211667Y-12186275D02*
X15192619Y-12205323D01*
X15192619Y-12205323D02*
X15173572Y-12214847D01*
X15468810Y-12157704D02*
X15373572Y-12157704D01*
X15373572Y-12157704D02*
X15364048Y-12252942D01*
X15364048Y-12252942D02*
X15373572Y-12243418D01*
X15373572Y-12243418D02*
X15392619Y-12233894D01*
X15392619Y-12233894D02*
X15440238Y-12233894D01*
X15440238Y-12233894D02*
X15459286Y-12243418D01*
X15459286Y-12243418D02*
X15468810Y-12252942D01*
X15468810Y-12252942D02*
X15478333Y-12271989D01*
X15478333Y-12271989D02*
X15478333Y-12319608D01*
X15478333Y-12319608D02*
X15468810Y-12338656D01*
X15468810Y-12338656D02*
X15459286Y-12348180D01*
X15459286Y-12348180D02*
X15440238Y-12357704D01*
X15440238Y-12357704D02*
X15392619Y-12357704D01*
X15392619Y-12357704D02*
X15373572Y-12348180D01*
X15373572Y-12348180D02*
X15364048Y-12338656D01*
X15545000Y-12157704D02*
X15678333Y-12157704D01*
X15678333Y-12157704D02*
X15592619Y-12357704D01*
X15792619Y-12157704D02*
X15811667Y-12157704D01*
X15811667Y-12157704D02*
X15830714Y-12167228D01*
X15830714Y-12167228D02*
X15840238Y-12176751D01*
X15840238Y-12176751D02*
X15849762Y-12195799D01*
X15849762Y-12195799D02*
X15859286Y-12233894D01*
X15859286Y-12233894D02*
X15859286Y-12281513D01*
X15859286Y-12281513D02*
X15849762Y-12319608D01*
X15849762Y-12319608D02*
X15840238Y-12338656D01*
X15840238Y-12338656D02*
X15830714Y-12348180D01*
X15830714Y-12348180D02*
X15811667Y-12357704D01*
X15811667Y-12357704D02*
X15792619Y-12357704D01*
X15792619Y-12357704D02*
X15773572Y-12348180D01*
X15773572Y-12348180D02*
X15764048Y-12338656D01*
X15764048Y-12338656D02*
X15754524Y-12319608D01*
X15754524Y-12319608D02*
X15745000Y-12281513D01*
X15745000Y-12281513D02*
X15745000Y-12233894D01*
X15745000Y-12233894D02*
X15754524Y-12195799D01*
X15754524Y-12195799D02*
X15764048Y-12176751D01*
X15764048Y-12176751D02*
X15773572Y-12167228D01*
X15773572Y-12167228D02*
X15792619Y-12157704D01*
X15935476Y-12157704D02*
X15935476Y-12195799D01*
X16011667Y-12157704D02*
X16011667Y-12195799D01*
X16306905Y-12433894D02*
X16297381Y-12424370D01*
X16297381Y-12424370D02*
X16278334Y-12395799D01*
X16278334Y-12395799D02*
X16268810Y-12376751D01*
X16268810Y-12376751D02*
X16259286Y-12348180D01*
X16259286Y-12348180D02*
X16249762Y-12300561D01*
X16249762Y-12300561D02*
X16249762Y-12262466D01*
X16249762Y-12262466D02*
X16259286Y-12214847D01*
X16259286Y-12214847D02*
X16268810Y-12186275D01*
X16268810Y-12186275D02*
X16278334Y-12167228D01*
X16278334Y-12167228D02*
X16297381Y-12138656D01*
X16297381Y-12138656D02*
X16306905Y-12129132D01*
X16487857Y-12357704D02*
X16373572Y-12357704D01*
X16430714Y-12357704D02*
X16430714Y-12157704D01*
X16430714Y-12157704D02*
X16411667Y-12186275D01*
X16411667Y-12186275D02*
X16392619Y-12205323D01*
X16392619Y-12205323D02*
X16373572Y-12214847D01*
X16564048Y-12176751D02*
X16573572Y-12167228D01*
X16573572Y-12167228D02*
X16592619Y-12157704D01*
X16592619Y-12157704D02*
X16640238Y-12157704D01*
X16640238Y-12157704D02*
X16659286Y-12167228D01*
X16659286Y-12167228D02*
X16668810Y-12176751D01*
X16668810Y-12176751D02*
X16678334Y-12195799D01*
X16678334Y-12195799D02*
X16678334Y-12214847D01*
X16678334Y-12214847D02*
X16668810Y-12243418D01*
X16668810Y-12243418D02*
X16554524Y-12357704D01*
X16554524Y-12357704D02*
X16678334Y-12357704D01*
X16916429Y-12357704D02*
X16916429Y-12157704D01*
X17002143Y-12357704D02*
X17002143Y-12252942D01*
X17002143Y-12252942D02*
X16992619Y-12233894D01*
X16992619Y-12233894D02*
X16973572Y-12224370D01*
X16973572Y-12224370D02*
X16945000Y-12224370D01*
X16945000Y-12224370D02*
X16925953Y-12233894D01*
X16925953Y-12233894D02*
X16916429Y-12243418D01*
X17125953Y-12357704D02*
X17106905Y-12348180D01*
X17106905Y-12348180D02*
X17097381Y-12338656D01*
X17097381Y-12338656D02*
X17087858Y-12319608D01*
X17087858Y-12319608D02*
X17087858Y-12262466D01*
X17087858Y-12262466D02*
X17097381Y-12243418D01*
X17097381Y-12243418D02*
X17106905Y-12233894D01*
X17106905Y-12233894D02*
X17125953Y-12224370D01*
X17125953Y-12224370D02*
X17154524Y-12224370D01*
X17154524Y-12224370D02*
X17173572Y-12233894D01*
X17173572Y-12233894D02*
X17183096Y-12243418D01*
X17183096Y-12243418D02*
X17192619Y-12262466D01*
X17192619Y-12262466D02*
X17192619Y-12319608D01*
X17192619Y-12319608D02*
X17183096Y-12338656D01*
X17183096Y-12338656D02*
X17173572Y-12348180D01*
X17173572Y-12348180D02*
X17154524Y-12357704D01*
X17154524Y-12357704D02*
X17125953Y-12357704D01*
X17306905Y-12357704D02*
X17287858Y-12348180D01*
X17287858Y-12348180D02*
X17278334Y-12329132D01*
X17278334Y-12329132D02*
X17278334Y-12157704D01*
X17459286Y-12348180D02*
X17440239Y-12357704D01*
X17440239Y-12357704D02*
X17402143Y-12357704D01*
X17402143Y-12357704D02*
X17383096Y-12348180D01*
X17383096Y-12348180D02*
X17373572Y-12329132D01*
X17373572Y-12329132D02*
X17373572Y-12252942D01*
X17373572Y-12252942D02*
X17383096Y-12233894D01*
X17383096Y-12233894D02*
X17402143Y-12224370D01*
X17402143Y-12224370D02*
X17440239Y-12224370D01*
X17440239Y-12224370D02*
X17459286Y-12233894D01*
X17459286Y-12233894D02*
X17468810Y-12252942D01*
X17468810Y-12252942D02*
X17468810Y-12271989D01*
X17468810Y-12271989D02*
X17373572Y-12291037D01*
X17545000Y-12348180D02*
X17564048Y-12357704D01*
X17564048Y-12357704D02*
X17602143Y-12357704D01*
X17602143Y-12357704D02*
X17621191Y-12348180D01*
X17621191Y-12348180D02*
X17630715Y-12329132D01*
X17630715Y-12329132D02*
X17630715Y-12319608D01*
X17630715Y-12319608D02*
X17621191Y-12300561D01*
X17621191Y-12300561D02*
X17602143Y-12291037D01*
X17602143Y-12291037D02*
X17573572Y-12291037D01*
X17573572Y-12291037D02*
X17554524Y-12281513D01*
X17554524Y-12281513D02*
X17545000Y-12262466D01*
X17545000Y-12262466D02*
X17545000Y-12252942D01*
X17545000Y-12252942D02*
X17554524Y-12233894D01*
X17554524Y-12233894D02*
X17573572Y-12224370D01*
X17573572Y-12224370D02*
X17602143Y-12224370D01*
X17602143Y-12224370D02*
X17621191Y-12233894D01*
X17697381Y-12433894D02*
X17706905Y-12424370D01*
X17706905Y-12424370D02*
X17725953Y-12395799D01*
X17725953Y-12395799D02*
X17735477Y-12376751D01*
X17735477Y-12376751D02*
X17745000Y-12348180D01*
X17745000Y-12348180D02*
X17754524Y-12300561D01*
X17754524Y-12300561D02*
X17754524Y-12262466D01*
X17754524Y-12262466D02*
X17745000Y-12214847D01*
X17745000Y-12214847D02*
X17735477Y-12186275D01*
X17735477Y-12186275D02*
X17725953Y-12167228D01*
X17725953Y-12167228D02*
X17706905Y-12138656D01*
X17706905Y-12138656D02*
X17697381Y-12129132D01*
X18059286Y-12433894D02*
X18049762Y-12424370D01*
X18049762Y-12424370D02*
X18030715Y-12395799D01*
X18030715Y-12395799D02*
X18021191Y-12376751D01*
X18021191Y-12376751D02*
X18011667Y-12348180D01*
X18011667Y-12348180D02*
X18002143Y-12300561D01*
X18002143Y-12300561D02*
X18002143Y-12262466D01*
X18002143Y-12262466D02*
X18011667Y-12214847D01*
X18011667Y-12214847D02*
X18021191Y-12186275D01*
X18021191Y-12186275D02*
X18030715Y-12167228D01*
X18030715Y-12167228D02*
X18049762Y-12138656D01*
X18049762Y-12138656D02*
X18059286Y-12129132D01*
X18135477Y-12224370D02*
X18135477Y-12357704D01*
X18135477Y-12243418D02*
X18145000Y-12233894D01*
X18145000Y-12233894D02*
X18164048Y-12224370D01*
X18164048Y-12224370D02*
X18192620Y-12224370D01*
X18192620Y-12224370D02*
X18211667Y-12233894D01*
X18211667Y-12233894D02*
X18221191Y-12252942D01*
X18221191Y-12252942D02*
X18221191Y-12357704D01*
X18345000Y-12357704D02*
X18325953Y-12348180D01*
X18325953Y-12348180D02*
X18316429Y-12338656D01*
X18316429Y-12338656D02*
X18306905Y-12319608D01*
X18306905Y-12319608D02*
X18306905Y-12262466D01*
X18306905Y-12262466D02*
X18316429Y-12243418D01*
X18316429Y-12243418D02*
X18325953Y-12233894D01*
X18325953Y-12233894D02*
X18345000Y-12224370D01*
X18345000Y-12224370D02*
X18373572Y-12224370D01*
X18373572Y-12224370D02*
X18392620Y-12233894D01*
X18392620Y-12233894D02*
X18402143Y-12243418D01*
X18402143Y-12243418D02*
X18411667Y-12262466D01*
X18411667Y-12262466D02*
X18411667Y-12319608D01*
X18411667Y-12319608D02*
X18402143Y-12338656D01*
X18402143Y-12338656D02*
X18392620Y-12348180D01*
X18392620Y-12348180D02*
X18373572Y-12357704D01*
X18373572Y-12357704D02*
X18345000Y-12357704D01*
X18468810Y-12224370D02*
X18545000Y-12224370D01*
X18497381Y-12157704D02*
X18497381Y-12329132D01*
X18497381Y-12329132D02*
X18506905Y-12348180D01*
X18506905Y-12348180D02*
X18525953Y-12357704D01*
X18525953Y-12357704D02*
X18545000Y-12357704D01*
X18764048Y-12224370D02*
X18764048Y-12424370D01*
X18764048Y-12233894D02*
X18783096Y-12224370D01*
X18783096Y-12224370D02*
X18821191Y-12224370D01*
X18821191Y-12224370D02*
X18840239Y-12233894D01*
X18840239Y-12233894D02*
X18849762Y-12243418D01*
X18849762Y-12243418D02*
X18859286Y-12262466D01*
X18859286Y-12262466D02*
X18859286Y-12319608D01*
X18859286Y-12319608D02*
X18849762Y-12338656D01*
X18849762Y-12338656D02*
X18840239Y-12348180D01*
X18840239Y-12348180D02*
X18821191Y-12357704D01*
X18821191Y-12357704D02*
X18783096Y-12357704D01*
X18783096Y-12357704D02*
X18764048Y-12348180D01*
X18973572Y-12357704D02*
X18954524Y-12348180D01*
X18954524Y-12348180D02*
X18945001Y-12329132D01*
X18945001Y-12329132D02*
X18945001Y-12157704D01*
X19135477Y-12357704D02*
X19135477Y-12252942D01*
X19135477Y-12252942D02*
X19125953Y-12233894D01*
X19125953Y-12233894D02*
X19106905Y-12224370D01*
X19106905Y-12224370D02*
X19068810Y-12224370D01*
X19068810Y-12224370D02*
X19049762Y-12233894D01*
X19135477Y-12348180D02*
X19116429Y-12357704D01*
X19116429Y-12357704D02*
X19068810Y-12357704D01*
X19068810Y-12357704D02*
X19049762Y-12348180D01*
X19049762Y-12348180D02*
X19040239Y-12329132D01*
X19040239Y-12329132D02*
X19040239Y-12310085D01*
X19040239Y-12310085D02*
X19049762Y-12291037D01*
X19049762Y-12291037D02*
X19068810Y-12281513D01*
X19068810Y-12281513D02*
X19116429Y-12281513D01*
X19116429Y-12281513D02*
X19135477Y-12271989D01*
X19202143Y-12224370D02*
X19278334Y-12224370D01*
X19230715Y-12157704D02*
X19230715Y-12329132D01*
X19230715Y-12329132D02*
X19240239Y-12348180D01*
X19240239Y-12348180D02*
X19259286Y-12357704D01*
X19259286Y-12357704D02*
X19278334Y-12357704D01*
X19421191Y-12348180D02*
X19402143Y-12357704D01*
X19402143Y-12357704D02*
X19364048Y-12357704D01*
X19364048Y-12357704D02*
X19345001Y-12348180D01*
X19345001Y-12348180D02*
X19335477Y-12329132D01*
X19335477Y-12329132D02*
X19335477Y-12252942D01*
X19335477Y-12252942D02*
X19345001Y-12233894D01*
X19345001Y-12233894D02*
X19364048Y-12224370D01*
X19364048Y-12224370D02*
X19402143Y-12224370D01*
X19402143Y-12224370D02*
X19421191Y-12233894D01*
X19421191Y-12233894D02*
X19430715Y-12252942D01*
X19430715Y-12252942D02*
X19430715Y-12271989D01*
X19430715Y-12271989D02*
X19335477Y-12291037D01*
X19602143Y-12357704D02*
X19602143Y-12157704D01*
X19602143Y-12348180D02*
X19583096Y-12357704D01*
X19583096Y-12357704D02*
X19545001Y-12357704D01*
X19545001Y-12357704D02*
X19525953Y-12348180D01*
X19525953Y-12348180D02*
X19516429Y-12338656D01*
X19516429Y-12338656D02*
X19506905Y-12319608D01*
X19506905Y-12319608D02*
X19506905Y-12262466D01*
X19506905Y-12262466D02*
X19516429Y-12243418D01*
X19516429Y-12243418D02*
X19525953Y-12233894D01*
X19525953Y-12233894D02*
X19545001Y-12224370D01*
X19545001Y-12224370D02*
X19583096Y-12224370D01*
X19583096Y-12224370D02*
X19602143Y-12233894D01*
X19678334Y-12433894D02*
X19687858Y-12424370D01*
X19687858Y-12424370D02*
X19706905Y-12395799D01*
X19706905Y-12395799D02*
X19716429Y-12376751D01*
X19716429Y-12376751D02*
X19725953Y-12348180D01*
X19725953Y-12348180D02*
X19735477Y-12300561D01*
X19735477Y-12300561D02*
X19735477Y-12262466D01*
X19735477Y-12262466D02*
X19725953Y-12214847D01*
X19725953Y-12214847D02*
X19716429Y-12186275D01*
X19716429Y-12186275D02*
X19706905Y-12167228D01*
X19706905Y-12167228D02*
X19687858Y-12138656D01*
X19687858Y-12138656D02*
X19678334Y-12129132D01*
M02*
