M48
; DRILL file {KiCad 7.0.5} date Sun Nov  5 18:34:42 2023
; FORMAT={-:-/ absolute / metric / decimal}
; #@! TF.CreationDate,2023-11-05T18:34:42-08:00
; #@! TF.GenerationSoftware,Kicad,Pcbnew,7.0.5
; #@! TF.FileFunction,NonPlated,1,2,NPTH
FMAT,2
METRIC
; #@! TA.AperFunction,NonPlated,NPTH,ComponentDrill
T1C1.702
; #@! TA.AperFunction,NonPlated,NPTH,ComponentDrill
T2C3.000
; #@! TA.AperFunction,NonPlated,NPTH,ComponentDrill
T3C3.988
%
G90
G05
T1
X155.92Y-41.0
X155.92Y-60.5
X155.92Y-80.0
X155.92Y-99.5
X166.08Y-41.0
X166.08Y-60.5
X166.08Y-80.0
X166.08Y-99.5
X175.42Y-41.0
X175.42Y-60.5
X175.42Y-80.0
X175.42Y-99.5
X185.58Y-41.0
X185.58Y-60.5
X185.58Y-80.0
X185.58Y-99.5
X194.92Y-41.0
X194.92Y-60.5
X194.92Y-80.0
X194.92Y-99.5
X205.08Y-41.0
X205.08Y-60.5
X205.08Y-80.0
X205.08Y-99.5
T2
X157.19Y-38.46
X157.19Y-57.96
X157.19Y-77.46
X157.19Y-96.96
X163.54Y-35.92
X163.54Y-55.42
X163.54Y-74.92
X163.54Y-94.42
X176.69Y-38.46
X176.69Y-57.96
X176.69Y-77.46
X176.69Y-96.96
X183.04Y-35.92
X183.04Y-55.42
X183.04Y-74.92
X183.04Y-94.42
X196.19Y-38.46
X196.19Y-57.96
X196.19Y-77.46
X196.19Y-96.96
X202.54Y-35.92
X202.54Y-55.42
X202.54Y-74.92
X202.54Y-94.42
T3
X161.0Y-41.0
X161.0Y-60.5
X161.0Y-80.0
X161.0Y-99.5
X180.5Y-41.0
X180.5Y-60.5
X180.5Y-80.0
X180.5Y-99.5
X200.0Y-41.0
X200.0Y-60.5
X200.0Y-80.0
X200.0Y-99.5
T0
M30
