%TF.GenerationSoftware,KiCad,Pcbnew,7.0.1-0*%
%TF.CreationDate,2023-12-29T19:29:48+00:00*%
%TF.ProjectId,3x4-macropad,3378342d-6d61-4637-926f-7061642e6b69,rev?*%
%TF.SameCoordinates,Original*%
%TF.FileFunction,Copper,L2,Bot*%
%TF.FilePolarity,Positive*%
%FSLAX46Y46*%
G04 Gerber Fmt 4.6, Leading zero omitted, Abs format (unit mm)*
G04 Created by KiCad (PCBNEW 7.0.1-0) date 2023-12-29 19:29:48*
%MOMM*%
%LPD*%
G01*
G04 APERTURE LIST*
G04 Aperture macros list*
%AMRoundRect*
0 Rectangle with rounded corners*
0 $1 Rounding radius*
0 $2 $3 $4 $5 $6 $7 $8 $9 X,Y pos of 4 corners*
0 Add a 4 corners polygon primitive as box body*
4,1,4,$2,$3,$4,$5,$6,$7,$8,$9,$2,$3,0*
0 Add four circle primitives for the rounded corners*
1,1,$1+$1,$2,$3*
1,1,$1+$1,$4,$5*
1,1,$1+$1,$6,$7*
1,1,$1+$1,$8,$9*
0 Add four rect primitives between the rounded corners*
20,1,$1+$1,$2,$3,$4,$5,0*
20,1,$1+$1,$4,$5,$6,$7,0*
20,1,$1+$1,$6,$7,$8,$9,0*
20,1,$1+$1,$8,$9,$2,$3,0*%
%AMOutline5P*
0 Free polygon, 5 corners , with rotation*
0 The origin of the aperture is its center*
0 number of corners: always 5*
0 $1 to $10 corner X, Y*
0 $11 Rotation angle, in degrees counterclockwise*
0 create outline with 5 corners*
4,1,5,$1,$2,$3,$4,$5,$6,$7,$8,$9,$10,$1,$2,$11*%
%AMOutline6P*
0 Free polygon, 6 corners , with rotation*
0 The origin of the aperture is its center*
0 number of corners: always 6*
0 $1 to $12 corner X, Y*
0 $13 Rotation angle, in degrees counterclockwise*
0 create outline with 6 corners*
4,1,6,$1,$2,$3,$4,$5,$6,$7,$8,$9,$10,$11,$12,$1,$2,$13*%
%AMOutline7P*
0 Free polygon, 7 corners , with rotation*
0 The origin of the aperture is its center*
0 number of corners: always 7*
0 $1 to $14 corner X, Y*
0 $15 Rotation angle, in degrees counterclockwise*
0 create outline with 7 corners*
4,1,7,$1,$2,$3,$4,$5,$6,$7,$8,$9,$10,$11,$12,$13,$14,$1,$2,$15*%
%AMOutline8P*
0 Free polygon, 8 corners , with rotation*
0 The origin of the aperture is its center*
0 number of corners: always 8*
0 $1 to $16 corner X, Y*
0 $17 Rotation angle, in degrees counterclockwise*
0 create outline with 8 corners*
4,1,8,$1,$2,$3,$4,$5,$6,$7,$8,$9,$10,$11,$12,$13,$14,$15,$16,$1,$2,$17*%
%AMFreePoly0*
4,1,19,0.500000,-0.750000,0.000000,-0.750000,0.000000,-0.744911,-0.071157,-0.744911,-0.207708,-0.704816,-0.327430,-0.627875,-0.420627,-0.520320,-0.479746,-0.390866,-0.500000,-0.250000,-0.500000,0.250000,-0.479746,0.390866,-0.420627,0.520320,-0.327430,0.627875,-0.207708,0.704816,-0.071157,0.744911,0.000000,0.744911,0.000000,0.750000,0.500000,0.750000,0.500000,-0.750000,0.500000,-0.750000,
$1*%
%AMFreePoly1*
4,1,19,0.000000,0.744911,0.071157,0.744911,0.207708,0.704816,0.327430,0.627875,0.420627,0.520320,0.479746,0.390866,0.500000,0.250000,0.500000,-0.250000,0.479746,-0.390866,0.420627,-0.520320,0.327430,-0.627875,0.207708,-0.704816,0.071157,-0.744911,0.000000,-0.744911,0.000000,-0.750000,-0.500000,-0.750000,-0.500000,0.750000,0.000000,0.750000,0.000000,0.744911,0.000000,0.744911,
$1*%
G04 Aperture macros list end*
%TA.AperFunction,SMDPad,CuDef*%
%ADD10RoundRect,0.200000X-1.075000X-1.050000X1.075000X-1.050000X1.075000X1.050000X-1.075000X1.050000X0*%
%TD*%
%TA.AperFunction,ComponentPad*%
%ADD11C,2.600000*%
%TD*%
%TA.AperFunction,ConnectorPad*%
%ADD12C,3.800000*%
%TD*%
%TA.AperFunction,ComponentPad*%
%ADD13R,2.000000X2.000000*%
%TD*%
%TA.AperFunction,ComponentPad*%
%ADD14C,2.000000*%
%TD*%
%TA.AperFunction,ComponentPad*%
%ADD15R,3.200000X2.000000*%
%TD*%
%TA.AperFunction,ComponentPad*%
%ADD16C,1.700000*%
%TD*%
%TA.AperFunction,ComponentPad*%
%ADD17O,1.700000X1.700000*%
%TD*%
%TA.AperFunction,SMDPad,CuDef*%
%ADD18R,1.501140X0.899160*%
%TD*%
%TA.AperFunction,ComponentPad*%
%ADD19R,1.700000X1.700000*%
%TD*%
%TA.AperFunction,SMDPad,CuDef*%
%ADD20R,1.700000X0.820000*%
%TD*%
%TA.AperFunction,SMDPad,CuDef*%
%ADD21Outline5P,-0.850000X0.410000X0.850000X0.410000X0.850000X-0.246000X0.686000X-0.410000X-0.850000X-0.410000X180.000000*%
%TD*%
%TA.AperFunction,SMDPad,CuDef*%
%ADD22R,1.200000X1.600000*%
%TD*%
%TA.AperFunction,SMDPad,CuDef*%
%ADD23R,0.500000X2.900000*%
%TD*%
%TA.AperFunction,ComponentPad*%
%ADD24R,1.600000X1.600000*%
%TD*%
%TA.AperFunction,ComponentPad*%
%ADD25C,1.600000*%
%TD*%
%TA.AperFunction,SMDPad,CuDef*%
%ADD26R,1.200000X1.500000*%
%TD*%
%TA.AperFunction,SMDPad,CuDef*%
%ADD27FreePoly0,0.000000*%
%TD*%
%TA.AperFunction,SMDPad,CuDef*%
%ADD28FreePoly1,0.000000*%
%TD*%
%TA.AperFunction,SMDPad,CuDef*%
%ADD29R,1.600000X1.200000*%
%TD*%
%TA.AperFunction,SMDPad,CuDef*%
%ADD30R,2.900000X0.500000*%
%TD*%
%TA.AperFunction,ViaPad*%
%ADD31C,0.800000*%
%TD*%
%TA.AperFunction,Conductor*%
%ADD32C,0.250000*%
%TD*%
%TA.AperFunction,Conductor*%
%ADD33C,0.500000*%
%TD*%
G04 APERTURE END LIST*
D10*
%TO.P,SW12,1,1*%
%TO.N,COL3*%
X192915000Y-96960000D03*
%TO.P,SW12,2,2*%
%TO.N,Net-(D12-K)*%
X205842000Y-94420000D03*
%TD*%
%TO.P,SW9,1,1*%
%TO.N,COL3*%
X192915000Y-38460000D03*
%TO.P,SW9,2,2*%
%TO.N,Net-(D9-K)*%
X205842000Y-35920000D03*
%TD*%
D11*
%TO.P,H3,1*%
%TO.N,N/C*%
X175000000Y-70400000D03*
D12*
X175000000Y-70400000D03*
%TD*%
D10*
%TO.P,SW8,1,1*%
%TO.N,COL2*%
X173415000Y-96960000D03*
%TO.P,SW8,2,2*%
%TO.N,Net-(D8-K)*%
X186342000Y-94420000D03*
%TD*%
D13*
%TO.P,ENC1,A,A*%
%TO.N,ENC_A*%
X131650000Y-97000000D03*
D14*
%TO.P,ENC1,B,B*%
%TO.N,ENC_B*%
X131650000Y-102000000D03*
%TO.P,ENC1,C,C*%
%TO.N,GND*%
X131650000Y-99500000D03*
D15*
%TO.P,ENC1,MP*%
%TO.N,N/C*%
X139150000Y-93900000D03*
X139150000Y-105100000D03*
D14*
%TO.P,ENC1,S1,S1*%
%TO.N,Net-(D13-K)*%
X146150000Y-102000000D03*
%TO.P,ENC1,S2,S2*%
%TO.N,COL0*%
X146150000Y-97000000D03*
%TD*%
D10*
%TO.P,SW1,1,1*%
%TO.N,COL1*%
X153915000Y-38460000D03*
%TO.P,SW1,2,2*%
%TO.N,Net-(D1-K)*%
X166842000Y-35920000D03*
%TD*%
D11*
%TO.P,H5,1*%
%TO.N,N/C*%
X129700000Y-107900000D03*
D12*
X129700000Y-107900000D03*
%TD*%
D10*
%TO.P,SW4,1,1*%
%TO.N,COL1*%
X153915000Y-96960000D03*
%TO.P,SW4,2,2*%
%TO.N,Net-(D4-K)*%
X166842000Y-94420000D03*
%TD*%
%TO.P,SW11,1,1*%
%TO.N,COL3*%
X192915000Y-77460000D03*
%TO.P,SW11,2,2*%
%TO.N,Net-(D11-K)*%
X205842000Y-74920000D03*
%TD*%
%TO.P,SW5,1,1*%
%TO.N,COL2*%
X173415000Y-38460000D03*
%TO.P,SW5,2,2*%
%TO.N,Net-(D5-K)*%
X186342000Y-35920000D03*
%TD*%
D11*
%TO.P,H2,1*%
%TO.N,N/C*%
X206000000Y-51000000D03*
D12*
X206000000Y-51000000D03*
%TD*%
D10*
%TO.P,SW6,1,1*%
%TO.N,COL2*%
X173415000Y-57960000D03*
%TO.P,SW6,2,2*%
%TO.N,Net-(D6-K)*%
X186342000Y-55420000D03*
%TD*%
%TO.P,SW10,1,1*%
%TO.N,COL3*%
X192915000Y-57960000D03*
%TO.P,SW10,2,2*%
%TO.N,Net-(D10-K)*%
X205842000Y-55420000D03*
%TD*%
%TO.P,SW3,1,1*%
%TO.N,COL1*%
X153915000Y-77460000D03*
%TO.P,SW3,2,2*%
%TO.N,Net-(D3-K)*%
X166842000Y-74920000D03*
%TD*%
%TO.P,SW7,1,1*%
%TO.N,COL2*%
X173415000Y-77460000D03*
%TO.P,SW7,2,2*%
%TO.N,Net-(D7-K)*%
X186342000Y-74920000D03*
%TD*%
%TO.P,SW2,1,1*%
%TO.N,COL1*%
X153915000Y-57960000D03*
%TO.P,SW2,2,2*%
%TO.N,Net-(D2-K)*%
X166842000Y-55420000D03*
%TD*%
D11*
%TO.P,H6,1*%
%TO.N,N/C*%
X208600000Y-108100000D03*
D12*
X208600000Y-108100000D03*
%TD*%
D16*
%TO.P,OLED1,1,GND*%
%TO.N,GND*%
X143100000Y-86600000D03*
D17*
%TO.P,OLED1,2,VCC*%
%TO.N,VCC*%
X140560000Y-86600000D03*
%TO.P,OLED1,3,SCL*%
%TO.N,OLED_SCL*%
X138020000Y-86600000D03*
%TO.P,OLED1,4,SDA*%
%TO.N,OLED_SDA*%
X135480000Y-86600000D03*
%TD*%
D11*
%TO.P,H1,1*%
%TO.N,N/C*%
X154900000Y-50800000D03*
D12*
X154900000Y-50800000D03*
%TD*%
D11*
%TO.P,H4,1*%
%TO.N,N/C*%
X158000000Y-90000000D03*
D12*
X158000000Y-90000000D03*
%TD*%
D18*
%TO.P,LED13,1,VDD*%
%TO.N,VBUS*%
X168200640Y-52300200D03*
%TO.P,LED13,2,DOUT*%
%TO.N,Net-(JP1-B)*%
X168200640Y-49099800D03*
%TO.P,LED13,3,VSS*%
%TO.N,GND*%
X173199360Y-49099800D03*
%TO.P,LED13,4,DIN*%
%TO.N,Net-(LED13-DIN)*%
X173199360Y-52300200D03*
%TD*%
%TO.P,LED15,1,VDD*%
%TO.N,VBUS*%
X192949360Y-88149800D03*
%TO.P,LED15,2,DOUT*%
%TO.N,Net-(LED14-DIN)*%
X192949360Y-91350200D03*
%TO.P,LED15,3,VSS*%
%TO.N,GND*%
X187950640Y-91350200D03*
%TO.P,LED15,4,DIN*%
%TO.N,Net-(LED15-DIN)*%
X187950640Y-88149800D03*
%TD*%
D16*
%TO.P,U1,1,GP0*%
%TO.N,unconnected-(U1-GP0-Pad1)*%
X148108000Y-33813000D03*
D17*
%TO.P,U1,2,GP1*%
%TO.N,unconnected-(U1-GP1-Pad2)*%
X148108000Y-36353000D03*
D19*
%TO.P,U1,3,GND*%
%TO.N,GND*%
X148108000Y-38893000D03*
D17*
%TO.P,U1,4,GP2*%
%TO.N,unconnected-(U1-GP2-Pad4)*%
X148108000Y-41433000D03*
%TO.P,U1,5,GP3*%
%TO.N,unconnected-(U1-GP3-Pad5)*%
X148108000Y-43973000D03*
%TO.P,U1,6,GP4*%
%TO.N,unconnected-(U1-GP4-Pad6)*%
X148108000Y-46513000D03*
%TO.P,U1,7,GP5*%
%TO.N,unconnected-(U1-GP5-Pad7)*%
X148108000Y-49053000D03*
D19*
%TO.P,U1,8,GND*%
%TO.N,GND*%
X148108000Y-51593000D03*
D17*
%TO.P,U1,9,GP6*%
%TO.N,unconnected-(U1-GP6-Pad9)*%
X148108000Y-54133000D03*
%TO.P,U1,10,GP7*%
%TO.N,unconnected-(U1-GP7-Pad10)*%
X148108000Y-56673000D03*
%TO.P,U1,11,GP8*%
%TO.N,unconnected-(U1-GP8-Pad11)*%
X148108000Y-59213000D03*
%TO.P,U1,12,GP9*%
%TO.N,unconnected-(U1-GP9-Pad12)*%
X148108000Y-61753000D03*
D19*
%TO.P,U1,13,GND*%
%TO.N,GND*%
X148108000Y-64293000D03*
D17*
%TO.P,U1,14,GP10*%
%TO.N,unconnected-(U1-GP10-Pad14)*%
X148108000Y-66833000D03*
%TO.P,U1,15,GP11*%
%TO.N,RGB*%
X148108000Y-69373000D03*
%TO.P,U1,16,GP12*%
%TO.N,OLED_SDA*%
X148108000Y-71913000D03*
%TO.P,U1,17,GP13*%
%TO.N,OLED_SCL*%
X148108000Y-74453000D03*
D19*
%TO.P,U1,18,GND*%
%TO.N,GND*%
X148108000Y-76993000D03*
D17*
%TO.P,U1,19,GP14*%
%TO.N,ENC_A*%
X148108000Y-79533000D03*
%TO.P,U1,20,GP15*%
%TO.N,ENC_B*%
X148108000Y-82073000D03*
D19*
%TO.P,U1,21,GP16*%
%TO.N,ROW3*%
X130544000Y-82073000D03*
D17*
%TO.P,U1,22,GP17*%
%TO.N,ROW2*%
X130544000Y-79533000D03*
D19*
%TO.P,U1,23,GND*%
%TO.N,GND*%
X130544000Y-76993000D03*
D17*
%TO.P,U1,24,GP18*%
%TO.N,ROW1*%
X130544000Y-74453000D03*
%TO.P,U1,25,GP19*%
%TO.N,ROW0*%
X130544000Y-71913000D03*
%TO.P,U1,26,GP20*%
%TO.N,COL0*%
X130544000Y-69373000D03*
%TO.P,U1,27,GP21*%
%TO.N,COL1*%
X130544000Y-66833000D03*
D19*
%TO.P,U1,28,GND*%
%TO.N,GND*%
X130544000Y-64293000D03*
D17*
%TO.P,U1,29,GP22*%
%TO.N,COL2*%
X130544000Y-61753000D03*
%TO.P,U1,30,GP26*%
%TO.N,COL3*%
X130544000Y-59213000D03*
%TO.P,U1,31,GP27*%
%TO.N,unconnected-(U1-GP27-Pad31)*%
X130544000Y-56673000D03*
%TO.P,U1,32,GP28*%
%TO.N,unconnected-(U1-GP28-Pad32)*%
X130544000Y-54133000D03*
D19*
%TO.P,U1,33,GND*%
%TO.N,GND*%
X130544000Y-51593000D03*
D17*
%TO.P,U1,34,GP29*%
%TO.N,unconnected-(U1-GP29-Pad34)*%
X130544000Y-49053000D03*
%TO.P,U1,35,ADC_VREF*%
%TO.N,VCC*%
X130544000Y-46513000D03*
%TO.P,U1,36,GP24*%
%TO.N,unconnected-(U1-GP24-Pad36)*%
X130544000Y-43973000D03*
%TO.P,U1,37,3V3*%
%TO.N,VCC*%
X130544000Y-41433000D03*
D19*
%TO.P,U1,38,GND*%
%TO.N,GND*%
X130544000Y-38893000D03*
D17*
%TO.P,U1,39,VSYS*%
%TO.N,unconnected-(U1-VSYS-Pad39)*%
X130544000Y-36353000D03*
D16*
%TO.P,U1,40,VBUS*%
%TO.N,VBUS*%
X130544000Y-33813000D03*
%TD*%
D18*
%TO.P,LED14,1,VDD*%
%TO.N,VBUS*%
X187700640Y-52300200D03*
%TO.P,LED14,2,DOUT*%
%TO.N,Net-(LED13-DIN)*%
X187700640Y-49099800D03*
%TO.P,LED14,3,VSS*%
%TO.N,GND*%
X192699360Y-49099800D03*
%TO.P,LED14,4,DIN*%
%TO.N,Net-(LED14-DIN)*%
X192699360Y-52300200D03*
%TD*%
D20*
%TO.P,LED11,1,VDD*%
%TO.N,VBUS*%
X183300000Y-47250000D03*
%TO.P,LED11,2,DOUT*%
%TO.N,Net-(LED10-DIN)*%
X183300000Y-45750000D03*
D21*
%TO.P,LED11,3,GND*%
%TO.N,GND*%
X177700000Y-45750000D03*
D20*
%TO.P,LED11,4,DIN*%
%TO.N,Net-(LED11-DIN)*%
X177700000Y-47250000D03*
%TD*%
D18*
%TO.P,LED16,1,VDD*%
%TO.N,Net-(D14-K)*%
X151799360Y-87099800D03*
%TO.P,LED16,2,DOUT*%
%TO.N,Net-(LED15-DIN)*%
X151799360Y-90300200D03*
%TO.P,LED16,3,VSS*%
%TO.N,GND*%
X146800640Y-90300200D03*
%TO.P,LED16,4,DIN*%
%TO.N,RGB*%
X146800640Y-87099800D03*
%TD*%
D20*
%TO.P,LED3,1,VDD*%
%TO.N,VBUS*%
X203300000Y-105750000D03*
%TO.P,LED3,2,DOUT*%
%TO.N,Net-(LED2-DIN)*%
X203300000Y-104250000D03*
D21*
%TO.P,LED3,3,GND*%
%TO.N,GND*%
X197700000Y-104250000D03*
D20*
%TO.P,LED3,4,DIN*%
%TO.N,Net-(LED3-DIN)*%
X197700000Y-105750000D03*
%TD*%
D22*
%TO.P,D14,1,K*%
%TO.N,Net-(D14-K)*%
X149300000Y-96800000D03*
D23*
X149300000Y-95700000D03*
D24*
X149300000Y-94300000D03*
D25*
%TO.P,D14,2,A*%
%TO.N,VBUS*%
X149300000Y-102100000D03*
D23*
X149300000Y-100700000D03*
D22*
X149300000Y-99600000D03*
%TD*%
D20*
%TO.P,LED8,1,VDD*%
%TO.N,VBUS*%
X183300000Y-66750000D03*
%TO.P,LED8,2,DOUT*%
%TO.N,Net-(LED7-DIN)*%
X183300000Y-65250000D03*
D21*
%TO.P,LED8,3,GND*%
%TO.N,GND*%
X177700000Y-65250000D03*
D20*
%TO.P,LED8,4,DIN*%
%TO.N,Net-(LED8-DIN)*%
X177700000Y-66750000D03*
%TD*%
%TO.P,LED10,1,VDD*%
%TO.N,VBUS*%
X203300000Y-47250000D03*
%TO.P,LED10,2,DOUT*%
%TO.N,Net-(LED10-DOUT)*%
X203300000Y-45750000D03*
D21*
%TO.P,LED10,3,GND*%
%TO.N,GND*%
X197700000Y-45750000D03*
D20*
%TO.P,LED10,4,DIN*%
%TO.N,Net-(LED10-DIN)*%
X197700000Y-47250000D03*
%TD*%
D22*
%TO.P,D11,1,K*%
%TO.N,Net-(D11-K)*%
X208400000Y-77400000D03*
D23*
X208400000Y-76300000D03*
D24*
X208400000Y-74900000D03*
D25*
%TO.P,D11,2,A*%
%TO.N,ROW2*%
X208400000Y-82700000D03*
D23*
X208400000Y-81300000D03*
D22*
X208400000Y-80200000D03*
%TD*%
%TO.P,D5,1,K*%
%TO.N,Net-(D5-K)*%
X188800000Y-38400000D03*
D23*
X188800000Y-37300000D03*
D24*
X188800000Y-35900000D03*
D25*
%TO.P,D5,2,A*%
%TO.N,ROW0*%
X188800000Y-43700000D03*
D23*
X188800000Y-42300000D03*
D22*
X188800000Y-41200000D03*
%TD*%
D20*
%TO.P,LED9,1,VDD*%
%TO.N,VBUS*%
X203300000Y-66750000D03*
%TO.P,LED9,2,DOUT*%
%TO.N,Net-(LED8-DIN)*%
X203300000Y-65250000D03*
D21*
%TO.P,LED9,3,GND*%
%TO.N,GND*%
X197700000Y-65250000D03*
D20*
%TO.P,LED9,4,DIN*%
%TO.N,Net-(LED10-DOUT)*%
X197700000Y-66750000D03*
%TD*%
%TO.P,LED12,1,VDD*%
%TO.N,VBUS*%
X163800000Y-47250000D03*
%TO.P,LED12,2,DOUT*%
%TO.N,Net-(LED11-DIN)*%
X163800000Y-45750000D03*
D21*
%TO.P,LED12,3,GND*%
%TO.N,GND*%
X158200000Y-45750000D03*
D20*
%TO.P,LED12,4,DIN*%
%TO.N,Net-(JP1-B)*%
X158200000Y-47250000D03*
%TD*%
%TO.P,LED4,1,VDD*%
%TO.N,VBUS*%
X203300000Y-86250000D03*
%TO.P,LED4,2,DOUT*%
%TO.N,Net-(LED3-DIN)*%
X203300000Y-84750000D03*
D21*
%TO.P,LED4,3,GND*%
%TO.N,GND*%
X197700000Y-84750000D03*
D20*
%TO.P,LED4,4,DIN*%
%TO.N,Net-(LED4-DIN)*%
X197700000Y-86250000D03*
%TD*%
%TO.P,LED6,1,VDD*%
%TO.N,VBUS*%
X163800000Y-86250000D03*
%TO.P,LED6,2,DOUT*%
%TO.N,Net-(LED5-DIN)*%
X163800000Y-84750000D03*
D21*
%TO.P,LED6,3,GND*%
%TO.N,GND*%
X158200000Y-84750000D03*
D20*
%TO.P,LED6,4,DIN*%
%TO.N,Net-(LED6-DIN)*%
X158200000Y-86250000D03*
%TD*%
D26*
%TO.P,R2,1*%
%TO.N,OLED_SCL*%
X140500000Y-78450000D03*
D23*
X140500000Y-77300000D03*
D25*
X140500000Y-75900000D03*
%TO.P,R2,2*%
%TO.N,VCC*%
X140500000Y-83700000D03*
D23*
X140500000Y-82300000D03*
D26*
X140500000Y-81150000D03*
%TD*%
D20*
%TO.P,LED2,1,VDD*%
%TO.N,VBUS*%
X183300000Y-105750000D03*
%TO.P,LED2,2,DOUT*%
%TO.N,Net-(LED1-DIN)*%
X183300000Y-104250000D03*
D21*
%TO.P,LED2,3,GND*%
%TO.N,GND*%
X177700000Y-104250000D03*
D20*
%TO.P,LED2,4,DIN*%
%TO.N,Net-(LED2-DIN)*%
X177700000Y-105750000D03*
%TD*%
D22*
%TO.P,D7,1,K*%
%TO.N,Net-(D7-K)*%
X188800000Y-77400000D03*
D23*
X188800000Y-76300000D03*
D24*
X188800000Y-74900000D03*
D25*
%TO.P,D7,2,A*%
%TO.N,ROW2*%
X188800000Y-82700000D03*
D23*
X188800000Y-81300000D03*
D22*
X188800000Y-80200000D03*
%TD*%
%TO.P,D6,1,K*%
%TO.N,Net-(D6-K)*%
X188900000Y-57900000D03*
D23*
X188900000Y-56800000D03*
D24*
X188900000Y-55400000D03*
D25*
%TO.P,D6,2,A*%
%TO.N,ROW1*%
X188900000Y-63200000D03*
D23*
X188900000Y-61800000D03*
D22*
X188900000Y-60700000D03*
%TD*%
%TO.P,D9,1,K*%
%TO.N,Net-(D9-K)*%
X208400000Y-38400000D03*
D23*
X208400000Y-37300000D03*
D24*
X208400000Y-35900000D03*
D25*
%TO.P,D9,2,A*%
%TO.N,ROW0*%
X208400000Y-43700000D03*
D23*
X208400000Y-42300000D03*
D22*
X208400000Y-41200000D03*
%TD*%
D20*
%TO.P,LED1,1,VDD*%
%TO.N,VBUS*%
X163800000Y-105750000D03*
%TO.P,LED1,2,DOUT*%
%TO.N,unconnected-(LED1-DOUT-Pad2)*%
X163800000Y-104250000D03*
D21*
%TO.P,LED1,3,GND*%
%TO.N,GND*%
X158200000Y-104250000D03*
D20*
%TO.P,LED1,4,DIN*%
%TO.N,Net-(LED1-DIN)*%
X158200000Y-105750000D03*
%TD*%
D22*
%TO.P,D1,1,K*%
%TO.N,Net-(D1-K)*%
X169400000Y-38400000D03*
D23*
X169400000Y-37300000D03*
D24*
X169400000Y-35900000D03*
D25*
%TO.P,D1,2,A*%
%TO.N,ROW0*%
X169400000Y-43700000D03*
D23*
X169400000Y-42300000D03*
D22*
X169400000Y-41200000D03*
%TD*%
%TO.P,D4,1,K*%
%TO.N,Net-(D4-K)*%
X169400000Y-96900000D03*
D23*
X169400000Y-95800000D03*
D24*
X169400000Y-94400000D03*
D25*
%TO.P,D4,2,A*%
%TO.N,ROW3*%
X169400000Y-102200000D03*
D23*
X169400000Y-100800000D03*
D22*
X169400000Y-99700000D03*
%TD*%
D20*
%TO.P,LED5,1,VDD*%
%TO.N,VBUS*%
X183300000Y-86250000D03*
%TO.P,LED5,2,DOUT*%
%TO.N,Net-(LED4-DIN)*%
X183300000Y-84750000D03*
D21*
%TO.P,LED5,3,GND*%
%TO.N,GND*%
X177700000Y-84750000D03*
D20*
%TO.P,LED5,4,DIN*%
%TO.N,Net-(LED5-DIN)*%
X177700000Y-86250000D03*
%TD*%
D22*
%TO.P,D10,1,K*%
%TO.N,Net-(D10-K)*%
X208400000Y-57900000D03*
D23*
X208400000Y-56800000D03*
D24*
X208400000Y-55400000D03*
D25*
%TO.P,D10,2,A*%
%TO.N,ROW1*%
X208400000Y-63200000D03*
D23*
X208400000Y-61800000D03*
D22*
X208400000Y-60700000D03*
%TD*%
D27*
%TO.P,JP1,1,A*%
%TO.N,RGB*%
X155050000Y-63200000D03*
D28*
%TO.P,JP1,2,B*%
%TO.N,Net-(JP1-B)*%
X156350000Y-63200000D03*
%TD*%
D29*
%TO.P,D13,1,K*%
%TO.N,Net-(D13-K)*%
X144800000Y-108000000D03*
D30*
X143700000Y-108000000D03*
D24*
X142300000Y-108000000D03*
D25*
%TO.P,D13,2,A*%
%TO.N,ROW3*%
X150100000Y-108000000D03*
D30*
X148700000Y-108000000D03*
D29*
X147600000Y-108000000D03*
%TD*%
D22*
%TO.P,D8,1,K*%
%TO.N,Net-(D8-K)*%
X188900000Y-96900000D03*
D23*
X188900000Y-95800000D03*
D24*
X188900000Y-94400000D03*
D25*
%TO.P,D8,2,A*%
%TO.N,ROW3*%
X188900000Y-102200000D03*
D23*
X188900000Y-100800000D03*
D22*
X188900000Y-99700000D03*
%TD*%
%TO.P,D12,1,K*%
%TO.N,Net-(D12-K)*%
X208400000Y-96900000D03*
D23*
X208400000Y-95800000D03*
D24*
X208400000Y-94400000D03*
D25*
%TO.P,D12,2,A*%
%TO.N,ROW3*%
X208400000Y-102200000D03*
D23*
X208400000Y-100800000D03*
D22*
X208400000Y-99700000D03*
%TD*%
%TO.P,D2,1,K*%
%TO.N,Net-(D2-K)*%
X169400000Y-57900000D03*
D23*
X169400000Y-56800000D03*
D24*
X169400000Y-55400000D03*
D25*
%TO.P,D2,2,A*%
%TO.N,ROW1*%
X169400000Y-63200000D03*
D23*
X169400000Y-61800000D03*
D22*
X169400000Y-60700000D03*
%TD*%
D26*
%TO.P,R1,1*%
%TO.N,OLED_SDA*%
X137900000Y-81150000D03*
D23*
X137900000Y-82300000D03*
D25*
X137900000Y-83700000D03*
%TO.P,R1,2*%
%TO.N,VCC*%
X137900000Y-75900000D03*
D23*
X137900000Y-77300000D03*
D26*
X137900000Y-78450000D03*
%TD*%
D22*
%TO.P,D3,1,K*%
%TO.N,Net-(D3-K)*%
X169400000Y-77400000D03*
D23*
X169400000Y-76300000D03*
D24*
X169400000Y-74900000D03*
D25*
%TO.P,D3,2,A*%
%TO.N,ROW2*%
X169400000Y-82700000D03*
D23*
X169400000Y-81300000D03*
D22*
X169400000Y-80200000D03*
%TD*%
D20*
%TO.P,LED7,1,VDD*%
%TO.N,VBUS*%
X163800000Y-66750000D03*
%TO.P,LED7,2,DOUT*%
%TO.N,Net-(LED6-DIN)*%
X163800000Y-65250000D03*
D21*
%TO.P,LED7,3,GND*%
%TO.N,GND*%
X158200000Y-65250000D03*
D20*
%TO.P,LED7,4,DIN*%
%TO.N,Net-(LED7-DIN)*%
X158200000Y-66750000D03*
%TD*%
D31*
%TO.N,ROW0*%
X149550000Y-54614775D03*
%TO.N,ROW1*%
X193876995Y-63039648D03*
%TO.N,ROW2*%
X167965500Y-79497600D03*
%TO.N,GND*%
X164000000Y-83623000D03*
X175400000Y-46000000D03*
X175400000Y-48100000D03*
X195498587Y-45497559D03*
X156400000Y-65300000D03*
X194900000Y-54300000D03*
X196000000Y-83700000D03*
X194500000Y-85900000D03*
X192100000Y-69800000D03*
X186400000Y-91400000D03*
X192700000Y-45400000D03*
X197372960Y-104250000D03*
X173000000Y-101000000D03*
X195956111Y-65775000D03*
%TO.N,VCC*%
X140102800Y-85125000D03*
%TO.N,OLED_SCL*%
X144291300Y-75629500D03*
%TO.N,OLED_SDA*%
X139249100Y-79290200D03*
%TO.N,COL0*%
X133318100Y-72129000D03*
%TO.N,COL1*%
X153029351Y-65134149D03*
X151131300Y-67817700D03*
%TO.N,COL2*%
X165686800Y-63443500D03*
X173011900Y-75407100D03*
X172701400Y-41337900D03*
X172701400Y-60975400D03*
X172701400Y-80612900D03*
X173011900Y-95044600D03*
X175561600Y-51886800D03*
X172690900Y-64883000D03*
%TO.N,COL3*%
X180527000Y-57339600D03*
X192986300Y-80356100D03*
X193023600Y-95044600D03*
%TO.N,VBUS*%
X165991000Y-65841300D03*
X133185100Y-88750800D03*
X202606300Y-50450000D03*
X168009100Y-53459500D03*
X185541700Y-67194800D03*
X181435000Y-107155600D03*
X186251600Y-51558300D03*
X183541900Y-48317400D03*
X191526800Y-88369000D03*
X199863600Y-55520400D03*
X164461532Y-106027000D03*
X185035100Y-86565000D03*
%TO.N,Net-(LED2-DIN)*%
X200625300Y-102930700D03*
X184917200Y-108642800D03*
%TO.N,Net-(LED6-DIN)*%
X163632300Y-68436200D03*
X165598700Y-64548200D03*
%TO.N,Net-(LED8-DIN)*%
X193665430Y-64017015D03*
X197702500Y-64082500D03*
%TO.N,Net-(LED10-DIN)*%
X186255891Y-45473000D03*
X196179044Y-46659689D03*
%TO.N,Net-(JP1-B)*%
X163301500Y-50324500D03*
X166420900Y-49051100D03*
%TO.N,Net-(LED14-DIN)*%
X191533000Y-91112400D03*
X192259600Y-55769600D03*
%TO.N,Net-(LED15-DIN)*%
X153532900Y-90137800D03*
X171960300Y-89050900D03*
%TD*%
D32*
%TO.N,ROW0*%
X149283000Y-54881775D02*
X149550000Y-54614775D01*
X130544000Y-71913000D02*
X144603172Y-57853828D01*
X169400000Y-41200000D02*
X169400000Y-42300000D01*
X148633000Y-57853828D02*
X149283000Y-57203828D01*
X208400000Y-42300000D02*
X208400000Y-43700000D01*
X149283000Y-57203828D02*
X149283000Y-54881775D01*
X188800000Y-43700000D02*
X169400000Y-43700000D01*
X188800000Y-42300000D02*
X188800000Y-43700000D01*
X208400000Y-41200000D02*
X208400000Y-42300000D01*
X144603172Y-57853828D02*
X148633000Y-57853828D01*
X188800000Y-41200000D02*
X188800000Y-42300000D01*
X169400000Y-42300000D02*
X169400000Y-43700000D01*
%TO.N,Net-(D1-K)*%
X169400000Y-38400000D02*
X169400000Y-37300000D01*
X169400000Y-35920000D02*
X166842000Y-35920000D01*
X169400000Y-35920000D02*
X169400000Y-37300000D01*
X169400000Y-35900000D02*
X169400000Y-35920000D01*
%TO.N,ROW1*%
X193011115Y-63017000D02*
X193033763Y-63039648D01*
X208400000Y-60700000D02*
X208400000Y-61800000D01*
X188900000Y-63200000D02*
X188900000Y-63576900D01*
X188900000Y-63017000D02*
X193011115Y-63017000D01*
X169776900Y-63576900D02*
X188900000Y-63576900D01*
X169400000Y-61800000D02*
X169400000Y-63200000D01*
X188900000Y-60700000D02*
X188900000Y-61800000D01*
X169400000Y-63200000D02*
X169776900Y-63576900D01*
X208400000Y-61800000D02*
X208400000Y-63200000D01*
X169400000Y-60700000D02*
X169400000Y-61800000D01*
X188900000Y-61800000D02*
X188900000Y-63017000D01*
X188900000Y-63017000D02*
X188900000Y-63200000D01*
X193033763Y-63039648D02*
X193876995Y-63039648D01*
%TO.N,Net-(D2-K)*%
X169400000Y-55420000D02*
X166842000Y-55420000D01*
X169400000Y-55420000D02*
X169400000Y-56800000D01*
X169400000Y-57900000D02*
X169400000Y-56800000D01*
X169400000Y-55400000D02*
X169400000Y-55420000D01*
%TO.N,ROW2*%
X167965500Y-79497600D02*
X168473100Y-80005200D01*
X169400000Y-81300000D02*
X169400000Y-82471900D01*
X208285900Y-82585900D02*
X208400000Y-82700000D01*
X208400000Y-80200000D02*
X208400000Y-81300000D01*
X169400000Y-80200000D02*
X168936600Y-80200000D01*
X188800000Y-82585900D02*
X208285900Y-82585900D01*
X188800000Y-82471900D02*
X188800000Y-82585900D01*
X168936600Y-80200000D02*
X169400000Y-80663400D01*
X188800000Y-80200000D02*
X188800000Y-81300000D01*
X169400000Y-80663400D02*
X169400000Y-81300000D01*
X188800000Y-81300000D02*
X188800000Y-82471900D01*
X188800000Y-82585900D02*
X188800000Y-82700000D01*
X169400000Y-82471900D02*
X188800000Y-82471900D01*
X168473100Y-80005200D02*
X168473100Y-80200000D01*
X168936600Y-80200000D02*
X168473100Y-80200000D01*
X208400000Y-81300000D02*
X208400000Y-82700000D01*
X169400000Y-82471900D02*
X169400000Y-82700000D01*
%TO.N,Net-(D3-K)*%
X169400000Y-76300000D02*
X169400000Y-75600000D01*
X169400000Y-77400000D02*
X169400000Y-76300000D01*
X169400000Y-75600000D02*
X169400000Y-74900000D01*
X169400000Y-75600000D02*
X167522000Y-75600000D01*
X167522000Y-75600000D02*
X166842000Y-74920000D01*
%TO.N,ROW3*%
X169400000Y-99700000D02*
X169400000Y-100800000D01*
X148700000Y-108000000D02*
X147600000Y-108000000D01*
X130544000Y-90017100D02*
X130544000Y-82073000D01*
X208400000Y-99700000D02*
X208400000Y-100800000D01*
X169400000Y-100800000D02*
X169400000Y-102200000D01*
X147600000Y-107073100D02*
X130544000Y-90017100D01*
X148700000Y-108000000D02*
X150100000Y-108000000D01*
X208400000Y-100800000D02*
X208400000Y-102200000D01*
X169400000Y-102200000D02*
X169400000Y-102576900D01*
X155523100Y-102576900D02*
X150100000Y-108000000D01*
X169400000Y-102576900D02*
X155523100Y-102576900D01*
X188900000Y-100800000D02*
X188900000Y-102200000D01*
X188900000Y-99700000D02*
X188900000Y-100800000D01*
X147600000Y-108000000D02*
X147600000Y-107073100D01*
%TO.N,Net-(D4-K)*%
X169400000Y-96900000D02*
X169400000Y-95800000D01*
X169400000Y-94420000D02*
X169400000Y-95800000D01*
X169400000Y-94420000D02*
X166842000Y-94420000D01*
X169400000Y-94400000D02*
X169400000Y-94420000D01*
%TO.N,Net-(D5-K)*%
X188800000Y-36600000D02*
X187022000Y-36600000D01*
X188800000Y-36600000D02*
X188800000Y-35900000D01*
X187022000Y-36600000D02*
X186342000Y-35920000D01*
X188800000Y-37300000D02*
X188800000Y-36600000D01*
X188800000Y-38400000D02*
X188800000Y-37300000D01*
%TO.N,Net-(D6-K)*%
X187022000Y-56100000D02*
X186342000Y-55420000D01*
X188900000Y-57900000D02*
X188900000Y-56800000D01*
X188900000Y-56800000D02*
X188900000Y-56100000D01*
X188900000Y-56100000D02*
X188900000Y-55400000D01*
X188900000Y-56100000D02*
X187022000Y-56100000D01*
%TO.N,Net-(D7-K)*%
X188800000Y-75600000D02*
X187022000Y-75600000D01*
X188800000Y-76300000D02*
X188800000Y-75600000D01*
X188800000Y-77400000D02*
X188800000Y-76300000D01*
X188800000Y-75600000D02*
X188800000Y-74900000D01*
X187022000Y-75600000D02*
X186342000Y-74920000D01*
%TO.N,Net-(D8-K)*%
X188900000Y-95100000D02*
X187022000Y-95100000D01*
X188900000Y-95100000D02*
X188900000Y-94400000D01*
X187022000Y-95100000D02*
X186342000Y-94420000D01*
X188900000Y-96900000D02*
X188900000Y-95800000D01*
X188900000Y-95800000D02*
X188900000Y-95100000D01*
%TO.N,Net-(D9-K)*%
X208400000Y-38400000D02*
X208400000Y-37300000D01*
X208400000Y-37300000D02*
X208400000Y-36600000D01*
X208400000Y-36600000D02*
X208400000Y-35900000D01*
X208400000Y-36600000D02*
X206522000Y-36600000D01*
X206522000Y-36600000D02*
X205842000Y-35920000D01*
%TO.N,Net-(D10-K)*%
X208400000Y-56100000D02*
X206522000Y-56100000D01*
X206522000Y-56100000D02*
X205842000Y-55420000D01*
X208400000Y-56100000D02*
X208400000Y-55400000D01*
X208400000Y-57900000D02*
X208400000Y-56800000D01*
X208400000Y-56800000D02*
X208400000Y-56100000D01*
%TO.N,Net-(D11-K)*%
X208400000Y-75600000D02*
X206522000Y-75600000D01*
X208400000Y-77400000D02*
X208400000Y-76300000D01*
X206522000Y-75600000D02*
X205842000Y-74920000D01*
X208400000Y-75600000D02*
X208400000Y-74900000D01*
X208400000Y-76300000D02*
X208400000Y-75600000D01*
%TO.N,Net-(D12-K)*%
X208400000Y-96900000D02*
X208400000Y-95800000D01*
X208400000Y-95100000D02*
X206522000Y-95100000D01*
X208400000Y-95100000D02*
X208400000Y-94400000D01*
X208400000Y-95800000D02*
X208400000Y-95100000D01*
X206522000Y-95100000D02*
X205842000Y-94420000D01*
D33*
%TO.N,GND*%
X197175000Y-65775000D02*
X197700000Y-65250000D01*
X178440000Y-83600000D02*
X177700000Y-84340000D01*
X143100000Y-86600000D02*
X146800200Y-90300200D01*
X177700000Y-104250000D02*
X176250000Y-104250000D01*
X150400000Y-56800000D02*
X150400000Y-53885000D01*
X128544000Y-49593000D02*
X130544000Y-51593000D01*
X197447559Y-45497559D02*
X195498587Y-45497559D01*
X174400200Y-49099800D02*
X175400000Y-48100000D01*
X156900000Y-106400000D02*
X157827000Y-107327000D01*
X149858000Y-62543000D02*
X149858000Y-57342000D01*
X131650000Y-99500000D02*
X130235787Y-99500000D01*
X192699360Y-49099800D02*
X192699360Y-45400640D01*
X130235787Y-99500000D02*
X129244000Y-98508213D01*
X195498587Y-46150298D02*
X195498587Y-45497559D01*
X130544000Y-38893000D02*
X128544000Y-40893000D01*
X158200000Y-104250000D02*
X157350000Y-104250000D01*
X148108000Y-51593000D02*
X149408000Y-50293000D01*
X176250000Y-104250000D02*
X173000000Y-101000000D01*
X196000000Y-83700000D02*
X196650000Y-83700000D01*
X196650000Y-83700000D02*
X197700000Y-84750000D01*
X159140000Y-37652284D02*
X159140000Y-39267716D01*
X194900000Y-54300000D02*
X194900000Y-46748885D01*
X149408000Y-50293000D02*
X149408000Y-40193000D01*
X175400000Y-46000000D02*
X166210000Y-46000000D01*
X157350000Y-104250000D02*
X156900000Y-104700000D01*
X192699360Y-45400640D02*
X192700000Y-45400000D01*
X158477000Y-83623000D02*
X158200000Y-83900000D01*
X130544000Y-64293000D02*
X129244000Y-65593000D01*
X129244000Y-75693000D02*
X130544000Y-76993000D01*
X176400000Y-65600000D02*
X176750000Y-65250000D01*
X143100000Y-86600000D02*
X143100000Y-82001000D01*
X196000000Y-83700000D02*
X195750000Y-83950000D01*
X184310000Y-83600000D02*
X178440000Y-83600000D01*
X156400000Y-65300000D02*
X158150000Y-65300000D01*
X146800200Y-90300200D02*
X146800640Y-90300200D01*
X148108000Y-64293000D02*
X149858000Y-62543000D01*
X130544000Y-51593000D02*
X148108000Y-51593000D01*
X164000000Y-83623000D02*
X158477000Y-83623000D01*
X173673000Y-107327000D02*
X176750000Y-104250000D01*
X158200000Y-45340000D02*
X158200000Y-45750000D01*
X166210000Y-46000000D02*
X164833000Y-44623000D01*
X192432033Y-49099800D02*
X192699360Y-49099800D01*
X129244000Y-78293000D02*
X130544000Y-76993000D01*
X173199360Y-49099800D02*
X174400200Y-49099800D01*
X128544000Y-40893000D02*
X128544000Y-49593000D01*
X178590000Y-69800000D02*
X176400000Y-67610000D01*
X176750000Y-65250000D02*
X177700000Y-65250000D01*
X195956111Y-65775000D02*
X197175000Y-65775000D01*
X165960000Y-84750000D02*
X164833000Y-83623000D01*
X187950640Y-91350200D02*
X187950640Y-90400620D01*
X156900000Y-104700000D02*
X156900000Y-106400000D01*
X178643841Y-44623000D02*
X187955233Y-44623000D01*
X158917000Y-44623000D02*
X158200000Y-45340000D01*
X187950640Y-90400620D02*
X192451260Y-85900000D01*
X177700000Y-84750000D02*
X165960000Y-84750000D01*
X177450000Y-46000000D02*
X177700000Y-45750000D01*
X194900000Y-46748885D02*
X195498587Y-46150298D01*
X186400000Y-91400000D02*
X187900840Y-91400000D01*
X164833000Y-83623000D02*
X164000000Y-83623000D01*
X130544000Y-51593000D02*
X129244000Y-52893000D01*
X143100000Y-82001000D02*
X148108000Y-76993000D01*
X157997716Y-36510000D02*
X159140000Y-37652284D01*
X149858000Y-57342000D02*
X150400000Y-56800000D01*
X192451260Y-85900000D02*
X194500000Y-85900000D01*
X158150000Y-65300000D02*
X158200000Y-65250000D01*
X164833000Y-44623000D02*
X158917000Y-44623000D01*
X129244000Y-65593000D02*
X129244000Y-75693000D01*
X177700000Y-84340000D02*
X177700000Y-84750000D01*
X150400000Y-53885000D02*
X148108000Y-51593000D01*
X184660000Y-83950000D02*
X184310000Y-83600000D01*
X148108000Y-38893000D02*
X150491000Y-36510000D01*
X187900840Y-91400000D02*
X187950640Y-91350200D01*
X177700000Y-45566841D02*
X178643841Y-44623000D01*
X149408000Y-40193000D02*
X148108000Y-38893000D01*
X159140000Y-39267716D02*
X158200000Y-40207716D01*
X175400000Y-46000000D02*
X177450000Y-46000000D01*
X129244000Y-62993000D02*
X130544000Y-64293000D01*
X187955233Y-44623000D02*
X192432033Y-49099800D01*
X197700000Y-45750000D02*
X197447559Y-45497559D01*
X176400000Y-67610000D02*
X176400000Y-65600000D01*
X158200000Y-40207716D02*
X158200000Y-45750000D01*
X176750000Y-104250000D02*
X177700000Y-104250000D01*
X157827000Y-107327000D02*
X173673000Y-107327000D01*
X177700000Y-45750000D02*
X177700000Y-45566841D01*
X129244000Y-52893000D02*
X129244000Y-62993000D01*
X195750000Y-83950000D02*
X184660000Y-83950000D01*
X158200000Y-83900000D02*
X158200000Y-84750000D01*
X192100000Y-69800000D02*
X178590000Y-69800000D01*
X150491000Y-36510000D02*
X157997716Y-36510000D01*
X129244000Y-98508213D02*
X129244000Y-78293000D01*
%TO.N,VCC*%
X140102800Y-84097200D02*
X140102800Y-85125000D01*
X140500000Y-81150000D02*
X139448100Y-81150000D01*
X138406100Y-79651900D02*
X139448100Y-80693900D01*
X137900000Y-77300000D02*
X137900000Y-75900000D01*
X140500000Y-81150000D02*
X140500000Y-82300000D01*
X130544000Y-46513000D02*
X129244000Y-45213000D01*
X129244000Y-42733000D02*
X130544000Y-41433000D01*
X139448100Y-80693900D02*
X139448100Y-81150000D01*
X137900000Y-78450000D02*
X137900000Y-77300000D01*
X140500000Y-83700000D02*
X140102800Y-84097200D01*
X137900000Y-78450000D02*
X137900000Y-79651900D01*
X129244000Y-45213000D02*
X129244000Y-42733000D01*
X137900000Y-79651900D02*
X138406100Y-79651900D01*
X140500000Y-82300000D02*
X140500000Y-83700000D01*
D32*
%TO.N,OLED_SCL*%
X144291300Y-75629500D02*
X144184900Y-75523100D01*
X144184900Y-75523100D02*
X140500000Y-75523100D01*
X140500000Y-77300000D02*
X140500000Y-75900000D01*
X140500000Y-77300000D02*
X140500000Y-78450000D01*
X140500000Y-75900000D02*
X140500000Y-75523100D01*
%TO.N,OLED_SDA*%
X146743400Y-74109600D02*
X147763100Y-73089900D01*
X139504000Y-79545100D02*
X141450800Y-79545100D01*
X137900000Y-83700000D02*
X137900000Y-82300000D01*
X148108000Y-71913000D02*
X148108000Y-73089900D01*
X147763100Y-73089900D02*
X148108000Y-73089900D01*
X137900000Y-82300000D02*
X137900000Y-81150000D01*
X139249100Y-79290200D02*
X139504000Y-79545100D01*
X141450800Y-79545100D02*
X146743400Y-74252500D01*
X146743400Y-74252500D02*
X146743400Y-74109600D01*
%TO.N,COL0*%
X137920100Y-85338000D02*
X138433900Y-85338000D01*
X146150000Y-93943500D02*
X146150000Y-97000000D01*
X133318100Y-80736000D02*
X137920100Y-85338000D01*
X138433900Y-85338000D02*
X139290000Y-86194100D01*
X133318100Y-72129000D02*
X133318100Y-80736000D01*
X139290000Y-86194100D02*
X139290000Y-87083500D01*
X139290000Y-87083500D02*
X146150000Y-93943500D01*
%TO.N,COL1*%
X151131300Y-74676300D02*
X151131300Y-67817700D01*
X153915000Y-77460000D02*
X151131300Y-74676300D01*
X152431600Y-59443400D02*
X152431600Y-64483100D01*
X153915000Y-54701827D02*
X152648800Y-53435627D01*
X154277800Y-77822800D02*
X153915000Y-77460000D01*
X153029351Y-65080851D02*
X153029351Y-65134149D01*
X152648800Y-53435627D02*
X152648800Y-39726200D01*
X153915000Y-57960000D02*
X153915000Y-54701827D01*
X153915000Y-57960000D02*
X152431600Y-59443400D01*
X152648800Y-39726200D02*
X153915000Y-38460000D01*
X154277800Y-96597200D02*
X154277800Y-77822800D01*
X153915000Y-96960000D02*
X154277800Y-96597200D01*
X152431600Y-64483100D02*
X153029351Y-65080851D01*
%TO.N,COL2*%
X173011900Y-75407100D02*
X173415000Y-75810200D01*
X173415000Y-75810200D02*
X173415000Y-77460000D01*
X172701400Y-78173600D02*
X172701400Y-80612900D01*
X175561600Y-55813400D02*
X175561600Y-51886800D01*
X173415000Y-57960000D02*
X175561600Y-55813400D01*
X172701400Y-60975400D02*
X173415000Y-60261800D01*
X173415000Y-95447700D02*
X173415000Y-96960000D01*
X173415000Y-77460000D02*
X172701400Y-78173600D01*
X172690900Y-64883000D02*
X167126300Y-64883000D01*
X173415000Y-40624300D02*
X173415000Y-38460000D01*
X173011900Y-95044600D02*
X173415000Y-95447700D01*
X167126300Y-64883000D02*
X165686800Y-63443500D01*
X173415000Y-60261800D02*
X173415000Y-57960000D01*
X172701400Y-41337900D02*
X173415000Y-40624300D01*
%TO.N,COL3*%
X193023600Y-95044600D02*
X192915000Y-95153200D01*
X192915000Y-41129700D02*
X192915000Y-38460000D01*
X194406825Y-64197165D02*
X194406825Y-75968175D01*
X180527000Y-57339600D02*
X181172400Y-57985000D01*
X192986300Y-77531300D02*
X192986300Y-80356100D01*
X186579000Y-59027000D02*
X191848000Y-59027000D01*
X193776900Y-41991600D02*
X192915000Y-41129700D01*
X192600000Y-60737348D02*
X192600000Y-60700000D01*
X181172400Y-57985000D02*
X185537000Y-57985000D01*
X192915000Y-57960000D02*
X193776900Y-57098100D01*
X194601995Y-62739343D02*
X192600000Y-60737348D01*
X194601995Y-64001995D02*
X194601995Y-62739343D01*
X192915000Y-95153200D02*
X192915000Y-96960000D01*
X192600000Y-60700000D02*
X192101607Y-60201607D01*
X185537000Y-57985000D02*
X186579000Y-59027000D01*
X193776900Y-57098100D02*
X193776900Y-41991600D01*
X192101607Y-60201607D02*
X192101607Y-59398393D01*
X191848000Y-59027000D02*
X191848000Y-59144787D01*
X194601995Y-64001995D02*
X194406825Y-64197165D01*
X191848000Y-59027000D02*
X192915000Y-57960000D01*
X194406825Y-75968175D02*
X192915000Y-77460000D01*
X191848000Y-59144787D02*
X192101607Y-59398393D01*
X192915000Y-77460000D02*
X192986300Y-77531300D01*
D33*
%TO.N,VBUS*%
X181435000Y-107155600D02*
X182118200Y-107155600D01*
X202863800Y-60664100D02*
X202863800Y-58914700D01*
X163800000Y-47250000D02*
X165101900Y-47250000D01*
X185035100Y-86565000D02*
X184916900Y-86565000D01*
X199863600Y-55914500D02*
X199863600Y-55520400D01*
X186498100Y-51804800D02*
X186498100Y-52300200D01*
X164184532Y-105750000D02*
X164461532Y-106027000D01*
X202863800Y-58914700D02*
X199863600Y-55914500D01*
X149300000Y-100700000D02*
X149300000Y-102100000D01*
X183300000Y-86518700D02*
X182391900Y-87426800D01*
X168009100Y-52300200D02*
X167793700Y-52300200D01*
X165101900Y-66730400D02*
X165101900Y-66750000D01*
X191527700Y-88369000D02*
X191526800Y-88369000D01*
X203300000Y-66750000D02*
X204601900Y-66750000D01*
X163800000Y-66750000D02*
X165101900Y-66750000D01*
X182391900Y-87426800D02*
X166278700Y-87426800D01*
X182118200Y-107155600D02*
X183300000Y-105973800D01*
X168200600Y-52300200D02*
X168009100Y-52300200D01*
X183015400Y-47790800D02*
X182343900Y-48462300D01*
X182343900Y-48462300D02*
X177199500Y-48462300D01*
X146699390Y-99600000D02*
X142400000Y-95300610D01*
X165991000Y-65841300D02*
X165101900Y-66730400D01*
X203300000Y-47250000D02*
X203300000Y-49756300D01*
X203300000Y-49756300D02*
X202606300Y-50450000D01*
X183541900Y-48317400D02*
X183015400Y-47790800D01*
X201644300Y-88149800D02*
X192949400Y-88149800D01*
X203300000Y-86494100D02*
X201644300Y-88149800D01*
X192949400Y-88149800D02*
X191746900Y-88149800D01*
X185541700Y-67194800D02*
X185096900Y-66750000D01*
X203300000Y-86250000D02*
X203300000Y-86494100D01*
X170304600Y-51398700D02*
X169403100Y-52300200D01*
X186251600Y-51558300D02*
X186498100Y-51804800D01*
X175021600Y-50583000D02*
X174205900Y-51398700D01*
X183300000Y-86250000D02*
X183300000Y-86518700D01*
X183300000Y-105973800D02*
X190681100Y-105973800D01*
X187700600Y-52300200D02*
X186498100Y-52300200D01*
X191653000Y-106945700D02*
X190681100Y-105973800D01*
X142400000Y-95300610D02*
X142400000Y-91700000D01*
X174205900Y-51398700D02*
X170304600Y-51398700D01*
X165101900Y-49837300D02*
X165101900Y-47250000D01*
X163800000Y-105750000D02*
X164184532Y-105750000D01*
X167793700Y-52300200D02*
X167564800Y-52300200D01*
X149300000Y-99600000D02*
X148774100Y-99600000D01*
X148774100Y-99600000D02*
X149300000Y-100125900D01*
X166278700Y-87426800D02*
X165101900Y-86250000D01*
X203300000Y-105750000D02*
X203300000Y-105978900D01*
X185096900Y-66750000D02*
X183300000Y-66750000D01*
X167564800Y-52300200D02*
X165101900Y-49837300D01*
X175078800Y-50583000D02*
X175021600Y-50583000D01*
X204601900Y-62402200D02*
X202863800Y-60664100D01*
X168009100Y-52300200D02*
X168009100Y-53459500D01*
X142400000Y-91700000D02*
X139450800Y-88750800D01*
X149300000Y-99600000D02*
X146699390Y-99600000D01*
X168200600Y-52300200D02*
X169403100Y-52300200D01*
X184916900Y-86565000D02*
X184601900Y-86250000D01*
X183300000Y-105973800D02*
X183300000Y-105750000D01*
X190681100Y-89214700D02*
X191526800Y-88369000D01*
X183300000Y-47506200D02*
X183300000Y-47250000D01*
X139450800Y-88750800D02*
X133900000Y-88750800D01*
X191746900Y-88149800D02*
X191527700Y-88369000D01*
X183300000Y-86250000D02*
X184601900Y-86250000D01*
X149300000Y-100125900D02*
X149300000Y-100700000D01*
X204601900Y-66750000D02*
X204601900Y-62402200D01*
X190681100Y-105973800D02*
X190681100Y-89214700D01*
X177199500Y-48462300D02*
X175078800Y-50583000D01*
X203300000Y-105978900D02*
X202333200Y-106945700D01*
X183015400Y-47790800D02*
X183300000Y-47506200D01*
X133185100Y-88750800D02*
X133900000Y-88750800D01*
X202333200Y-106945700D02*
X191653000Y-106945700D01*
X163800000Y-86250000D02*
X165101900Y-86250000D01*
D32*
%TO.N,Net-(D13-K)*%
X143700000Y-108000000D02*
X144800000Y-108000000D01*
X142300000Y-108000000D02*
X143700000Y-108000000D01*
%TO.N,RGB*%
X146800600Y-87099800D02*
X147878100Y-87099800D01*
X149284900Y-68627500D02*
X152053251Y-65859149D01*
X149284900Y-69373000D02*
X149284900Y-68627500D01*
X153329656Y-65859149D02*
X155050000Y-64138805D01*
X148108000Y-69373000D02*
X149284900Y-69373000D01*
X149284900Y-69373000D02*
X149284900Y-85693000D01*
X152053251Y-65859149D02*
X153329656Y-65859149D01*
X155050000Y-64138805D02*
X155050000Y-63200000D01*
X149284900Y-85693000D02*
X147878100Y-87099800D01*
%TO.N,Net-(LED1-DIN)*%
X166511172Y-106752000D02*
X172225000Y-101038172D01*
X183300000Y-103590000D02*
X183300000Y-104250000D01*
X158200000Y-106410000D02*
X158542000Y-106752000D01*
X172561828Y-100225000D02*
X173738172Y-100225000D01*
X158200000Y-105750000D02*
X158200000Y-106410000D01*
X175338172Y-101825000D02*
X181535000Y-101825000D01*
X172225000Y-100561828D02*
X172561828Y-100225000D01*
X173738172Y-100225000D02*
X175338172Y-101825000D01*
X158542000Y-106752000D02*
X166511172Y-106752000D01*
X172225000Y-101038172D02*
X172225000Y-100561828D01*
X181535000Y-101825000D02*
X183300000Y-103590000D01*
%TO.N,Net-(LED2-DIN)*%
X200625300Y-102930700D02*
X202101100Y-102930700D01*
X177700000Y-105878200D02*
X180464600Y-108642800D01*
X203300000Y-104129600D02*
X203300000Y-104250000D01*
X180464600Y-108642800D02*
X184917200Y-108642800D01*
X177700000Y-105750000D02*
X177700000Y-105878200D01*
X202101100Y-102930700D02*
X203300000Y-104129600D01*
%TO.N,Net-(LED3-DIN)*%
X204476900Y-84750000D02*
X204476900Y-87976200D01*
X204476900Y-87976200D02*
X200509100Y-91944000D01*
X198190580Y-102203800D02*
X196523100Y-103871280D01*
X196523100Y-105750000D02*
X197700000Y-105750000D01*
X200790200Y-102203800D02*
X198190580Y-102203800D01*
X196523100Y-103871280D02*
X196523100Y-105750000D01*
X202470600Y-98476600D02*
X202470600Y-100523400D01*
X200509100Y-91944000D02*
X200509100Y-96515100D01*
X203300000Y-84750000D02*
X204476900Y-84750000D01*
X202470600Y-100523400D02*
X200790200Y-102203800D01*
X200509100Y-96515100D02*
X202470600Y-98476600D01*
%TO.N,Net-(LED4-DIN)*%
X195023100Y-84750000D02*
X196523100Y-86250000D01*
X183300000Y-84750000D02*
X184476900Y-84750000D01*
X197700000Y-86250000D02*
X196523100Y-86250000D01*
X184476900Y-84750000D02*
X195023100Y-84750000D01*
%TO.N,Net-(LED5-DIN)*%
X166646828Y-86250000D02*
X165146828Y-84750000D01*
X177700000Y-86250000D02*
X166646828Y-86250000D01*
X165146828Y-84750000D02*
X163800000Y-84750000D01*
%TO.N,Net-(LED6-DIN)*%
X157023100Y-84263728D02*
X157023100Y-85513100D01*
X158238828Y-83048000D02*
X157023100Y-84263728D01*
X164976900Y-65170000D02*
X165598700Y-64548200D01*
X157760000Y-86250000D02*
X158200000Y-86250000D01*
X164976900Y-65250000D02*
X164976900Y-65170000D01*
X163632300Y-68436200D02*
X161509100Y-70559400D01*
X163470600Y-78976600D02*
X163470600Y-81023400D01*
X161509100Y-70559400D02*
X161509100Y-77015100D01*
X161446000Y-83048000D02*
X158238828Y-83048000D01*
X163800000Y-65250000D02*
X164976900Y-65250000D01*
X163470600Y-81023400D02*
X161446000Y-83048000D01*
X157023100Y-85513100D02*
X157760000Y-86250000D01*
X161509100Y-77015100D02*
X163470600Y-78976600D01*
%TO.N,Net-(LED7-DIN)*%
X163331300Y-67709300D02*
X163261400Y-67779200D01*
X175103900Y-64223300D02*
X171617900Y-67709300D01*
X183300000Y-65177500D02*
X182345800Y-64223300D01*
X183300000Y-65250000D02*
X183300000Y-65177500D01*
X158200000Y-66854200D02*
X158200000Y-66750000D01*
X159125000Y-67779200D02*
X158200000Y-66854200D01*
X163261400Y-67779200D02*
X159125000Y-67779200D01*
X171617900Y-67709300D02*
X163331300Y-67709300D01*
X182345800Y-64223300D02*
X175103900Y-64223300D01*
%TO.N,Net-(LED8-DIN)*%
X202263100Y-64082500D02*
X197702500Y-64082500D01*
X177700000Y-67410000D02*
X178230900Y-67940900D01*
X203300000Y-65250000D02*
X203300000Y-65119400D01*
X203300000Y-65119400D02*
X202263100Y-64082500D01*
X177700000Y-66750000D02*
X177700000Y-67410000D01*
X178230900Y-67940900D02*
X189112519Y-67940900D01*
X193036404Y-64017015D02*
X193665430Y-64017015D01*
X189112519Y-67940900D02*
X193036404Y-64017015D01*
%TO.N,Net-(LED10-DOUT)*%
X203300000Y-45750000D02*
X203740000Y-45750000D01*
X198637200Y-55444405D02*
X198637200Y-58338600D01*
X204476900Y-49323600D02*
X203875000Y-49925500D01*
X195100000Y-64140385D02*
X195100000Y-66500000D01*
X195100000Y-66500000D02*
X195350000Y-66750000D01*
X196463491Y-60512309D02*
X196463491Y-62776894D01*
X204476900Y-46486900D02*
X204476900Y-49323600D01*
X198637200Y-58338600D02*
X196463491Y-60512309D01*
X195350000Y-66750000D02*
X197700000Y-66750000D01*
X203875000Y-49925500D02*
X203875000Y-50206605D01*
X203740000Y-45750000D02*
X204476900Y-46486900D01*
X203875000Y-50206605D02*
X198637200Y-55444405D01*
X196463491Y-62776894D02*
X195100000Y-64140385D01*
%TO.N,Net-(LED10-DIN)*%
X197700000Y-47250000D02*
X196769355Y-47250000D01*
X196769355Y-47250000D02*
X196179044Y-46659689D01*
X183300000Y-45750000D02*
X185978891Y-45750000D01*
X185978891Y-45750000D02*
X186255891Y-45473000D01*
%TO.N,Net-(LED11-DIN)*%
X164976900Y-45750000D02*
X166476900Y-47250000D01*
X166476900Y-47250000D02*
X177700000Y-47250000D01*
X163800000Y-45750000D02*
X164976900Y-45750000D01*
%TO.N,Net-(JP1-B)*%
X161691800Y-51934200D02*
X163301500Y-50324500D01*
X167074400Y-49051100D02*
X167123100Y-49099800D01*
X159181500Y-58794400D02*
X159181500Y-51934200D01*
X156350000Y-63200000D02*
X157729200Y-61820800D01*
X158200000Y-50952700D02*
X158200000Y-47250000D01*
X159181500Y-51934200D02*
X161691800Y-51934200D01*
X159181500Y-51934200D02*
X158200000Y-50952700D01*
X168200600Y-49099800D02*
X167123100Y-49099800D01*
X166420900Y-49051100D02*
X167074400Y-49051100D01*
X157729200Y-60246700D02*
X159181500Y-58794400D01*
X157729200Y-61820800D02*
X157729200Y-60246700D01*
%TO.N,Net-(LED13-DIN)*%
X175260600Y-51159900D02*
X174276900Y-52143600D01*
X187700600Y-49099800D02*
X177477300Y-49099800D01*
X175417200Y-51159900D02*
X175260600Y-51159900D01*
X174276900Y-52143600D02*
X174276900Y-52300200D01*
X177477300Y-49099800D02*
X175417200Y-51159900D01*
X173199400Y-52300200D02*
X174276900Y-52300200D01*
%TO.N,Net-(LED14-DIN)*%
X191533000Y-91112400D02*
X191634100Y-91112400D01*
X192699400Y-52300200D02*
X191621900Y-52300200D01*
X192949400Y-91350200D02*
X191871900Y-91350200D01*
X191621900Y-52300200D02*
X191621900Y-55131900D01*
X191634100Y-91112400D02*
X191871900Y-91350200D01*
X191621900Y-55131900D02*
X192259600Y-55769600D01*
%TO.N,Net-(LED15-DIN)*%
X187950600Y-88149800D02*
X186873100Y-88149800D01*
X171960300Y-89050900D02*
X185972000Y-89050900D01*
X151799400Y-90300200D02*
X153370500Y-90300200D01*
X185972000Y-89050900D02*
X186873100Y-88149800D01*
X153370500Y-90300200D02*
X153532900Y-90137800D01*
%TO.N,Net-(D14-K)*%
X149300000Y-88521700D02*
X150721900Y-87099800D01*
X149300000Y-95700000D02*
X149300000Y-94300000D01*
X151799400Y-87099800D02*
X150721900Y-87099800D01*
X149300000Y-96800000D02*
X149300000Y-95700000D01*
X149300000Y-94300000D02*
X149300000Y-88521700D01*
%TD*%
M02*
