M48
; DRILL file {KiCad 7.0.5} date Sun Nov  5 18:34:42 2023
; FORMAT={-:-/ absolute / metric / decimal}
; #@! TF.CreationDate,2023-11-05T18:34:42-08:00
; #@! TF.GenerationSoftware,Kicad,Pcbnew,7.0.5
; #@! TF.FileFunction,Plated,1,2,PTH
FMAT,2
METRIC
; #@! TA.AperFunction,Plated,PTH,ViaDrill
T1C0.400
; #@! TA.AperFunction,Plated,PTH,ComponentDrill
T2C1.000
; #@! TA.AperFunction,Plated,PTH,ComponentDrill
T3C1.500
; #@! TA.AperFunction,Plated,PTH,ComponentDrill
T4C2.200
%
G90
G05
T1
X133.185Y-88.751
X133.318Y-72.129
X139.249Y-79.29
X140.103Y-85.125
X144.291Y-75.629
X149.55Y-54.615
X151.131Y-67.818
X153.029Y-65.134
X153.533Y-90.138
X156.4Y-65.3
X163.302Y-50.325
X163.632Y-68.436
X164.0Y-83.623
X164.462Y-106.027
X165.599Y-64.548
X165.687Y-63.444
X165.991Y-65.841
X166.421Y-49.051
X167.965Y-79.498
X168.009Y-53.459
X171.96Y-89.051
X172.691Y-64.883
X172.701Y-41.338
X172.701Y-60.975
X172.701Y-80.613
X173.0Y-101.0
X173.012Y-75.407
X173.012Y-95.045
X175.4Y-46.0
X175.4Y-48.1
X175.562Y-51.887
X180.527Y-57.34
X181.435Y-107.156
X183.542Y-48.317
X184.917Y-108.643
X185.035Y-86.565
X185.542Y-67.195
X186.252Y-51.558
X186.256Y-45.473
X186.4Y-91.4
X191.527Y-88.369
X191.533Y-91.112
X192.1Y-69.8
X192.26Y-55.77
X192.7Y-45.4
X192.986Y-80.356
X193.024Y-95.045
X193.665Y-64.017
X193.877Y-63.04
X194.5Y-85.9
X194.9Y-54.3
X195.499Y-45.498
X195.956Y-65.775
X196.0Y-83.7
X196.179Y-46.66
X197.373Y-104.25
X197.702Y-64.082
X199.864Y-55.52
X200.625Y-102.931
X202.606Y-50.45
T2
X130.544Y-33.813
X130.544Y-36.353
X130.544Y-38.893
X130.544Y-41.433
X130.544Y-43.973
X130.544Y-46.513
X130.544Y-49.053
X130.544Y-51.593
X130.544Y-54.133
X130.544Y-56.673
X130.544Y-59.213
X130.544Y-61.753
X130.544Y-64.293
X130.544Y-66.833
X130.544Y-69.373
X130.544Y-71.913
X130.544Y-74.453
X130.544Y-76.993
X130.544Y-79.533
X130.544Y-82.073
X131.65Y-97.0
X131.65Y-99.5
X131.65Y-102.0
X135.48Y-86.6
X137.9Y-75.9
X137.9Y-83.7
X138.02Y-86.6
X140.5Y-75.9
X140.5Y-83.7
X140.56Y-86.6
X142.3Y-108.0
X143.1Y-86.6
X146.15Y-97.0
X146.15Y-102.0
X148.108Y-33.813
X148.108Y-36.353
X148.108Y-38.893
X148.108Y-41.433
X148.108Y-43.973
X148.108Y-46.513
X148.108Y-49.053
X148.108Y-51.593
X148.108Y-54.133
X148.108Y-56.673
X148.108Y-59.213
X148.108Y-61.753
X148.108Y-64.293
X148.108Y-66.833
X148.108Y-69.373
X148.108Y-71.913
X148.108Y-74.453
X148.108Y-76.993
X148.108Y-79.533
X148.108Y-82.073
X149.3Y-94.3
X149.3Y-102.1
X150.1Y-108.0
X169.4Y-35.9
X169.4Y-43.7
X169.4Y-55.4
X169.4Y-63.2
X169.4Y-74.9
X169.4Y-82.7
X169.4Y-94.4
X169.4Y-102.2
X188.8Y-35.9
X188.8Y-43.7
X188.8Y-74.9
X188.8Y-82.7
X188.9Y-55.4
X188.9Y-63.2
X188.9Y-94.4
X188.9Y-102.2
X208.4Y-35.9
X208.4Y-43.7
X208.4Y-55.4
X208.4Y-63.2
X208.4Y-74.9
X208.4Y-82.7
X208.4Y-94.4
X208.4Y-102.2
T4
X129.7Y-107.9
X154.9Y-50.8
X158.0Y-90.0
X175.0Y-70.4
X206.0Y-51.0
X208.6Y-108.1
T3
G00X138.5Y-93.9
M15
G01X139.8Y-93.9
M16
G05
G00X138.5Y-105.1
M15
G01X139.8Y-105.1
M16
G05
T0
M30
