M48
; DRILL file {KiCad 7.0.1-0} date 2023 December 29, Friday 19:29:52
; FORMAT={-:-/ absolute / inch / decimal}
; #@! TF.CreationDate,2023-12-29T19:29:52+00:00
; #@! TF.GenerationSoftware,Kicad,Pcbnew,7.0.1-0
; #@! TF.FileFunction,NonPlated,1,2,NPTH
FMAT,2
INCH
; #@! TA.AperFunction,NonPlated,NPTH,ComponentDrill
T1C0.0670
; #@! TA.AperFunction,NonPlated,NPTH,ComponentDrill
T2C0.1181
; #@! TA.AperFunction,NonPlated,NPTH,ComponentDrill
T3C0.1570
%
G90
G05
T1
X6.1386Y-1.6142
X6.1386Y-2.3819
X6.1386Y-3.1496
X6.1386Y-3.9173
X6.5386Y-1.6142
X6.5386Y-2.3819
X6.5386Y-3.1496
X6.5386Y-3.9173
X6.9063Y-1.6142
X6.9063Y-2.3819
X6.9063Y-3.1496
X6.9063Y-3.9173
X7.3063Y-1.6142
X7.3063Y-2.3819
X7.3063Y-3.1496
X7.3063Y-3.9173
X7.674Y-1.6142
X7.674Y-2.3819
X7.674Y-3.1496
X7.674Y-3.9173
X8.074Y-1.6142
X8.074Y-2.3819
X8.074Y-3.1496
X8.074Y-3.9173
T2
X6.1886Y-1.5142
X6.1886Y-2.2819
X6.1886Y-3.0496
X6.1886Y-3.8173
X6.4386Y-1.4142
X6.4386Y-2.1819
X6.4386Y-2.9496
X6.4386Y-3.7173
X6.9563Y-1.5142
X6.9563Y-2.2819
X6.9563Y-3.0496
X6.9563Y-3.8173
X7.2063Y-1.4142
X7.2063Y-2.1819
X7.2063Y-2.9496
X7.2063Y-3.7173
X7.724Y-1.5142
X7.724Y-2.2819
X7.724Y-3.0496
X7.724Y-3.8173
X7.974Y-1.4142
X7.974Y-2.1819
X7.974Y-2.9496
X7.974Y-3.7173
T3
X6.3386Y-1.6142
X6.3386Y-2.3819
X6.3386Y-3.1496
X6.3386Y-3.9173
X7.1063Y-1.6142
X7.1063Y-2.3819
X7.1063Y-3.1496
X7.1063Y-3.9173
X7.874Y-1.6142
X7.874Y-2.3819
X7.874Y-3.1496
X7.874Y-3.9173
T0
M30
