M48
; DRILL file {KiCad 7.0.1-0} date 2023 December 29, Friday 19:29:52
; FORMAT={-:-/ absolute / inch / decimal}
; #@! TF.CreationDate,2023-12-29T19:29:52+00:00
; #@! TF.GenerationSoftware,Kicad,Pcbnew,7.0.1-0
; #@! TF.FileFunction,Plated,1,2,PTH
FMAT,2
INCH
; #@! TA.AperFunction,Plated,PTH,ViaDrill
T1C0.0157
; #@! TA.AperFunction,Plated,PTH,ComponentDrill
T2C0.0394
; #@! TA.AperFunction,Plated,PTH,ComponentDrill
T3C0.0591
; #@! TA.AperFunction,Plated,PTH,ComponentDrill
T4C0.0866
%
G90
G05
T1
X5.2435Y-3.4941
X5.2487Y-2.8397
X5.4822Y-3.1217
X5.5159Y-3.3514
X5.6808Y-2.9775
X5.8878Y-2.1502
X5.9501Y-2.67
X6.0248Y-2.5643
X6.0446Y-3.5487
X6.1575Y-2.5709
X6.4292Y-1.9813
X6.4422Y-2.6943
X6.4567Y-3.2922
X6.4749Y-4.1743
X6.5196Y-2.5413
X6.5231Y-2.4978
X6.5351Y-2.5922
X6.552Y-1.9311
X6.6128Y-3.1298
X6.6145Y-2.1047
X6.7701Y-3.5059
X6.7989Y-2.5544
X6.7993Y-1.6275
X6.7993Y-2.4006
X6.7993Y-3.1737
X6.811Y-3.9764
X6.8115Y-2.9688
X6.8115Y-3.7419
X6.9055Y-1.811
X6.9055Y-1.8937
X6.9119Y-2.0428
X7.1074Y-2.2575
X7.1431Y-4.2187
X7.2261Y-1.9023
X7.2802Y-4.2773
X7.2848Y-3.4081
X7.3048Y-2.6455
X7.3327Y-2.0299
X7.3329Y-1.7903
X7.3386Y-3.5984
X7.5404Y-3.4791
X7.5407Y-3.5871
X7.563Y-2.748
X7.5693Y-2.1957
X7.5866Y-1.7874
X7.5979Y-3.1636
X7.5994Y-3.7419
X7.6246Y-2.5204
X7.633Y-2.4819
X7.6575Y-3.3819
X7.6732Y-2.1378
X7.6968Y-1.7912
X7.7148Y-2.5896
X7.7165Y-3.2953
X7.7236Y-1.837
X7.7706Y-4.1043
X7.7836Y-2.5229
X7.8686Y-2.1858
X7.8986Y-4.0524
X7.9766Y-1.9862
T2
X5.1395Y-1.3312
X5.1395Y-1.4312
X5.1395Y-1.5312
X5.1395Y-1.6312
X5.1395Y-1.7312
X5.1395Y-1.8312
X5.1395Y-1.9312
X5.1395Y-2.0312
X5.1395Y-2.1312
X5.1395Y-2.2312
X5.1395Y-2.3312
X5.1395Y-2.4312
X5.1395Y-2.5312
X5.1395Y-2.6312
X5.1395Y-2.7312
X5.1395Y-2.8312
X5.1395Y-2.9312
X5.1395Y-3.0312
X5.1395Y-3.1312
X5.1395Y-3.2312
X5.1831Y-3.8189
X5.1831Y-3.9173
X5.1831Y-4.0157
X5.3339Y-3.4094
X5.4291Y-2.9882
X5.4291Y-3.2953
X5.4339Y-3.4094
X5.5315Y-2.9882
X5.5315Y-3.2953
X5.5339Y-3.4094
X5.6024Y-4.252
X5.6339Y-3.4094
X5.7539Y-3.8189
X5.7539Y-4.0157
X5.831Y-1.3312
X5.831Y-1.4312
X5.831Y-1.5312
X5.831Y-1.6312
X5.831Y-1.7312
X5.831Y-1.8312
X5.831Y-1.9312
X5.831Y-2.0312
X5.831Y-2.1312
X5.831Y-2.2312
X5.831Y-2.3312
X5.831Y-2.4312
X5.831Y-2.5312
X5.831Y-2.6312
X5.831Y-2.7312
X5.831Y-2.8312
X5.831Y-2.9312
X5.831Y-3.0312
X5.831Y-3.1312
X5.831Y-3.2312
X5.878Y-3.7126
X5.878Y-4.0197
X5.9094Y-4.252
X6.6693Y-1.4134
X6.6693Y-1.7205
X6.6693Y-2.1811
X6.6693Y-2.4882
X6.6693Y-2.9488
X6.6693Y-3.2559
X6.6693Y-3.7165
X6.6693Y-4.0236
X7.4331Y-1.4134
X7.4331Y-1.7205
X7.4331Y-2.9488
X7.4331Y-3.2559
X7.437Y-2.1811
X7.437Y-2.4882
X7.437Y-3.7165
X7.437Y-4.0236
X8.2047Y-1.4134
X8.2047Y-1.7205
X8.2047Y-2.1811
X8.2047Y-2.4882
X8.2047Y-2.9488
X8.2047Y-3.2559
X8.2047Y-3.7165
X8.2047Y-4.0236
T4
X5.1063Y-4.248
X6.0984Y-2.0
X6.2205Y-3.5433
X6.8898Y-2.7717
X8.1102Y-2.0079
X8.2126Y-4.2559
T3
G00X5.4528Y-3.6969
M15
G01X5.5039Y-3.6969
M16
G05
G00X5.4528Y-4.1378
M15
G01X5.5039Y-4.1378
M16
G05
T0
M30
