%TF.GenerationSoftware,KiCad,Pcbnew,7.0.1-0*%
%TF.CreationDate,2023-12-29T19:29:48+00:00*%
%TF.ProjectId,3x4-macropad,3378342d-6d61-4637-926f-7061642e6b69,rev?*%
%TF.SameCoordinates,Original*%
%TF.FileFunction,Legend,Top*%
%TF.FilePolarity,Positive*%
%FSLAX46Y46*%
G04 Gerber Fmt 4.6, Leading zero omitted, Abs format (unit mm)*
G04 Created by KiCad (PCBNEW 7.0.1-0) date 2023-12-29 19:29:48*
%MOMM*%
%LPD*%
G01*
G04 APERTURE LIST*
%ADD10C,0.125000*%
%ADD11C,0.150000*%
%ADD12C,0.120000*%
G04 APERTURE END LIST*
D10*
X133100000Y-52511142D02*
X133842857Y-52511142D01*
X133842857Y-52511142D02*
X133442857Y-52968285D01*
X133442857Y-52968285D02*
X133614286Y-52968285D01*
X133614286Y-52968285D02*
X133728572Y-53025428D01*
X133728572Y-53025428D02*
X133785714Y-53082571D01*
X133785714Y-53082571D02*
X133842857Y-53196857D01*
X133842857Y-53196857D02*
X133842857Y-53482571D01*
X133842857Y-53482571D02*
X133785714Y-53596857D01*
X133785714Y-53596857D02*
X133728572Y-53654000D01*
X133728572Y-53654000D02*
X133614286Y-53711142D01*
X133614286Y-53711142D02*
X133271429Y-53711142D01*
X133271429Y-53711142D02*
X133157143Y-53654000D01*
X133157143Y-53654000D02*
X133100000Y-53596857D01*
X134242857Y-53711142D02*
X134871429Y-52911142D01*
X134242857Y-52911142D02*
X134871429Y-53711142D01*
X135842858Y-52911142D02*
X135842858Y-53711142D01*
X135557143Y-52454000D02*
X135271429Y-53311142D01*
X135271429Y-53311142D02*
X136014286Y-53311142D01*
X137385715Y-53711142D02*
X137385715Y-52511142D01*
X137385715Y-52511142D02*
X137785715Y-53368285D01*
X137785715Y-53368285D02*
X138185715Y-52511142D01*
X138185715Y-52511142D02*
X138185715Y-53711142D01*
X139271430Y-53711142D02*
X139271430Y-53082571D01*
X139271430Y-53082571D02*
X139214287Y-52968285D01*
X139214287Y-52968285D02*
X139100001Y-52911142D01*
X139100001Y-52911142D02*
X138871430Y-52911142D01*
X138871430Y-52911142D02*
X138757144Y-52968285D01*
X139271430Y-53654000D02*
X139157144Y-53711142D01*
X139157144Y-53711142D02*
X138871430Y-53711142D01*
X138871430Y-53711142D02*
X138757144Y-53654000D01*
X138757144Y-53654000D02*
X138700001Y-53539714D01*
X138700001Y-53539714D02*
X138700001Y-53425428D01*
X138700001Y-53425428D02*
X138757144Y-53311142D01*
X138757144Y-53311142D02*
X138871430Y-53254000D01*
X138871430Y-53254000D02*
X139157144Y-53254000D01*
X139157144Y-53254000D02*
X139271430Y-53196857D01*
X140357144Y-53654000D02*
X140242858Y-53711142D01*
X140242858Y-53711142D02*
X140014286Y-53711142D01*
X140014286Y-53711142D02*
X139900001Y-53654000D01*
X139900001Y-53654000D02*
X139842858Y-53596857D01*
X139842858Y-53596857D02*
X139785715Y-53482571D01*
X139785715Y-53482571D02*
X139785715Y-53139714D01*
X139785715Y-53139714D02*
X139842858Y-53025428D01*
X139842858Y-53025428D02*
X139900001Y-52968285D01*
X139900001Y-52968285D02*
X140014286Y-52911142D01*
X140014286Y-52911142D02*
X140242858Y-52911142D01*
X140242858Y-52911142D02*
X140357144Y-52968285D01*
X140871429Y-53711142D02*
X140871429Y-52911142D01*
X140871429Y-53139714D02*
X140928572Y-53025428D01*
X140928572Y-53025428D02*
X140985715Y-52968285D01*
X140985715Y-52968285D02*
X141100000Y-52911142D01*
X141100000Y-52911142D02*
X141214286Y-52911142D01*
X141785714Y-53711142D02*
X141671429Y-53654000D01*
X141671429Y-53654000D02*
X141614286Y-53596857D01*
X141614286Y-53596857D02*
X141557143Y-53482571D01*
X141557143Y-53482571D02*
X141557143Y-53139714D01*
X141557143Y-53139714D02*
X141614286Y-53025428D01*
X141614286Y-53025428D02*
X141671429Y-52968285D01*
X141671429Y-52968285D02*
X141785714Y-52911142D01*
X141785714Y-52911142D02*
X141957143Y-52911142D01*
X141957143Y-52911142D02*
X142071429Y-52968285D01*
X142071429Y-52968285D02*
X142128572Y-53025428D01*
X142128572Y-53025428D02*
X142185714Y-53139714D01*
X142185714Y-53139714D02*
X142185714Y-53482571D01*
X142185714Y-53482571D02*
X142128572Y-53596857D01*
X142128572Y-53596857D02*
X142071429Y-53654000D01*
X142071429Y-53654000D02*
X141957143Y-53711142D01*
X141957143Y-53711142D02*
X141785714Y-53711142D01*
X142700000Y-52911142D02*
X142700000Y-54111142D01*
X142700000Y-52968285D02*
X142814286Y-52911142D01*
X142814286Y-52911142D02*
X143042857Y-52911142D01*
X143042857Y-52911142D02*
X143157143Y-52968285D01*
X143157143Y-52968285D02*
X143214286Y-53025428D01*
X143214286Y-53025428D02*
X143271428Y-53139714D01*
X143271428Y-53139714D02*
X143271428Y-53482571D01*
X143271428Y-53482571D02*
X143214286Y-53596857D01*
X143214286Y-53596857D02*
X143157143Y-53654000D01*
X143157143Y-53654000D02*
X143042857Y-53711142D01*
X143042857Y-53711142D02*
X142814286Y-53711142D01*
X142814286Y-53711142D02*
X142700000Y-53654000D01*
X144300000Y-53711142D02*
X144300000Y-53082571D01*
X144300000Y-53082571D02*
X144242857Y-52968285D01*
X144242857Y-52968285D02*
X144128571Y-52911142D01*
X144128571Y-52911142D02*
X143900000Y-52911142D01*
X143900000Y-52911142D02*
X143785714Y-52968285D01*
X144300000Y-53654000D02*
X144185714Y-53711142D01*
X144185714Y-53711142D02*
X143900000Y-53711142D01*
X143900000Y-53711142D02*
X143785714Y-53654000D01*
X143785714Y-53654000D02*
X143728571Y-53539714D01*
X143728571Y-53539714D02*
X143728571Y-53425428D01*
X143728571Y-53425428D02*
X143785714Y-53311142D01*
X143785714Y-53311142D02*
X143900000Y-53254000D01*
X143900000Y-53254000D02*
X144185714Y-53254000D01*
X144185714Y-53254000D02*
X144300000Y-53196857D01*
X145385714Y-53711142D02*
X145385714Y-52511142D01*
X145385714Y-53654000D02*
X145271428Y-53711142D01*
X145271428Y-53711142D02*
X145042856Y-53711142D01*
X145042856Y-53711142D02*
X144928571Y-53654000D01*
X144928571Y-53654000D02*
X144871428Y-53596857D01*
X144871428Y-53596857D02*
X144814285Y-53482571D01*
X144814285Y-53482571D02*
X144814285Y-53139714D01*
X144814285Y-53139714D02*
X144871428Y-53025428D01*
X144871428Y-53025428D02*
X144928571Y-52968285D01*
X144928571Y-52968285D02*
X145042856Y-52911142D01*
X145042856Y-52911142D02*
X145271428Y-52911142D01*
X145271428Y-52911142D02*
X145385714Y-52968285D01*
X134500000Y-55026571D02*
X134671428Y-55083714D01*
X134671428Y-55083714D02*
X134728571Y-55140857D01*
X134728571Y-55140857D02*
X134785714Y-55255142D01*
X134785714Y-55255142D02*
X134785714Y-55426571D01*
X134785714Y-55426571D02*
X134728571Y-55540857D01*
X134728571Y-55540857D02*
X134671428Y-55598000D01*
X134671428Y-55598000D02*
X134557143Y-55655142D01*
X134557143Y-55655142D02*
X134100000Y-55655142D01*
X134100000Y-55655142D02*
X134100000Y-54455142D01*
X134100000Y-54455142D02*
X134500000Y-54455142D01*
X134500000Y-54455142D02*
X134614286Y-54512285D01*
X134614286Y-54512285D02*
X134671428Y-54569428D01*
X134671428Y-54569428D02*
X134728571Y-54683714D01*
X134728571Y-54683714D02*
X134728571Y-54798000D01*
X134728571Y-54798000D02*
X134671428Y-54912285D01*
X134671428Y-54912285D02*
X134614286Y-54969428D01*
X134614286Y-54969428D02*
X134500000Y-55026571D01*
X134500000Y-55026571D02*
X134100000Y-55026571D01*
X135185714Y-54855142D02*
X135471428Y-55655142D01*
X135757143Y-54855142D02*
X135471428Y-55655142D01*
X135471428Y-55655142D02*
X135357143Y-55940857D01*
X135357143Y-55940857D02*
X135300000Y-55998000D01*
X135300000Y-55998000D02*
X135185714Y-56055142D01*
X137128572Y-55655142D02*
X137128572Y-54855142D01*
X137128572Y-54455142D02*
X137071429Y-54512285D01*
X137071429Y-54512285D02*
X137128572Y-54569428D01*
X137128572Y-54569428D02*
X137185715Y-54512285D01*
X137185715Y-54512285D02*
X137128572Y-54455142D01*
X137128572Y-54455142D02*
X137128572Y-54569428D01*
X138214287Y-55655142D02*
X138214287Y-54455142D01*
X138214287Y-55598000D02*
X138100001Y-55655142D01*
X138100001Y-55655142D02*
X137871429Y-55655142D01*
X137871429Y-55655142D02*
X137757144Y-55598000D01*
X137757144Y-55598000D02*
X137700001Y-55540857D01*
X137700001Y-55540857D02*
X137642858Y-55426571D01*
X137642858Y-55426571D02*
X137642858Y-55083714D01*
X137642858Y-55083714D02*
X137700001Y-54969428D01*
X137700001Y-54969428D02*
X137757144Y-54912285D01*
X137757144Y-54912285D02*
X137871429Y-54855142D01*
X137871429Y-54855142D02*
X138100001Y-54855142D01*
X138100001Y-54855142D02*
X138214287Y-54912285D01*
X139242858Y-55598000D02*
X139128572Y-55655142D01*
X139128572Y-55655142D02*
X138900001Y-55655142D01*
X138900001Y-55655142D02*
X138785715Y-55598000D01*
X138785715Y-55598000D02*
X138728572Y-55483714D01*
X138728572Y-55483714D02*
X138728572Y-55026571D01*
X138728572Y-55026571D02*
X138785715Y-54912285D01*
X138785715Y-54912285D02*
X138900001Y-54855142D01*
X138900001Y-54855142D02*
X139128572Y-54855142D01*
X139128572Y-54855142D02*
X139242858Y-54912285D01*
X139242858Y-54912285D02*
X139300001Y-55026571D01*
X139300001Y-55026571D02*
X139300001Y-55140857D01*
X139300001Y-55140857D02*
X138728572Y-55255142D01*
X140328572Y-55655142D02*
X140328572Y-55026571D01*
X140328572Y-55026571D02*
X140271429Y-54912285D01*
X140271429Y-54912285D02*
X140157143Y-54855142D01*
X140157143Y-54855142D02*
X139928572Y-54855142D01*
X139928572Y-54855142D02*
X139814286Y-54912285D01*
X140328572Y-55598000D02*
X140214286Y-55655142D01*
X140214286Y-55655142D02*
X139928572Y-55655142D01*
X139928572Y-55655142D02*
X139814286Y-55598000D01*
X139814286Y-55598000D02*
X139757143Y-55483714D01*
X139757143Y-55483714D02*
X139757143Y-55369428D01*
X139757143Y-55369428D02*
X139814286Y-55255142D01*
X139814286Y-55255142D02*
X139928572Y-55198000D01*
X139928572Y-55198000D02*
X140214286Y-55198000D01*
X140214286Y-55198000D02*
X140328572Y-55140857D01*
X140842857Y-55598000D02*
X140957143Y-55655142D01*
X140957143Y-55655142D02*
X141185714Y-55655142D01*
X141185714Y-55655142D02*
X141300000Y-55598000D01*
X141300000Y-55598000D02*
X141357143Y-55483714D01*
X141357143Y-55483714D02*
X141357143Y-55426571D01*
X141357143Y-55426571D02*
X141300000Y-55312285D01*
X141300000Y-55312285D02*
X141185714Y-55255142D01*
X141185714Y-55255142D02*
X141014286Y-55255142D01*
X141014286Y-55255142D02*
X140900000Y-55198000D01*
X140900000Y-55198000D02*
X140842857Y-55083714D01*
X140842857Y-55083714D02*
X140842857Y-55026571D01*
X140842857Y-55026571D02*
X140900000Y-54912285D01*
X140900000Y-54912285D02*
X141014286Y-54855142D01*
X141014286Y-54855142D02*
X141185714Y-54855142D01*
X141185714Y-54855142D02*
X141300000Y-54912285D01*
X141585715Y-55769428D02*
X142500000Y-55769428D01*
X142671429Y-54455142D02*
X143414286Y-54455142D01*
X143414286Y-54455142D02*
X143014286Y-54912285D01*
X143014286Y-54912285D02*
X143185715Y-54912285D01*
X143185715Y-54912285D02*
X143300001Y-54969428D01*
X143300001Y-54969428D02*
X143357143Y-55026571D01*
X143357143Y-55026571D02*
X143414286Y-55140857D01*
X143414286Y-55140857D02*
X143414286Y-55426571D01*
X143414286Y-55426571D02*
X143357143Y-55540857D01*
X143357143Y-55540857D02*
X143300001Y-55598000D01*
X143300001Y-55598000D02*
X143185715Y-55655142D01*
X143185715Y-55655142D02*
X142842858Y-55655142D01*
X142842858Y-55655142D02*
X142728572Y-55598000D01*
X142728572Y-55598000D02*
X142671429Y-55540857D01*
X143871429Y-54569428D02*
X143928572Y-54512285D01*
X143928572Y-54512285D02*
X144042858Y-54455142D01*
X144042858Y-54455142D02*
X144328572Y-54455142D01*
X144328572Y-54455142D02*
X144442858Y-54512285D01*
X144442858Y-54512285D02*
X144500000Y-54569428D01*
X144500000Y-54569428D02*
X144557143Y-54683714D01*
X144557143Y-54683714D02*
X144557143Y-54798000D01*
X144557143Y-54798000D02*
X144500000Y-54969428D01*
X144500000Y-54969428D02*
X143814286Y-55655142D01*
X143814286Y-55655142D02*
X144557143Y-55655142D01*
X136814285Y-57599142D02*
X136414285Y-57027714D01*
X136128571Y-57599142D02*
X136128571Y-56399142D01*
X136128571Y-56399142D02*
X136585714Y-56399142D01*
X136585714Y-56399142D02*
X136699999Y-56456285D01*
X136699999Y-56456285D02*
X136757142Y-56513428D01*
X136757142Y-56513428D02*
X136814285Y-56627714D01*
X136814285Y-56627714D02*
X136814285Y-56799142D01*
X136814285Y-56799142D02*
X136757142Y-56913428D01*
X136757142Y-56913428D02*
X136699999Y-56970571D01*
X136699999Y-56970571D02*
X136585714Y-57027714D01*
X136585714Y-57027714D02*
X136128571Y-57027714D01*
X137785714Y-57542000D02*
X137671428Y-57599142D01*
X137671428Y-57599142D02*
X137442857Y-57599142D01*
X137442857Y-57599142D02*
X137328571Y-57542000D01*
X137328571Y-57542000D02*
X137271428Y-57427714D01*
X137271428Y-57427714D02*
X137271428Y-56970571D01*
X137271428Y-56970571D02*
X137328571Y-56856285D01*
X137328571Y-56856285D02*
X137442857Y-56799142D01*
X137442857Y-56799142D02*
X137671428Y-56799142D01*
X137671428Y-56799142D02*
X137785714Y-56856285D01*
X137785714Y-56856285D02*
X137842857Y-56970571D01*
X137842857Y-56970571D02*
X137842857Y-57084857D01*
X137842857Y-57084857D02*
X137271428Y-57199142D01*
X138242856Y-56799142D02*
X138528570Y-57599142D01*
X138528570Y-57599142D02*
X138814285Y-56799142D01*
X140814285Y-57599142D02*
X140128571Y-57599142D01*
X140471428Y-57599142D02*
X140471428Y-56399142D01*
X140471428Y-56399142D02*
X140357142Y-56570571D01*
X140357142Y-56570571D02*
X140242857Y-56684857D01*
X140242857Y-56684857D02*
X140128571Y-56742000D01*
X141328571Y-57484857D02*
X141385714Y-57542000D01*
X141385714Y-57542000D02*
X141328571Y-57599142D01*
X141328571Y-57599142D02*
X141271428Y-57542000D01*
X141271428Y-57542000D02*
X141328571Y-57484857D01*
X141328571Y-57484857D02*
X141328571Y-57599142D01*
X142128571Y-56399142D02*
X142242857Y-56399142D01*
X142242857Y-56399142D02*
X142357143Y-56456285D01*
X142357143Y-56456285D02*
X142414286Y-56513428D01*
X142414286Y-56513428D02*
X142471428Y-56627714D01*
X142471428Y-56627714D02*
X142528571Y-56856285D01*
X142528571Y-56856285D02*
X142528571Y-57142000D01*
X142528571Y-57142000D02*
X142471428Y-57370571D01*
X142471428Y-57370571D02*
X142414286Y-57484857D01*
X142414286Y-57484857D02*
X142357143Y-57542000D01*
X142357143Y-57542000D02*
X142242857Y-57599142D01*
X142242857Y-57599142D02*
X142128571Y-57599142D01*
X142128571Y-57599142D02*
X142014286Y-57542000D01*
X142014286Y-57542000D02*
X141957143Y-57484857D01*
X141957143Y-57484857D02*
X141900000Y-57370571D01*
X141900000Y-57370571D02*
X141842857Y-57142000D01*
X141842857Y-57142000D02*
X141842857Y-56856285D01*
X141842857Y-56856285D02*
X141900000Y-56627714D01*
X141900000Y-56627714D02*
X141957143Y-56513428D01*
X141957143Y-56513428D02*
X142014286Y-56456285D01*
X142014286Y-56456285D02*
X142128571Y-56399142D01*
D11*
%TO.C,SW12*%
X198552380Y-91932000D02*
X198666666Y-91970095D01*
X198666666Y-91970095D02*
X198857142Y-91970095D01*
X198857142Y-91970095D02*
X198933333Y-91932000D01*
X198933333Y-91932000D02*
X198971428Y-91893904D01*
X198971428Y-91893904D02*
X199009523Y-91817714D01*
X199009523Y-91817714D02*
X199009523Y-91741523D01*
X199009523Y-91741523D02*
X198971428Y-91665333D01*
X198971428Y-91665333D02*
X198933333Y-91627238D01*
X198933333Y-91627238D02*
X198857142Y-91589142D01*
X198857142Y-91589142D02*
X198704761Y-91551047D01*
X198704761Y-91551047D02*
X198628571Y-91512952D01*
X198628571Y-91512952D02*
X198590476Y-91474857D01*
X198590476Y-91474857D02*
X198552380Y-91398666D01*
X198552380Y-91398666D02*
X198552380Y-91322476D01*
X198552380Y-91322476D02*
X198590476Y-91246285D01*
X198590476Y-91246285D02*
X198628571Y-91208190D01*
X198628571Y-91208190D02*
X198704761Y-91170095D01*
X198704761Y-91170095D02*
X198895238Y-91170095D01*
X198895238Y-91170095D02*
X199009523Y-91208190D01*
X199276190Y-91170095D02*
X199466666Y-91970095D01*
X199466666Y-91970095D02*
X199619047Y-91398666D01*
X199619047Y-91398666D02*
X199771428Y-91970095D01*
X199771428Y-91970095D02*
X199961905Y-91170095D01*
X200685714Y-91970095D02*
X200228571Y-91970095D01*
X200457143Y-91970095D02*
X200457143Y-91170095D01*
X200457143Y-91170095D02*
X200380952Y-91284380D01*
X200380952Y-91284380D02*
X200304762Y-91360571D01*
X200304762Y-91360571D02*
X200228571Y-91398666D01*
X200990476Y-91246285D02*
X201028572Y-91208190D01*
X201028572Y-91208190D02*
X201104762Y-91170095D01*
X201104762Y-91170095D02*
X201295238Y-91170095D01*
X201295238Y-91170095D02*
X201371429Y-91208190D01*
X201371429Y-91208190D02*
X201409524Y-91246285D01*
X201409524Y-91246285D02*
X201447619Y-91322476D01*
X201447619Y-91322476D02*
X201447619Y-91398666D01*
X201447619Y-91398666D02*
X201409524Y-91512952D01*
X201409524Y-91512952D02*
X200952381Y-91970095D01*
X200952381Y-91970095D02*
X201447619Y-91970095D01*
%TO.C,SW9*%
X198933332Y-33432000D02*
X199047618Y-33470095D01*
X199047618Y-33470095D02*
X199238094Y-33470095D01*
X199238094Y-33470095D02*
X199314285Y-33432000D01*
X199314285Y-33432000D02*
X199352380Y-33393904D01*
X199352380Y-33393904D02*
X199390475Y-33317714D01*
X199390475Y-33317714D02*
X199390475Y-33241523D01*
X199390475Y-33241523D02*
X199352380Y-33165333D01*
X199352380Y-33165333D02*
X199314285Y-33127238D01*
X199314285Y-33127238D02*
X199238094Y-33089142D01*
X199238094Y-33089142D02*
X199085713Y-33051047D01*
X199085713Y-33051047D02*
X199009523Y-33012952D01*
X199009523Y-33012952D02*
X198971428Y-32974857D01*
X198971428Y-32974857D02*
X198933332Y-32898666D01*
X198933332Y-32898666D02*
X198933332Y-32822476D01*
X198933332Y-32822476D02*
X198971428Y-32746285D01*
X198971428Y-32746285D02*
X199009523Y-32708190D01*
X199009523Y-32708190D02*
X199085713Y-32670095D01*
X199085713Y-32670095D02*
X199276190Y-32670095D01*
X199276190Y-32670095D02*
X199390475Y-32708190D01*
X199657142Y-32670095D02*
X199847618Y-33470095D01*
X199847618Y-33470095D02*
X199999999Y-32898666D01*
X199999999Y-32898666D02*
X200152380Y-33470095D01*
X200152380Y-33470095D02*
X200342857Y-32670095D01*
X200685714Y-33470095D02*
X200838095Y-33470095D01*
X200838095Y-33470095D02*
X200914285Y-33432000D01*
X200914285Y-33432000D02*
X200952381Y-33393904D01*
X200952381Y-33393904D02*
X201028571Y-33279619D01*
X201028571Y-33279619D02*
X201066666Y-33127238D01*
X201066666Y-33127238D02*
X201066666Y-32822476D01*
X201066666Y-32822476D02*
X201028571Y-32746285D01*
X201028571Y-32746285D02*
X200990476Y-32708190D01*
X200990476Y-32708190D02*
X200914285Y-32670095D01*
X200914285Y-32670095D02*
X200761904Y-32670095D01*
X200761904Y-32670095D02*
X200685714Y-32708190D01*
X200685714Y-32708190D02*
X200647619Y-32746285D01*
X200647619Y-32746285D02*
X200609523Y-32822476D01*
X200609523Y-32822476D02*
X200609523Y-33012952D01*
X200609523Y-33012952D02*
X200647619Y-33089142D01*
X200647619Y-33089142D02*
X200685714Y-33127238D01*
X200685714Y-33127238D02*
X200761904Y-33165333D01*
X200761904Y-33165333D02*
X200914285Y-33165333D01*
X200914285Y-33165333D02*
X200990476Y-33127238D01*
X200990476Y-33127238D02*
X201028571Y-33089142D01*
X201028571Y-33089142D02*
X201066666Y-33012952D01*
%TO.C,H3*%
X176538095Y-68662619D02*
X176538095Y-67662619D01*
X176538095Y-68138809D02*
X177109523Y-68138809D01*
X177109523Y-68662619D02*
X177109523Y-67662619D01*
X177490476Y-67662619D02*
X178109523Y-67662619D01*
X178109523Y-67662619D02*
X177776190Y-68043571D01*
X177776190Y-68043571D02*
X177919047Y-68043571D01*
X177919047Y-68043571D02*
X178014285Y-68091190D01*
X178014285Y-68091190D02*
X178061904Y-68138809D01*
X178061904Y-68138809D02*
X178109523Y-68234047D01*
X178109523Y-68234047D02*
X178109523Y-68472142D01*
X178109523Y-68472142D02*
X178061904Y-68567380D01*
X178061904Y-68567380D02*
X178014285Y-68615000D01*
X178014285Y-68615000D02*
X177919047Y-68662619D01*
X177919047Y-68662619D02*
X177633333Y-68662619D01*
X177633333Y-68662619D02*
X177538095Y-68615000D01*
X177538095Y-68615000D02*
X177490476Y-68567380D01*
%TO.C,SW8*%
X179433332Y-91932000D02*
X179547618Y-91970095D01*
X179547618Y-91970095D02*
X179738094Y-91970095D01*
X179738094Y-91970095D02*
X179814285Y-91932000D01*
X179814285Y-91932000D02*
X179852380Y-91893904D01*
X179852380Y-91893904D02*
X179890475Y-91817714D01*
X179890475Y-91817714D02*
X179890475Y-91741523D01*
X179890475Y-91741523D02*
X179852380Y-91665333D01*
X179852380Y-91665333D02*
X179814285Y-91627238D01*
X179814285Y-91627238D02*
X179738094Y-91589142D01*
X179738094Y-91589142D02*
X179585713Y-91551047D01*
X179585713Y-91551047D02*
X179509523Y-91512952D01*
X179509523Y-91512952D02*
X179471428Y-91474857D01*
X179471428Y-91474857D02*
X179433332Y-91398666D01*
X179433332Y-91398666D02*
X179433332Y-91322476D01*
X179433332Y-91322476D02*
X179471428Y-91246285D01*
X179471428Y-91246285D02*
X179509523Y-91208190D01*
X179509523Y-91208190D02*
X179585713Y-91170095D01*
X179585713Y-91170095D02*
X179776190Y-91170095D01*
X179776190Y-91170095D02*
X179890475Y-91208190D01*
X180157142Y-91170095D02*
X180347618Y-91970095D01*
X180347618Y-91970095D02*
X180499999Y-91398666D01*
X180499999Y-91398666D02*
X180652380Y-91970095D01*
X180652380Y-91970095D02*
X180842857Y-91170095D01*
X181261904Y-91512952D02*
X181185714Y-91474857D01*
X181185714Y-91474857D02*
X181147619Y-91436761D01*
X181147619Y-91436761D02*
X181109523Y-91360571D01*
X181109523Y-91360571D02*
X181109523Y-91322476D01*
X181109523Y-91322476D02*
X181147619Y-91246285D01*
X181147619Y-91246285D02*
X181185714Y-91208190D01*
X181185714Y-91208190D02*
X181261904Y-91170095D01*
X181261904Y-91170095D02*
X181414285Y-91170095D01*
X181414285Y-91170095D02*
X181490476Y-91208190D01*
X181490476Y-91208190D02*
X181528571Y-91246285D01*
X181528571Y-91246285D02*
X181566666Y-91322476D01*
X181566666Y-91322476D02*
X181566666Y-91360571D01*
X181566666Y-91360571D02*
X181528571Y-91436761D01*
X181528571Y-91436761D02*
X181490476Y-91474857D01*
X181490476Y-91474857D02*
X181414285Y-91512952D01*
X181414285Y-91512952D02*
X181261904Y-91512952D01*
X181261904Y-91512952D02*
X181185714Y-91551047D01*
X181185714Y-91551047D02*
X181147619Y-91589142D01*
X181147619Y-91589142D02*
X181109523Y-91665333D01*
X181109523Y-91665333D02*
X181109523Y-91817714D01*
X181109523Y-91817714D02*
X181147619Y-91893904D01*
X181147619Y-91893904D02*
X181185714Y-91932000D01*
X181185714Y-91932000D02*
X181261904Y-91970095D01*
X181261904Y-91970095D02*
X181414285Y-91970095D01*
X181414285Y-91970095D02*
X181490476Y-91932000D01*
X181490476Y-91932000D02*
X181528571Y-91893904D01*
X181528571Y-91893904D02*
X181566666Y-91817714D01*
X181566666Y-91817714D02*
X181566666Y-91665333D01*
X181566666Y-91665333D02*
X181528571Y-91589142D01*
X181528571Y-91589142D02*
X181490476Y-91551047D01*
X181490476Y-91551047D02*
X181414285Y-91512952D01*
%TO.C,ENC1*%
X133475714Y-94508809D02*
X133809047Y-94508809D01*
X133951904Y-95032619D02*
X133475714Y-95032619D01*
X133475714Y-95032619D02*
X133475714Y-94032619D01*
X133475714Y-94032619D02*
X133951904Y-94032619D01*
X134380476Y-95032619D02*
X134380476Y-94032619D01*
X134380476Y-94032619D02*
X134951904Y-95032619D01*
X134951904Y-95032619D02*
X134951904Y-94032619D01*
X135999523Y-94937380D02*
X135951904Y-94985000D01*
X135951904Y-94985000D02*
X135809047Y-95032619D01*
X135809047Y-95032619D02*
X135713809Y-95032619D01*
X135713809Y-95032619D02*
X135570952Y-94985000D01*
X135570952Y-94985000D02*
X135475714Y-94889761D01*
X135475714Y-94889761D02*
X135428095Y-94794523D01*
X135428095Y-94794523D02*
X135380476Y-94604047D01*
X135380476Y-94604047D02*
X135380476Y-94461190D01*
X135380476Y-94461190D02*
X135428095Y-94270714D01*
X135428095Y-94270714D02*
X135475714Y-94175476D01*
X135475714Y-94175476D02*
X135570952Y-94080238D01*
X135570952Y-94080238D02*
X135713809Y-94032619D01*
X135713809Y-94032619D02*
X135809047Y-94032619D01*
X135809047Y-94032619D02*
X135951904Y-94080238D01*
X135951904Y-94080238D02*
X135999523Y-94127857D01*
X136951904Y-95032619D02*
X136380476Y-95032619D01*
X136666190Y-95032619D02*
X136666190Y-94032619D01*
X136666190Y-94032619D02*
X136570952Y-94175476D01*
X136570952Y-94175476D02*
X136475714Y-94270714D01*
X136475714Y-94270714D02*
X136380476Y-94318333D01*
%TO.C,SW1*%
X159933332Y-33432000D02*
X160047618Y-33470095D01*
X160047618Y-33470095D02*
X160238094Y-33470095D01*
X160238094Y-33470095D02*
X160314285Y-33432000D01*
X160314285Y-33432000D02*
X160352380Y-33393904D01*
X160352380Y-33393904D02*
X160390475Y-33317714D01*
X160390475Y-33317714D02*
X160390475Y-33241523D01*
X160390475Y-33241523D02*
X160352380Y-33165333D01*
X160352380Y-33165333D02*
X160314285Y-33127238D01*
X160314285Y-33127238D02*
X160238094Y-33089142D01*
X160238094Y-33089142D02*
X160085713Y-33051047D01*
X160085713Y-33051047D02*
X160009523Y-33012952D01*
X160009523Y-33012952D02*
X159971428Y-32974857D01*
X159971428Y-32974857D02*
X159933332Y-32898666D01*
X159933332Y-32898666D02*
X159933332Y-32822476D01*
X159933332Y-32822476D02*
X159971428Y-32746285D01*
X159971428Y-32746285D02*
X160009523Y-32708190D01*
X160009523Y-32708190D02*
X160085713Y-32670095D01*
X160085713Y-32670095D02*
X160276190Y-32670095D01*
X160276190Y-32670095D02*
X160390475Y-32708190D01*
X160657142Y-32670095D02*
X160847618Y-33470095D01*
X160847618Y-33470095D02*
X160999999Y-32898666D01*
X160999999Y-32898666D02*
X161152380Y-33470095D01*
X161152380Y-33470095D02*
X161342857Y-32670095D01*
X162066666Y-33470095D02*
X161609523Y-33470095D01*
X161838095Y-33470095D02*
X161838095Y-32670095D01*
X161838095Y-32670095D02*
X161761904Y-32784380D01*
X161761904Y-32784380D02*
X161685714Y-32860571D01*
X161685714Y-32860571D02*
X161609523Y-32898666D01*
%TO.C,H5*%
X128938095Y-105462619D02*
X128938095Y-104462619D01*
X128938095Y-104938809D02*
X129509523Y-104938809D01*
X129509523Y-105462619D02*
X129509523Y-104462619D01*
X130461904Y-104462619D02*
X129985714Y-104462619D01*
X129985714Y-104462619D02*
X129938095Y-104938809D01*
X129938095Y-104938809D02*
X129985714Y-104891190D01*
X129985714Y-104891190D02*
X130080952Y-104843571D01*
X130080952Y-104843571D02*
X130319047Y-104843571D01*
X130319047Y-104843571D02*
X130414285Y-104891190D01*
X130414285Y-104891190D02*
X130461904Y-104938809D01*
X130461904Y-104938809D02*
X130509523Y-105034047D01*
X130509523Y-105034047D02*
X130509523Y-105272142D01*
X130509523Y-105272142D02*
X130461904Y-105367380D01*
X130461904Y-105367380D02*
X130414285Y-105415000D01*
X130414285Y-105415000D02*
X130319047Y-105462619D01*
X130319047Y-105462619D02*
X130080952Y-105462619D01*
X130080952Y-105462619D02*
X129985714Y-105415000D01*
X129985714Y-105415000D02*
X129938095Y-105367380D01*
%TO.C,SW4*%
X159933332Y-91932000D02*
X160047618Y-91970095D01*
X160047618Y-91970095D02*
X160238094Y-91970095D01*
X160238094Y-91970095D02*
X160314285Y-91932000D01*
X160314285Y-91932000D02*
X160352380Y-91893904D01*
X160352380Y-91893904D02*
X160390475Y-91817714D01*
X160390475Y-91817714D02*
X160390475Y-91741523D01*
X160390475Y-91741523D02*
X160352380Y-91665333D01*
X160352380Y-91665333D02*
X160314285Y-91627238D01*
X160314285Y-91627238D02*
X160238094Y-91589142D01*
X160238094Y-91589142D02*
X160085713Y-91551047D01*
X160085713Y-91551047D02*
X160009523Y-91512952D01*
X160009523Y-91512952D02*
X159971428Y-91474857D01*
X159971428Y-91474857D02*
X159933332Y-91398666D01*
X159933332Y-91398666D02*
X159933332Y-91322476D01*
X159933332Y-91322476D02*
X159971428Y-91246285D01*
X159971428Y-91246285D02*
X160009523Y-91208190D01*
X160009523Y-91208190D02*
X160085713Y-91170095D01*
X160085713Y-91170095D02*
X160276190Y-91170095D01*
X160276190Y-91170095D02*
X160390475Y-91208190D01*
X160657142Y-91170095D02*
X160847618Y-91970095D01*
X160847618Y-91970095D02*
X160999999Y-91398666D01*
X160999999Y-91398666D02*
X161152380Y-91970095D01*
X161152380Y-91970095D02*
X161342857Y-91170095D01*
X161990476Y-91436761D02*
X161990476Y-91970095D01*
X161800000Y-91132000D02*
X161609523Y-91703428D01*
X161609523Y-91703428D02*
X162104762Y-91703428D01*
%TO.C,SW11*%
X198552380Y-72432000D02*
X198666666Y-72470095D01*
X198666666Y-72470095D02*
X198857142Y-72470095D01*
X198857142Y-72470095D02*
X198933333Y-72432000D01*
X198933333Y-72432000D02*
X198971428Y-72393904D01*
X198971428Y-72393904D02*
X199009523Y-72317714D01*
X199009523Y-72317714D02*
X199009523Y-72241523D01*
X199009523Y-72241523D02*
X198971428Y-72165333D01*
X198971428Y-72165333D02*
X198933333Y-72127238D01*
X198933333Y-72127238D02*
X198857142Y-72089142D01*
X198857142Y-72089142D02*
X198704761Y-72051047D01*
X198704761Y-72051047D02*
X198628571Y-72012952D01*
X198628571Y-72012952D02*
X198590476Y-71974857D01*
X198590476Y-71974857D02*
X198552380Y-71898666D01*
X198552380Y-71898666D02*
X198552380Y-71822476D01*
X198552380Y-71822476D02*
X198590476Y-71746285D01*
X198590476Y-71746285D02*
X198628571Y-71708190D01*
X198628571Y-71708190D02*
X198704761Y-71670095D01*
X198704761Y-71670095D02*
X198895238Y-71670095D01*
X198895238Y-71670095D02*
X199009523Y-71708190D01*
X199276190Y-71670095D02*
X199466666Y-72470095D01*
X199466666Y-72470095D02*
X199619047Y-71898666D01*
X199619047Y-71898666D02*
X199771428Y-72470095D01*
X199771428Y-72470095D02*
X199961905Y-71670095D01*
X200685714Y-72470095D02*
X200228571Y-72470095D01*
X200457143Y-72470095D02*
X200457143Y-71670095D01*
X200457143Y-71670095D02*
X200380952Y-71784380D01*
X200380952Y-71784380D02*
X200304762Y-71860571D01*
X200304762Y-71860571D02*
X200228571Y-71898666D01*
X201447619Y-72470095D02*
X200990476Y-72470095D01*
X201219048Y-72470095D02*
X201219048Y-71670095D01*
X201219048Y-71670095D02*
X201142857Y-71784380D01*
X201142857Y-71784380D02*
X201066667Y-71860571D01*
X201066667Y-71860571D02*
X200990476Y-71898666D01*
%TO.C,SW5*%
X179433332Y-33432000D02*
X179547618Y-33470095D01*
X179547618Y-33470095D02*
X179738094Y-33470095D01*
X179738094Y-33470095D02*
X179814285Y-33432000D01*
X179814285Y-33432000D02*
X179852380Y-33393904D01*
X179852380Y-33393904D02*
X179890475Y-33317714D01*
X179890475Y-33317714D02*
X179890475Y-33241523D01*
X179890475Y-33241523D02*
X179852380Y-33165333D01*
X179852380Y-33165333D02*
X179814285Y-33127238D01*
X179814285Y-33127238D02*
X179738094Y-33089142D01*
X179738094Y-33089142D02*
X179585713Y-33051047D01*
X179585713Y-33051047D02*
X179509523Y-33012952D01*
X179509523Y-33012952D02*
X179471428Y-32974857D01*
X179471428Y-32974857D02*
X179433332Y-32898666D01*
X179433332Y-32898666D02*
X179433332Y-32822476D01*
X179433332Y-32822476D02*
X179471428Y-32746285D01*
X179471428Y-32746285D02*
X179509523Y-32708190D01*
X179509523Y-32708190D02*
X179585713Y-32670095D01*
X179585713Y-32670095D02*
X179776190Y-32670095D01*
X179776190Y-32670095D02*
X179890475Y-32708190D01*
X180157142Y-32670095D02*
X180347618Y-33470095D01*
X180347618Y-33470095D02*
X180499999Y-32898666D01*
X180499999Y-32898666D02*
X180652380Y-33470095D01*
X180652380Y-33470095D02*
X180842857Y-32670095D01*
X181528571Y-32670095D02*
X181147619Y-32670095D01*
X181147619Y-32670095D02*
X181109523Y-33051047D01*
X181109523Y-33051047D02*
X181147619Y-33012952D01*
X181147619Y-33012952D02*
X181223809Y-32974857D01*
X181223809Y-32974857D02*
X181414285Y-32974857D01*
X181414285Y-32974857D02*
X181490476Y-33012952D01*
X181490476Y-33012952D02*
X181528571Y-33051047D01*
X181528571Y-33051047D02*
X181566666Y-33127238D01*
X181566666Y-33127238D02*
X181566666Y-33317714D01*
X181566666Y-33317714D02*
X181528571Y-33393904D01*
X181528571Y-33393904D02*
X181490476Y-33432000D01*
X181490476Y-33432000D02*
X181414285Y-33470095D01*
X181414285Y-33470095D02*
X181223809Y-33470095D01*
X181223809Y-33470095D02*
X181147619Y-33432000D01*
X181147619Y-33432000D02*
X181109523Y-33393904D01*
%TO.C,H2*%
X205238095Y-48562619D02*
X205238095Y-47562619D01*
X205238095Y-48038809D02*
X205809523Y-48038809D01*
X205809523Y-48562619D02*
X205809523Y-47562619D01*
X206238095Y-47657857D02*
X206285714Y-47610238D01*
X206285714Y-47610238D02*
X206380952Y-47562619D01*
X206380952Y-47562619D02*
X206619047Y-47562619D01*
X206619047Y-47562619D02*
X206714285Y-47610238D01*
X206714285Y-47610238D02*
X206761904Y-47657857D01*
X206761904Y-47657857D02*
X206809523Y-47753095D01*
X206809523Y-47753095D02*
X206809523Y-47848333D01*
X206809523Y-47848333D02*
X206761904Y-47991190D01*
X206761904Y-47991190D02*
X206190476Y-48562619D01*
X206190476Y-48562619D02*
X206809523Y-48562619D01*
%TO.C,SW6*%
X179433332Y-52932000D02*
X179547618Y-52970095D01*
X179547618Y-52970095D02*
X179738094Y-52970095D01*
X179738094Y-52970095D02*
X179814285Y-52932000D01*
X179814285Y-52932000D02*
X179852380Y-52893904D01*
X179852380Y-52893904D02*
X179890475Y-52817714D01*
X179890475Y-52817714D02*
X179890475Y-52741523D01*
X179890475Y-52741523D02*
X179852380Y-52665333D01*
X179852380Y-52665333D02*
X179814285Y-52627238D01*
X179814285Y-52627238D02*
X179738094Y-52589142D01*
X179738094Y-52589142D02*
X179585713Y-52551047D01*
X179585713Y-52551047D02*
X179509523Y-52512952D01*
X179509523Y-52512952D02*
X179471428Y-52474857D01*
X179471428Y-52474857D02*
X179433332Y-52398666D01*
X179433332Y-52398666D02*
X179433332Y-52322476D01*
X179433332Y-52322476D02*
X179471428Y-52246285D01*
X179471428Y-52246285D02*
X179509523Y-52208190D01*
X179509523Y-52208190D02*
X179585713Y-52170095D01*
X179585713Y-52170095D02*
X179776190Y-52170095D01*
X179776190Y-52170095D02*
X179890475Y-52208190D01*
X180157142Y-52170095D02*
X180347618Y-52970095D01*
X180347618Y-52970095D02*
X180499999Y-52398666D01*
X180499999Y-52398666D02*
X180652380Y-52970095D01*
X180652380Y-52970095D02*
X180842857Y-52170095D01*
X181490476Y-52170095D02*
X181338095Y-52170095D01*
X181338095Y-52170095D02*
X181261904Y-52208190D01*
X181261904Y-52208190D02*
X181223809Y-52246285D01*
X181223809Y-52246285D02*
X181147619Y-52360571D01*
X181147619Y-52360571D02*
X181109523Y-52512952D01*
X181109523Y-52512952D02*
X181109523Y-52817714D01*
X181109523Y-52817714D02*
X181147619Y-52893904D01*
X181147619Y-52893904D02*
X181185714Y-52932000D01*
X181185714Y-52932000D02*
X181261904Y-52970095D01*
X181261904Y-52970095D02*
X181414285Y-52970095D01*
X181414285Y-52970095D02*
X181490476Y-52932000D01*
X181490476Y-52932000D02*
X181528571Y-52893904D01*
X181528571Y-52893904D02*
X181566666Y-52817714D01*
X181566666Y-52817714D02*
X181566666Y-52627238D01*
X181566666Y-52627238D02*
X181528571Y-52551047D01*
X181528571Y-52551047D02*
X181490476Y-52512952D01*
X181490476Y-52512952D02*
X181414285Y-52474857D01*
X181414285Y-52474857D02*
X181261904Y-52474857D01*
X181261904Y-52474857D02*
X181185714Y-52512952D01*
X181185714Y-52512952D02*
X181147619Y-52551047D01*
X181147619Y-52551047D02*
X181109523Y-52627238D01*
%TO.C,SW10*%
X198552380Y-52932000D02*
X198666666Y-52970095D01*
X198666666Y-52970095D02*
X198857142Y-52970095D01*
X198857142Y-52970095D02*
X198933333Y-52932000D01*
X198933333Y-52932000D02*
X198971428Y-52893904D01*
X198971428Y-52893904D02*
X199009523Y-52817714D01*
X199009523Y-52817714D02*
X199009523Y-52741523D01*
X199009523Y-52741523D02*
X198971428Y-52665333D01*
X198971428Y-52665333D02*
X198933333Y-52627238D01*
X198933333Y-52627238D02*
X198857142Y-52589142D01*
X198857142Y-52589142D02*
X198704761Y-52551047D01*
X198704761Y-52551047D02*
X198628571Y-52512952D01*
X198628571Y-52512952D02*
X198590476Y-52474857D01*
X198590476Y-52474857D02*
X198552380Y-52398666D01*
X198552380Y-52398666D02*
X198552380Y-52322476D01*
X198552380Y-52322476D02*
X198590476Y-52246285D01*
X198590476Y-52246285D02*
X198628571Y-52208190D01*
X198628571Y-52208190D02*
X198704761Y-52170095D01*
X198704761Y-52170095D02*
X198895238Y-52170095D01*
X198895238Y-52170095D02*
X199009523Y-52208190D01*
X199276190Y-52170095D02*
X199466666Y-52970095D01*
X199466666Y-52970095D02*
X199619047Y-52398666D01*
X199619047Y-52398666D02*
X199771428Y-52970095D01*
X199771428Y-52970095D02*
X199961905Y-52170095D01*
X200685714Y-52970095D02*
X200228571Y-52970095D01*
X200457143Y-52970095D02*
X200457143Y-52170095D01*
X200457143Y-52170095D02*
X200380952Y-52284380D01*
X200380952Y-52284380D02*
X200304762Y-52360571D01*
X200304762Y-52360571D02*
X200228571Y-52398666D01*
X201180953Y-52170095D02*
X201257143Y-52170095D01*
X201257143Y-52170095D02*
X201333334Y-52208190D01*
X201333334Y-52208190D02*
X201371429Y-52246285D01*
X201371429Y-52246285D02*
X201409524Y-52322476D01*
X201409524Y-52322476D02*
X201447619Y-52474857D01*
X201447619Y-52474857D02*
X201447619Y-52665333D01*
X201447619Y-52665333D02*
X201409524Y-52817714D01*
X201409524Y-52817714D02*
X201371429Y-52893904D01*
X201371429Y-52893904D02*
X201333334Y-52932000D01*
X201333334Y-52932000D02*
X201257143Y-52970095D01*
X201257143Y-52970095D02*
X201180953Y-52970095D01*
X201180953Y-52970095D02*
X201104762Y-52932000D01*
X201104762Y-52932000D02*
X201066667Y-52893904D01*
X201066667Y-52893904D02*
X201028572Y-52817714D01*
X201028572Y-52817714D02*
X200990476Y-52665333D01*
X200990476Y-52665333D02*
X200990476Y-52474857D01*
X200990476Y-52474857D02*
X201028572Y-52322476D01*
X201028572Y-52322476D02*
X201066667Y-52246285D01*
X201066667Y-52246285D02*
X201104762Y-52208190D01*
X201104762Y-52208190D02*
X201180953Y-52170095D01*
%TO.C,SW3*%
X159933332Y-72432000D02*
X160047618Y-72470095D01*
X160047618Y-72470095D02*
X160238094Y-72470095D01*
X160238094Y-72470095D02*
X160314285Y-72432000D01*
X160314285Y-72432000D02*
X160352380Y-72393904D01*
X160352380Y-72393904D02*
X160390475Y-72317714D01*
X160390475Y-72317714D02*
X160390475Y-72241523D01*
X160390475Y-72241523D02*
X160352380Y-72165333D01*
X160352380Y-72165333D02*
X160314285Y-72127238D01*
X160314285Y-72127238D02*
X160238094Y-72089142D01*
X160238094Y-72089142D02*
X160085713Y-72051047D01*
X160085713Y-72051047D02*
X160009523Y-72012952D01*
X160009523Y-72012952D02*
X159971428Y-71974857D01*
X159971428Y-71974857D02*
X159933332Y-71898666D01*
X159933332Y-71898666D02*
X159933332Y-71822476D01*
X159933332Y-71822476D02*
X159971428Y-71746285D01*
X159971428Y-71746285D02*
X160009523Y-71708190D01*
X160009523Y-71708190D02*
X160085713Y-71670095D01*
X160085713Y-71670095D02*
X160276190Y-71670095D01*
X160276190Y-71670095D02*
X160390475Y-71708190D01*
X160657142Y-71670095D02*
X160847618Y-72470095D01*
X160847618Y-72470095D02*
X160999999Y-71898666D01*
X160999999Y-71898666D02*
X161152380Y-72470095D01*
X161152380Y-72470095D02*
X161342857Y-71670095D01*
X161571428Y-71670095D02*
X162066666Y-71670095D01*
X162066666Y-71670095D02*
X161800000Y-71974857D01*
X161800000Y-71974857D02*
X161914285Y-71974857D01*
X161914285Y-71974857D02*
X161990476Y-72012952D01*
X161990476Y-72012952D02*
X162028571Y-72051047D01*
X162028571Y-72051047D02*
X162066666Y-72127238D01*
X162066666Y-72127238D02*
X162066666Y-72317714D01*
X162066666Y-72317714D02*
X162028571Y-72393904D01*
X162028571Y-72393904D02*
X161990476Y-72432000D01*
X161990476Y-72432000D02*
X161914285Y-72470095D01*
X161914285Y-72470095D02*
X161685714Y-72470095D01*
X161685714Y-72470095D02*
X161609523Y-72432000D01*
X161609523Y-72432000D02*
X161571428Y-72393904D01*
%TO.C,SW7*%
X179433332Y-72432000D02*
X179547618Y-72470095D01*
X179547618Y-72470095D02*
X179738094Y-72470095D01*
X179738094Y-72470095D02*
X179814285Y-72432000D01*
X179814285Y-72432000D02*
X179852380Y-72393904D01*
X179852380Y-72393904D02*
X179890475Y-72317714D01*
X179890475Y-72317714D02*
X179890475Y-72241523D01*
X179890475Y-72241523D02*
X179852380Y-72165333D01*
X179852380Y-72165333D02*
X179814285Y-72127238D01*
X179814285Y-72127238D02*
X179738094Y-72089142D01*
X179738094Y-72089142D02*
X179585713Y-72051047D01*
X179585713Y-72051047D02*
X179509523Y-72012952D01*
X179509523Y-72012952D02*
X179471428Y-71974857D01*
X179471428Y-71974857D02*
X179433332Y-71898666D01*
X179433332Y-71898666D02*
X179433332Y-71822476D01*
X179433332Y-71822476D02*
X179471428Y-71746285D01*
X179471428Y-71746285D02*
X179509523Y-71708190D01*
X179509523Y-71708190D02*
X179585713Y-71670095D01*
X179585713Y-71670095D02*
X179776190Y-71670095D01*
X179776190Y-71670095D02*
X179890475Y-71708190D01*
X180157142Y-71670095D02*
X180347618Y-72470095D01*
X180347618Y-72470095D02*
X180499999Y-71898666D01*
X180499999Y-71898666D02*
X180652380Y-72470095D01*
X180652380Y-72470095D02*
X180842857Y-71670095D01*
X181071428Y-71670095D02*
X181604762Y-71670095D01*
X181604762Y-71670095D02*
X181261904Y-72470095D01*
%TO.C,SW2*%
X159933332Y-52932000D02*
X160047618Y-52970095D01*
X160047618Y-52970095D02*
X160238094Y-52970095D01*
X160238094Y-52970095D02*
X160314285Y-52932000D01*
X160314285Y-52932000D02*
X160352380Y-52893904D01*
X160352380Y-52893904D02*
X160390475Y-52817714D01*
X160390475Y-52817714D02*
X160390475Y-52741523D01*
X160390475Y-52741523D02*
X160352380Y-52665333D01*
X160352380Y-52665333D02*
X160314285Y-52627238D01*
X160314285Y-52627238D02*
X160238094Y-52589142D01*
X160238094Y-52589142D02*
X160085713Y-52551047D01*
X160085713Y-52551047D02*
X160009523Y-52512952D01*
X160009523Y-52512952D02*
X159971428Y-52474857D01*
X159971428Y-52474857D02*
X159933332Y-52398666D01*
X159933332Y-52398666D02*
X159933332Y-52322476D01*
X159933332Y-52322476D02*
X159971428Y-52246285D01*
X159971428Y-52246285D02*
X160009523Y-52208190D01*
X160009523Y-52208190D02*
X160085713Y-52170095D01*
X160085713Y-52170095D02*
X160276190Y-52170095D01*
X160276190Y-52170095D02*
X160390475Y-52208190D01*
X160657142Y-52170095D02*
X160847618Y-52970095D01*
X160847618Y-52970095D02*
X160999999Y-52398666D01*
X160999999Y-52398666D02*
X161152380Y-52970095D01*
X161152380Y-52970095D02*
X161342857Y-52170095D01*
X161609523Y-52246285D02*
X161647619Y-52208190D01*
X161647619Y-52208190D02*
X161723809Y-52170095D01*
X161723809Y-52170095D02*
X161914285Y-52170095D01*
X161914285Y-52170095D02*
X161990476Y-52208190D01*
X161990476Y-52208190D02*
X162028571Y-52246285D01*
X162028571Y-52246285D02*
X162066666Y-52322476D01*
X162066666Y-52322476D02*
X162066666Y-52398666D01*
X162066666Y-52398666D02*
X162028571Y-52512952D01*
X162028571Y-52512952D02*
X161571428Y-52970095D01*
X161571428Y-52970095D02*
X162066666Y-52970095D01*
%TO.C,H6*%
X207538095Y-105762619D02*
X207538095Y-104762619D01*
X207538095Y-105238809D02*
X208109523Y-105238809D01*
X208109523Y-105762619D02*
X208109523Y-104762619D01*
X209014285Y-104762619D02*
X208823809Y-104762619D01*
X208823809Y-104762619D02*
X208728571Y-104810238D01*
X208728571Y-104810238D02*
X208680952Y-104857857D01*
X208680952Y-104857857D02*
X208585714Y-105000714D01*
X208585714Y-105000714D02*
X208538095Y-105191190D01*
X208538095Y-105191190D02*
X208538095Y-105572142D01*
X208538095Y-105572142D02*
X208585714Y-105667380D01*
X208585714Y-105667380D02*
X208633333Y-105715000D01*
X208633333Y-105715000D02*
X208728571Y-105762619D01*
X208728571Y-105762619D02*
X208919047Y-105762619D01*
X208919047Y-105762619D02*
X209014285Y-105715000D01*
X209014285Y-105715000D02*
X209061904Y-105667380D01*
X209061904Y-105667380D02*
X209109523Y-105572142D01*
X209109523Y-105572142D02*
X209109523Y-105334047D01*
X209109523Y-105334047D02*
X209061904Y-105238809D01*
X209061904Y-105238809D02*
X209014285Y-105191190D01*
X209014285Y-105191190D02*
X208919047Y-105143571D01*
X208919047Y-105143571D02*
X208728571Y-105143571D01*
X208728571Y-105143571D02*
X208633333Y-105191190D01*
X208633333Y-105191190D02*
X208585714Y-105238809D01*
X208585714Y-105238809D02*
X208538095Y-105334047D01*
%TO.C,OLED1*%
X137605000Y-88060476D02*
X137557380Y-88203333D01*
X137557380Y-88203333D02*
X137557380Y-88441428D01*
X137557380Y-88441428D02*
X137605000Y-88536666D01*
X137605000Y-88536666D02*
X137652619Y-88584285D01*
X137652619Y-88584285D02*
X137747857Y-88631904D01*
X137747857Y-88631904D02*
X137843095Y-88631904D01*
X137843095Y-88631904D02*
X137938333Y-88584285D01*
X137938333Y-88584285D02*
X137985952Y-88536666D01*
X137985952Y-88536666D02*
X138033571Y-88441428D01*
X138033571Y-88441428D02*
X138081190Y-88250952D01*
X138081190Y-88250952D02*
X138128809Y-88155714D01*
X138128809Y-88155714D02*
X138176428Y-88108095D01*
X138176428Y-88108095D02*
X138271666Y-88060476D01*
X138271666Y-88060476D02*
X138366904Y-88060476D01*
X138366904Y-88060476D02*
X138462142Y-88108095D01*
X138462142Y-88108095D02*
X138509761Y-88155714D01*
X138509761Y-88155714D02*
X138557380Y-88250952D01*
X138557380Y-88250952D02*
X138557380Y-88489047D01*
X138557380Y-88489047D02*
X138509761Y-88631904D01*
X137652619Y-89631904D02*
X137605000Y-89584285D01*
X137605000Y-89584285D02*
X137557380Y-89441428D01*
X137557380Y-89441428D02*
X137557380Y-89346190D01*
X137557380Y-89346190D02*
X137605000Y-89203333D01*
X137605000Y-89203333D02*
X137700238Y-89108095D01*
X137700238Y-89108095D02*
X137795476Y-89060476D01*
X137795476Y-89060476D02*
X137985952Y-89012857D01*
X137985952Y-89012857D02*
X138128809Y-89012857D01*
X138128809Y-89012857D02*
X138319285Y-89060476D01*
X138319285Y-89060476D02*
X138414523Y-89108095D01*
X138414523Y-89108095D02*
X138509761Y-89203333D01*
X138509761Y-89203333D02*
X138557380Y-89346190D01*
X138557380Y-89346190D02*
X138557380Y-89441428D01*
X138557380Y-89441428D02*
X138509761Y-89584285D01*
X138509761Y-89584285D02*
X138462142Y-89631904D01*
X137557380Y-90536666D02*
X137557380Y-90060476D01*
X137557380Y-90060476D02*
X138557380Y-90060476D01*
X141097380Y-87965238D02*
X140097380Y-88298571D01*
X140097380Y-88298571D02*
X141097380Y-88631904D01*
X140192619Y-89536666D02*
X140145000Y-89489047D01*
X140145000Y-89489047D02*
X140097380Y-89346190D01*
X140097380Y-89346190D02*
X140097380Y-89250952D01*
X140097380Y-89250952D02*
X140145000Y-89108095D01*
X140145000Y-89108095D02*
X140240238Y-89012857D01*
X140240238Y-89012857D02*
X140335476Y-88965238D01*
X140335476Y-88965238D02*
X140525952Y-88917619D01*
X140525952Y-88917619D02*
X140668809Y-88917619D01*
X140668809Y-88917619D02*
X140859285Y-88965238D01*
X140859285Y-88965238D02*
X140954523Y-89012857D01*
X140954523Y-89012857D02*
X141049761Y-89108095D01*
X141049761Y-89108095D02*
X141097380Y-89250952D01*
X141097380Y-89250952D02*
X141097380Y-89346190D01*
X141097380Y-89346190D02*
X141049761Y-89489047D01*
X141049761Y-89489047D02*
X141002142Y-89536666D01*
X140192619Y-90536666D02*
X140145000Y-90489047D01*
X140145000Y-90489047D02*
X140097380Y-90346190D01*
X140097380Y-90346190D02*
X140097380Y-90250952D01*
X140097380Y-90250952D02*
X140145000Y-90108095D01*
X140145000Y-90108095D02*
X140240238Y-90012857D01*
X140240238Y-90012857D02*
X140335476Y-89965238D01*
X140335476Y-89965238D02*
X140525952Y-89917619D01*
X140525952Y-89917619D02*
X140668809Y-89917619D01*
X140668809Y-89917619D02*
X140859285Y-89965238D01*
X140859285Y-89965238D02*
X140954523Y-90012857D01*
X140954523Y-90012857D02*
X141049761Y-90108095D01*
X141049761Y-90108095D02*
X141097380Y-90250952D01*
X141097380Y-90250952D02*
X141097380Y-90346190D01*
X141097380Y-90346190D02*
X141049761Y-90489047D01*
X141049761Y-90489047D02*
X141002142Y-90536666D01*
X135065000Y-88060476D02*
X135017380Y-88203333D01*
X135017380Y-88203333D02*
X135017380Y-88441428D01*
X135017380Y-88441428D02*
X135065000Y-88536666D01*
X135065000Y-88536666D02*
X135112619Y-88584285D01*
X135112619Y-88584285D02*
X135207857Y-88631904D01*
X135207857Y-88631904D02*
X135303095Y-88631904D01*
X135303095Y-88631904D02*
X135398333Y-88584285D01*
X135398333Y-88584285D02*
X135445952Y-88536666D01*
X135445952Y-88536666D02*
X135493571Y-88441428D01*
X135493571Y-88441428D02*
X135541190Y-88250952D01*
X135541190Y-88250952D02*
X135588809Y-88155714D01*
X135588809Y-88155714D02*
X135636428Y-88108095D01*
X135636428Y-88108095D02*
X135731666Y-88060476D01*
X135731666Y-88060476D02*
X135826904Y-88060476D01*
X135826904Y-88060476D02*
X135922142Y-88108095D01*
X135922142Y-88108095D02*
X135969761Y-88155714D01*
X135969761Y-88155714D02*
X136017380Y-88250952D01*
X136017380Y-88250952D02*
X136017380Y-88489047D01*
X136017380Y-88489047D02*
X135969761Y-88631904D01*
X135017380Y-89060476D02*
X136017380Y-89060476D01*
X136017380Y-89060476D02*
X136017380Y-89298571D01*
X136017380Y-89298571D02*
X135969761Y-89441428D01*
X135969761Y-89441428D02*
X135874523Y-89536666D01*
X135874523Y-89536666D02*
X135779285Y-89584285D01*
X135779285Y-89584285D02*
X135588809Y-89631904D01*
X135588809Y-89631904D02*
X135445952Y-89631904D01*
X135445952Y-89631904D02*
X135255476Y-89584285D01*
X135255476Y-89584285D02*
X135160238Y-89536666D01*
X135160238Y-89536666D02*
X135065000Y-89441428D01*
X135065000Y-89441428D02*
X135017380Y-89298571D01*
X135017380Y-89298571D02*
X135017380Y-89060476D01*
X135303095Y-90012857D02*
X135303095Y-90489047D01*
X135017380Y-89917619D02*
X136017380Y-90250952D01*
X136017380Y-90250952D02*
X135017380Y-90584285D01*
X143589761Y-88631904D02*
X143637380Y-88536666D01*
X143637380Y-88536666D02*
X143637380Y-88393809D01*
X143637380Y-88393809D02*
X143589761Y-88250952D01*
X143589761Y-88250952D02*
X143494523Y-88155714D01*
X143494523Y-88155714D02*
X143399285Y-88108095D01*
X143399285Y-88108095D02*
X143208809Y-88060476D01*
X143208809Y-88060476D02*
X143065952Y-88060476D01*
X143065952Y-88060476D02*
X142875476Y-88108095D01*
X142875476Y-88108095D02*
X142780238Y-88155714D01*
X142780238Y-88155714D02*
X142685000Y-88250952D01*
X142685000Y-88250952D02*
X142637380Y-88393809D01*
X142637380Y-88393809D02*
X142637380Y-88489047D01*
X142637380Y-88489047D02*
X142685000Y-88631904D01*
X142685000Y-88631904D02*
X142732619Y-88679523D01*
X142732619Y-88679523D02*
X143065952Y-88679523D01*
X143065952Y-88679523D02*
X143065952Y-88489047D01*
X142637380Y-89108095D02*
X143637380Y-89108095D01*
X143637380Y-89108095D02*
X142637380Y-89679523D01*
X142637380Y-89679523D02*
X143637380Y-89679523D01*
X142637380Y-90155714D02*
X143637380Y-90155714D01*
X143637380Y-90155714D02*
X143637380Y-90393809D01*
X143637380Y-90393809D02*
X143589761Y-90536666D01*
X143589761Y-90536666D02*
X143494523Y-90631904D01*
X143494523Y-90631904D02*
X143399285Y-90679523D01*
X143399285Y-90679523D02*
X143208809Y-90727142D01*
X143208809Y-90727142D02*
X143065952Y-90727142D01*
X143065952Y-90727142D02*
X142875476Y-90679523D01*
X142875476Y-90679523D02*
X142780238Y-90631904D01*
X142780238Y-90631904D02*
X142685000Y-90536666D01*
X142685000Y-90536666D02*
X142637380Y-90393809D01*
X142637380Y-90393809D02*
X142637380Y-90155714D01*
%TO.C,H1*%
X152038095Y-48962619D02*
X152038095Y-47962619D01*
X152038095Y-48438809D02*
X152609523Y-48438809D01*
X152609523Y-48962619D02*
X152609523Y-47962619D01*
X153609523Y-48962619D02*
X153038095Y-48962619D01*
X153323809Y-48962619D02*
X153323809Y-47962619D01*
X153323809Y-47962619D02*
X153228571Y-48105476D01*
X153228571Y-48105476D02*
X153133333Y-48200714D01*
X153133333Y-48200714D02*
X153038095Y-48248333D01*
%TO.C,H4*%
X157238095Y-87762619D02*
X157238095Y-86762619D01*
X157238095Y-87238809D02*
X157809523Y-87238809D01*
X157809523Y-87762619D02*
X157809523Y-86762619D01*
X158714285Y-87095952D02*
X158714285Y-87762619D01*
X158476190Y-86715000D02*
X158238095Y-87429285D01*
X158238095Y-87429285D02*
X158857142Y-87429285D01*
%TO.C,R2*%
X140366667Y-74538095D02*
X140100000Y-74157142D01*
X139909524Y-74538095D02*
X139909524Y-73738095D01*
X139909524Y-73738095D02*
X140214286Y-73738095D01*
X140214286Y-73738095D02*
X140290476Y-73776190D01*
X140290476Y-73776190D02*
X140328571Y-73814285D01*
X140328571Y-73814285D02*
X140366667Y-73890476D01*
X140366667Y-73890476D02*
X140366667Y-74004761D01*
X140366667Y-74004761D02*
X140328571Y-74080952D01*
X140328571Y-74080952D02*
X140290476Y-74119047D01*
X140290476Y-74119047D02*
X140214286Y-74157142D01*
X140214286Y-74157142D02*
X139909524Y-74157142D01*
X140671428Y-73814285D02*
X140709524Y-73776190D01*
X140709524Y-73776190D02*
X140785714Y-73738095D01*
X140785714Y-73738095D02*
X140976190Y-73738095D01*
X140976190Y-73738095D02*
X141052381Y-73776190D01*
X141052381Y-73776190D02*
X141090476Y-73814285D01*
X141090476Y-73814285D02*
X141128571Y-73890476D01*
X141128571Y-73890476D02*
X141128571Y-73966666D01*
X141128571Y-73966666D02*
X141090476Y-74080952D01*
X141090476Y-74080952D02*
X140633333Y-74538095D01*
X140633333Y-74538095D02*
X141128571Y-74538095D01*
%TO.C,R1*%
X137766667Y-74538095D02*
X137500000Y-74157142D01*
X137309524Y-74538095D02*
X137309524Y-73738095D01*
X137309524Y-73738095D02*
X137614286Y-73738095D01*
X137614286Y-73738095D02*
X137690476Y-73776190D01*
X137690476Y-73776190D02*
X137728571Y-73814285D01*
X137728571Y-73814285D02*
X137766667Y-73890476D01*
X137766667Y-73890476D02*
X137766667Y-74004761D01*
X137766667Y-74004761D02*
X137728571Y-74080952D01*
X137728571Y-74080952D02*
X137690476Y-74119047D01*
X137690476Y-74119047D02*
X137614286Y-74157142D01*
X137614286Y-74157142D02*
X137309524Y-74157142D01*
X138528571Y-74538095D02*
X138071428Y-74538095D01*
X138300000Y-74538095D02*
X138300000Y-73738095D01*
X138300000Y-73738095D02*
X138223809Y-73852380D01*
X138223809Y-73852380D02*
X138147619Y-73928571D01*
X138147619Y-73928571D02*
X138071428Y-73966666D01*
%TO.C,SW12*%
X190475000Y-109025000D02*
X190475000Y-89975000D01*
X193000000Y-92500000D02*
X193000000Y-94500000D01*
X193000000Y-104500000D02*
X193000000Y-106500000D01*
X193000000Y-106500000D02*
X195000000Y-106500000D01*
X195000000Y-92500000D02*
X193000000Y-92500000D01*
X205000000Y-92500000D02*
X207000000Y-92500000D01*
X205000000Y-106500000D02*
X207000000Y-106500000D01*
X207000000Y-92500000D02*
X207000000Y-94500000D01*
X207000000Y-106500000D02*
X207000000Y-104500000D01*
X209525000Y-89975000D02*
X190475000Y-89975000D01*
X209525000Y-109025000D02*
X190475000Y-109025000D01*
X209525000Y-109025000D02*
X209525000Y-89975000D01*
%TO.C,SW9*%
X190475000Y-50525000D02*
X190475000Y-31475000D01*
X193000000Y-34000000D02*
X193000000Y-36000000D01*
X193000000Y-46000000D02*
X193000000Y-48000000D01*
X193000000Y-48000000D02*
X195000000Y-48000000D01*
X195000000Y-34000000D02*
X193000000Y-34000000D01*
X205000000Y-34000000D02*
X207000000Y-34000000D01*
X205000000Y-48000000D02*
X207000000Y-48000000D01*
X207000000Y-34000000D02*
X207000000Y-36000000D01*
X207000000Y-48000000D02*
X207000000Y-46000000D01*
X209525000Y-31475000D02*
X190475000Y-31475000D01*
X209525000Y-50525000D02*
X190475000Y-50525000D01*
X209525000Y-50525000D02*
X209525000Y-31475000D01*
%TO.C,SW8*%
X170975000Y-109025000D02*
X170975000Y-89975000D01*
X173500000Y-92500000D02*
X173500000Y-94500000D01*
X173500000Y-104500000D02*
X173500000Y-106500000D01*
X173500000Y-106500000D02*
X175500000Y-106500000D01*
X175500000Y-92500000D02*
X173500000Y-92500000D01*
X185500000Y-92500000D02*
X187500000Y-92500000D01*
X185500000Y-106500000D02*
X187500000Y-106500000D01*
X187500000Y-92500000D02*
X187500000Y-94500000D01*
X187500000Y-106500000D02*
X187500000Y-104500000D01*
X190025000Y-89975000D02*
X170975000Y-89975000D01*
X190025000Y-109025000D02*
X170975000Y-109025000D01*
X190025000Y-109025000D02*
X190025000Y-89975000D01*
D12*
%TO.C,ENC1*%
X131350000Y-95400000D02*
X131950000Y-95400000D01*
X131650000Y-95700000D02*
X131350000Y-95400000D01*
X131950000Y-95400000D02*
X131650000Y-95700000D01*
X133050000Y-93600000D02*
X133050000Y-105400000D01*
X137150000Y-93600000D02*
X133050000Y-93600000D01*
X137150000Y-105400000D02*
X133050000Y-105400000D01*
X138650000Y-99500000D02*
X139650000Y-99500000D01*
X139150000Y-99000000D02*
X139150000Y-100000000D01*
X141150000Y-93600000D02*
X145250000Y-93600000D01*
X145250000Y-93600000D02*
X145250000Y-96000000D01*
X145250000Y-98200000D02*
X145250000Y-100800000D01*
X145250000Y-103000000D02*
X145250000Y-105400000D01*
X145250000Y-105400000D02*
X141150000Y-105400000D01*
X142150000Y-99500000D02*
G75*
G03*
X142150000Y-99500000I-3000000J0D01*
G01*
D11*
%TO.C,SW1*%
X151475000Y-50525000D02*
X151475000Y-31475000D01*
X154000000Y-34000000D02*
X154000000Y-36000000D01*
X154000000Y-46000000D02*
X154000000Y-48000000D01*
X154000000Y-48000000D02*
X156000000Y-48000000D01*
X156000000Y-34000000D02*
X154000000Y-34000000D01*
X166000000Y-34000000D02*
X168000000Y-34000000D01*
X166000000Y-48000000D02*
X168000000Y-48000000D01*
X168000000Y-34000000D02*
X168000000Y-36000000D01*
X168000000Y-48000000D02*
X168000000Y-46000000D01*
X170525000Y-31475000D02*
X151475000Y-31475000D01*
X170525000Y-50525000D02*
X151475000Y-50525000D01*
X170525000Y-50525000D02*
X170525000Y-31475000D01*
%TO.C,SW4*%
X151475000Y-109025000D02*
X151475000Y-89975000D01*
X154000000Y-92500000D02*
X154000000Y-94500000D01*
X154000000Y-104500000D02*
X154000000Y-106500000D01*
X154000000Y-106500000D02*
X156000000Y-106500000D01*
X156000000Y-92500000D02*
X154000000Y-92500000D01*
X166000000Y-92500000D02*
X168000000Y-92500000D01*
X166000000Y-106500000D02*
X168000000Y-106500000D01*
X168000000Y-92500000D02*
X168000000Y-94500000D01*
X168000000Y-106500000D02*
X168000000Y-104500000D01*
X170525000Y-89975000D02*
X151475000Y-89975000D01*
X170525000Y-109025000D02*
X151475000Y-109025000D01*
X170525000Y-109025000D02*
X170525000Y-89975000D01*
%TO.C,SW11*%
X190475000Y-89525000D02*
X190475000Y-70475000D01*
X193000000Y-73000000D02*
X193000000Y-75000000D01*
X193000000Y-85000000D02*
X193000000Y-87000000D01*
X193000000Y-87000000D02*
X195000000Y-87000000D01*
X195000000Y-73000000D02*
X193000000Y-73000000D01*
X205000000Y-73000000D02*
X207000000Y-73000000D01*
X205000000Y-87000000D02*
X207000000Y-87000000D01*
X207000000Y-73000000D02*
X207000000Y-75000000D01*
X207000000Y-87000000D02*
X207000000Y-85000000D01*
X209525000Y-70475000D02*
X190475000Y-70475000D01*
X209525000Y-89525000D02*
X190475000Y-89525000D01*
X209525000Y-89525000D02*
X209525000Y-70475000D01*
%TO.C,SW5*%
X170975000Y-50525000D02*
X170975000Y-31475000D01*
X173500000Y-34000000D02*
X173500000Y-36000000D01*
X173500000Y-46000000D02*
X173500000Y-48000000D01*
X173500000Y-48000000D02*
X175500000Y-48000000D01*
X175500000Y-34000000D02*
X173500000Y-34000000D01*
X185500000Y-34000000D02*
X187500000Y-34000000D01*
X185500000Y-48000000D02*
X187500000Y-48000000D01*
X187500000Y-34000000D02*
X187500000Y-36000000D01*
X187500000Y-48000000D02*
X187500000Y-46000000D01*
X190025000Y-31475000D02*
X170975000Y-31475000D01*
X190025000Y-50525000D02*
X170975000Y-50525000D01*
X190025000Y-50525000D02*
X190025000Y-31475000D01*
%TO.C,SW6*%
X170975000Y-70025000D02*
X170975000Y-50975000D01*
X173500000Y-53500000D02*
X173500000Y-55500000D01*
X173500000Y-65500000D02*
X173500000Y-67500000D01*
X173500000Y-67500000D02*
X175500000Y-67500000D01*
X175500000Y-53500000D02*
X173500000Y-53500000D01*
X185500000Y-53500000D02*
X187500000Y-53500000D01*
X185500000Y-67500000D02*
X187500000Y-67500000D01*
X187500000Y-53500000D02*
X187500000Y-55500000D01*
X187500000Y-67500000D02*
X187500000Y-65500000D01*
X190025000Y-50975000D02*
X170975000Y-50975000D01*
X190025000Y-70025000D02*
X170975000Y-70025000D01*
X190025000Y-70025000D02*
X190025000Y-50975000D01*
%TO.C,SW10*%
X190475000Y-70025000D02*
X190475000Y-50975000D01*
X193000000Y-53500000D02*
X193000000Y-55500000D01*
X193000000Y-65500000D02*
X193000000Y-67500000D01*
X193000000Y-67500000D02*
X195000000Y-67500000D01*
X195000000Y-53500000D02*
X193000000Y-53500000D01*
X205000000Y-53500000D02*
X207000000Y-53500000D01*
X205000000Y-67500000D02*
X207000000Y-67500000D01*
X207000000Y-53500000D02*
X207000000Y-55500000D01*
X207000000Y-67500000D02*
X207000000Y-65500000D01*
X209525000Y-50975000D02*
X190475000Y-50975000D01*
X209525000Y-70025000D02*
X190475000Y-70025000D01*
X209525000Y-70025000D02*
X209525000Y-50975000D01*
%TO.C,SW3*%
X151475000Y-89525000D02*
X151475000Y-70475000D01*
X154000000Y-73000000D02*
X154000000Y-75000000D01*
X154000000Y-85000000D02*
X154000000Y-87000000D01*
X154000000Y-87000000D02*
X156000000Y-87000000D01*
X156000000Y-73000000D02*
X154000000Y-73000000D01*
X166000000Y-73000000D02*
X168000000Y-73000000D01*
X166000000Y-87000000D02*
X168000000Y-87000000D01*
X168000000Y-73000000D02*
X168000000Y-75000000D01*
X168000000Y-87000000D02*
X168000000Y-85000000D01*
X170525000Y-70475000D02*
X151475000Y-70475000D01*
X170525000Y-89525000D02*
X151475000Y-89525000D01*
X170525000Y-89525000D02*
X170525000Y-70475000D01*
%TO.C,SW7*%
X170975000Y-89525000D02*
X170975000Y-70475000D01*
X173500000Y-73000000D02*
X173500000Y-75000000D01*
X173500000Y-85000000D02*
X173500000Y-87000000D01*
X173500000Y-87000000D02*
X175500000Y-87000000D01*
X175500000Y-73000000D02*
X173500000Y-73000000D01*
X185500000Y-73000000D02*
X187500000Y-73000000D01*
X185500000Y-87000000D02*
X187500000Y-87000000D01*
X187500000Y-73000000D02*
X187500000Y-75000000D01*
X187500000Y-87000000D02*
X187500000Y-85000000D01*
X190025000Y-70475000D02*
X170975000Y-70475000D01*
X190025000Y-89525000D02*
X170975000Y-89525000D01*
X190025000Y-89525000D02*
X190025000Y-70475000D01*
%TO.C,SW2*%
X151475000Y-70025000D02*
X151475000Y-50975000D01*
X154000000Y-53500000D02*
X154000000Y-55500000D01*
X154000000Y-65500000D02*
X154000000Y-67500000D01*
X154000000Y-67500000D02*
X156000000Y-67500000D01*
X156000000Y-53500000D02*
X154000000Y-53500000D01*
X166000000Y-53500000D02*
X168000000Y-53500000D01*
X166000000Y-67500000D02*
X168000000Y-67500000D01*
X168000000Y-53500000D02*
X168000000Y-55500000D01*
X168000000Y-67500000D02*
X168000000Y-65500000D01*
X170525000Y-50975000D02*
X151475000Y-50975000D01*
X170525000Y-70025000D02*
X151475000Y-70025000D01*
X170525000Y-70025000D02*
X170525000Y-50975000D01*
%TO.C,R2*%
X139738000Y-82595000D02*
X139484000Y-82341000D01*
X139738000Y-82594000D02*
X141262000Y-82594000D01*
X141262000Y-82594000D02*
X141516000Y-82340000D01*
X141516000Y-82087000D02*
X141516000Y-82341000D01*
X139484000Y-82086000D02*
X139484000Y-82340000D01*
X141262000Y-81833000D02*
X141516000Y-82087000D01*
X141262000Y-81833000D02*
X141262000Y-77768000D01*
X139738000Y-81832000D02*
X139484000Y-82086000D01*
X139738000Y-77768000D02*
X139738000Y-81832000D01*
X141262000Y-77768000D02*
X141516000Y-77514000D01*
X139484000Y-77514000D02*
X139738000Y-77768000D01*
X141516000Y-77514000D02*
X141516000Y-77260000D01*
X139484000Y-77260000D02*
X139484000Y-77514000D01*
X141516000Y-77260000D02*
X141262000Y-77006000D01*
X139738000Y-77006000D02*
X139484000Y-77260000D01*
X141262000Y-77006000D02*
X139738000Y-77006000D01*
%TO.C,R1*%
X138662000Y-77005000D02*
X138916000Y-77259000D01*
X138662000Y-77006000D02*
X137138000Y-77006000D01*
X137138000Y-77006000D02*
X136884000Y-77260000D01*
X136884000Y-77513000D02*
X136884000Y-77259000D01*
X138916000Y-77514000D02*
X138916000Y-77260000D01*
X137138000Y-77767000D02*
X136884000Y-77513000D01*
X137138000Y-77767000D02*
X137138000Y-81832000D01*
X138662000Y-77768000D02*
X138916000Y-77514000D01*
X138662000Y-81832000D02*
X138662000Y-77768000D01*
X137138000Y-81832000D02*
X136884000Y-82086000D01*
X138916000Y-82086000D02*
X138662000Y-81832000D01*
X136884000Y-82086000D02*
X136884000Y-82340000D01*
X138916000Y-82340000D02*
X138916000Y-82086000D01*
X136884000Y-82340000D02*
X137138000Y-82594000D01*
X138662000Y-82594000D02*
X138916000Y-82340000D01*
X137138000Y-82594000D02*
X138662000Y-82594000D01*
%TD*%
M02*
